<svg width="64px" height="56px" viewBox="0 0 64 56" version="1.1" xmlns="http://www.w3.org/2000/svg" xmlns:xlink="http://www.w3.org/1999/xlink">
    <g id="Page-1" stroke="none" stroke-width="1" fill="none" fill-rule="evenodd">
        <rect id="Rectangle-5" stroke="#444444" stroke-width="2.5" fill="#FFFFFF" x="1.25" y="1.25" width="61.5" height="53.5"></rect>
        <path d="M62.5,10.5 L1.5,10.5" id="Line-5" stroke="#444444" stroke-width="2.5" stroke-linecap="square"></path>
        <path d="M8.734375,18.3125 L14,22.7421875 L8.734375,27.1796875 L7.5234375,25.9453125 L11.390625,22.7578125 L7.5234375,19.546875 L8.734375,18.3125 Z M27.9296875,24.5390625 C28.1067717,24.5390625 28.2747388,24.5729163 28.4335938,24.640625 C28.5924487,24.7083337 28.7304682,24.8020827 28.8476562,24.921875 C28.9648443,25.0416673 29.0572913,25.1809888 29.125,25.3398438 C29.1927087,25.4986987 29.2265625,25.6692699 29.2265625,25.8515625 C29.2265625,26.0286467 29.1927087,26.1953117 29.125,26.3515625 C29.0572913,26.5078133 28.9648443,26.6445307 28.8476562,26.7617188 C28.7304682,26.8789068 28.5924487,26.9713538 28.4335938,27.0390625 C28.2747388,27.1067712 28.1067717,27.140625 27.9296875,27.140625 C27.7473949,27.140625 27.5781258,27.1067712 27.421875,27.0390625 C27.2656242,26.9713538 27.1289068,26.8789068 27.0117188,26.7617188 C26.8945307,26.6445307 26.8020837,26.5078133 26.734375,26.3515625 C26.6666663,26.1953117 26.6328125,26.0286467 26.6328125,25.8515625 C26.6328125,25.6692699 26.6666663,25.4986987 26.734375,25.3398438 C26.8020837,25.1809888 26.8945307,25.0416673 27.0117188,24.921875 C27.1289068,24.8020827 27.2656242,24.7083337 27.421875,24.640625 C27.5781258,24.5729163 27.7473949,24.5390625 27.9296875,24.5390625 Z M36.7265625,24.5390625 C36.9036467,24.5390625 37.0716138,24.5729163 37.2304688,24.640625 C37.3893237,24.7083337 37.5273432,24.8020827 37.6445312,24.921875 C37.7617193,25.0416673 37.8541663,25.1809888 37.921875,25.3398438 C37.9895837,25.4986987 38.0234375,25.6692699 38.0234375,25.8515625 C38.0234375,26.0286467 37.9895837,26.1953117 37.921875,26.3515625 C37.8541663,26.5078133 37.7617193,26.6445307 37.6445312,26.7617188 C37.5273432,26.8789068 37.3893237,26.9713538 37.2304688,27.0390625 C37.0716138,27.1067712 36.9036467,27.140625 36.7265625,27.140625 C36.5442699,27.140625 36.3750008,27.1067712 36.21875,27.0390625 C36.0624992,26.9713538 35.9257818,26.8789068 35.8085938,26.7617188 C35.6914057,26.6445307 35.5989587,26.5078133 35.53125,26.3515625 C35.4635413,26.1953117 35.4296875,26.0286467 35.4296875,25.8515625 C35.4296875,25.6692699 35.4635413,25.4986987 35.53125,25.3398438 C35.5989587,25.1809888 35.6914057,25.0416673 35.8085938,24.921875 C35.9257818,24.8020827 36.0624992,24.7083337 36.21875,24.640625 C36.3750008,24.5729163 36.5442699,24.5390625 36.7265625,24.5390625 Z M45.5234375,24.5390625 C45.7005217,24.5390625 45.8684888,24.5729163 46.0273438,24.640625 C46.1861987,24.7083337 46.3242182,24.8020827 46.4414062,24.921875 C46.5585943,25.0416673 46.6510413,25.1809888 46.71875,25.3398438 C46.7864587,25.4986987 46.8203125,25.6692699 46.8203125,25.8515625 C46.8203125,26.0286467 46.7864587,26.1953117 46.71875,26.3515625 C46.6510413,26.5078133 46.5585943,26.6445307 46.4414062,26.7617188 C46.3242182,26.8789068 46.1861987,26.9713538 46.0273438,27.0390625 C45.8684888,27.1067712 45.7005217,27.140625 45.5234375,27.140625 C45.3411449,27.140625 45.1718758,27.1067712 45.015625,27.0390625 C44.8593742,26.9713538 44.7226568,26.8789068 44.6054688,26.7617188 C44.4882807,26.6445307 44.3958337,26.5078133 44.328125,26.3515625 C44.2604163,26.1953117 44.2265625,26.0286467 44.2265625,25.8515625 C44.2265625,25.6692699 44.2604163,25.4986987 44.328125,25.3398438 C44.3958337,25.1809888 44.4882807,25.0416673 44.6054688,24.921875 C44.7226568,24.8020827 44.8593742,24.7083337 45.015625,24.640625 C45.1718758,24.5729163 45.3411449,24.5390625 45.5234375,24.5390625 Z M27.9296875,40.5390625 C28.1067717,40.5390625 28.2747388,40.5729163 28.4335938,40.640625 C28.5924487,40.7083337 28.7304682,40.8020827 28.8476562,40.921875 C28.9648443,41.0416673 29.0572913,41.1809888 29.125,41.3398438 C29.1927087,41.4986987 29.2265625,41.6692699 29.2265625,41.8515625 C29.2265625,42.0286467 29.1927087,42.1953117 29.125,42.3515625 C29.0572913,42.5078133 28.9648443,42.6445307 28.8476562,42.7617188 C28.7304682,42.8789068 28.5924487,42.9713538 28.4335938,43.0390625 C28.2747388,43.1067712 28.1067717,43.140625 27.9296875,43.140625 C27.7473949,43.140625 27.5781258,43.1067712 27.421875,43.0390625 C27.2656242,42.9713538 27.1289068,42.8789068 27.0117188,42.7617188 C26.8945307,42.6445307 26.8020837,42.5078133 26.734375,42.3515625 C26.6666663,42.1953117 26.6328125,42.0286467 26.6328125,41.8515625 C26.6328125,41.6692699 26.6666663,41.4986987 26.734375,41.3398438 C26.8020837,41.1809888 26.8945307,41.0416673 27.0117188,40.921875 C27.1289068,40.8020827 27.2656242,40.7083337 27.421875,40.640625 C27.5781258,40.5729163 27.7473949,40.5390625 27.9296875,40.5390625 Z M36.7265625,40.5390625 C36.9036467,40.5390625 37.0716138,40.5729163 37.2304688,40.640625 C37.3893237,40.7083337 37.5273432,40.8020827 37.6445312,40.921875 C37.7617193,41.0416673 37.8541663,41.1809888 37.921875,41.3398438 C37.9895837,41.4986987 38.0234375,41.6692699 38.0234375,41.8515625 C38.0234375,42.0286467 37.9895837,42.1953117 37.921875,42.3515625 C37.8541663,42.5078133 37.7617193,42.6445307 37.6445312,42.7617188 C37.5273432,42.8789068 37.3893237,42.9713538 37.2304688,43.0390625 C37.0716138,43.1067712 36.9036467,43.140625 36.7265625,43.140625 C36.5442699,43.140625 36.3750008,43.1067712 36.21875,43.0390625 C36.0624992,42.9713538 35.9257818,42.8789068 35.8085938,42.7617188 C35.6914057,42.6445307 35.5989587,42.5078133 35.53125,42.3515625 C35.4635413,42.1953117 35.4296875,42.0286467 35.4296875,41.8515625 C35.4296875,41.6692699 35.4635413,41.4986987 35.53125,41.3398438 C35.5989587,41.1809888 35.6914057,41.0416673 35.8085938,40.921875 C35.9257818,40.8020827 36.0624992,40.7083337 36.21875,40.640625 C36.3750008,40.5729163 36.5442699,40.5390625 36.7265625,40.5390625 Z M47.921875,39.3828125 L43.25,39.3828125 L43.25,38.1015625 L47.921875,38.1015625 L47.921875,39.3828125 Z" id="&gt;-...-..-" fill="#444444"></path>
    </g>
</svg>
