<?xml version="1.0" standalone="no"?>
<!DOCTYPE svg PUBLIC "-//W3C//DTD SVG 20010904//EN"
 "http://www.w3.org/TR/2001/REC-SVG-20010904/DTD/svg10.dtd">
<svg version="1.0" xmlns="http://www.w3.org/2000/svg"
 width="700.000000pt" height="700.000000pt" viewBox="0 0 700.000000 700.000000"
 preserveAspectRatio="xMidYMid meet">
<metadata>
Created by potrace 1.11, written by Peter Selinger 2001-2013
</metadata>
<g transform="translate(0.000000,700.000000) scale(0.100000,-0.100000)"
fill="#000000" stroke="none">
<path d="M3967 4988 c-235 -457 -1627 -3206 -1627 -3212 0 -4 111 -5 247 -4
l248 3 872 1720 c479 946 872 1723 872 1728 1 4 -109 7 -243 7 l-245 0 -124
-242z"/>
<path d="M1285 4253 c-655 -328 -1193 -600 -1198 -607 -4 -6 -6 -18 -5 -27 3
-14 1483 -1329 1497 -1329 3 0 73 192 154 427 l148 426 -25 21 c-14 12 -198
174 -410 361 l-384 340 651 327 652 326 57 163 c32 89 57 163 55 165 -1 1
-537 -266 -1192 -593z"/>
<path d="M5375 4573 c-54 -153 -121 -346 -151 -429 l-53 -152 405 -357 c222
-197 404 -361 404 -365 0 -4 -291 -154 -647 -333 l-648 -326 -54 -156 c-29
-85 -51 -158 -48 -161 2 -3 540 263 1195 590 908 454 1191 600 1195 615 4 16
-14 37 -81 99 -99 90 -1379 1220 -1403 1240 -15 11 -27 -19 -114 -265z"/>
</g>
</svg>
