<?xml version="1.0" encoding="utf-8"?>
<!-- Generator: Adobe Illustrator 19.1.0, SVG Export Plug-In . SVG Version: 6.00 Build 0)  -->
<svg version="1.1" id="Layer_1" xmlns="http://www.w3.org/2000/svg" xmlns:xlink="http://www.w3.org/1999/xlink" x="0px" y="0px"
	 viewBox="233 -180.3 750 500" style="enable-background:new 233 -180.3 750 500;" xml:space="preserve">
<style type="text/css">
	.st0{fill:#FF9F9F;}
	.st1{fill:#CAE5FF;stroke:#A4D2FF;stroke-miterlimit:10;}
	.st2{fill:none;stroke:#000000;stroke-width:0.75;stroke-miterlimit:10;stroke-dasharray:1,1;}
	.st3{fill:none;stroke:#000000;stroke-width:1.5;stroke-miterlimit:10;}
	.st4{fill:none;stroke:#000000;stroke-width:0.75;stroke-miterlimit:10;stroke-dasharray:2,1;}
	.st5{fill:none;}
	.st6{fill:none;stroke:#000000;stroke-miterlimit:10;}
	.st7{fill:none;stroke:#000000;stroke-width:0.5;stroke-miterlimit:10;}
</style>
<g id="Topo">
	<path class="st0" d="M571.1-26.4c-2.3-1.9-5.8-1-6.5,1.9c-0.3,1.3,1.6,1.8,1.9,0.5c3.5-0.7,5,0.5,4.5,3.4c-0.1,1.4-0.2,2.8-0.5,4.2
		c-0.3,1.6-0.6,3.1-1,4.7c-1,4-2.6,7.9-4.6,11.6c-4,7.2-10.9,15.7-19.4,17.4c-14.2,3-6.9-17.5-3.5-23.7c3.5-6.4,10.4-17.7,18.7-17.5
		c1.3,0,1.3-2,0-2c-6-0.1-10.1,4.4-13.7,8.8c-4.3,5.2-8,11-10.2,17.5c-1.5,4.4-3.6,12.4-0.7,16.6c2.8,4.1,9.5,2.8,13.2,1.2
		c11.9-5,19.8-18.8,22.6-30.9C572.8-16.5,574.7-23.4,571.1-26.4z"/>
	<path class="st0" d="M561.5-20.6c-0.6,0.3-0.1,1.2,0.5,0.9c1.9-1,1.1,4.2,1.1,4.4c-0.2,1.6-0.5,3.2-0.9,4.7
		c-0.7,2.9-1.7,5.7-2.9,8.4c-1.1,2.5-2.5,4.9-4.1,7.1c-1.7,2.5-3.9,5.6-6.7,7.1c-2.6,1.4-5.4,0.8-6-2.3c-0.4-1.8,0.3-3.6,1-5.3
		c1.2-2.6,2.7-5.2,4.2-7.7c3.2-5.5,6.8-10.7,10.7-15.7c0.4-0.5-0.3-1.2-0.7-0.7c-5.5,7-10.5,14.6-14.5,22.6
		c-1.4,2.8-2.9,6.3-0.9,9.2c1.5,2.2,4.2,2.3,6.4,1.1c3.1-1.6,5.4-4.9,7.3-7.7c2.4-3.4,4.3-7.1,5.7-11.1c1.3-3.7,2.1-7.5,2.5-11.4
		C564.4-18.6,564.1-22,561.5-20.6z"/>
	<path class="st0" d="M583.5-108.4c-19.3,21.2-7,54-23.6,76.4c-0.4,0.5,0.5,1,0.9,0.5c16.5-22.4,4.3-55.2,23.4-76.2
		C584.6-108.2,583.9-108.9,583.5-108.4z"/>
	<path class="st0" d="M671.5-132.2c-13.8,1.4-27.1,6.7-38,15.3c-11.2,8.9-19.7,20.7-28,32.2c-0.4,0.5,0.5,1,0.9,0.5
		c7.9-11,16-22.2,26.5-30.9c11-9.1,24.5-14.6,38.6-16.1C672.2-131.2,672.2-132.2,671.5-132.2z"/>
	<path class="st0" d="M676.8-143.2c-8.2-1.1-15.9,2.6-23.3,5.7c-7.2,3.1-14.3,6.2-21.3,9.8c-13.1,6.8-25.4,15.5-34.1,27.7
		c-0.4,0.5,0.5,1,0.9,0.5c8.6-12,20.8-20.5,33.8-27.3c6.3-3.3,12.9-6.2,19.5-9.1c7.8-3.3,16-7.5,24.7-6.4
		C677.5-142.1,677.5-143.1,676.8-143.2z"/>
	<path class="st0" d="M727.9-151c1.5-2.4,2.2-5-1-6.1c-5-1.7-10.3,1.3-14,4.4c-5.1,4.2-9.6,9.5-13.9,14.5
		c-4.4,5.1-8.5,10.5-12.3,16.1c-3.4,4.9-6.7,10.1-8.4,15.9c-0.8,2.8-2,9.2,2.3,10c4.1,0.8,7-5.1,8.2-8.1c1-2.5,1.8-5.2,2.9-7.7
		c1.4-3.2,3.4-5.4,6.2-7.5c5.4-4.1,9.2-9.4,13.3-14.6c3.7-4.7,7.8-9,12.5-12.7c0,0.4,0.5,0.7,0.8,0.3c0.5-0.6,1.3-1.5,2.1-2.5
		c0.5-0.3,0.9-0.7,1.4-1C728.4-150.4,728.2-150.9,727.9-151z M715.7-141.1c-3.5,3.7-6.4,7.8-9.6,11.7c-1.4,1.8-2.9,3.6-4.6,5.3
		c-1.9,1.9-4.2,3.4-6.2,5.2c-3,2.6-4.5,6-5.8,9.7c-0.8,2.1-1.5,4.3-2.5,6.3s-2.8,5.2-5.3,5.6c-4.5,0.7-3.3-5.7-2.8-7.9
		c0.7-2.8,1.9-5.5,3.2-8.1c5.2-9.8,12.5-18.7,19.8-27c4-4.5,8.2-9.4,13.1-12.9c2.5-1.8,5.4-3.3,8.5-3.3c0.8,0,1.8,0,2.6,0.3
		c2.1,1,1.7,3.1,0.8,4.5c-0.5,0.7-1,1.4-1.5,2.1C722-147.1,718.7-144.3,715.7-141.1z"/>
	<path class="st0" d="M750.6-233.1c-4.6,12.9-9.3,25.9-17.1,37.2c-7.7,11.2-18.6,20.3-30.2,27.2c-12.2,7.3-25.7,10.2-39.4,13.5
		c-12.8,3.1-25.3,7.3-37.3,12.8c-13.2,6.1-25.6,13.7-37.1,22.6c-0.5,0.4,0.2,1.1,0.7,0.7c21.9-16.9,47.1-28.7,73.9-35.1
		c13.4-3.2,26.8-6.1,38.8-13.1c11.1-6.5,21.5-14.9,29.3-25.2c9.1-12,14.2-26.3,19.2-40.3C751.8-233.5,750.8-233.7,750.6-233.1z"/>
	<path class="st0" d="M505.5,158.1c-2.5,0.1-5,4.1-6.5,5.7c-4.6,5.1-9,10.5-11.6,16.8c-0.8,1.8-4.7,11.7,0.2,11.6
		c0.8,0,1.4-0.6,1.9-1.2c1.3-1.7,2.2-4,3.2-5.9c1.5-2.9,3-5.8,4.5-8.7c2.1-2.3,4-4.6,5.8-7.2c1.6-2.4,4.2-5.6,4.5-8.5
		C507.6,159.4,507,158,505.5,158.1z M505.8,162.5c-0.3,0.6-0.7,1.3-1,1.9c-0.8,1.5-1.7,3-2.7,4.4c-0.9,1.4-1.9,2.7-2.9,3.9
		c0.1-0.1,0.1-0.2,0.2-0.3c0.3-0.6-0.6-1.1-0.9-0.5c-0.7,1.3-1.4,2.7-2.1,4c-0.2,0.2-0.5,0.5-0.7,0.7s-0.2,0.5,0,0.6
		c-0.7,1.3-1.4,2.7-2.1,4l-2.4,4.7c-0.4,0.7-0.7,1.4-1.1,2.1c-0.2,0.3-0.8,2.1-1.2,2.3c-0.8-0.1-1.6-0.3-2.4-0.4
		c-0.1-0.4-0.2-0.8-0.2-1.3c0-0.8,0.2-1.5,0.4-2.3c0.3-1.4,0.8-2.8,1.3-4.2c1.1-3,2.7-5.8,4.5-8.4c1.7-2.6,3.7-5,5.7-7.4
		c1-1.1,2-2.3,3-3.4c0.5-0.6,2.8-3.6,3.5-3.6c0.6,0.6,1.2,1.1,1.8,1.7C506.3,161.6,506.1,162.1,505.8,162.5z"/>
	<path class="st0" d="M529.7,111.1c-0.1-0.2-0.4-0.4-0.6-0.3c-6.3,2.3-12.2,5.1-17.9,8.6c1.2-0.9,2.5-1.8,3.9-2.5
		c0.6-0.3,0.1-1.2-0.5-0.9c-6,3.4-11.1,8.5-14.4,14.6c-1.1,2-7,13.1-0.9,12.3c1.1-0.1,2-0.9,2.8-1.6c1.7-1.4,3.3-2.8,4.9-4.2
		c3.3-2.8,6.5-5.7,9.7-8.6c3.1-2.9,6.2-6,9.1-9.1C527.7,117,530.6,114.4,529.7,111.1z M523.1,120.5c-2.1,2.2-4.3,4.4-6.5,6.5
		c-4.6,4.3-9.4,8.4-14.2,12.5c-0.5,0.4-1.6,1.6-2.1,1.7c-0.9-0.4-1.9-0.8-2.8-1.3c0.1-0.4,0.2-0.7,0.3-1.1c0.3-1.2,0.7-2.4,1.2-3.6
		c1-2.6,2.3-5,3.8-7.3c1.5-2.2,3.2-4.2,5.1-6c0.1,0.2,0.4,0.2,0.6,0.1c6.4-4.2,13.2-7.6,20.4-10.3
		C529.2,115.2,525.1,118.4,523.1,120.5z"/>
	<path class="st0" d="M550.9,75c-1.7-3.7-6-4.1-9.5-3.2c-7-0.4-13.9,2.3-20,5.9c-5.7,3.3-12.2,8.7-10.3,16.1
		c2,7.8,11.3,6.2,17.1,4.2c7.5-2.6,14.2-7.2,19.2-13.3C549.5,82.1,552.5,78.6,550.9,75z M548,82.2c-2.4,3.4-5.4,6.3-8.7,8.8
		c-3,2.3-6.4,4.1-10,5.5s-8.1,2.9-12,2c-4.6-1-6.3-5.7-5.2-9.9c1.1-4,4.6-6.9,8-9.1c7.4-4.7,16.3-8.4,25.1-6.2
		c0.6,0.2,0.9-0.8,0.3-1c-0.1,0-0.1,0-0.2,0c1.7,0.1,3.2,0.8,4.2,2.3C551.3,77.4,549.6,80,548,82.2z"/>
	<path class="st0" d="M573.5,110c-2.5-0.3-5.2,0.9-7.3,2.2c-3.2,1.8-6.2,4-9.2,6.1c-4.4,3-8.6,6.2-12.9,9.4c-4.5,2.9-8.8,6-12.9,9.5
		c-4.5,3.8-9.2,8-12.7,12.8c-2.2,3-1.8,6.7,2,8c4.4,1.5,7.9-1.9,10.5-5c4.1-4.9,7.8-10.8,13.2-14.4c5.2-3.5,10.9-6.1,16.1-9.6
		c2.8-1.8,5.5-3.8,8.1-5.8c2.2-1.7,4.8-3.5,6.6-5.6C577.3,114.9,577.9,110.5,573.5,110z M572.1,119c-4.1,3.5-8.5,6.7-13,9.6
		c-4.1,2.7-8.4,5.2-12.8,7.6c-4,2.2-6.9,5.1-9.8,8.6c-2.9,3.5-5.6,7.8-9.3,10.7c-2,1.6-4.5,2.5-6.9,1.3c-3.9-1.9-1.7-5.6,0.4-8
		c5.4-6.1,11.5-11.6,18.1-16.4c0.2,0.2,0.5,0.2,0.7,0c1.6-1.3,3.3-2.6,4.9-3.8c0.7-0.5,1.5-0.9,2.2-1.4c0.2-0.1,0.3-0.3,0.2-0.5
		c6.1-4.6,12.3-9.1,18.7-13.1c2.1-1.3,5.1-3.2,7.7-2.7C578.9,112.1,574.2,117.2,572.1,119z"/>
	<path class="st0" d="M622.9,52.1C609.4,57,609.3,74,606.1,85.6c-1.1,3.8-2.4,7.6-3.7,11.3c-1.3,3.8-2.6,7.6-4.6,11
		c-3.6,6.1-9.5,10.4-13,16.7c-3.1,5.8-4.9,12.2-6.8,18.6c-0.9,3.2-1.9,6.5-3,9.7c-1.3,3.7-3.2,6.7-7.6,6.3
		c-5.3-0.5-10.3-4.1-15.8-2.9c-4.3,0.9-7.3,4.5-9.9,7.9c-2.9,3.8-5.9,8.4-10.7,9.8c-3.4,1-7.1,0.1-10.6,0.9c-2.7,0.6-5.3,2-7.5,3.7
		c-5.7,4.4-8.8,11-12.1,17.2c-3.5,6.6-7.7,12.6-12.9,18c-4.7,4.8-14.4,14.2-19.3,4.4c-3.7-7.4,0.1-16,3.7-22.6
		c3.2-5.8,6.9-11.6,7.7-18.3c0.5-4-0.2-8-0.6-12c-0.3-3.3-0.4-6.7-0.2-10c1.7-27.3,18.5-50.8,22.5-77.6c0.5-3,0.7-6.1,0.8-9.2
		c0-0.6-1-0.6-1,0c-0.8,28.2-18.2,52.2-22.5,79.6c-1.1,6.9-1,13.6-0.3,20.5c0.4,4.1,0.6,8.2-0.6,12.2c-1.1,3.8-3,7.3-4.9,10.8
		c-3.3,5.9-6.9,12-7.2,19c-0.2,5,1.8,12.3,7.7,13c5.9,0.6,11.4-5.6,15-9.4c5-5.2,9.1-11.1,12.5-17.5c3.7-6.9,7.1-14.4,13.9-18.7
		c3.7-2.3,7.3-2.5,11.5-2.6c2.6-0.1,5.1-0.5,7.4-1.9c4-2.5,6.5-6.7,9.4-10.2c1.5-1.9,3.3-3.8,5.4-5c2.8-1.6,5.9-1.4,8.9-0.6
		c4.4,1.2,10.4,4.5,14.6,1.1c2.1-1.7,2.9-4.4,3.7-6.8c1.1-3.2,2-6.4,3-9.7c2-6.8,4-13.8,7.9-19.9c2.2-3.3,5-6,7.6-8.9
		c2.4-2.7,4.3-5.7,5.7-9c3-6.9,5.5-14.4,7.3-21.8c1.8-7.5,2.4-15.6,6.6-22.3c2.1-3.3,5-5.9,8.7-7.3
		C623.8,52.9,623.6,51.9,622.9,52.1z"/>
	<path class="st0" d="M678.7,26.3c-12.6-1.7-25.6,0.6-36.8,6.6c-12.3,6.6-22.3,17.5-32,27.3c-0.5,0.5,0.3,1.2,0.7,0.7
		c9.4-9.6,19.1-20.2,31-26.8c11.2-6.2,24.3-8.6,37-6.9C679.4,27.4,679.4,26.4,678.7,26.3z"/>
	<path class="st0" d="M490.1,240.5c-4.9,0.2-9.7,0.3-14.6,0.1c-4.1-0.1-8.6,0-12.6-1.2c-1.7-0.5-3.8-1.4-4.8-3
		c-1.2-1.8-0.3-3.5-0.5-5.4c-0.3-2.4-2.4-2.8-4.5-2.6c-8.1,0.9-13,6.7-16.7,13.4c-3.7,6.8-9,12.1-14.5,17.5
		c-5.7,5.6-11.4,11.3-14.6,18.6c-0.3,0.6,0.6,1.1,0.9,0.5c5.7-12.8,18.4-20.2,26.2-31.3c2.3-3.2,3.8-6.9,6.1-10.1
		c2.6-3.5,6.4-6.1,10.6-7.2c0.9-0.2,2.2-0.7,3.1-0.5c0.5,0.1,2.2,1.9,2.4,2.5c0.1,0.3-0.2,1.3-0.2,1.5c-0.1,1.1,0,2.1,0.5,3.1
		c1.1,2,3.3,3.1,5.4,3.8c3.9,1.2,8.2,1.2,12.2,1.3c5.2,0.2,10.4,0.2,15.6-0.1C490.8,241.4,490.8,240.4,490.1,240.5z"/>
	<path class="st0" d="M600.4,184.3c-21.6,8-43.3,15.6-64.7,24c-8.5,3.3-17,7.2-24.1,13c-6.8,5.6-11.4,13-15.6,20.7
		c-4.8,8.8-9.5,17.9-17.5,24.2c-0.5,0.4,0.2,1.1,0.7,0.7c13.8-10.8,17.4-29.4,29.5-41.6c7-7.1,16.1-11.6,25.3-15.3
		c9.9-4,20-7.5,30-11.2c12.2-4.5,24.4-9,36.6-13.5C601.2,185,601,184.1,600.4,184.3z"/>
	<path class="st0" d="M675.3,180.8c-8.4-5.4-15.2-13.1-19.4-22.3c-1.8-3.9-3-8.3-6.5-11.2c-2.6-2.2-6-3-9.4-2.9
		c-8.4,0.3-15,5.5-20.1,11.8c-3.1,3.8-5.8,8-9,11.7c-3.4,4-7.3,7.2-11.7,9.9c-10.9,6.6-22.7,12.1-34,18.1c-0.6,0.3-0.1,1.2,0.5,0.9
		c9.7-5.1,19.5-10.1,29.1-15.3c4-2.2,8-4.5,11.6-7.5c3.4-2.9,6.2-6.4,8.8-9.9c5.5-7.4,11-15.5,20.5-18c4.3-1.1,9.1-0.9,12.7,1.8
		c3.9,3,5,8,7.1,12.2c4.3,8.8,11,16.3,19.2,21.6C675.3,182.1,675.8,181.2,675.3,180.8z"/>
	<path class="st0" d="M649.7,178.3c-1.3-5.7-6-9.6-11.3-11.6c-3.3-1.2-6.8-1.8-10.2-2.2c-2.8-0.3-6.1-1.1-8.5,0.8
		c-1.8,1.5-2.5,3.9-3,6c-0.8,3.2-1.5,6.1-3.4,8.9c-4.3,6.2-11.5,9.5-18.5,11.5c-7.7,2.2-15.7,3.3-23.3,6.1
		c-7.4,2.7-14.5,6.1-21.6,9.4c-13,6-26,12.8-36.1,23.1c-10.8,11.2-17.3,26.1-18.3,41.5c0,0.6,1,0.6,1,0c0.9-13.8,6.2-27.2,15.2-37.8
		c8.9-10.5,21-17.5,33.3-23.5c13.4-6.5,26.9-12.7,41.5-15.9c11.1-2.4,24.8-5.8,29.6-17.5c1.1-2.7,1.3-5.6,2.3-8.2
		c2-5.2,7.7-3.7,12.2-3c7.6,1.2,16.1,4.4,18.1,12.7C648.9,179.2,649.8,178.9,649.7,178.3z"/>
	<path class="st0" d="M749.4,169.7c-18.1,0.7-25.9-19.5-32-33c-3.3-7.2-7.2-14.2-13.4-19.3c-6.7-5.5-14.3-9.2-19.7-16.2
		c-4.8-6.1-9.2-12.1-17.2-13.7c-7.2-1.4-15.8,0.1-21.8,4.5c-4.9,3.6-8.1,11.1-3.8,16.5c4,5.1,11.4,3.8,17,3.4
		c4.5-0.3,8.9-0.2,12.9,2.3c3.9,2.4,6.7,6.3,8.3,10.5c4.1,10.4,0.5,21.9-2.6,32.1c-0.2,0.6,0.8,0.9,1,0.3c4.3-13.8,8.9-32.8-5.1-43
		c-5.7-4.2-12.2-3.2-18.9-2.8c-3.6,0.2-7.6,0.3-10.6-2c-3.7-3-3.8-8.4-1.5-12.3c4.4-7.5,16-9.8,23.9-8.5c9.1,1.5,13.4,8.5,18.8,15.1
		c5.4,6.5,13.2,10,19.4,15.5c6.2,5.4,9.8,12.8,13.1,20.1c6,13.4,14.4,32.4,32.1,31.7C750,170.6,750,169.6,749.4,169.7z"/>
	<path class="st0" d="M819.1,69.1c-3.8,2.3-8.3,2.9-12.3,4.8s-6.1,4.9-7.3,9.1c-1.4,5-2.6,9.6-5.5,13.9c-2.9,4.4-6.9,8-11.5,10.4
		c-9.9,5.2-21.6,4.9-32.4,4.2c-5.2-0.3-12.2-0.2-15-5.5c-2.4-4.5-0.6-10.2,0.5-14.9c2.5-10.2,2.1-20.6-1.3-30.4
		c0.1-0.1,0.2-0.2,0.3-0.4c0.1-0.9,0-1.5-0.4-2.3c-0.2-0.6-1.3-1.9-1.2-2.5c0.7-0.5,1.5-0.9,2.2-1.4c0.5,0.5,1,1,1.4,1.6
		c0.4,0.5,0.8,1.1,1.3,1.5c1.8,1.7,4.1,2.8,6.6,3.1c7,1.1,10.9-3.6,14.5-8.8c4.6-6.7,12.8-11.4,21.1-8.7c7.2,2.3,11.7,9.3,18.3,12.8
		c0.6,0.3,1.1-0.6,0.5-0.9c-5.7-3.1-9.7-8.4-15.4-11.5c-4.9-2.6-10.6-2.7-15.6-0.6c-2.6,1.1-4.9,2.6-6.8,4.6
		c-2.4,2.5-3.9,5.6-6.1,8.2c-4.7,5.4-13,5.4-17.5-0.3c-1-1.3-2.9-3.8-4.8-2.2c-1,0.9-0.9,2.1-0.4,3.3c-0.3,0-0.6,0.4-0.5,0.8
		c2.7,6,4.2,12.4,4.5,19c0.2,6.1-1,11.8-2.3,17.7c-0.9,3.9-1.7,8.4,0,12.2c1.8,4,5.8,5.5,9.8,6c10.5,1.4,22.4,1.9,32.7-1.1
		c9.4-2.8,17.1-9.4,21.1-18.4c2.4-5.3,2.2-12.8,7.4-16.4c4.4-3,10-3.3,14.6-6.1C820.2,69.7,819.7,68.8,819.1,69.1z"/>
	<path class="st0" d="M827.8-48.6c-4.7,3.8-10.8,5.1-15.9,8.3c-4.6,2.8-8.2,6.8-11.5,11c-3.4,4.4-6.8,9.2-8.4,14.6
		c-1.8,6.1-0.4,12.3,1.1,18.3c0.2,0.6,1.1,0.4,1-0.3c-1.6-6.3-2.9-12.7-0.7-19c1.9-5.5,5.7-10.5,9.3-15c3.4-4.2,7.3-7.8,12.2-10.3
		c4.6-2.3,9.5-3.8,13.6-7.1C829-48.3,828.3-49,827.8-48.6z"/>
	<path class="st0" d="M859.7-90.4c-1.7-6.6-5-13-4.2-20c0.1-0.6-0.9-0.6-1,0c-0.6,6,1.6,11.4,3.3,17c1.6,5.3,2.9,10.9,2.6,16.5
		c-0.3,5.9-2.6,11.2-7,15.3c-4,3.7-8.9,6.2-13.8,8.6c-0.6,0.3-0.1,1.1,0.5,0.9c9.6-4.8,19.4-10.6,21-22.2
		C862-79.7,861.1-85.2,859.7-90.4z"/>
	<path class="st0" d="M853.3-89.2c-0.2-4.2-1-8.2-2.6-12c-0.3-0.6-1.1-0.1-0.9,0.5c3,6.8,3.2,15.4,2.5,22.7
		c-0.7,8.2-6.8,11.7-13.7,14.7c-0.6,0.3-0.1,1.1,0.5,0.9c6.5-2.8,12.8-6.3,14-13.9C853.7-80.5,853.5-85,853.3-89.2z"/>
	<path class="st0" d="M628.8,3.7c-12.3,4.3-24.3,9.4-36.4,14.4c-0.6,0.2-0.3,1.2,0.3,1c12.1-4.9,24.1-10,36.4-14.4
		C629.7,4.5,629.4,3.5,628.8,3.7z"/>
	<path class="st0" d="M822.8-176.2c-8.5,0.8-17.2,1.7-25.3,4.6c-7.8,2.7-14.3,7.6-20.4,13c-7.1,6.4-14,13.2-21,19.7
		c-6.3,6-12.7,13.4-21.4,15.9c-0.1,0-0.2,0.1-0.3,0.2c-17.3,5.9-30.5,20.3-37.7,36.9c-4.2,9.7-6,19.7-6.7,30.2
		c-0.8,12.1-1.2,25.8-10.1,35.2c-4.9,5.2-11.7,6.4-18.1,9.1c-6.1,2.5-11.5,6.2-16.2,10.8c-0.5,0.5,0.2,1.2,0.7,0.7
		c4.4-4.3,9.5-7.9,15.2-10.3c5.4-2.4,11.4-3.4,16.2-7c8-6.1,11.1-16.3,12.2-25.9c0.8-6.7,0.8-13.5,1.6-20.2
		c0.6-5.2,1.8-10.3,3.4-15.3c3.2-9.7,8.3-18.8,15.1-26.5c7.6-8.6,17.4-15,28.6-17.8c0.3-0.1,0.4-0.4,0.3-0.6
		c5.7-2.8,10.2-7.5,14.8-11.8c6.9-6.5,13.8-13.1,20.8-19.6c6.4-6,13.2-11.8,21.5-15.1c8.5-3.3,17.7-4.2,26.7-5.1
		C823.4-175.3,823.5-176.3,822.8-176.2z"/>
	<path class="st0" d="M703.8-50.9c-0.1-0.6-1.1-0.6-1,0c1.4,10.4-2.6,20.6-9.1,28.6c-2.9,3.5-6.2,6.7-9.7,9.5
		c-4.4,3.6-9.8,7.7-15.9,6.3c-0.6-0.1-0.9,0.8-0.3,1c5.2,1.2,10-1.4,14.1-4.5c4.3-3.2,8.4-6.9,11.9-11
		C700.9-29.3,705.3-39.9,703.8-50.9z"/>
	<path class="st0" d="M838.8-168.2c-15-2.7-30.8,1.2-42.8,10.6c-6.7,5.2-10.9,12.6-17,18.4c-4.5,4.3-10.5,6.6-15.2,10.4
		c-0.1,0-0.2,0-0.2,0.1c-7.5,5.9-14.9,12.1-22.7,17.8c-3.8,2.8-7.8,5.3-12.3,6.8c-3.6,1.3-7.3,2.2-10.7,4.1
		c-11.4,6.6-16,20.6-16.6,33.1c0,0.6,1,0.6,1,0c0.7-13.9,6.4-29,20.4-34.2c3.6-1.3,7.3-2.3,10.8-4c3.6-1.8,6.8-4.1,10-6.6
		c5.5-4.2,10.9-8.6,16.4-12.9c0.1,0.3,0.6,0.5,0.9,0.1c4.7-6.2,12.7-8.3,18.3-13.4c5.9-5.3,9.8-12.3,15.9-17.5
		c11.9-10.2,28.2-14.6,43.5-11.8C839.2-167.1,839.5-168.1,838.8-168.2z"/>
	<path class="st0" d="M832.1-123.5c-0.6,5.2-2,12.8-8.2,14c-3.5,0.7-7.4-0.5-10.8-0.9c-3.5-0.3-6.9-0.5-10.4-0.5
		c-13.1,0.1-26.2,2.9-38.2,8.3c-20.1,9-37.2,25.8-43.8,47.2c-2.3,7.3-3.6,15-7.2,21.8c-2.9,5.5-7.1,10.9-5.8,17.5
		c0.1,0.6,1.1,0.4,1-0.3c-1.5-7.1,4.1-13,6.8-19c2.6-5.8,3.9-12,5.7-18c3.3-11.5,9.5-21.8,17.9-30.4c18-18.3,44.1-27.3,69.5-26
		c4,0.2,7.9,0.9,11.8,1.3c2.7,0.3,5.3-0.1,7.5-1.8c3.8-3.1,4.7-8.6,5.3-13.2C833.1-124.2,832.1-124.2,832.1-123.5z"/>
	<path class="st0" d="M831.2,111.5c-22.2,9.6-32.9,33.1-47.8,50.6c-3.9,4.6-8.2,8.9-13,12.5c-5.1,3.7-11.6,5.8-16,10.3
		c-2.7,2.8-4.5,6.3-7.2,9.1c-2.7,2.7-5.7,5.2-8.5,7.8c-5.9,5.4-10.9,11.7-15.7,18c-11.9,15.9-23.6,32-35.4,48
		c-0.4,0.5,0.5,1,0.9,0.5c10.4-14.2,20.9-28.4,31.3-42.6c4.9-6.6,9.7-13.3,15.4-19.2c5.2-5.4,11.6-9.7,16-15.8
		c2.5-3.4,4.6-6.3,8.3-8.5c2.8-1.7,5.8-3.1,8.6-4.9c4.7-3.1,9-6.9,12.8-11.1c7.9-8.5,14.2-18.3,21.1-27.5c8-10.7,17.1-21,29.5-26.4
		C832.3,112.2,831.8,111.3,831.2,111.5z"/>
</g>
<g id="Grant">
	<path d="M889.8,69c-9.6,12.5-23.3,17.9-38.3,20.7c-7.5,1.4-15,2.6-22.5,3.8c-8,1.3-16.1,3.1-24.2,2.3c-0.9-0.1-1.4,0.5-1.4,1.2
		c-5.8,1.7-10.3,5.8-14.9,9.7c-2.7,2.2-5.4,4.5-8.6,6c-4.5,2.1-9.5,2.3-14.4,3.3c-8.7,1.7-16.2,6.3-24.5,9.2
		c-5.2,1.9-10.8,3.2-16.4,2.2c-5.2-1-9.3-4.2-13.1-7.7c-12.7-11.7-24.6-25.6-39.8-34.2c-14.2-8-31-9.3-46.4-4c-0.1,0-0.1,0-0.2,0.1
		c-0.2,0-0.5,0-0.7,0.1c-11.9,5.4-17.2,19-23.1,29.7c-3.9,7.3-7.9,14.5-11.8,21.8c-3.7,6.7-7,14-11.4,20.3
		c-5.1,7.3-12.2,8.5-20.3,10.1c-5.9,1.2-11.6,3.1-16.9,5.9c-9.7,5-18,12.3-24.3,21.2c-0.2,0.1-0.4,0.3-0.6,0.6
		c-0.1,0.2-0.2,0.4-0.3,0.6c-0.6,0.9-1.2,1.8-1.8,2.8c-0.3,0.5-0.3,1-0.1,1.4c-3.2,7.3-6.4,14.8-10,21.9
		c-4.5,8.8-10.9,15.1-21.4,11.7c-7.7-2.5-14.3-5.5-22.6-4.8c-4.4,0.3-8.7,1.5-12.6,3.2c-0.5-0.4-1.3-0.5-1.8,0.2
		c-0.5,0.5-1,1.1-1.6,1.6c-1.5,0.8-2.9,1.8-4.2,2.8c-0.4,0.3-0.6,0.8-0.6,1.3c-10.7,7.6-24.2,10-37.4,9.9
		c-13.9-0.1-32.8-1.2-42.4-12.7c-6.3-7.5-5.9-17.6-5.8-26.8c0.1-8.9-0.5-17.6-2.6-26.3c-4.1-16.7-17.3-37-5.1-53.3
		c0.4-0.5,0.3-1,0.1-1.4c5.9-15.3,22.8-23.6,33.3-35.4c10.2-11.4,18.3-25.8,18-41.5c-0.1-6.8-1.7-13.9-6.5-19.1
		c-4-4.3-9.6-6.7-15.1-8.7c-6.5-2.3-13.4-4-19.3-7.7c-7.9-5-10.7-13.6-9.8-22.6c2-19.8,16.7-38.1,32.9-48.7c1.6-1,0.1-3.6-1.5-2.6
		c-13.4,8.7-24.1,21.2-30.3,36c-5.4,12.9-7.2,29.7,5.3,39.1c11,8.3,28.6,7.3,37,19c5.7,7.9,4.9,19.5,2.4,28.4
		c-2.6,9-7.7,17.3-13.8,24.4c-11.4,13.5-30.3,22.3-36.1,39.8c-0.1,0.2-0.1,0.3-0.1,0.5c-7.9,11.7-4,26.2,0.4,38.6
		c3.2,8.8,6,17.5,7.1,26.8c1,8.3,0.1,16.5,0.6,24.8c0.8,13,7.3,22.6,19.5,27.4c12,4.7,26.3,5.6,39,4.7c10.8-0.7,21.5-3.5,30.5-9.4
		c0.2,0.3,0.6,0.5,1.1,0.5c1.3,0,1.7-1.3,1.3-2.2c1.3-1,2.6-2.1,3.8-3.2c6.5-3.6,14-5.2,21.6-4.2c8.3,1.1,16.2,7.4,24.8,5.5
		c6.5-1.5,10.8-7.2,13.8-12.7c4.7-8.8,8.4-18.2,12.5-27.3c6.9-10.2,16.5-18.4,28-23.2c11.2-4.7,25.2-3.3,33.3-13.7
		c3.9-5,6.6-11,9.6-16.6c3.8-7,7.6-13.9,11.4-20.9c3.6-6.5,7-13.2,10.7-19.6c3.6-6.2,7.7-11.8,14.3-15c0.2,0,0.3,0,0.5-0.1
		c19-6.6,38-2,53.6,10.1c6.9,5.4,13.2,11.7,19.5,17.7c6.1,5.8,12.3,13.3,20.2,16.7c16.2,7,31.6-7,46.9-10c7.8-1.5,14.3-2.3,20.7-7.2
		c6-4.5,11-10.4,18.6-12.1c0.4-0.1,0.7-0.3,0.8-0.5c7.5,0.5,14.9-1.1,22.3-2.4c9-1.5,18-2.8,26.9-4.7c14.7-3.1,27.4-9.4,36.7-21.4
		C893.5,69,890.9,67.5,889.8,69z"/>
	<path d="M889.1,57.8c-0.9-6.2-7.9-8.9-12.7-11.7c-7.5-4.3-15.1-8.5-22.8-12.5c-15.2-7.8-31-14.6-47.7-18.7
		c-16.5-4.1-33.6-5.4-50.5-3.9c-17.6,1.5-33.7,6.5-50.1,12.8c-4.9,1.9-10.1,3.7-15.4,3.7c-5.3,0-10.2-1.9-15.1-3.6
		c-10.5-3.5-21-7-31.5-10.4c-1.8-0.6-2.6,2.3-0.8,2.9c8.7,2.9,17.3,5.7,26,8.6c7.2,2.4,14.7,5.8,22.4,5.5c8.1-0.4,15.5-4,23-6.8
		c7.9-3,15.9-5.4,24.2-7.1c34.3-7,68.7-1.2,100.3,13.1c8.4,3.8,16.7,8.1,24.8,12.5c4.2,2.3,8.4,4.6,12.5,7c3.9,2.2,9.9,4.5,10.6,9.5
		C886.5,60.5,889.3,59.7,889.1,57.8z"/>
</g>
<g id="Water">
	<path class="st1" d="M584.5-114c-1.6,7.8-3.3,16.6-9.5,22.2c-5,4.7-12,6.5-17.6,10.4c-5.5,3.8-7.1,8.4-9.1,14.6
		c-1.3,3.9-6.4,11.8-10.4,5.2c-1.3-2.3-1.5-4.3-3.9-5.7c-0.4-0.3-1.1-0.3-1.5,0c-1.3,1-2.1,1.8-2.7,3.4c-0.3,0.8-0.4,1.7-0.6,2.6
		c0,0.1,0,0.3-0.1,0.4c0.3,2.6-0.9,4.1-3.8,4.6c0,0,0,0,0,0c-0.3,0.2-0.8,0.4-1.3,0.4c-0.5,0-0.9-0.1-1.3-0.4c0,0-0.1,0.1-0.1,0.1
		c-1.5-1.5-2.6-3.9-3.7-5.3c-1.3-1.5-2.8-2.7-4.8-3c-1.1-0.2-2-0.2-2.9,0.1c-0.9-0.3-1.9-0.1-2.8,0.8c-5.3,5.6-10.7,11.5-13.7,18.8
		c-3.2,7.9-2.1,15.9,0.4,23.9c1.8,5.7,4,12.8,10.1,15.2c2.9,1.2,5.9,0.8,8.8-0.3c2-0.8,3.7-2,5.6-3c0.7-0.4,3.8-1.7,5.9-1.8
		c-2.7,2.4-3.8,6-5.5,9.2c-4.5,8.4-12.9,13.7-16.6,22.7c0,0.1,0,0.1-0.1,0.2c-9-1.6-18.2-1.6-27.2-3.2c-6.6-1.1-17.5-2.3-21.9-8.2
		c-0.6-0.3-0.9-0.8-1.1-1.4c-0.3-0.3-0.6-0.7-0.8-1.1c-0.4-0.8-0.4-1.7,0-2.4c0.1-0.5,0.3-1,0.6-1.3c0,0,0,0,0,0
		c2.8-8.3,6.1-16.9,7.2-25.4c1.3-9.4-5.9-14-12.7-18.8c-8.2-5.9-16.9-11.1-25.9-15.7c-8.2-4.2-16.9-7.3-25.2-11.3
		c-9-4.3-14.2-10.6-13.2-21c1-9.6,5.9-18.3,8.1-27.6c2.1-8.8,2-17.9-3-25.7c-5.1-7.9-11.9-14.2-16.6-22.5
		c-11.1-19.9-21.7-41.2-26.6-63.5c-1.2-5.7-9.9-3.3-8.7,2.4c4.2,19.3,12.9,37.2,21.8,54.7c4.1,8.2,8.3,16.3,14.1,23.5
		c6.4,7.9,12.7,13.9,11,25c-2.4,16.6-16.1,34.6-5.6,51.2c4.3,6.7,11.4,10.4,18.5,13.3c8.9,3.7,17.8,7.6,26.3,12.2
		c8.9,4.9,19.1,10.4,26.6,17.5c4.5,4.3,0.3,11.9-1.2,16.9c-1,3.4-2,6.8-3,10.2c0.5,4.5,1.4,9.4,3.3,12.8c0.1,0.2,0.2,0.4,0.2,0.6
		c5.9,9.4,21.6,11,31.7,12.5c4,0.6,8.1,1.1,12.2,1.5c4.3,0.4,8.9,0.3,13.1,1.6c4.4,1.5,8.5,5.5,5.7,10.3c-1.8,3-3.6,7-6.4,10.4
		s-11.9,11-18.5,15.9c-6.9,5.2-12.9,11.1-17.6,18.4c-8.5,13.2-12.7,28.6-16.1,43.8c-0.7,2.5-1.2,5-1.6,7.6
		c-1.2,7.5-1.5,15.1-1.9,22.6c-0.3,6,1.1,17.7-4.6,21.6c-0.4,0.3-0.7,0.6-0.9,1c-0.1,0.2-0.1,0.3-0.2,0.5c-1.1,1.7-2.4,2.9-3.9,3.9
		c-0.5,0.4-0.9,0.7-1.4,1.1c-0.1-0.1-0.2-0.1-0.3-0.2c-1.7,0.7-3.6,1.2-5.6,1.5c-4.6,0.8-9.4,1.9-14.1,2.1c-1.6,0.3-3.2,0.3-4.9-0.1
		c-4.7-1.3-9.4-3.9-13.9-5.8c-3-1.3-6.3-3.2-9.6-1.9c-6.3,2.4-5.1,11.3-5,16.6c0.1,2.7,0.2,5.4,0.6,8c0,0.1,0,0.1-0.1,0.2
		c0,0.1,0.1,0.2,0.1,0.3c0.2,1.2,0.7,2.3,1.1,3.5c0,0,0,0.1,0,0.1c0.1,0.1,0.1,0.1,0.2,0.2c1,2.3,2.5,4.3,4.9,5.9
		c0.4,0.3,0.8,0.4,1.1,0.5c1.6,1.7,3.2,3.3,4.7,5c-0.7,4.1-1.3,8.2-2,12.3c-0.7,4.2-1.7,8.5-1.2,12.7c0.9,8.1,9.9,11.1,10.6,18.7
		c-1.2,0.5-2.3,1.2-3.3,2.1c-0.1-0.2-0.3-0.4-0.4-0.7c-3.6-4.8-10.3-8.5-15.2-11.7c-5.7-3.8-11.8-7.2-18.3-9.3
		c-3.6-1.2-7.3-1.9-11.1-2.2c-2.1-0.2-3.9,0.3-5.3-1.3c-1.4-1.6-1-3.8-0.6-5.8c1.6-7.9,8-13.9,15.8-15.4c3.8-0.7,2.2-6.5-1.6-5.8
		c-11.6,2.2-21,13.2-20.5,25.3c0.2,5.2,2.9,8.3,8.1,8.9c5.6,0.6,10.7,1.4,15.6,3.1c-0.1,0.1-0.1,0.2-0.2,0.2
		c-1.1,1.8-2.7,3.4-4.5,4.6c-1.4,1.2-2.9,2.2-4.6,2.7c0,0-0.1,0.1-0.1,0.1c-5.2,2.8-11.6,1.9-17.2,1.4c-6.2-0.6-12.7-1.8-18-5.2
		c-9.6-6.2-13.8-17.8-12.6-28.8c0.4-3.8-5.6-3.8-6,0c-1.5,13.1,4.3,26.8,15.6,34c6.3,4,13.8,5.4,21.1,6c7.1,0.6,14.8,1.3,21.1-2.8
		c0.4-0.2,0.6-0.5,0.9-0.8c4-1.7,7.3-4.5,9.6-8.2c0.2-0.3,0.3-0.7,0.4-1c0.5,0.3,1,0.5,1.6,0.8c6.7,3.6,13,8,18.9,12.7
		c1.5,1.2,2.4,2.5,2.4,3.9c0,0.2,0.1,0.3,0.1,0.5c0.1,2-1.7,3.1-3.6,4c-0.2,0.1-0.4,0.2-0.6,0.3c-0.2,0.1-0.4,0.2-0.6,0.3
		c-0.1,0.1-0.3,0.1-0.4,0.2c-3.7,2.4-7.4,4.7-11.2,6.9c-7.3,4.2-14.7,7-22.9,9.1c-6.6,1.7-12.7,4-17.8,8.7
		c-10.3,9.5-14.3,24.2-17.5,37.4c-0.9,3.8,4.9,5.4,5.8,1.6c2.8-11.8,6.1-25,15-33.8c5.5-5.5,12.4-7,19.7-8.9c7-1.9,13.7-4.8,20-8.4
		c4.1-2.3,13.3-6.6,17.9-11.9c0.9-0.8,1.7-1.6,2.4-2.5c0.6-0.7,1.2-1.6,1.9-2.5c0.1-0.6,0.5-1.1,1.1-1.5c2.2-1.3,4.2-2.7,6.3-4.1
		c6.5-8.9,8-20.8,3.7-31c-2.3-5.5-6.3-10.1-10.2-14.5c-0.2-0.3-0.5-0.6-0.8-0.9c-0.1-0.1-0.2-0.1-0.4-0.2c-2.5-2-4.5-4.4-6.1-7
		c-2.1-2.4-4.3-4.8-6.4-7.1c-0.7-2.1-0.9-4.7-0.9-7.1c0,0,0,0,0,0c0-0.4,0-0.8,0.2-1.2c-0.2-3.7,1.3-7.5,4.2-9.9
		c1.4-1.2,3.2-0.4,3.9,0.8c1.7,0.8,3.5,1.8,5,2.4c1.3,0.6,2.6,1.2,4,1.7c3,0.9,5.9,1.2,9,1.3c0.2-0.1,0.4-0.1,0.6-0.1
		c7.2-0.1,14.3-1.1,21.1-3.1c2.3-1.3,4.5-2.9,6.4-4.9c1.8-2.2,3.6-4.4,5.1-6.8c2-3,3.1-6.4,4.6-9.6c0-0.2,0-0.4,0.1-0.6
		c0.9-9.4,0.7-18.9,1.7-28.3c1-9.7,9.2-37,15-51.9c0.8-2.4,4.2-7,8.9-11.8s19.8-13.8,29.9-26.6c10.1-12.8,11.6-16,14.6-20.6
		c2.9-4.5,5.1-9.1,7.1-14.1c3.1-7.4,13.2-18.7,5.5-26.4c-0.2-0.2-0.5-0.4-0.7-0.6c-0.1-0.1-0.3-0.2-0.5-0.3
		c-0.1-0.1-0.1-0.1-0.2-0.2c0,0,0,0,0,0c-0.1-0.2-0.2-0.3-0.4-0.4c-0.1-0.1-0.2-0.2-0.4-0.3c-0.6-0.4-1.3-0.7-2-1
		c-0.9-0.5-1.8-0.9-2.7-1.4c-1.3-0.9-2.9-1.6-4.5-1.7c-7.3-0.6-15.8,10.8-21.3,2.8c-4.3-6.2-6.9-17.4-5.3-24.8
		c1.5-6.6,5.8-12,10.3-16.9c0,0,0.1,0,0.1,0c0.2-0.3,0.5-0.5,0.7-0.8c0.1-0.1,0.1-0.1,0.2-0.2c0-0.1,0.1-0.1,0.1-0.1
		c0.2-0.5,0.5-0.9,1-1.1v0c0.4-0.4,0.8-0.8,1.2-1.3c0.3-0.4,0.6-0.7,0.7-1.1c0.3,0,0.6,0.1,1,0.3c0.8,0.4,1.5,1.3,2,2
		c1,1.4,1.8,3,3,4.3c2.1,2.3,4.7,3.5,7.8,2.8c0.3-0.1,0.6-0.2,0.8-0.4c0.2-0.1,0.4-0.2,0.5-0.4c0.5-0.6,1.1-1.1,1.5-1.7
		c0.3-0.4,0.5-0.9,0.6-1.5c0.7-1.2,1-2.5,1.2-3.9c0.5-2.6,0.8-6.9,2.9-2.3c3.6,8,12.2,5.3,15.4-1.8c2.8-6.3,3-11.9,9.2-16.1
		c4.2-2.8,9-4.5,13.2-7.2c9.6-6,12.5-16.3,14.7-26.9C587.8-115.1,584.9-115.9,584.5-114z M400.7,235.4c0.5-3,1-6,1.5-9.1
		c2.1,2.6,4.1,5.2,5.7,8c4.6,7.7,4.7,16.6,1.1,24.3c-1.4-3.1-3.7-5.7-6.6-8.6C398.4,246.1,399.9,240.4,400.7,235.4z M527.5-3.2
		c0.2-0.5,0.5-0.9,0.7-1.3c0.2-0.7,0.6-1.2,1.3-1.5c0.2-0.2,0.4-0.3,0.6-0.4c0.2-0.1,0.4-0.1,0.6-0.2c0.2,0,0.3,0,0.5,0c0,0,0,0,0,0
		c0,0,0,0,0,0c0.2,0,0.4,0,0.5,0.1c0.1,0,0.2,0.1,0.3,0.1c0,0,0.1,0,0.1,0c0.1,0.1,0.3,0.1,0.4,0.2c0,0,0,0,0,0
		c0.1,0.1,0.2,0.2,0.3,0.3c0,0,0,0,0,0c0.7,0.4,0.9,1.2,0.9,2.4c0.1,2.4-1.6,4.6-2.8,6.6c-4.2,7.2-6.6,15.2-11,22.2
		c-1,1.6-2,3.2-3,4.9c-1.6-3.3-4.5-5.6-7.9-7c0-0.1,0.1-0.2,0.1-0.3c2.8-6.8,8.9-11.4,13.3-17.2C524.8,2.7,526-0.2,527.5-3.2z"/>
	<path class="st1" d="M458.8-107.9c-8-11.4-21.1-15-33.7-19.3c-1.7-0.6-2.9,0.3-3.4,1.6c1.3,2.5,2.6,5.1,5,6.6
		c0.1,0,0.1,0.1,0.2,0.1c2.6-1.7,8.7,4.5,10.5,6.1c2.6,2.2,6.7,5.7,7.2,9.3c0.4,3.1-3.2,4-6.4,4.3c-0.4,0.4-0.9,0.7-1.6,0.7
		c-5.9,0-12.6-0.4-16.4-4.9c-0.1,0.1-0.2,0.1-0.4,0.2c-4.2-4.9-7.7-10.4-8.6-16.5c-0.5-3.8-6.3-2.2-5.8,1.6c0.8,6.2,4,11.3,7.8,16
		c4.1,5.1,8.6,10.4,14,14.2c5.4,3.9,12,5.4,18.3,7.3c4.9,1.5,10.9,4,15.9,1.8C473.2-83.8,463.5-101.3,458.8-107.9z"/>
</g>
<g id="Units">
	<g>
		<g>
			<circle class="st2" cx="616.7" cy="-61.2" r="3.6"/>
		</g>
		<g>
			<circle class="st2" cx="618.6" cy="-51.5" r="3.6"/>
		</g>
		<g>
			<circle class="st2" cx="620.5" cy="-42" r="3.6"/>
		</g>
		<g>
			<circle class="st2" cx="622.3" cy="-32.3" r="3.6"/>
		</g>
		<polyline class="st3" points="617.6,-72 608.5,-61.7 614.9,-28.5 627.5,-22.6 		"/>
	</g>
	<g>
		<g>
			<circle class="st2" cx="543.7" cy="68" r="3.6"/>
		</g>
		<g>
			<circle class="st2" cx="534" cy="66.7" r="3.6"/>
		</g>
		<g>
			<circle class="st2" cx="524.3" cy="65.3" r="3.6"/>
		</g>
		<polyline class="st3" points="554.7,72.6 547.9,60.7 522.1,57 512.3,67 		"/>
	</g>
	<g>
		<g>
			<circle class="st2" cx="620.2" cy="29.6" r="3.6"/>
		</g>
		<g>
			<circle class="st2" cx="613.2" cy="36.5" r="3.6"/>
		</g>
		<g>
			<circle class="st2" cx="606.2" cy="43.3" r="3.6"/>
		</g>
		<g>
			<circle class="st2" cx="599.2" cy="50.1" r="3.6"/>
		</g>
		<polyline class="st3" points="629.7,24.3 616.1,22.4 591.9,46 593.8,59.8 		"/>
	</g>
	<g>
		<g>
			<line class="st4" x1="531" y1="53.1" x2="536.2" y2="18.1"/>
			<g>
				<path d="M536.1,18.4c-0.9,0.7-2.5,0.8-3.5,0.7c1.6-0.9,3-2.1,4-3.6c0.4,1.8,1.6,3.3,2.8,4.6C538.2,19.8,536.9,19.3,536.1,18.4z"
					/>
			</g>
		</g>
	</g>
	<g>
		<g>
			<line class="st4" x1="539.8" y1="54.3" x2="548.6" y2="20.8"/>
			<g>
				<path d="M548.5,21.1c-1,0.6-2.6,0.5-3.6,0.3c1.7-0.7,3.2-1.7,4.4-3.2c0.2,1.8,1.2,3.4,2.2,4.9C550.4,22.7,549.1,22.1,548.5,21.1
					z"/>
			</g>
		</g>
	</g>
	<g>
		<g>
			<line class="st4" x1="599.8" y1="33.2" x2="571.8" y2="13.7"/>
			<g>
				<path d="M572,13.9c0.2,1.1-0.4,2.6-1,3.5c-0.1-1.8-0.5-3.6-1.5-5.2c1.8,0.4,3.6,0.1,5.4-0.4C574.2,12.7,573.2,13.7,572,13.9z"/>
			</g>
		</g>
	</g>
	<g>
		<g>
			<line class="st4" x1="604.1" y1="28.6" x2="579.3" y2="4.2"/>
			<g>
				<path d="M579.5,4.4c0,1.1-0.8,2.5-1.5,3.3c0.2-1.8,0.1-3.7-0.6-5.3c1.7,0.7,3.6,0.7,5.4,0.5C581.9,3.6,580.7,4.4,579.5,4.4z"/>
			</g>
		</g>
	</g>
	<g>
		<line class="st5" x1="606.2" y1="-53.8" x2="563.2" y2="-31.3"/>
		<g>
			<line class="st4" x1="606.2" y1="-53.8" x2="565.6" y2="-32.6"/>
			<g>
				<path d="M565.9-32.7c1.1,0.3,2.1,1.5,2.6,2.5c-1.6-0.8-3.4-1.2-5.3-1.1c1.2-1.4,1.7-3.2,2.1-4.9
					C565.8-35.2,566.2-33.8,565.9-32.7z"/>
			</g>
		</g>
	</g>
	<g>
		<g>
			<line class="st4" x1="609.2" y1="-33.5" x2="579.8" y2="-18.9"/>
			<g>
				<path d="M580-19c1.1,0.4,2.1,1.6,2.6,2.5c-1.6-0.8-3.4-1.3-5.2-1.2c1.2-1.4,1.8-3.1,2.2-4.9C580-21.5,580.4-20.1,580-19z"/>
			</g>
		</g>
	</g>
</g>
<g id="Objective">
	
		<rect x="541.8" y="-17" transform="matrix(-0.9343 0.3564 -0.3564 -0.9343 1067.0814 -208.6447)" class="st6" width="22" height="22"/>
	
		<rect x="544.3" y="-14.5" transform="matrix(-0.9343 0.3564 -0.3564 -0.9343 1067.0814 -208.6447)" class="st7" width="17" height="17"/>
</g>
</svg>
