<svg width="250px" height="77px" viewBox="0 0 250 77" version="1.1" xmlns="http://www.w3.org/2000/svg" xmlns:xlink="http://www.w3.org/1999/xlink">
<g id="Adventurous-Web-Design" fill="#444444" fill-rule="nonzero">
<path d="M1.20292528,21.8557066 C1.20292528,21.635514 1.2463015,21.5016992 1.33160806,21.4549703 C1.4183605,21.4075333 1.60487825,21.3841688 1.89333012,21.3841688 L2.93725116,21.3841688 C3.10858723,21.1845086 3.96020703,19.7953837 5.49066468,17.2160861 C7.02256821,14.6360804 8.70050501,11.8337581 10.525198,8.8077032 C12.3513369,5.78164826 13.6396107,3.72274143 14.3878505,2.63381478 C14.4746029,2.5191164 14.7153409,2.25644293 15.1107875,1.84933447 C15.506957,1.44010195 15.8127593,1.03653356 16.0260257,0.638629283 C16.1980847,0.292410082 16.3954465,0.119654489 16.62028,0.119654489 C16.7699279,0.119654489 16.8906584,0.162135372 16.9846402,0.24568111 C17.0807908,0.330642877 17.1371799,0.409232512 17.1545304,0.481450014 C17.1718809,0.555083546 17.1863396,0.66057774 17.1979066,0.795808553 C17.2702003,1.15264798 17.4675621,2.27272727 17.7957755,4.1539224 C18.1218201,6.0337015 18.4254537,7.79028604 18.7095679,9.422968 C18.9922363,11.05565 19.2973157,12.8108185 19.6219144,14.6863495 C19.947959,16.5625885 20.2306274,18.1025205 20.4713654,19.3089776 C20.7121034,20.5154347 20.8805478,21.2071651 20.9774213,21.3848768 L22.3264218,21.3848768 C22.519446,21.3848768 22.6416223,21.4160295 22.6958426,21.4790428 C22.7493399,21.5420561 22.7760886,21.6787029 22.7760886,21.8882753 C22.7760886,22.1509487 22.748617,22.3237043 22.6958426,22.4072501 C22.6416223,22.4900878 22.519446,22.5332767 22.3264218,22.5332767 C22.197739,22.5332767 21.761085,22.5177004 21.0171829,22.4858397 C20.2718348,22.4546871 19.718065,22.4384027 19.3537048,22.4384027 C19.0095868,22.4384027 18.3690646,22.453979 17.4314153,22.4858397 C16.493766,22.5177004 15.9060182,22.5332767 15.6710637,22.5332767 C15.4455073,22.5332767 15.3016428,22.4900878 15.2373015,22.4072501 C15.1729601,22.3237043 15.1411508,22.1396205 15.1411508,21.8564146 C15.1411508,21.636222 15.1830812,21.5024073 15.2698336,21.4556783 C15.3551402,21.4082413 15.5431038,21.3848768 15.8315557,21.3848768 L17.6786597,21.3848768 L17.6786597,21.1179553 C17.6786597,20.6145568 17.514553,19.3295101 17.1892314,17.261399 C16.8646327,15.193288 16.6961883,14.0717927 16.6846213,13.8983291 C16.6528121,13.6391957 16.62028,13.4876805 16.5884707,13.4437836 C16.5566615,13.4013027 16.4713549,13.3793543 16.3318281,13.3793543 L9.98805582,13.3793543 C9.82756381,13.3793543 9.72346088,13.3836024 9.6750241,13.3949306 C9.62731026,13.4062589 9.5774276,13.4374115 9.52248439,13.4890966 C9.46970999,13.5429057 9.40536859,13.6413197 9.32946021,13.7878788 C6.78255312,18.4841405 5.45451783,21.0167091 5.34680022,21.3841688 L7.51488831,21.3841688 C7.70791249,21.3841688 7.83442647,21.4188615 7.89226143,21.4868309 C7.9522652,21.5548003 7.98045975,21.6879071 7.98045975,21.8875673 C7.98045975,22.1389125 7.95154227,22.308836 7.89226143,22.3987539 C7.83442647,22.4879637 7.70791249,22.5325687 7.51488831,22.5325687 C7.32186413,22.5325687 6.85484682,22.5169924 6.10949876,22.4851317 C5.36631952,22.453979 4.71567621,22.4376947 4.15829177,22.4376947 C3.7838104,22.4376947 3.30739491,22.453271 2.7290453,22.4851317 C2.1506957,22.5169924 1.82031348,22.5325687 1.73356104,22.5325687 C1.50800469,22.5325687 1.36414023,22.4893798 1.29979883,22.4065421 C1.2347345,22.3222883 1.20292528,22.1389125 1.20292528,21.8557066 Z M10.1514396,12.3237043 C10.1514396,12.3867176 10.3119316,12.4185783 10.6336386,12.4185783 L16.0672331,12.4185783 C16.2660408,12.4185783 16.3658061,12.3980459 16.3658061,12.355565 C16.3658061,12.1367884 16.1525397,10.6690739 15.7252839,7.95312943 C15.2965823,5.23718493 15.0623507,3.87779666 15.0182515,3.87779666 C15.0066845,3.87779666 14.6596748,4.47252903 13.9743305,5.66270178 C13.2889862,6.85358255 12.5501446,8.12871708 11.7585286,9.49235344 C10.9669125,10.8559898 10.5056787,11.6468423 10.3769959,11.8670348 C10.226625,12.1197961 10.1514396,12.2720193 10.1514396,12.3237043 Z" id="Shape"></path>
<path d="M24.0593018,19.952563 C24.0593018,19.3719909 24.1525607,18.6738884 24.3390784,17.8561314 C24.5248732,17.0383744 24.8205545,16.1696403 25.2253992,15.2513452 C25.6302439,14.3344662 26.1037677,13.4848485 26.6481392,12.7032002 C27.1910649,11.922968 27.8626734,11.2730105 28.6622417,10.7561597 C29.4603642,10.239309 30.3069234,9.9808836 31.2033653,9.9808836 C31.5048301,9.9808836 31.792559,9.99929199 32.0687209,10.0403568 C32.343437,10.0785896 32.5856209,10.1316907 32.7959956,10.1996602 C33.0063702,10.2676296 33.1798751,10.3285188 33.3143414,10.38516 C33.4495306,10.4403852 33.5876116,10.5076466 33.7271384,10.5862362 C33.8666653,10.6648258 33.9418507,10.7044747 33.9534177,10.7044747 C34.1363208,10.8071368 34.2700641,10.8496177 34.3503101,10.8340413 C34.4305561,10.818465 34.4934517,10.7094308 34.5368279,10.5083546 C34.6669565,9.84423676 34.8303403,8.86292835 35.0298709,7.56584537 C35.2308474,6.26805438 35.4029064,5.1104503 35.5489397,4.09303314 C35.694973,3.07561597 35.7672667,2.56088927 35.7672667,2.55026905 C35.8106429,2.38176154 35.8070282,2.26069102 35.7593144,2.18705749 C35.7108776,2.11342396 35.6537656,2.08439536 35.5872554,2.10209572 C35.5200222,2.11908808 35.4752001,2.13041631 35.453512,2.13537242 C35.2879594,2.17926933 34.9749277,2.25927499 34.5158627,2.37751345 C34.0553518,2.49716794 33.6649658,2.59770603 33.3432589,2.68125177 C33.0222748,2.76338148 32.8343112,2.80373832 32.779368,2.80373832 C32.618876,2.80373832 32.53863,2.68903993 32.53863,2.45751912 C32.53863,2.34777683 32.5545346,2.21679411 32.5863438,2.06598697 C32.5979108,1.8847352 32.6268283,1.77003682 32.6730963,1.71976777 C32.7208101,1.66949873 32.8097314,1.62914189 32.93986,1.59869725 C33.7813587,1.394081 34.6185198,1.18946474 35.4498973,0.986972529 C36.2819978,0.785896347 36.9080613,0.631549136 37.3288106,0.528178986 C37.7510058,0.424808836 37.9910209,0.372415746 38.0452412,0.372415746 C38.368394,0.372415746 38.528886,0.565703767 38.528886,0.950863778 C38.528886,1.03440952 37.967164,4.13905409 36.842274,10.2633815 C35.717384,16.3877089 35.155662,19.7698952 35.155662,20.4099405 C35.155662,20.672614 35.2677172,20.8028887 35.4911047,20.8028887 C35.7463015,20.8028887 36.1157223,20.6032285 36.5943066,20.2053243 C37.0743368,19.80742 37.5066531,19.4080997 37.8905327,19.0101954 C38.2744122,18.6122911 38.4768346,18.412631 38.4977998,18.412631 C38.5729852,18.412631 38.66769,18.4629 38.7848057,18.5620221 C38.9019215,18.6611442 38.9612024,18.7425658 38.9612024,18.8055792 C38.9612024,18.8572642 38.8679435,19.0144435 38.6799799,19.277825 C38.4920163,19.5412065 38.2223608,19.8626451 37.8688446,20.2449731 C37.5153284,20.627301 37.1249424,20.9997168 36.6962407,21.3615123 C36.2675391,21.7233078 35.7773878,22.0298782 35.2265098,22.2819315 C34.6756318,22.5332767 34.1428272,22.6593033 33.628819,22.6593033 C33.3396442,22.6593033 33.1032438,22.549561 32.9217866,22.3293685 C32.7403294,22.1091759 32.6485164,21.8146417 32.6485164,21.4485981 C32.6485164,20.6103087 33.0417941,18.5910507 33.8290725,15.3929482 C32.7967185,17.0808553 31.9320858,18.365902 31.2358975,19.2466723 C30.9228658,19.6559048 30.70237,19.9384027 30.5736872,20.09629 C30.4450044,20.2534693 30.2367985,20.5005664 29.9454549,20.8354574 C29.6548342,21.1703483 29.4140962,21.4096573 29.2196262,21.5512603 C29.026602,21.6928632 28.7829722,21.8613707 28.487291,22.0546587 C28.1916097,22.2479468 27.8952056,22.3817615 27.5930179,22.4553951 C27.292999,22.5290286 26.9763526,22.5651374 26.6423557,22.5651374 C26.4847555,22.5651374 26.3242634,22.5538091 26.1616026,22.5339847 C25.9974959,22.5134523 25.7827836,22.451855 25.514574,22.3527329 C25.2463644,22.2536109 25.0135786,22.1197961 24.8126022,21.9519966 C24.6137945,21.7834891 24.4366749,21.5271878 24.2841352,21.1816766 C24.1315955,20.8361654 24.0593018,20.4241008 24.0593018,19.952563 Z M26.3878819,19.0562164 C26.3878819,19.6537808 26.4955995,20.0892099 26.7088659,20.3617955 C26.9235782,20.6336732 27.2886614,20.771028 27.8041155,20.771028 C28.7179079,20.771028 30.2114957,19.277117 32.2848791,16.2885868 C33.456037,14.6098839 34.041616,13.36307 34.041616,12.5453129 C34.041616,12.2727273 33.7350907,11.9364203 33.1213172,11.538516 C32.5082666,11.1406117 31.8691903,10.9409516 31.2026424,10.9409516 C30.5469385,10.9409516 29.9049705,11.251062 29.2781841,11.8691589 C28.6499518,12.4872557 28.1344977,13.2342113 27.7318218,14.1107335 C27.3305918,14.9865477 27.0045472,15.8758142 26.7587486,16.777117 C26.5115041,17.6762957 26.3878819,18.4381195 26.3878819,19.0562164 Z" id="Shape"></path>
<path d="M39.1072357,12.7173605 C39.1072357,12.5601813 39.3364067,12.2323704 39.7976405,11.7339281 C40.2588743,11.2354857 40.8046918,10.7589918 41.4358158,10.3030303 C42.0669398,9.84706882 42.5758874,9.61908808 42.9612129,9.61908808 C43.4752211,9.61908808 43.9458531,9.72953837 44.3745547,9.94902294 C44.9203722,10.2527613 45.2818407,10.4963183 45.4589602,10.6804022 C45.6360798,10.864486 45.7242781,11.1335316 45.7242781,11.490371 C45.7242781,12.3194562 45.5833054,13.7192014 45.2984682,15.6896063 C45.014354,17.6607193 44.8733812,18.8041631 44.8733812,19.1185217 C44.8733812,19.327386 45.0230292,19.5589068 45.3201563,19.8102521 C45.6187293,20.0615973 45.817537,20.1876239 45.9173023,20.1876239 C46.2043083,20.1876239 46.4342023,20.0778816 46.6048154,19.857689 C46.6366246,19.8265364 46.9792968,19.3854432 47.6292171,18.5365336 C48.0355077,18.0012744 48.3391413,17.595582 48.5430095,17.3173322 C48.7454319,17.0383744 49.0252085,16.6206457 49.3830623,16.05919 C49.7416391,15.4977344 50.0127405,15.0127443 50.1985353,14.6042198 C50.3864989,14.1949873 50.557112,13.7234494 50.7110976,13.1881903 C50.8665291,12.6536392 50.9438833,12.1502407 50.9438833,11.6779949 C50.9438833,11.2170773 50.8846025,10.9027188 50.7653179,10.7342113 C50.6482021,10.5657038 50.4746972,10.482866 50.2484179,10.482866 C50.0221386,10.482866 49.7633272,10.5097706 49.4763212,10.5614557 C49.1871464,10.6131408 48.9384561,10.6641178 48.7259126,10.7108468 C48.5155379,10.7582838 48.399868,10.7816483 48.3796257,10.7816483 C48.2957651,10.7816483 48.227086,10.7235911 48.170697,10.6088927 C48.1143079,10.4934863 48.0853904,10.3462192 48.0853904,10.1685075 C48.0853904,10 48.514092,9.81945624 49.3700495,9.62546021 C50.2260069,9.43146417 50.9070135,9.33446616 51.4094548,9.33446616 C51.8591216,9.33446616 52.2075772,9.42863212 52.4533758,9.61767205 C52.6991744,9.80671198 52.8227966,10.1727556 52.8227966,10.7186349 C52.8227966,11.4528462 52.6782092,12.2238743 52.3890344,13.031011 C52.0998596,13.8381478 51.6762185,14.6693571 51.1188341,15.5239309 C50.5614496,16.3777967 50.0192469,17.1488247 49.4907799,17.836307 C48.9608671,18.5237893 48.3246825,19.3224299 47.5815033,20.2350609 C47.3465488,20.5182668 47.1766586,20.7271311 47.0689409,20.864486 C46.8455534,21.1476919 46.6048154,21.4981592 46.3496186,21.9180119 C46.1999707,22.1587369 46.0655044,22.3314925 45.9462198,22.4369867 C45.8254893,22.5424809 45.6635514,22.594166 45.4582373,22.594166 C45.1162881,22.594166 44.647102,22.3583971 44.049956,21.8861512 C43.5489606,21.4974511 43.2055656,21.1356556 43.0176019,20.8007647 C42.8310842,20.4658737 42.7378253,19.9355707 42.7378253,19.2119796 C42.7378253,18.8346078 42.8469888,17.7336449 43.0667617,15.9090909 C43.2872574,14.084537 43.3964209,12.8058624 43.3964209,12.0709431 C43.3964209,11.7672048 43.2952098,11.5519683 43.0913415,11.4259417 C42.8137337,11.24823 42.5722727,11.1590201 42.3684045,11.1590201 C42.0582645,11.1590201 41.7047483,11.3289436 41.3085789,11.6702067 C40.9116864,12.0114698 40.5668455,12.354857 40.2726101,12.7003682 C39.9790977,13.0465874 39.8099304,13.219343 39.7665542,13.219343 C39.6378714,13.219343 39.4968987,13.1612858 39.3414672,13.0458794 C39.1845899,12.932597 39.1072357,12.8228547 39.1072357,12.7173605 Z" id="the-v"></path>
<path d="M55.3762101,21.683659 C54.5730271,21.0768904 54.1717971,20.1741716 54.1717971,18.9769187 C54.1717971,17.7817899 54.3901241,16.6114415 54.826778,15.4694138 C55.263432,14.32597 55.848288,13.3290852 56.5791773,12.4759275 C57.3078978,11.6234778 58.1768681,10.9395355 59.1853652,10.4233928 C60.1924165,9.90725007 61.2298311,9.64953271 62.2961632,9.64953271 C62.6800427,9.64953271 63.0393424,9.68068536 63.3755082,9.74369867 C63.7116739,9.80671198 64.0435019,9.91503823 64.3746071,10.0722175 C64.7057123,10.2279807 64.9652466,10.4573775 65.1582708,10.7596998 C65.3491262,11.0620221 65.4452768,11.4266497 65.4452768,11.8542906 C65.4452768,12.8072784 65.0519991,13.6632682 64.2647207,14.424384 C63.4774423,15.1854999 62.5014773,15.7830643 61.333934,16.2170773 C59.9205922,16.7346361 58.3633859,16.9944775 56.6608692,16.9944775 C56.639904,16.9944775 56.6160471,17.0574908 56.5885755,17.1813934 C56.5611039,17.306004 56.5408617,17.4787596 56.5242341,17.6975361 C56.5083295,17.9163127 56.5003772,18.1400453 56.5003772,18.367318 C56.5003772,20.1996602 57.5233331,21.1151232 59.5677989,21.1151232 C60.2676019,21.1151232 60.9695738,20.9685641 61.6751603,20.674738 C62.3807468,20.3809119 62.9504212,20.0608893 63.3856293,19.7153781 C63.8222832,19.3691589 64.2126692,19.0498442 64.5567872,18.7560181 C64.9023511,18.462192 65.110557,18.315633 65.1864654,18.315633 C65.316594,18.315633 65.4373245,18.3821863 65.5493797,18.5124611 C65.6636038,18.6434438 65.7199929,18.7609742 65.7199929,18.8664684 C65.7199929,18.9294817 65.5963706,19.0916171 65.3505721,19.3535826 C65.1047735,19.616256 64.7454738,19.9277825 64.2748418,20.289578 C63.8042098,20.6513735 63.2793575,21.0053809 62.7010079,21.3516001 C62.1233812,21.6978193 61.448881,21.9916454 60.6775072,22.2323704 C59.9061334,22.4730954 59.1521101,22.594166 58.4132685,22.594166 C57.190782,22.594874 56.1793932,22.2911357 55.3762101,21.683659 Z M56.984022,15.8942226 C56.984022,15.9883886 57.0642681,16.0358255 57.2247601,16.0358255 C58.8238967,16.0358255 60.2054294,15.6485415 61.3693579,14.8760974 C62.5340095,14.1043614 63.1166967,13.0862362 63.1166967,11.8231379 C63.1166967,11.4549703 62.9735552,11.1604361 62.6894409,10.9409516 C62.4053267,10.719343 62.0322912,10.6088927 61.5717803,10.6088927 C59.8114287,10.6088927 58.4371254,11.8967715 57.4488705,14.473237 C57.1394535,15.2640895 56.984022,15.7370433 56.984022,15.8942226 Z" id="Shape"></path>
<path d="M66.5701668,13.0947324 C66.5701668,13.0111866 66.9027178,12.7060323 67.5656511,12.1821014 C68.2285843,11.6581705 69.0382738,11.1314075 69.9903818,10.6018125 C70.9424898,10.0715095 71.7196471,9.80741999 72.3189619,9.80741999 C72.5119861,9.80741999 72.6912745,9.87043331 72.856827,9.99645993 C73.0223796,10.1224865 73.1055174,10.3157746 73.1055174,10.578448 C73.1055174,10.8729822 73.0794916,11.2156613 73.0281631,11.6086095 C72.9768346,12.0022656 72.9226143,12.356273 72.8662252,12.6706315 C72.8083903,12.9849901 72.7165773,13.4211272 72.5864486,13.9762107 C72.4577658,14.5312943 72.3587234,14.9433588 72.2857068,15.2109884 C72.2134131,15.4779099 72.0912367,15.9395355 71.9213465,16.5951572 C71.7514564,17.2507788 71.6401241,17.6720476 71.5887955,17.8610875 C73.1113009,15.2499292 74.510184,13.2561597 75.7818302,11.876239 C77.0556452,10.4970263 78.2933134,9.80812801 79.4962805,9.80812801 C80.1823478,9.80812801 80.6493651,9.96247522 80.9016701,10.2718777 C81.1539751,10.5819881 81.2790432,10.9359955 81.2790432,11.3338997 C81.2790432,11.82597 81.0672227,12.7449731 80.6399669,14.086661 C80.2156029,15.4283489 79.7883471,16.7105636 79.364706,17.932597 C78.9374502,19.1546304 78.7256297,19.8746814 78.7256297,20.095582 C78.7256297,20.4524214 78.9070869,20.6301331 79.2714471,20.6301331 C79.5396568,20.6301331 79.9141381,20.4290569 80.3956142,20.0247805 C80.8770902,19.6205041 81.2992854,19.2148117 81.6643686,18.8055792 L82.2260907,18.1917304 C82.279588,18.1917304 82.3757387,18.2596998 82.5152655,18.3963466 C82.6547923,18.5329935 82.7241943,18.6370717 82.7241943,18.7107052 C82.7241943,18.7942509 82.55575,19.0286038 82.2181384,19.4102237 C81.8790809,19.7925517 81.4662839,20.2095724 80.9797473,20.6605777 C80.4917648,21.1122911 79.9069088,21.5151515 79.2259021,21.8712829 C78.5448954,22.2281223 77.9202779,22.4065421 77.3513264,22.4065421 C77.0014249,22.4065421 76.725263,22.2727273 76.5228406,22.0050977 C76.3204183,21.7381762 76.2192071,21.3997451 76.2192071,20.9905126 C76.2192071,20.3610875 76.655861,18.9018692 77.528446,16.6100255 C78.400308,14.3181818 78.8376849,12.8483432 78.8376849,12.1983857 C78.8376849,11.9576607 78.7827417,11.7580006 78.6735782,11.6008213 C78.5644147,11.443642 78.411875,11.3650524 78.2145132,11.3650524 C77.8646117,11.3650524 77.3202401,11.7551685 76.5777838,12.5368168 C75.8353275,13.318465 75.1167281,14.1914472 74.417648,15.1557632 C73.717845,16.1200793 73.0722623,17.0794393 72.4794539,18.0338431 C71.9705063,18.8197395 71.4948137,20.0106202 71.0502075,21.6036534 C71.0386405,21.6241858 71.0227358,21.6794109 71.0017707,21.7686208 C70.9808055,21.8578306 70.9598403,21.9335882 70.9395981,21.9966015 C70.9193559,22.0596148 70.8882696,22.1332484 70.8463392,22.2175021 C70.8044089,22.3003398 70.7530803,22.3668932 70.6923536,22.4136222 C70.630181,22.4610592 70.5564415,22.4886718 70.4711349,22.5 C69.5927664,22.5835457 69.06936,22.6260266 68.897301,22.6260266 C68.7895834,22.6260266 68.7129521,22.5792976 68.6645153,22.4844237 C68.6168015,22.3902577 68.6037886,22.2911357 68.6240308,22.1856415 C69.9412221,16.8804871 70.5990948,13.5400736 70.5990948,12.1672331 C70.5990948,11.8415463 70.4899313,11.6794109 70.2701584,11.6794109 C70.0503856,11.6794109 69.6939776,11.8528745 69.2009346,12.1983857 C68.7078915,12.5446049 68.2502724,12.8872841 67.8280772,13.2285472 C67.405882,13.5698103 67.1824944,13.7397338 67.1615293,13.7397338 C67.0509199,13.7397338 66.9251289,13.6767205 66.7827103,13.5506939 C66.6402917,13.4246672 66.5701668,13.2724441 66.5701668,13.0947324 Z" id="Shape"></path>
<path d="M84.2517602,11.1951289 C84.2517602,11.1639762 84.2568208,11.0662702 84.2676648,10.9005947 C84.2792318,10.7342113 84.2835694,10.6315491 84.2835694,10.5890683 C84.2835694,10.528179 84.3124869,10.4602096 84.3717677,10.3879921 C84.4317715,10.3157746 84.5199698,10.2796658 84.6370856,10.2796658 L86.6446817,10.2796658 C86.7617975,10.2796658 86.8326453,10.2626735 86.8536105,10.2293968 C86.8651775,10.2060323 86.8810821,10.1557632 86.9020473,10.0750496 C87.1557982,8.64839989 87.329303,7.57292552 87.4240078,6.84933447 C87.45654,6.62914189 87.5158208,6.47479468 87.6011274,6.38700085 C87.6878798,6.29708298 87.8592159,6.23760974 88.1165815,6.20574908 C88.2467101,6.18592467 88.4766041,6.17459643 88.810601,6.17459643 L89.051339,6.17459643 C89.5783601,6.17459643 89.8415092,6.26876239 89.8415092,6.45921835 C89.958625,6.49391107 89.9600708,6.77074483 89.8444009,7.2883036 C89.728731,7.80727839 89.6065546,8.35740583 89.4749801,8.94293401 C89.3448514,9.52633815 89.2602678,9.90725007 89.2212292,10.0800057 C89.0780877,10.2138204 89.097607,10.2796658 89.2790642,10.2796658 L91.7847638,10.2796658 C92.0204413,10.2796658 92.1165919,10.3993203 92.0739386,10.6365052 C92.0095973,11.1632682 91.8650098,11.4273577 91.6401764,11.4273577 L89.0867629,11.4273577 C88.9262709,11.4273577 88.8344579,11.5109034 88.8142157,11.6787029 C88.5684171,12.9892382 88.2806882,14.6042198 87.9553665,16.5229397 C87.6293219,18.4416596 87.4652152,19.468989 87.4652152,19.6056358 C87.4652152,19.7203342 87.4702758,19.8130841 87.4811198,19.8810535 C87.4926868,19.9490229 87.5404007,20.0177004 87.6257072,20.0856698 C87.7110138,20.1529312 87.834636,20.1876239 87.995128,20.1876239 C88.2083945,20.1876239 88.6089016,19.9391107 89.1915888,19.4406684 C89.774276,18.941518 90.3157558,18.4466157 90.8138594,17.9538374 C91.311963,17.4610592 91.5657139,17.2146701 91.576558,17.2146701 C91.6293324,17.2146701 91.73705,17.2854715 91.897542,17.4270745 C92.058034,17.5686774 92.13828,17.6706315 92.13828,17.7336449 C92.13828,17.7761257 91.9965844,17.9651657 91.7124701,18.3000566 C91.4283559,18.6349476 91.0574892,19.0349759 90.5962554,19.4951855 C90.1350216,19.9553951 89.6455932,20.4148966 89.1265245,20.8715661 C88.6081786,21.3275276 88.0717594,21.7126876 87.5208814,22.0277542 C86.9700034,22.3421127 86.5008172,22.499292 86.1154918,22.499292 C85.2804996,22.499292 84.8633649,22.1013877 84.8633649,21.3041631 C84.8633649,21.0839705 85.1554315,19.4357123 85.7381187,16.3572642 C86.3215289,13.2795242 86.6135954,11.7204758 86.6135954,11.6779949 C86.6135954,11.5314359 86.5926302,11.4528462 86.549254,11.442226 C86.5174448,11.4308978 86.4740686,11.4266497 86.4205712,11.4266497 L84.6059993,11.4266497 C84.368876,11.4273577 84.2517602,11.3501841 84.2517602,11.1951289 Z" id="Shape"></path>
<path d="M92.9241126,14.1015293 C92.9241126,14.0696686 92.999298,13.9393939 93.148946,13.7078731 C93.2985939,13.4763523 93.5147521,13.1761541 93.7988664,12.8037383 C94.0837035,12.4313226 94.3692637,12.0773152 94.6577155,11.7417162 C94.9143582,11.4379779 95.1348539,11.1915888 95.3163111,11.0025489 C95.4977683,10.8135089 95.7385063,10.6018125 96.0392481,10.3653356 C96.3399899,10.1295667 96.6544675,9.951855 96.9870186,9.83078448 C97.3195696,9.70971396 97.6730858,9.65024073 98.0468442,9.65024073 C98.5492854,9.65024073 98.9946146,9.75715095 99.3799401,9.97309544 C99.7652655,10.1890399 99.9582897,10.4998584 99.9582897,10.9090909 C99.9582897,11.202917 99.6083882,12.6345228 98.9064163,15.2024922 C98.2044445,17.7711696 97.854543,19.3231379 97.854543,19.8583971 C97.854543,20.287454 98.1278132,20.5033985 98.6736306,20.5033985 C99.3662043,20.5033985 100.303854,19.6806854 101.485856,18.0345511 C102.168308,17.0596148 102.807384,15.9947607 103.403085,14.8414047 C104.000953,13.6887567 104.453512,12.6239026 104.761483,11.6482583 C104.899564,11.1873407 105.028247,10.6053526 105.145363,9.90229397 C105.188739,9.77626735 105.267539,9.70263381 105.384655,9.68210139 C105.95939,9.55607477 106.523281,9.49306146 107.075605,9.49306146 C107.276581,9.49306146 107.377069,9.61908808 107.377069,9.87043331 C107.377069,9.99645993 107.076327,11.5725007 106.477736,14.5971396 C105.878421,17.6217785 105.578402,19.2495044 105.578402,19.4803172 C105.578402,19.952563 105.756967,20.1883319 106.113375,20.1883319 C106.339655,20.1883319 106.672206,19.9447749 107.10886,19.4569527 C107.545514,18.9691306 107.943852,18.4784764 108.30026,17.9864061 C108.655222,17.4943359 108.844631,17.2472387 108.867042,17.2472387 C108.919817,17.2472387 109.003678,17.2861796 109.117902,17.3654772 C109.232126,17.4447749 109.287792,17.5035401 109.287792,17.546021 C109.287792,17.6295667 109.135252,17.9233928 108.830173,18.4267913 C108.525093,18.9301897 108.150612,19.4838573 107.706006,20.0863778 C107.261399,20.6888983 106.742331,21.2312376 106.148076,21.7141037 C105.553822,22.1969697 105.015957,22.4369867 104.533758,22.4369867 C104.212774,22.4369867 103.935166,22.3477768 103.698766,22.1700651 C103.462365,21.9923534 103.34525,21.7608326 103.34525,21.4776267 C103.34525,21.1207873 103.43634,20.4977344 103.621412,19.6056358 C103.806483,18.7142453 104.026256,17.6975361 104.284345,16.5540923 C104.540987,15.4106485 104.722445,14.5518267 104.82727,13.9747947 C104.047944,15.526763 103.392963,16.6956953 102.860159,17.4822996 C100.597366,20.8906825 98.6765224,22.594166 97.0976279,22.594166 C95.8238129,22.594166 95.1861825,22.1112999 95.1861825,21.1476919 C95.1861825,20.8963466 95.5201794,19.5397904 96.189619,17.0815633 C96.8590587,14.6233362 97.1937786,12.9956103 97.1937786,12.1976777 C97.1937786,11.6425942 97.0058149,11.3643444 96.6313336,11.3643444 C96.3956561,11.3643444 96.0262353,11.6291419 95.5230711,12.1587369 C95.019907,12.6883319 94.5622878,13.2172189 94.1502137,13.7475219 C93.7381396,14.277825 93.5205356,14.5419145 93.5002934,14.5419145 C93.4251079,14.5419145 93.3108839,14.4895214 93.1547295,14.3840272 C93.0014668,14.279241 92.9241126,14.185075 92.9241126,14.1015293 Z" id="Shape"></path>
<path d="M110.349063,12.9687057 C110.349063,12.8426791 110.601368,12.5283206 111.10381,12.0249221 C111.606251,11.5215236 112.222916,11.0259133 112.950914,10.5387992 C113.678188,10.0509771 114.278949,9.80741999 114.749581,9.80741999 C115.210815,9.80741999 115.439986,10.0545171 115.439986,10.5465874 C115.439986,10.8920986 115.167438,12.6854999 114.620898,15.9253752 C115.509388,13.6087511 116.146295,12.1077598 116.532344,11.4266497 C117.218411,10.1996602 118.041836,9.5865194 119.005511,9.5865194 C119.423369,9.5865194 119.800742,9.69980176 120.13763,9.92495044 C120.474519,10.1500991 120.643686,10.4566695 120.643686,10.8453696 C120.643686,11.1802605 120.579345,11.4790428 120.450662,11.7417162 C120.321979,12.0043897 120.113774,12.1346644 119.824599,12.1346644 C119.546991,12.1346644 119.222392,12.0369584 118.852971,11.8436703 C118.483551,11.6503823 118.203051,11.5526763 118.010027,11.5526763 C117.741817,11.5526763 117.500356,11.7261399 117.28709,12.0716511 C116.784649,12.8263948 116.157862,14.1588785 115.408177,16.0669782 C115.332991,16.2666383 115.215152,16.6694987 115.05466,17.2783914 C114.861636,18.0444633 114.65343,18.9563863 114.428597,20.0148683 C114.203763,21.0733503 114.048332,21.7877372 113.963025,22.1537808 C113.931216,22.2904276 113.689755,22.3923818 113.240088,22.4603512 C112.790422,22.5276126 112.432568,22.5623053 112.164358,22.5623053 C111.875183,22.5623053 111.730596,22.4886718 111.730596,22.3421127 C111.730596,22.2897196 111.86217,21.5994053 112.123874,20.2740017 C112.385577,18.9478901 112.649449,17.5212404 112.911152,15.9961767 C113.172855,14.470405 113.30443,13.4402436 113.30443,12.9056924 C113.30443,12.1509487 113.196712,11.7728689 112.983446,11.7728689 C112.758612,11.7728689 112.473052,11.9144718 112.124597,12.1976777 C111.776141,12.4808836 111.466001,12.7605494 111.193454,13.0387992 C110.920184,13.317757 110.762583,13.4558199 110.719207,13.4558199 C110.675831,13.4558199 110.603537,13.3977627 110.502326,13.2830643 C110.401115,13.1690739 110.349063,13.0635797 110.349063,12.9687057 Z" id="Shape"></path>
<path d="M121.591457,17.9120646 C121.591457,16.347352 121.921116,14.9185783 122.578989,13.6328236 C123.237584,12.3449448 124.156437,11.3268196 125.333379,10.5812801 C126.51032,9.83361654 127.827511,9.46120079 129.284229,9.46120079 C129.954392,9.46120079 130.563105,9.57943925 131.110368,9.81662419 C131.657632,10.0545171 132.098623,10.3547154 132.433343,10.7179269 C132.768786,11.0811385 133.050731,11.5031153 133.279179,11.9824412 C133.507628,12.4624752 133.666674,12.9276409 133.757764,13.3807703 C133.848131,13.8338997 133.893676,14.277117 133.893676,14.7082979 C133.893676,16.0259133 133.55751,17.2989238 132.885902,18.5259133 C132.212847,19.7543189 131.286765,20.7575758 130.102594,21.536392 C128.918423,22.3152082 127.650392,22.7046163 126.296331,22.7046163 C124.797682,22.7046163 123.638091,22.2373265 122.819004,21.3034551 C122.000639,20.3695837 121.591457,19.2381762 121.591457,17.9120646 Z M123.823886,17.6621354 C123.823886,17.9658737 123.828947,18.2299632 123.839791,18.4551119 C123.850635,18.6802605 123.879552,18.9712546 123.927989,19.32597 C123.975703,19.6828094 124.056672,19.9865477 124.168727,20.2371849 C124.281505,20.4885302 124.42537,20.7370433 124.602489,20.9841405 C124.778886,21.2298216 125.016732,21.4181535 125.316751,21.5491362 C125.617493,21.6801189 125.964503,21.7452563 126.360672,21.7452563 C127.098791,21.7452563 127.810884,21.4500142 128.496228,20.8581138 C129.182295,20.2669216 129.746186,19.5355423 130.190793,18.6675163 C130.635399,17.7973662 130.990361,16.8918153 131.259293,15.9494477 C131.528226,15.0070801 131.661246,14.1645426 131.661246,13.4204191 C131.661246,13.0961484 131.624377,12.7803738 131.548468,12.4702634 C131.473283,12.161569 131.345323,11.8443784 131.163143,11.5201076 C130.982409,11.1958369 130.697571,10.9317474 130.312246,10.7271311 C129.92692,10.5225149 129.465687,10.4205607 128.930713,10.4205607 C128.128253,10.4205607 127.32001,10.8290852 126.505983,11.6454262 C125.691233,12.4617672 125.041312,13.4352875 124.554053,14.565987 C124.067516,15.6973945 123.823886,16.72968 123.823886,17.6621354 Z" id="Shape"></path>
<path d="M135.049652,14.1015293 C135.049652,14.0696686 135.124838,13.9393939 135.274486,13.7078731 C135.424134,13.4763523 135.640292,13.1761541 135.924406,12.8037383 C136.20852,12.4313226 136.494803,12.0773152 136.783255,11.7417162 C137.039898,11.4379779 137.260394,11.1915888 137.441851,11.0025489 C137.623308,10.8135089 137.864046,10.6018125 138.164065,10.3653356 C138.464807,10.1295667 138.780007,9.951855 139.111835,9.83078448 C139.445109,9.70971396 139.797902,9.65024073 140.172384,9.65024073 C140.674825,9.65024073 141.120154,9.75715095 141.50548,9.97309544 C141.890805,10.1890399 142.083829,10.4998584 142.083829,10.9090909 C142.083829,11.202917 141.733928,12.6345228 141.031956,15.2024922 C140.329984,17.7711696 139.980083,19.3231379 139.980083,19.8583971 C139.980083,20.287454 140.253353,20.5033985 140.79917,20.5033985 C141.491744,20.5033985 142.429393,19.6806854 143.611395,18.0345511 C144.293848,17.0596148 144.932924,15.9947607 145.528624,14.8414047 C146.126493,13.6887567 146.579052,12.6239026 146.887746,11.6482583 C147.025104,11.1873407 147.153787,10.6053526 147.270902,9.90229397 C147.315001,9.77626735 147.393802,9.70263381 147.510917,9.68210139 C148.085652,9.55607477 148.64882,9.49306146 149.201867,9.49306146 C149.402844,9.49306146 149.503332,9.61908808 149.503332,9.87043331 C149.503332,9.99645993 149.203313,11.5725007 148.604721,14.5971396 C148.005406,17.6217785 147.705387,19.2495044 147.705387,19.4803172 C147.705387,19.952563 147.883953,20.1883319 148.239638,20.1883319 C148.465917,20.1883319 148.798468,19.9447749 149.235845,19.4569527 C149.672499,18.9691306 150.070837,18.4784764 150.426522,17.9864061 C150.782207,17.4943359 150.971617,17.2472387 150.994028,17.2472387 C151.046802,17.2472387 151.12994,17.2861796 151.244164,17.3654772 C151.358388,17.4440668 151.414777,17.5035401 151.414777,17.546021 C151.414777,17.6295667 151.262238,17.9233928 150.957158,18.4267913 C150.651356,18.9301897 150.277597,19.4838573 149.832268,20.0863778 C149.387662,20.6888983 148.868593,21.2312376 148.274339,21.7141037 C147.680808,22.1969697 147.14222,22.4369867 146.660743,22.4369867 C146.339759,22.4369867 146.062152,22.3477768 145.826474,22.1700651 C145.590074,21.9923534 145.472958,21.7608326 145.472958,21.4776267 C145.472958,21.1207873 145.564048,20.4977344 145.74912,19.6056358 C145.934192,18.7142453 146.154688,17.6975361 146.412776,16.5540923 C146.669419,15.4106485 146.850153,14.5518267 146.954979,13.9747947 C146.176376,15.526763 145.521395,16.6956953 144.987867,17.4822996 C142.724351,20.8906825 140.804231,22.594166 139.225336,22.594166 C137.951521,22.594166 137.313891,22.1112999 137.313891,21.1476919 C137.313891,20.8963466 137.647888,19.5397904 138.317327,17.0815633 C138.98749,14.6233362 139.321487,12.9956103 139.321487,12.1976777 C139.321487,11.6425942 139.133523,11.3643444 138.759765,11.3643444 C138.524087,11.3643444 138.153944,11.6291419 137.651502,12.1587369 C137.149061,12.6883319 136.691442,13.2172189 136.279368,13.7475219 C135.866571,14.277825 135.64969,14.5419145 135.628725,14.5419145 C135.553539,14.5419145 135.439315,14.4895214 135.283884,14.3840272 C135.126283,14.279241 135.049652,14.185075 135.049652,14.1015293 Z" id="Shape"></path>
<path d="M152.355318,20.3766638 C152.355318,20.1139904 152.457252,19.9001699 152.661121,19.7316624 C152.863543,19.5631549 153.055844,19.4803172 153.23947,19.4803172 C153.345019,19.4803172 153.44117,19.4852733 153.528645,19.4958935 C153.613229,19.5050977 153.701427,19.5284622 153.792517,19.565279 C153.88433,19.6013877 153.953732,19.6297083 154.001446,19.6502407 C154.04916,19.6707732 154.11567,19.7167941 154.201699,19.7868876 C154.287006,19.8598131 154.33978,19.905126 154.362914,19.9256585 C154.38388,19.9476069 154.446052,20.0056641 154.547986,20.1033702 C154.649197,20.2010762 154.704864,20.2541773 154.715708,20.2640895 C154.812581,20.3568394 154.950662,20.4920702 155.133565,20.673322 C155.315022,20.8524497 155.442259,20.9749363 155.510215,21.0414897 C155.581786,21.1094591 155.682274,21.1908808 155.817464,21.2885868 C155.952653,21.3841688 156.077721,21.4493061 156.196283,21.4804588 C156.313398,21.5101954 156.448588,21.5257717 156.599681,21.5257717 C157.227191,21.5257717 157.754212,21.3161994 158.178576,20.8998867 C158.605832,20.48145 158.817652,19.9391107 158.817652,19.2707448 C158.817652,18.9372699 158.655714,18.5818465 158.331116,18.2058907 C158.00724,17.8299349 157.614685,17.4645993 157.158512,17.1091759 C156.700893,16.7537525 156.23749,16.3862928 155.76975,16.0046729 C155.300564,15.6223449 154.902225,15.190456 154.573289,14.7040498 C154.244353,14.2176437 154.080246,13.7192014 154.080246,13.2080147 C154.080246,12.1736052 154.518346,11.2800906 155.396714,10.528179 C156.275806,9.77485132 157.309606,9.3988955 158.498114,9.3988955 C159.050438,9.3988955 159.53842,9.46190881 159.960616,9.58793543 C160.384257,9.71396205 160.70741,9.86193713 160.932243,10.0346927 C161.157799,10.2081563 161.337811,10.4028604 161.470108,10.623053 C161.60602,10.8432455 161.690604,11.0252053 161.726751,11.1717644 C161.765789,11.3183234 161.78314,11.443642 161.78314,11.5477202 C161.78314,11.7473803 161.717353,11.9031436 161.582886,12.017842 C161.449143,12.1332484 161.285759,12.1913056 161.092735,12.1913056 C160.408837,12.1913056 159.845669,11.7934013 159.406846,11.0004248 C159.300574,10.8021807 159.214545,10.6577457 159.150926,10.5692438 C159.088031,10.480742 158.996218,10.3979043 158.881271,10.3193146 C158.764155,10.240725 158.625351,10.2010762 158.464859,10.2010762 C157.89157,10.2010762 157.389129,10.3518833 156.956812,10.6556216 C156.525942,10.9579439 156.31123,11.4485981 156.31123,12.1282923 C156.31123,12.5764656 156.428345,12.9984424 156.662577,13.3892665 C156.895363,13.7815067 157.188152,14.1100255 157.5395,14.375531 C157.890847,14.6410365 158.270389,14.9327386 158.679571,15.2456811 C159.088754,15.5586236 159.469741,15.86661 159.819643,16.1689323 C160.17099,16.4726706 160.46378,16.8564146 160.698011,17.3201643 C160.930797,17.7860379 161.047913,18.3000566 161.047913,18.8629283 C161.047913,19.8583971 160.614151,20.7299632 159.747349,21.4755027 C158.881994,22.2224582 157.852531,22.595582 156.661854,22.595582 C155.640344,22.595582 154.668717,22.3626451 153.741911,21.8960634 C152.818721,21.4280657 152.355318,20.9225432 152.355318,20.3766638 Z" id="Shape"></path>
<path d="M1.64367987,32.8568091 C2.38095052,32.8568091 4.54505673,32.9949377 5.92780061,32.9949377 C7.30837605,32.9949377 9.65752274,32.8568091 10.7171686,32.8568091 C11.3163817,32.8568091 11.3626418,32.9016466 11.3626418,33.6855808 C11.3626418,34.2380952 11.2693988,34.2380952 10.5328509,34.2380952 L8.22996437,34.2380952 C8.13888976,34.2380952 7.7688088,34.2380952 7.7688088,34.6524811 C7.7688088,34.8839008 8.8754376,38.7558411 9.01349514,39.2150645 C10.9932837,45.9450378 14.3110016,55.9922675 14.5871167,56.9128838 C14.9550292,58.0193591 15.0482723,58.5725968 15.1863298,58.5725968 C15.3243874,58.5725968 15.508705,58.0193591 15.9236005,56.9128838 L22.5106078,40.0908433 C22.6486653,39.7227414 22.7419084,39.4913218 22.7419084,39.2620717 C22.7419084,38.8939697 22.5106078,38.5714286 22.3255673,37.8337784 C21.7263542,35.7133956 21.174124,34.2380952 21.0830494,34.2380952 L18.3197301,34.2380952 C17.7660543,34.2380952 17.5361993,34.2380952 17.5361993,33.5474522 C17.5361993,32.8560859 17.720517,32.8560859 18.3197301,32.8560859 C19.0555551,32.8560859 22.050175,32.9942145 23.4321961,32.9942145 C24.8134944,32.9942145 27.8991889,32.8560859 28.9588347,32.8560859 C29.5580479,32.8560859 29.604308,32.9009235 29.604308,33.6848576 C29.604308,34.2373721 29.4192675,34.2373721 28.8207772,34.2373721 L25.8724174,34.2373721 C25.7813428,34.2373721 25.7343599,34.4217846 25.7343599,34.6517579 C25.7343599,35.7589564 26.4253704,38.6618269 26.5641508,39.2143413 C28.3140843,45.6680574 31.3542416,55.9452603 31.6303566,56.9121607 C32.1377723,58.4800289 32.2758299,59.3088006 32.5056848,59.3088006 C32.6900025,59.3088006 32.9198575,58.5248665 33.5190706,57.0047285 C35.8682173,50.7361482 41.1201864,37.3246551 41.1201864,34.9742991 C41.1201864,34.5129061 41.0739263,34.2366489 40.7060138,34.2366489 L37.7113939,34.2366489 C37.1591637,34.2366489 36.9278631,34.2366489 36.9278631,33.5460058 C36.9278631,32.8546395 37.1129036,32.8546395 37.7113939,32.8546395 C38.4486646,32.8546395 41.0739263,32.9927681 42.4559474,32.9927681 C43.8365228,32.9927681 45.1274693,32.8546395 45.5871792,32.8546395 C46.1863923,32.8546395 46.2326525,32.9464842 46.2326525,33.5908433 C46.2326525,34.1455274 46.1415778,34.2366489 45.4043072,34.2366489 C44.1596209,34.2366489 44.1133607,34.4680685 43.7454482,35.2968402 L33.5660535,60.3241544 C33.1048979,61.4769137 32.8287829,61.5231976 32.3213672,62.2608478 C31.3549644,63.6435803 31.0318663,64.6112038 30.4326532,64.6112038 C29.604308,64.6112038 29.2349498,61.9838674 28.0386921,58.3889074 C27.9924319,58.251502 25.7343599,49.9565532 23.7993858,43.1817423 C23.5695308,42.3978082 23.4762878,42.0282599 23.3382302,42.0282599 C23.2001727,42.0282599 23.0621152,42.4426457 22.7860001,43.1817423 L16.2459757,60.3248776 C15.7848201,61.4776368 15.508705,61.5239208 15.0012893,62.261571 C14.0348865,63.6443035 13.7117885,64.611927 13.1125754,64.611927 C12.2827845,64.611927 11.914872,61.9845906 10.7171686,58.3896306 C10.626094,58.111927 3.57865392,34.2388184 3.2555559,34.2388184 L1.64367987,34.2388184 C1.08928125,34.2388184 0.722091551,34.2388184 0.722091551,33.5481753 C0.722091551,32.8568091 1.04446676,32.8568091 1.64367987,32.8568091 Z" id="Shape"></path>
<path d="M53.3046682,45.2081108 C57.864904,45.2081108 60.1677906,48.6634958 60.1677906,52.5354361 C60.1677906,52.9057076 58.2328166,53.0886738 57.6805864,53.0886738 C57.1746163,53.0886738 47.7317694,52.8594237 47.3624113,52.8594237 C47.1325563,52.8594237 47.1325563,53.8726079 47.1325563,54.5184134 C47.1325563,59.4490988 50.5413489,62.1227192 53.9956787,62.1227192 C57.6805864,62.1227192 59.8006009,59.1265576 59.9386585,59.1265576 C60.076716,59.1265576 60.6759291,59.6805185 60.6759291,59.8186471 C60.6759291,60.0949043 57.358934,64.1498109 52.7069007,64.1498109 C47.0400361,64.1498109 43.9095271,60.462283 43.9095271,55.0709279 C43.9080815,49.5399978 47.7310466,45.2081108 53.3046682,45.2081108 Z M47.9146415,52.0747664 C48.1459421,52.0747664 52.8442355,51.9836449 55.1463992,51.8903538 C56.8515183,51.8455162 56.9895758,51.7985091 56.9895758,51.7066644 C56.9895758,47.1896417 54.2262565,46.2220182 52.752438,46.2220182 C49.7108352,46.2220182 47.546729,49.401146 47.3616885,51.7066644 C47.3616885,51.9836449 47.546729,52.0747664 47.9146415,52.0747664 Z" id="Shape"></path>
<path d="M61.587398,33.0404984 C63.7984872,32.8105251 67.8975674,32.3028482 68.128868,32.3028482 C68.4049831,32.3028482 68.4049831,32.7172341 68.4049831,32.9956609 C68.4049831,32.9956609 68.2669256,41.5213062 68.2669256,45.2999555 C68.2669256,46.36087 68.2669256,47.0515131 68.3117401,47.0515131 C68.4497976,47.0515131 70.9370018,45.670227 73.241334,45.670227 C78.4470431,45.670227 82.0856906,49.7714174 82.0856906,54.7953939 C82.0856906,60.7392635 77.1560966,64.0586894 71.9055731,64.0586894 C70.2474369,64.0586894 69.0952708,63.1829105 67.8064928,63.1829105 C66.8849045,63.1829105 66.0565592,64.0116822 65.5484207,64.0116822 C65.1812311,64.0116822 64.9961906,63.8287161 64.9961906,63.4128838 C64.9961906,63.1359034 65.2260455,57.4682911 65.2260455,54.381008 C65.2260455,52.8131397 65.0417279,34.0095683 64.4425148,34.0095683 C64.2596427,34.0095683 61.817253,34.2858255 61.6336581,34.2858255 C61.4023575,34.2858255 61.3560974,34.2395416 61.3560974,34.0095683 C61.3560974,33.7325879 61.4023575,33.0404984 61.587398,33.0404984 Z M72.0436306,62.8126391 C76.3740115,62.8126391 78.7679727,58.9421451 78.7679727,54.8395082 C78.7679727,50.7383178 75.4054403,47.0059524 71.3981574,47.0059524 C69.8325415,47.0059524 68.2669256,47.9265688 68.2669256,48.1587116 C68.2669256,52.8131397 68.1736825,58.988429 68.1736825,60.5092902 C68.1736825,62.7678015 70.7541298,62.8126391 72.0436306,62.8126391 Z" id="Shape"></path>
<path d="M95.0565944,62.3071317 L98.0967516,62.3071317 C98.3728667,62.3071317 98.6959647,45.1618269 98.6959647,37.5112372 C98.6959647,35.3452937 98.6497046,33.9155541 98.6041673,33.9155541 L95.3804152,34.0081219 C94.964797,34.0081219 94.7812021,34.0081219 94.7812021,33.4541611 C94.7812021,32.9016466 94.7812021,32.7165109 95.3804152,32.7165109 C95.5632873,32.7165109 96.9922913,32.7627948 98.5579072,32.7627948 C101.9667,32.7627948 106.112763,32.2102804 107.954494,32.2102804 C117.905479,32.2102804 125.50515,38.1563195 125.50515,48.0184134 C125.50515,58.1104806 117.858496,63.5488429 109.613353,63.642134 C106.618733,63.642134 103.625559,63.4577214 100.630939,63.4577214 C99.341438,63.4577214 95.2871722,63.642134 94.7812021,63.642134 C94.2737843,63.642134 94.2737865,63.5488429 94.2737865,62.9963284 C94.2730636,62.3071317 94.4581041,62.3071317 95.0565944,62.3071317 Z M102.564467,62.2608478 C102.840582,62.4452603 104.268141,62.4452603 105.189729,62.4452603 C120.667353,62.4452603 120.851671,51.4311304 120.851671,47.4210614 C120.851671,40.8762239 115.507904,33.4107699 106.985923,33.4107699 C105.788219,33.4107699 103.899505,33.4107699 102.83986,33.6870271 C102.655542,33.7333111 102.516761,38.3414553 102.516761,40.4155541 C102.470501,46.7759791 102.470501,53.089397 102.470501,59.4968291 C102.471947,60.9699599 102.471947,62.2138407 102.564467,62.2608478 Z" id="Shape"></path>
<path d="M137.878286,45.2081108 C142.438522,45.2081108 144.740685,48.6634958 144.740685,52.5354361 C144.740685,52.9057076 142.805711,53.0886738 142.253481,53.0886738 C141.748234,53.0886738 132.304664,52.8594237 131.935306,52.8594237 C131.706174,52.8594237 131.706174,53.8726079 131.706174,54.5184134 C131.706174,59.4490988 135.114967,62.1227192 138.569296,62.1227192 C142.254204,62.1227192 144.373496,59.1265576 144.512276,59.1265576 C144.649611,59.1265576 145.249547,59.6805185 145.249547,59.8186471 C145.249547,60.0949043 141.931829,64.1498109 137.280518,64.1498109 C131.614377,64.1498109 128.483145,60.462283 128.483145,55.0709279 C128.481699,49.5399978 132.304664,45.2081108 137.878286,45.2081108 Z M132.487536,52.0747664 C132.718114,52.0747664 137.41713,51.9836449 139.720017,51.8903538 C141.424413,51.8455162 141.563194,51.7985091 141.563194,51.7066644 C141.563194,47.1896417 138.800597,46.2220182 137.326056,46.2220182 C134.284453,46.2220182 132.120347,49.401146 131.935306,51.7066644 C131.934583,51.9836449 132.119624,52.0747664 132.487536,52.0747664 Z" id="Shape"></path>
<path d="M149.6139,59.4035381 C149.890738,59.4035381 149.936998,60.0008901 150.489228,60.6474188 C151.410816,61.7538941 152.561537,62.9514909 154.773349,62.9514909 C156.338965,62.9514909 157.812783,62.0308745 157.812783,59.9567757 C157.812783,57.7893858 155.877809,56.7762016 153.713703,55.854862 C151.179516,54.7483867 148.369214,53.8256008 148.369214,50.5553516 C148.369214,47.465899 151.731023,45.3462394 155.002481,45.3462394 C158.503794,45.3462394 159.794017,47.3740543 159.794017,48.4349688 C159.794017,48.9404762 158.458256,49.3100245 157.950841,49.3100245 C156.891195,49.3100245 157.397888,46.3138629 154.403991,46.3138629 C152.884635,46.3138629 151.041458,47.144081 151.041458,49.5399978 C151.041458,51.5222519 152.885358,52.306186 154.818886,53.2268024 C157.490408,54.5184134 160.531288,55.8555852 160.531288,58.5740432 C160.531288,61.9375834 157.444871,64.0124054 154.036801,64.0124054 C151.226499,64.0124054 148.232602,62.5841121 148.232602,61.1565421 C148.231879,60.4174455 149.245265,59.4035381 149.6139,59.4035381 Z" id="Shape"></path>
<path d="M163.470251,46.407154 C163.654569,46.0376057 163.607586,46.0838896 164.160539,46.0376057 C165.035867,45.9913218 169.134947,45.8083556 169.365525,45.8083556 C169.642363,45.8083556 169.688623,45.8531931 169.688623,46.0838896 L169.688623,53.919615 C169.688623,56.5462283 169.688623,59.1265576 169.825958,61.7546173 C169.825958,62.1690031 169.825958,62.3078549 170.287114,62.3078549 L171.944527,62.3078549 C172.405682,62.3078549 172.451943,62.4922675 172.451943,62.9066533 C172.451943,63.3210392 172.451943,63.5510125 171.944527,63.5510125 C171.069199,63.5510125 169.227468,63.459891 168.076024,63.459891 C166.924581,63.459891 164.85155,63.5510125 163.976221,63.5510125 C163.469528,63.5510125 163.469528,63.413607 163.469528,62.9066533 C163.469528,62.4922675 163.515789,62.3078549 164.115002,62.3078549 L166.002993,62.3078549 C166.508963,62.3078549 166.508963,62.2145639 166.508963,61.7546173 C166.555223,60.4174455 166.555223,59.0817201 166.555223,57.6982644 C166.555223,54.4721295 166.508963,51.2004339 166.370183,47.8354473 C166.325368,47.1448042 166.232125,47.0977971 165.771692,47.0977971 C165.633635,47.0977971 163.653123,47.1896417 163.468806,47.1896417 C163.330748,47.1896417 163.283765,47.1448042 163.283765,47.0059524 C163.285211,46.8656542 163.285211,46.7745327 163.470251,46.407154 Z M168.44466,35.4371384 C169.412508,35.4371384 170.379634,35.9448153 170.379634,37.2812639 C170.379634,38.8476858 168.858832,39.86087 167.569332,39.86087 C166.602929,39.86087 165.68134,39.2620717 165.68134,37.971907 C165.68134,36.3129172 167.340199,35.4371384 168.44466,35.4371384 Z" id="Shape"></path>
<path d="M180.599506,66.132065 C181.059216,66.0387739 181.657706,65.9006453 181.657706,65.8558077 C181.657706,65.8095238 181.381591,65.8095238 180.691304,65.8095238 L178.065319,65.8095238 C177.281788,65.8095238 176.498257,65.5325434 176.222142,64.933745 C175.85423,64.0579662 175.80797,63.2291945 175.80797,62.7207944 C175.80797,61.8920227 176.037102,61.3843458 176.636315,61.2462172 C177.789204,60.9699599 178.664532,60.7385403 180.138351,60.3241544 C180.599506,60.186749 181.889007,59.8634846 181.889007,59.77164 C181.889007,59.725356 181.474834,59.6797953 181.013679,59.5423899 C177.742944,58.57332 175.161774,56.4992212 175.161774,52.1210503 C175.161774,48.0654206 179.169779,45.2529484 183.269582,45.2529484 C186.816433,45.2529484 188.751407,47.605474 188.889464,47.605474 C189.165579,47.605474 190.917681,46.8215398 192.344517,46.7282488 C192.482574,46.7282488 192.758689,47.465899 192.758689,48.0198598 C192.758689,48.202826 192.712429,48.296117 192.620632,48.296117 C192.068402,48.3409546 189.902127,48.75751 189.902127,48.9404762 C189.902127,49.218903 190.50134,50.2320872 190.50134,52.2599021 C190.50134,56.17668 188.474569,58.0208055 185.203834,59.2646862 C183.085988,60.0949043 180.3205,60.7862706 177.234805,61.6613262 C177.097471,61.7076101 177.051933,61.8927459 177.051933,62.0757121 C177.051933,62.6303961 177.51092,63.4128838 177.695961,63.4591678 C183.547143,63.8287161 192.944453,63.2291945 192.944453,69.1730641 C192.944453,73.8737761 188.751407,76.8236538 182.80915,76.8236538 C178.986184,76.8236538 174.287891,75.1191032 174.287891,71.4315754 C174.287891,68.2531709 178.386971,66.5934579 180.599506,66.132065 Z M182.764335,75.6267802 C186.217942,75.6267802 190.319191,74.3351691 190.319191,70.2802626 C190.319191,67.6066422 185.665712,66.5927348 182.30318,66.5927348 C180.09209,66.5927348 176.3602,68.067312 176.3602,71.1083111 C176.3602,74.1522029 180.000293,75.6267802 182.764335,75.6267802 Z M183.131525,59.0809969 C184.975424,59.0809969 187.646946,56.3610926 187.646946,52.212895 C187.646946,48.5723743 185.850753,46.407154 183.04045,46.407154 C180.414466,46.407154 178.110856,48.8956386 178.110856,51.9366377 C178.110856,56.4536604 181.980804,59.0809969 183.131525,59.0809969 Z" id="Shape"></path>
<path d="M194.545487,46.5901202 C194.682821,46.2220182 194.590301,46.2690254 195.235774,46.2220182 C195.881247,46.1757343 198.782624,45.9913218 200.071402,45.8994771 C200.762413,45.8531931 200.670615,45.945761 200.670615,46.407154 L200.670615,48.3416778 C200.670615,48.75751 201.131771,48.2498331 201.360903,48.1124277 C202.743647,47.2366489 204.447321,45.7620717 207.2569,45.7620717 C212.601389,45.7620717 213.38492,49.4018692 213.38492,53.919615 C213.38492,56.4543836 213.15362,61.0625278 213.15362,61.7546173 C213.15362,62.2608478 213.19988,62.3078549 213.661035,62.3078549 L215.043779,62.3078549 C215.596009,62.3078549 215.687807,62.3541389 215.687807,62.9066533 C215.687807,63.3210392 215.687807,63.5510125 215.134854,63.5510125 C214.260248,63.5510125 213.015562,63.459891 211.679801,63.459891 C210.528358,63.459891 209.147782,63.5510125 207.765038,63.5510125 C207.119565,63.5510125 207.119565,63.459891 207.119565,62.9522141 C207.119565,62.3989764 207.2569,62.3078549 207.718056,62.3078549 L209.423175,62.3078549 C209.88433,62.3078549 209.88433,62.3078549 209.928422,61.800178 C210.021665,60.6951491 210.113462,58.5740432 210.113462,53.6881954 C210.113462,50.370939 209.238134,47.6980418 205.691284,47.6980418 C203.849553,47.6980418 202.513792,48.5268135 201.592204,48.9874833 C200.854933,49.3570316 200.762413,49.634012 200.762413,50.0483979 C200.762413,53.8270472 200.717598,57.6519804 200.717598,61.4320761 C200.717598,62.1697263 200.717598,62.3078549 201.316089,62.3078549 L202.973502,62.3078549 C203.527901,62.3078549 203.571992,62.4922675 203.571992,62.9066533 C203.571992,63.3210392 203.571992,63.5510125 202.973502,63.5510125 C202.098174,63.5510125 200.579541,63.459891 199.24378,63.459891 C198.092337,63.459891 196.571535,63.5510125 195.189514,63.5510125 C194.590301,63.5510125 194.590301,63.413607 194.590301,62.9066533 C194.590301,62.4922675 194.683544,62.3078549 195.1447,62.3078549 L196.939448,62.3078549 C197.400603,62.3078549 197.355066,62.1697263 197.400603,61.4776368 C197.538661,58.7591789 197.631904,55.4867601 197.631904,52.5368825 C197.631904,50.9704606 197.631904,49.4025923 197.538661,47.9742991 C197.493846,47.283656 197.446863,47.3277704 196.985708,47.3277704 C196.848373,47.3277704 194.636561,47.5129061 194.452243,47.5129061 C194.314186,47.5129061 194.314186,47.4666222 194.314186,47.3277704 C194.314186,47.1896417 194.452243,46.8215398 194.545487,46.5901202 Z" id="Shape"></path>
<polygon id="Shape" points="233.034446 48.6148754 228.32016 50.9686526 231.280908 53.5630192 230.212483 56.6142913 224.796929 51.8724688 224.845394 51.7296859 233.450067 47.4569055"></polygon>
<polygon id="Shape" points="232.88024 58.4005062 239.234246 46.0619159 241.003939 46.0619159 234.658011 58.4005062"></polygon>
<polygon id="Shape" points="241.38725 55.4663162 246.110347 53.1096833 243.141522 50.5081776 244.226836 47.4569055 249.634312 52.1994418 249.585113 52.3486501 240.980441 56.6150052"></polygon>
</g>
</svg>
