<svg width="64px" height="66px" viewBox="0 0 64 66" version="1.1" xmlns="http://www.w3.org/2000/svg" xmlns:xlink="http://www.w3.org/1999/xlink">
    <g id="Page-1" stroke="none" stroke-width="1" fill="none" fill-rule="evenodd">
        <path d="M9.65818182,18.4072727 C8.65454545,20.1090909 7.81818182,21.9636364 7.17090909,23.8545455 L5.44,19.7381818 C5.33818182,19.5054545 5.41090909,19.3090909 5.46909091,19.2145455 C5.52,19.12 5.65090909,18.9527273 5.90545455,18.9236364 L9.65818182,18.4072727 Z" id="Shape"></path>
        <path d="M61.0618182,52.3490909 C61.0618182,58.3054545 56.2181818,63.1418182 50.2690909,63.1418182 L13.7309091,63.1418182 C7.78181818,63.1418182 2.93818182,58.3054545 2.93818182,52.3490909 C2.93818182,49.5927273 5.18545455,47.3454545 7.94909091,47.3454545 L56.0509091,47.3454545 C58.8145455,47.3454545 61.0618182,49.5927273 61.0618182,52.3490909 Z" id="Shape"></path>
        <path d="M55.6509091,34 C55.9563636,34 56.2472727,34.0509091 56.5236364,34.1381818 C56.5309091,34.1381818 56.5381818,34.1454545 56.5454545,34.1454545 C56.6618182,34.1818182 56.7781818,34.2254545 56.8872727,34.2836364 C56.9018182,34.2909091 56.9236364,34.2981818 56.9381818,34.3054545 C57.0327273,34.3563636 57.1272727,34.4072727 57.2145455,34.4654545 C57.3381818,34.5454545 57.4472727,34.6327273 57.5563636,34.7345455 C57.5854545,34.7563636 57.6145455,34.7854545 57.6363636,34.8145455 C57.6727273,34.8509091 57.7018182,34.88 57.7309091,34.9163636 C57.76,34.9454545 57.7890909,34.9818182 57.8181818,35.0181818 C58.0290909,35.28 58.1890909,35.5781818 58.2690909,35.8981818 C58.2909091,35.9636364 58.3054545,36.0290909 58.3127273,36.0945455 C58.32,36.1454545 58.3272727,36.1890909 58.3345455,36.24 C58.3418182,36.3272727 58.3490909,36.4072727 58.3490909,36.4945455 C58.3490909,37.8763636 57.1418182,38.9963636 55.6509091,38.9963636 L52.5672727,38.9963636 L52.5672727,41.3018182 C52.8436364,41.3018182 53.1127273,41.3381818 53.3672727,41.4181818 C53.6218182,41.4909091 53.8545455,41.5927273 54.0727273,41.7309091 C54.1454545,41.7745455 54.2181818,41.8254545 54.2836364,41.8763636 C54.3490909,41.9272727 54.4145455,41.9781818 54.4727273,42.0363636 C54.5309091,42.0872727 54.5890909,42.1454545 54.64,42.2036364 C54.6981818,42.2690909 54.7563636,42.3418182 54.8145455,42.4145455 C54.8581818,42.48 54.9018182,42.5454545 54.9381818,42.6109091 C54.9818182,42.6909091 55.0254545,42.7636364 55.0618182,42.8436364 C55.0909091,42.9090909 55.12,42.9818182 55.1418182,43.0545455 C55.1636364,43.1054545 55.1781818,43.1563636 55.1927273,43.2145455 C55.2072727,43.2727273 55.2218182,43.3236364 55.2290909,43.3818182 C55.2363636,43.4327273 55.2436364,43.4836364 55.2509091,43.5418182 C55.2581818,43.6218182 55.2654545,43.7090909 55.2654545,43.7963636 C55.2654545,44.2472727 55.1272727,44.6690909 54.9018182,45.0327273 L35.2072727,45.0327273 C32.0363636,43.3527273 29.8909091,40.16 29.8909091,36.4945455 C29.8909091,31.0981818 34.56,26.7054545 40.3054545,26.7054545 L57.8109091,26.7054545 C59.3018182,26.7054545 60.5090909,27.8181818 60.5090909,29.2 C60.5090909,30.5745455 59.3018182,31.6945455 57.8109091,31.6945455 L55.6509091,31.6945455 L55.6509091,34 Z" id="Shape"></path>
        <path d="M57.3672727,45.1563636 C57.5054545,44.7272727 57.5781818,44.2690909 57.5781818,43.7963636 C57.5781818,43.3672727 57.1127273,42.0290909 57.0036364,41.6363636 C57.2145455,41.04 57.2145455,41.04 57.9636364,40.7418182 C59.5636364,39.9345455 60.6618182,38.3418182 60.6618182,36.4945455 C60.6618182,35.4327273 60.2981818,34.4509091 59.6872727,33.6509091 C61.5272727,32.9381818 62.8218182,31.2145455 62.8218182,29.2 C62.8218182,26.5454545 60.5745455,24.3927273 57.8109091,24.3927273 L40.3054545,24.3927273 C38.8145455,24.3927273 37.3818182,24.6472727 36.0509091,25.1054545 C36.0363636,25.0763636 36.0218182,25.0545455 36.0072727,25.0254545 C35.5127273,24.1236364 35.1709091,23.1709091 34.88,22.2109091 C34.2545455,20.1672727 33.8545455,18.0727273 32.6763636,16.2109091 C34.2981818,16.0654545 35.7818182,15.3236364 36.8727273,14.1018182 C39.2145455,11.4690909 38.9745455,7.42545455 36.3418182,5.09090909 C34.72,3.64363636 32.5236364,3.14181818 30.48,3.68727273 C30.1163636,2.89454545 29.5927273,2.18181818 28.9309091,1.59272727 C26.6254545,-0.458181818 23.1636364,-0.509090909 20.7781818,1.33090909 C18.2036364,-0.218181818 14.7709091,0.232727273 12.7127273,2.54545455 C11.5781818,3.81818182 11.0109091,5.45454545 11.1127273,7.15636364 C11.2072727,8.85818182 11.9636364,10.4218182 13.2436364,11.5563636 C13.7163636,11.9781818 14.24,12.3127273 14.7927273,12.56 C13.5418182,13.4472727 12.4145455,14.56 11.4109091,15.8327273 L5.58545455,16.6327273 C4.68363636,16.7563636 3.91272727,17.28 3.46181818,18.0727273 C3.01090909,18.8654545 2.95272727,19.7963636 3.30909091,20.6327273 L6.16,27.4109091 C5.65818182,29.6072727 5.41090909,31.7454545 5.41090909,33.6363636 C5.41090909,37.7163636 6.32,41.5709091 7.94909091,45.0327273 C5.93454545,45.0327273 4.10181818,45.8545455 2.77090909,47.1781818 C1.44727273,48.5018182 0.625454545,50.3272727 0.625454545,52.3490909 C0.625454545,59.5781818 6.50909091,65.4545455 13.7309091,65.4545455 L50.2690909,65.4545455 C57.4909091,65.4545455 63.3745455,59.5781818 63.3745455,52.3490909 C63.3745455,48.7636364 60.7781818,45.7818182 57.3672727,45.1563636 Z M40.3054545,26.7054545 L57.8109091,26.7054545 C59.3018182,26.7054545 60.5090909,27.8181818 60.5090909,29.2 C60.5090909,30.5745455 59.3018182,31.6945455 57.8109091,31.6945455 L56.9018182,31.6945455 C56.2109091,31.6945455 55.6509091,32.2545455 55.6509091,32.9454545 C55.6509091,33.4909091 56.0072727,33.9709091 56.5236364,34.1381818 C56.5309091,34.1381818 56.5381818,34.1454545 56.5454545,34.1454545 C56.6618182,34.1818182 56.7781818,34.2254545 56.8872727,34.2836364 C56.9018182,34.2909091 56.9236364,34.2981818 56.9381818,34.3054545 C57.0327273,34.3563636 57.1272727,34.4072727 57.2145455,34.4654545 C57.3381818,34.5454545 57.4472727,34.6327273 57.5563636,34.7345455 C57.5854545,34.7563636 57.6145455,34.7854545 57.6363636,34.8145455 C57.6727273,34.8509091 57.7018182,34.88 57.7309091,34.9163636 C57.76,34.9454545 57.7890909,34.9818182 57.8181818,35.0181818 C58.0290909,35.28 58.1890909,35.5781818 58.2690909,35.8981818 C58.2909091,35.9636364 58.3054545,36.0290909 58.3127273,36.0945455 C58.32,36.1454545 58.3272727,36.1890909 58.3345455,36.24 C58.3418182,36.3272727 58.3490909,36.4072727 58.3490909,36.4945455 C58.3490909,37.8763636 57.1418182,38.9963636 55.6509091,38.9963636 L53.7163636,38.9963636 C53.0836364,38.9963636 52.5672727,39.5127273 52.5672727,40.1454545 L52.5672727,40.32 C52.5672727,40.8218182 52.8872727,41.28 53.3672727,41.4181818 C53.6218182,41.4909091 53.8545455,41.5927273 54.0727273,41.7309091 C54.1454545,41.7745455 54.2181818,41.8181818 54.2836364,41.8763636 C54.3490909,41.9272727 54.4145455,41.9781818 54.4727273,42.0363636 C54.5309091,42.0872727 54.5890909,42.1454545 54.64,42.2036364 C54.6981818,42.2690909 54.7563636,42.3418182 54.8145455,42.4145455 C54.8581818,42.48 54.9018182,42.5454545 54.9381818,42.6109091 C54.9818182,42.6909091 55.0254545,42.7636364 55.0618182,42.8436364 C55.0909091,42.9090909 55.12,42.9818182 55.1418182,43.0545455 C55.1636364,43.1054545 55.1781818,43.1563636 55.1927273,43.2145455 C55.2072727,43.2727273 55.2218182,43.3236364 55.2290909,43.3818182 C55.2363636,43.4327273 55.2436364,43.4836364 55.2509091,43.5418182 C55.2581818,43.6218182 55.2654545,43.7090909 55.2654545,43.7963636 C55.2654545,44.2472727 55.1272727,44.6690909 54.9018182,45.0327273 L35.2072727,45.0327273 C32.0363636,43.3527273 29.8909091,40.16 29.8909091,36.4945455 C29.8909091,31.0981818 34.56,26.7054545 40.3054545,26.7054545 Z M14.7781818,9.82545455 C13.9636364,9.10545455 13.4836364,8.10909091 13.4181818,7.02545455 C13.3527273,5.93454545 13.7163636,4.89454545 14.4363636,4.08 C15.8981818,2.44363636 18.4436364,2.26909091 20.1163636,3.69454545 L20.96,4.40727273 L21.7163636,3.6 C23.2072727,1.98545455 25.76,1.86181818 27.3963636,3.32363636 C28.0218182,3.87636364 28.4581818,4.61090909 28.6472727,5.44 L28.9818182,6.86545455 L30.2909091,6.21818182 C31.7890909,5.46909091 33.5636364,5.70909091 34.8072727,6.81454545 C35.6218182,7.53454545 36.1018182,8.53090909 36.1672727,9.62181818 C36.2327273,10.7054545 35.8690909,11.7527273 35.1418182,12.5672727 C34.4218182,13.3818182 33.4254545,13.8618182 32.3418182,13.9272727 C31.2509091,13.9854545 30.2036364,13.6218182 29.3963636,12.9018182 C28.7709091,12.3418182 28.3345455,11.6072727 28.1454545,10.7781818 L27.8109091,9.35272727 L26.5018182,10.0072727 C25.0472727,10.7345455 23.2945455,10.5163636 22.0581818,9.45454545 L21.2145455,8.74181818 L20.4581818,9.54909091 C18.9672727,11.1636364 16.4145455,11.2872727 14.7781818,9.82545455 Z M5.44,19.7381818 C5.33818182,19.5054545 5.41090909,19.3090909 5.46909091,19.2145455 C5.52,19.12 5.65090909,18.9527273 5.90545455,18.9236364 L9.65818182,18.4072727 C8.65454545,20.1090909 7.81818182,21.9636364 7.17090909,23.8545455 L5.44,19.7381818 Z M7.71636364,33.6363636 C7.71636364,26.6981818 11.6581818,15.3890909 18.7927273,13.0763636 C19.7890909,12.7563636 20.8581818,12.5890909 21.9490909,12.5890909 C23.8909091,12.5890909 25.7381818,13.1272727 27.3381818,14.1018182 C27.3454545,14.1163636 27.36,14.1309091 27.3818182,14.1454545 C27.6290909,14.3854545 28.5963636,15.1854545 29.0836364,15.4763636 C29.12,15.4909091 29.1490909,15.5127273 29.1781818,15.5272727 C29.7527273,16.0872727 30.2690909,16.7127273 30.7054545,17.4109091 C31.4545455,18.5818182 31.8472727,19.9854545 32.2618182,21.4763636 C32.3927273,21.9490909 32.5236364,22.4218182 32.6690909,22.8872727 C32.9309091,23.7527273 33.3163636,24.8872727 33.9272727,26.0363636 C30.1381818,28.1381818 27.5781818,32.0363636 27.5781818,36.4945455 C27.5781818,39.8254545 28.9963636,42.8436364 31.2872727,45.0327273 L10.5454545,45.0327273 C8.74181818,41.6290909 7.71636364,37.7527273 7.71636364,33.6363636 Z M50.2690909,63.1418182 L13.7309091,63.1418182 C7.78181818,63.1418182 2.93818182,58.3054545 2.93818182,52.3490909 C2.93818182,49.5927273 5.18545455,47.3454545 7.94909091,47.3454545 L56.0509091,47.3454545 C58.8145455,47.3454545 61.0618182,49.5927273 61.0618182,52.3490909 C61.0618182,58.3054545 56.2181818,63.1418182 50.2690909,63.1418182 Z" id="Shape" fill="#444444" fill-rule="nonzero"></path>
        <path d="M21.1956364,23.2938182 C20.1134545,23.2938182 19.1934545,22.5905455 18.8669091,21.6174545 C18.7105455,21.1512727 18.272,20.8392727 17.7803636,20.8392727 C16.9956364,20.8392727 16.4269091,21.6087273 16.6770909,22.3527273 C17.3112727,24.2407273 19.0974545,25.6043636 21.1963636,25.6043636 C23.2945455,25.6043636 25.0807273,24.2407273 25.7149091,22.3527273 C25.9650909,21.6087273 25.3963636,20.8392727 24.6116364,20.8392727 C24.12,20.8392727 23.6807273,21.1512727 23.5243636,21.6174545 C23.1978182,22.5905455 22.2770909,23.2938182 21.1956364,23.2938182 Z" id="Shape" fill="#444444" fill-rule="nonzero"></path>
        <path d="M36.1672727,9.62181818 C36.2327273,10.7054545 35.8690909,11.7527273 35.1418182,12.5672727 C34.4218182,13.3818182 33.4254545,13.8618182 32.3418182,13.9272727 C31.2509091,13.9854545 30.2036364,13.6218182 29.3963636,12.9018182 C28.7709091,12.3418182 28.3345455,11.6072727 28.1454545,10.7781818 L27.8109091,9.35272727 L26.5018182,10.0072727 C25.0472727,10.7345455 23.2945455,10.5163636 22.0581818,9.45454545 L21.2145455,8.74181818 L20.4581818,9.54909091 C18.9672727,11.1636364 16.4145455,11.2872727 14.7781818,9.82545455 C13.9636364,9.10545455 13.4836364,8.10909091 13.4181818,7.02545455 C13.3527273,5.93454545 13.7163636,4.89454545 14.4363636,4.08 C15.8981818,2.44363636 18.4436364,2.26909091 20.1163636,3.69454545 L20.96,4.40727273 L21.7163636,3.6 C23.2072727,1.98545455 25.76,1.86181818 27.3963636,3.32363636 C28.0218182,3.87636364 28.4581818,4.61090909 28.6472727,5.44 L28.9818182,6.86545455 L30.2909091,6.21818182 C31.7890909,5.46909091 33.5636364,5.70909091 34.8072727,6.81454545 C35.6218182,7.53454545 36.1018182,8.53090909 36.1672727,9.62181818 Z" id="Shape"></path>
        <path d="M27.5781818,36.4945455 C27.5781818,39.8254545 28.9963636,42.8436364 31.2872727,45.0327273 L10.5454545,45.0327273 C8.74181818,41.6290909 7.71636364,37.7527273 7.71636364,33.6363636 C7.71636364,26.6981818 11.6581818,15.3890909 18.7927273,13.0763636 C19.7890909,12.7563636 20.8581818,12.5890909 21.9490909,12.5890909 C23.8909091,12.5890909 25.7381818,13.1272727 27.3381818,14.1018182 C27.3454545,14.1163636 27.36,14.1309091 27.3818182,14.1454545 C27.5272727,14.3127273 27.6872727,14.4727273 27.8545455,14.6254545 C28.2327273,14.9672727 28.6472727,15.2436364 29.0836364,15.4763636 C29.12,15.4909091 29.1490909,15.5127273 29.1781818,15.5272727 C29.7527273,16.0872727 30.2690909,16.7127273 30.7054545,17.4109091 C31.4545455,18.5818182 31.8472727,19.9854545 32.2618182,21.4763636 C32.3927273,21.9490909 32.5236364,22.4218182 32.6690909,22.8872727 C32.9309091,23.7527273 33.3163636,24.8872727 33.9272727,26.0363636 C30.1381818,28.1381818 27.5781818,32.0363636 27.5781818,36.4945455 Z" id="Shape"></path>
        <path d="M55.6509091,34 C55.9563636,34 56.2472727,34.0509091 56.5236364,34.1381818 C56.5309091,34.1381818 56.5381818,34.1454545 56.5454545,34.1454545 C56.6618182,34.1818182 56.7781818,34.2254545 56.8872727,34.2836364 C56.9018182,34.2909091 56.9236364,34.2981818 56.9381818,34.3054545 C57.0327273,34.3563636 57.1272727,34.4072727 57.2145455,34.4654545 C57.3381818,34.5454545 57.4472727,34.6327273 57.5563636,34.7345455 C57.5854545,34.7563636 57.6145455,34.7854545 57.6363636,34.8145455 C57.6727273,34.8509091 57.7018182,34.88 57.7309091,34.9163636 C57.76,34.9454545 57.7890909,34.9818182 57.8181818,35.0181818 C58.0290909,35.28 58.1890909,35.5781818 58.2690909,35.8981818 C58.2909091,35.9636364 58.3054545,36.0290909 58.3127273,36.0945455 C58.32,36.1454545 58.3272727,36.1890909 58.3345455,36.24 C58.3418182,36.3272727 58.3490909,36.4072727 58.3490909,36.4945455 C58.3490909,37.8763636 57.1418182,38.9963636 55.6509091,38.9963636 L52.5672727,38.9963636 L52.5672727,41.3018182 C52.8436364,41.3018182 53.1127273,41.3381818 53.3672727,41.4181818 C53.6218182,41.4909091 53.8545455,41.5927273 54.0727273,41.7309091 C54.1454545,41.7745455 54.2181818,41.8254545 54.2836364,41.8763636 C54.3490909,41.9272727 54.4145455,41.9781818 54.4727273,42.0363636 C54.5309091,42.0872727 54.5890909,42.1454545 54.64,42.2036364 C54.6981818,42.2690909 54.7563636,42.3418182 54.8145455,42.4145455 C54.8581818,42.48 54.9018182,42.5454545 54.9381818,42.6109091 C54.9818182,42.6909091 55.0254545,42.7636364 55.0618182,42.8436364 C55.0909091,42.9090909 55.12,42.9818182 55.1418182,43.0545455 C55.1636364,43.1054545 55.1781818,43.1563636 55.1927273,43.2145455 C55.2072727,43.2727273 55.2218182,43.3236364 55.2290909,43.3818182 C55.2363636,43.4327273 55.2436364,43.4836364 55.2509091,43.5418182 C55.2581818,43.6218182 55.2654545,43.7090909 55.2654545,43.7963636 C55.2654545,44.2472727 55.1272727,44.6690909 54.9018182,45.0327273 L35.2072727,45.0327273 C32.0363636,43.3527273 29.8909091,40.16 29.8909091,36.4945455 C29.8909091,31.0981818 34.56,26.7054545 40.3054545,26.7054545 L57.8109091,26.7054545 C59.3018182,26.7054545 60.5090909,27.8181818 60.5090909,29.2 C60.5090909,30.5745455 59.3018182,31.6945455 57.8109091,31.6945455 L55.6509091,31.6945455 L55.6509091,34 Z" id="Shape"></path>
        <path d="M61.0618182,52.3490909 C61.0618182,58.3054545 56.2181818,63.1418182 50.2690909,63.1418182 L13.7309091,63.1418182 C7.78181818,63.1418182 2.93818182,58.3054545 2.93818182,52.3490909 C2.93818182,49.5927273 5.18545455,47.3454545 7.94909091,47.3454545 L56.0509091,47.3454545 C58.8145455,47.3454545 61.0618182,49.5927273 61.0618182,52.3490909 Z" id="Shape"></path>
    </g>
</svg>
