<?xml version="1.0" encoding="UTF-8"?>
<svg width="116px" height="104px" viewBox="0 0 116 104" version="1.1" xmlns="http://www.w3.org/2000/svg" xmlns:xlink="http://www.w3.org/1999/xlink">
    <g id="Page-1" stroke="none" stroke-width="1" fill="#444" fill-rule="evenodd">
        <path d="M9.48164746,95.9620783 L4.42521085,95.9620783 C3.08186695,95.9620783 1.98915681,94.8322994 1.98915681,93.4433844 C1.98915681,92.4808786 2.51760947,91.6164058 3.36764248,91.1879399 C3.63551559,91.053573 3.83045296,90.8026634 3.8994104,90.50308 C3.96903089,90.2041822 3.90537787,89.8888313 3.7256907,89.6434061 C3.15413965,88.8618843 2.85245086,87.9350268 2.85245086,86.9642945 C2.85245086,84.5072997 4.78591128,82.5082492 7.16162756,82.5082492 C9.5380069,82.5082492 11.4714673,84.5072997 11.4714673,86.9642945 C11.4714673,87.4297799 11.4005207,87.892523 11.2592906,88.3408697 C11.1293323,88.7556247 11.2659211,89.2101413 11.6007625,89.4754474 C12.4766546,90.1678483 12.9785851,91.2139906 12.9785851,92.3458262 C12.9785851,94.3400778 11.4098035,95.9620783 9.48164746,95.9620783 Z M13.4606241,86.9642945 C13.4606241,83.3734075 10.6353584,80.4516129 7.16162756,80.4516129 C3.68855978,80.4516129 0.863294055,83.3734075 0.863294055,86.9642945 C0.863294055,88.0186634 1.10530813,89.0360128 1.57143388,89.9580714 C0.582822945,90.8129466 0,92.0722935 0,93.4433844 C0,95.9661916 1.98451544,98.0187146 4.42521085,98.0187146 L6.52178212,98.0187146 L6.52178212,101.874908 C6.52178212,102.442539 6.9666902,102.903226 7.51636053,102.903226 C8.06536781,102.903226 8.51093893,102.442539 8.51093893,101.874908 L8.51093893,98.0187146 L9.48164746,98.0187146 C12.5064919,98.0187146 14.9677419,95.47397 14.9677419,92.3458262 C14.9677419,90.8054056 14.3762993,89.3664457 13.3253615,88.3031647 C13.4155366,87.8630446 13.4606241,87.4140123 13.4606241,86.9642945 Z" id="Fill-52"></path>
        <path d="M113.929779,101.748124 L109.963235,101.748124 L109.963235,95.9760157 C109.963235,95.399014 109.499505,94.9307227 108.928124,94.9307227 C108.356053,94.9307227 107.893014,95.399014 107.893014,95.9760157 L107.893014,101.748124 L103.580053,101.748124 L103.580053,95.9760157 C103.580053,95.399014 103.116323,94.9307227 102.544942,94.9307227 C101.972871,94.9307227 101.509832,95.399014 101.509832,95.9760157 L101.509832,101.748124 L97.1968709,101.748124 L97.1968709,95.9760157 C97.1968709,95.399014 96.7331414,94.9307227 96.1617603,94.9307227 C95.5896892,94.9307227 95.1266497,95.399014 95.1266497,95.9760157 L95.1266497,101.748124 L90.8136889,101.748124 L90.8136889,95.9760157 C90.8136889,95.399014 90.3499594,94.9307227 89.7785783,94.9307227 C89.2065072,94.9307227 88.7434677,95.399014 88.7434677,95.9760157 L88.7434677,101.748124 L84.4305069,101.748124 L84.4305069,95.9760157 C84.4305069,95.399014 83.9667774,94.9307227 83.3953963,94.9307227 C82.8233252,94.9307227 82.3602857,95.399014 82.3602857,95.9760157 L82.3602857,101.748124 L78.0473249,101.748124 L78.0473249,95.9760157 C78.0473249,95.399014 77.5835953,94.9307227 77.0122143,94.9307227 C76.4401432,94.9307227 75.9771037,95.399014 75.9771037,95.9760157 L75.9771037,101.748124 L71.6641429,101.748124 L71.6641429,95.9760157 C71.6641429,95.399014 71.2004133,94.9307227 70.6290323,94.9307227 C70.0569611,94.9307227 69.5939217,95.399014 69.5939217,95.9760157 L69.5939217,101.748124 L65.2809608,101.748124 L65.2809608,95.9760157 C65.2809608,95.399014 64.8172313,94.9307227 64.2458502,94.9307227 C63.6737791,94.9307227 63.2107396,95.399014 63.2107396,95.9760157 L63.2107396,101.748124 L58.8977788,101.748124 L58.8977788,95.9760157 C58.8977788,95.399014 58.4340493,94.9307227 57.8626682,94.9307227 C57.2905971,94.9307227 56.8275576,95.399014 56.8275576,95.9760157 L56.8275576,101.748124 L52.5145968,101.748124 L52.5145968,95.9760157 C52.5145968,95.399014 52.0508672,94.9307227 51.4794862,94.9307227 C50.9074151,94.9307227 50.4443756,95.399014 50.4443756,95.9760157 L50.4443756,101.748124 L46.1314148,101.748124 L46.1314148,95.9760157 C46.1314148,95.399014 45.6676852,94.9307227 45.0963042,94.9307227 C44.524233,94.9307227 44.0611936,95.399014 44.0611936,95.9760157 L44.0611936,101.748124 L39.7482327,101.748124 L39.7482327,95.9760157 C39.7482327,95.399014 39.2845032,94.9307227 38.7131221,94.9307227 C38.141051,94.9307227 37.6780115,95.399014 37.6780115,95.9760157 L37.6780115,101.748124 L33.3650507,101.748124 L33.3650507,95.9760157 C33.3650507,95.399014 32.9013212,94.9307227 32.3299401,94.9307227 C31.757869,94.9307227 31.2948295,95.399014 31.2948295,95.9760157 L31.2948295,101.748124 L27.3282857,101.748124 L27.3282857,93.83874 L113.929779,93.83874 L113.929779,101.748124 Z M30.6710029,28.1615871 C30.6710029,24.1337248 36.344099,21.8312927 38.9422266,20.9880897 L38.9422266,91.748154 L30.6710029,91.748154 L30.6710029,28.1615871 Z M46.4543693,27.4988714 L46.4543693,91.748154 L41.0124478,91.748154 L41.0124478,20.643143 L46.4543693,20.643143 L46.4543693,27.4988714 Z M65.4831524,32.4068704 L65.5638911,32.4068704 L65.5638911,81.5119481 C58.0227653,82.5412132 52.5221876,85.4819709 52.245468,85.6324931 C51.9094021,85.8150709 51.7003098,86.1690768 51.7003098,86.5530478 C51.7003098,86.9377156 51.9094021,87.2917215 52.245468,87.4742993 C52.5373692,87.632487 58.6445218,90.9000729 66.8301764,91.748154 L48.5245905,91.748154 L48.5245905,29.0570548 C56.1926898,32.0640143 62.8567318,32.4068704 65.4831524,32.4068704 Z M86.059771,86.5537446 C83.1442095,87.7976433 77.3061857,89.8582642 70.6297223,89.8582642 C63.9677505,89.8582642 58.1214459,87.7969464 55.2010538,86.5530478 C58.1214459,85.309846 63.9677505,83.2485282 70.6297223,83.2485282 C77.2923842,83.2485282 83.1407591,85.3112397 86.059771,86.5537446 Z M72.863491,13.8529197 C75.8501301,13.8800973 84.4581099,13.6438611 92.6630865,10.4954386 L92.6630865,91.748154 L74.4285782,91.748154 C82.6135428,90.9000729 88.7206953,87.632487 89.0132866,87.4742993 C89.3486624,87.2917215 89.5577547,86.9377156 89.5577547,86.5530478 C89.5577547,86.1690768 89.3486624,85.8150709 89.0132866,85.6324931 C88.7020633,85.4638525 81.8240984,81.7858148 72.863491,81.2304158 L72.863491,13.8529197 Z M94.7333077,91.748154 L100.175229,91.748154 L100.175229,2.090586 L94.7333077,2.090586 L94.7333077,91.748154 Z M110.515984,9.60903011 L110.515984,91.748154 L102.24545,91.748154 L102.24545,2.42368603 C105.354923,3.42298614 110.515984,5.86618431 110.515984,9.60903011 Z M114.964889,91.748154 L112.586205,91.748154 L112.586205,9.60903011 C112.586205,2.76305783 101.903174,0.137281814 101.448415,0.02787448 L101.435304,0.026480756 C101.362846,0.01045293 101.287628,0 101.21034,0 L93.6981971,0 C93.1268161,0 92.6630865,0.468291264 92.6630865,1.045293 L92.6630865,8.25014921 C82.9447782,12.2118097 71.9898577,11.7421247 71.8773756,11.7386404 C71.5944454,11.7260969 71.319106,11.8285356 71.1141541,12.0264444 C70.9092022,12.2229595 70.7932698,12.4968262 70.7932698,12.7825397 L70.7932698,81.1600328 L70.6297223,81.1579422 C69.6077231,81.1579422 68.6084964,81.2046319 67.6341123,81.2847711 L67.6341123,31.3350967 C67.6341123,31.0465958 67.5161097,30.7713353 67.3077074,30.5727296 C67.0993051,30.3755177 66.8205153,30.2737758 66.5341347,30.2918943 C66.4506358,30.3009535 58.1359374,30.767851 48.5245905,26.8054937 L48.5245905,19.59785 C48.5245905,19.0208483 48.0608609,18.552557 47.4894799,18.552557 L39.9773372,18.552557 C39.8993589,18.552557 39.8248309,18.5630099 39.7523732,18.5790378 L39.7392618,18.5804315 C39.2845032,18.6898388 28.6007817,21.3156148 28.6007817,28.1615871 L28.6007817,91.748154 L26.2931751,91.748154 C25.721104,91.748154 25.2580645,92.2157484 25.2580645,92.793447 L25.2580645,102.793417 C25.2580645,103.370418 25.721104,103.83871 26.2931751,103.83871 L114.964889,103.83871 C115.53627,103.83871 116,103.370418 116,102.793417 L116,92.793447 C116,92.2157484 115.53627,91.748154 114.964889,91.748154 Z" id="Fill-134"></path>
        <path d="M47.4093592,6.61463814 C46.8360699,6.4362706 46.1732512,6.63050519 45.9294904,7.04797278 C45.6849772,7.46434608 45.9513085,7.94692329 46.5253501,8.12419655 C49.4429562,9.02861846 52.5260789,9.75029571 55.6874458,10.2700784 C55.7709564,10.284304 55.854467,10.2903226 55.9372253,10.2903226 C56.4525838,10.2903226 56.9182873,10.0320726 57.036406,9.65071628 C57.1740857,9.20862741 56.7926452,8.76927424 56.1847479,8.66914768 C53.1557943,8.17125056 50.2028278,7.48021313 47.4093592,6.61463814" id="Fill-135"></path>
        <path d="M62.9357545,11.2265304 C62.3242768,11.2028765 61.7783953,11.7614746 61.7437122,12.5138536 C61.7090291,13.2662326 62.1862984,13.910349 62.8105939,13.9521984 C63.7372353,14.0140627 64.502525,14.0322581 65.0778117,14.0322581 C65.8370696,14.0322581 66.2653302,14.0013259 66.2954894,13.9985966 C66.9182769,13.9512886 67.3917763,13.3035331 67.3525693,12.5520639 C67.3141164,11.8005947 66.7727587,11.2247109 66.1544951,11.2738384 C66.1424314,11.2729287 64.9383254,11.3611763 62.9357545,11.2265304" id="Fill-136"></path>
        <path d="M44.4354839,29 C45.2100645,29 45.8387097,28.5386091 45.8387097,27.9701095 L45.8387097,24.4169873 C45.8387097,23.8484877 45.2100645,23.3870968 44.4354839,23.3870968 C43.6599677,23.3870968 43.0322581,23.8484877 43.0322581,24.4169873 L43.0322581,27.9701095 C43.0322581,28.5386091 43.6599677,29 44.4354839,29" id="Fill-137"></path>
        <path d="M44.4354839,36.483871 C45.2100645,36.483871 45.8387097,36.02248 45.8387097,35.4539805 L45.8387097,31.9008582 C45.8387097,31.3323587 45.2100645,30.8709677 44.4354839,30.8709677 C43.6599677,30.8709677 43.0322581,31.3323587 43.0322581,31.9008582 L43.0322581,35.4539805 C43.0322581,36.02248 43.6599677,36.483871 44.4354839,36.483871" id="Fill-138"></path>
        <path d="M44.4354839,43.0322581 C45.2100645,43.0322581 45.8387097,42.5708671 45.8387097,42.0023676 L45.8387097,38.4492453 C45.8387097,37.8807458 45.2100645,37.4193548 44.4354839,37.4193548 C43.6599677,37.4193548 43.0322581,37.8807458 43.0322581,38.4492453 L43.0322581,42.0023676 C43.0322581,42.5708671 43.6599677,43.0322581 44.4354839,43.0322581" id="Fill-139"></path>
        <path d="M44.4354839,51.4516129 C45.2100645,51.4516129 45.8387097,50.990222 45.8387097,50.4217224 L45.8387097,46.8686002 C45.8387097,46.3001006 45.2100645,45.8387097 44.4354839,45.8387097 C43.6599677,45.8387097 43.0322581,46.3001006 43.0322581,46.8686002 L43.0322581,50.4217224 C43.0322581,50.990222 43.6599677,51.4516129 44.4354839,51.4516129" id="Fill-140"></path>
        <path d="M44.4354839,58 C45.2100645,58 45.8387097,57.5386091 45.8387097,56.9701095 L45.8387097,53.4169873 C45.8387097,52.8484877 45.2100645,52.3870968 44.4354839,52.3870968 C43.6599677,52.3870968 43.0322581,52.8484877 43.0322581,53.4169873 L43.0322581,56.9701095 C43.0322581,57.5386091 43.6599677,58 44.4354839,58" id="Fill-141"></path>
        <path d="M44.4354839,65.483871 C45.2100645,65.483871 45.8387097,65.02248 45.8387097,64.4539805 L45.8387097,60.9008582 C45.8387097,60.3323587 45.2100645,59.8709677 44.4354839,59.8709677 C43.6599677,59.8709677 43.0322581,60.3323587 43.0322581,60.9008582 L43.0322581,64.4539805 C43.0322581,65.02248 43.6599677,65.483871 44.4354839,65.483871" id="Fill-142"></path>
        <path d="M44.4354839,72.0322581 C45.2100645,72.0322581 45.8387097,71.5708671 45.8387097,71.0023676 L45.8387097,67.4492453 C45.8387097,66.8807458 45.2100645,66.4193548 44.4354839,66.4193548 C43.6599677,66.4193548 43.0322581,66.8807458 43.0322581,67.4492453 L43.0322581,71.0023676 C43.0322581,71.5708671 43.6599677,72.0322581 44.4354839,72.0322581" id="Fill-143"></path>
        <path d="M44.4354839,80.4516129 C45.2100645,80.4516129 45.8387097,79.990222 45.8387097,79.4217224 L45.8387097,75.8686002 C45.8387097,75.3001006 45.2100645,74.8387097 44.4354839,74.8387097 C43.6599677,74.8387097 43.0322581,75.3001006 43.0322581,75.8686002 L43.0322581,79.4217224 C43.0322581,79.990222 43.6599677,80.4516129 44.4354839,80.4516129" id="Fill-144"></path>
        <path d="M44.4354839,87 C45.2100645,87 45.8387097,86.5386091 45.8387097,85.9701095 L45.8387097,82.4169873 C45.8387097,81.8484877 45.2100645,81.3870968 44.4354839,81.3870968 C43.6599677,81.3870968 43.0322581,81.8484877 43.0322581,82.4169873 L43.0322581,85.9701095 C43.0322581,86.5386091 43.6599677,87 44.4354839,87" id="Fill-145"></path>
        <path d="M97.7580645,11.2258065 C98.5326452,11.2258065 99.1612903,10.7644155 99.1612903,10.195916 L99.1612903,6.64279373 C99.1612903,6.07429417 98.5326452,5.61290323 97.7580645,5.61290323 C96.9825484,5.61290323 96.3548387,6.07429417 96.3548387,6.64279373 L96.3548387,10.195916 C96.3548387,10.7644155 96.9825484,11.2258065 97.7580645,11.2258065" id="Fill-146"></path>
        <path d="M97.7580645,17.7741935 C98.5326452,17.7741935 99.1612903,17.3128026 99.1612903,16.744303 L99.1612903,13.1911808 C99.1612903,12.6226813 98.5326452,12.1612903 97.7580645,12.1612903 C96.9825484,12.1612903 96.3548387,12.6226813 96.3548387,13.1911808 L96.3548387,16.744303 C96.3548387,17.3128026 96.9825484,17.7741935 97.7580645,17.7741935" id="Fill-147"></path>
        <path d="M97.7580645,26.1935484 C98.5326452,26.1935484 99.1612903,25.7321574 99.1612903,25.1636579 L99.1612903,21.6105357 C99.1612903,21.0420361 98.5326452,20.5806452 97.7580645,20.5806452 C96.9825484,20.5806452 96.3548387,21.0420361 96.3548387,21.6105357 L96.3548387,25.1636579 C96.3548387,25.7321574 96.9825484,26.1935484 97.7580645,26.1935484" id="Fill-148"></path>
        <path d="M97.7580645,33.6774194 C98.5326452,33.6774194 99.1612903,33.2160284 99.1612903,32.6475289 L99.1612903,29.0944066 C99.1612903,28.5259071 98.5326452,28.0645161 97.7580645,28.0645161 C96.9825484,28.0645161 96.3548387,28.5259071 96.3548387,29.0944066 L96.3548387,32.6475289 C96.3548387,33.2160284 96.9825484,33.6774194 97.7580645,33.6774194" id="Fill-149"></path>
        <path d="M97.7580645,40.2258065 C98.5326452,40.2258065 99.1612903,39.7644155 99.1612903,39.195916 L99.1612903,35.6427937 C99.1612903,35.0742942 98.5326452,34.6129032 97.7580645,34.6129032 C96.9825484,34.6129032 96.3548387,35.0742942 96.3548387,35.6427937 L96.3548387,39.195916 C96.3548387,39.7644155 96.9825484,40.2258065 97.7580645,40.2258065" id="Fill-150"></path>
        <path d="M97.7580645,48.6451613 C98.5326452,48.6451613 99.1612903,48.1837703 99.1612903,47.6152708 L99.1612903,44.0621486 C99.1612903,43.493649 98.5326452,43.0322581 97.7580645,43.0322581 C96.9825484,43.0322581 96.3548387,43.493649 96.3548387,44.0621486 L96.3548387,47.6152708 C96.3548387,48.1837703 96.9825484,48.6451613 97.7580645,48.6451613" id="Fill-151"></path>
        <path d="M97.7580645,55.1935484 C98.5326452,55.1935484 99.1612903,54.7321574 99.1612903,54.1636579 L99.1612903,50.6105357 C99.1612903,50.0420361 98.5326452,49.5806452 97.7580645,49.5806452 C96.9825484,49.5806452 96.3548387,50.0420361 96.3548387,50.6105357 L96.3548387,54.1636579 C96.3548387,54.7321574 96.9825484,55.1935484 97.7580645,55.1935484" id="Fill-152"></path>
        <path d="M97.7580645,62.6774194 C98.5326452,62.6774194 99.1612903,62.2160284 99.1612903,61.6475289 L99.1612903,58.0944066 C99.1612903,57.5259071 98.5326452,57.0645161 97.7580645,57.0645161 C96.9825484,57.0645161 96.3548387,57.5259071 96.3548387,58.0944066 L96.3548387,61.6475289 C96.3548387,62.2160284 96.9825484,62.6774194 97.7580645,62.6774194" id="Fill-153"></path>
        <path d="M97.7580645,69.2258065 C98.5326452,69.2258065 99.1612903,68.7644155 99.1612903,68.195916 L99.1612903,64.6427937 C99.1612903,64.0742942 98.5326452,63.6129032 97.7580645,63.6129032 C96.9825484,63.6129032 96.3548387,64.0742942 96.3548387,64.6427937 L96.3548387,68.195916 C96.3548387,68.7644155 96.9825484,69.2258065 97.7580645,69.2258065" id="Fill-154"></path>
        <path d="M97.7580645,77.6451613 C98.5326452,77.6451613 99.1612903,77.1844006 99.1612903,76.6151448 L99.1612903,73.0622746 C99.1612903,72.4930188 98.5326452,72.0322581 97.7580645,72.0322581 C96.9825484,72.0322581 96.3548387,72.4930188 96.3548387,73.0622746 L96.3548387,76.6151448 C96.3548387,77.1844006 96.9825484,77.6451613 97.7580645,77.6451613" id="Fill-155"></path>
        <path d="M97.7580645,84.1935484 C98.5326452,84.1935484 99.1612903,83.7327877 99.1612903,83.1635319 L99.1612903,79.6106617 C99.1612903,79.0414059 98.5326452,78.5806452 97.7580645,78.5806452 C96.9825484,78.5806452 96.3548387,79.0414059 96.3548387,79.6106617 L96.3548387,83.1635319 C96.3548387,83.7327877 96.9825484,84.1935484 97.7580645,84.1935484" id="Fill-156"></path>
    </g>
</svg>
