<svg width="67px" height="34px" viewBox="0 0 67 34" version="1.1" xmlns="http://www.w3.org/2000/svg" xmlns:xlink="http://www.w3.org/1999/xlink">
    <g id="Page-1" stroke="none" stroke-width="1" fill="none" fill-rule="evenodd">
        <g id="dog-shout" transform="translate(1.000000, 0.000000)" fill-rule="nonzero">
            <path d="M15.004,32.448 C15.00312,32.448 15.004,32.448 15.004,32.448 C13.84592,32.448 12.69048,32.382 11.70928,32.323 C11.00616,32.278 10.39456,32.243 9.944,32.243 C8.07224,32.243 1.0824,30.302 0.54912,28.233 C0.41008,27.7 0.61248,27.171 1.09032,26.821 C5.82032,23.358 7.44392,10.448 6.93968,8.992 C5.83704,6.921 5.52376,5.274 6.0236,4.125 C6.3756,3.319 7.084,2.834 8.13032,2.687 C10.208,1.808 11.8492,1.122 13.4904,1.122 C14.38976,1.122 15.2328,1.334 16.06,1.77 C16.90656,1.467 17.64752,1.321 18.31896,1.321 C19.52632,1.321 20.34648,1.784 21.21504,2.274 C21.7668,2.586 22.33792,2.909 23.07096,3.143 C24.43232,3.205 25.0448,4.704 25.63616,6.153 C26.3516,7.901 26.9104,9.047 28.0808,9.047 C30.33184,9.047 32.66736,10.64 33.98208,12.216 C34.62008,12.978 34.92896,13.638 34.90344,14.177 C34.84184,15.492 32.31536,21.321 29.80824,21.321 C28.22248,21.321 25.872,21.657 24.15776,21.901 L22.94864,22.071 C21.25464,22.298 19.91616,22.475 19.91616,25.493 C19.91616,26.495 20.04024,26.696 20.04464,26.706 C21.04432,26.987 21.35584,27.815 21.35584,29.999 L21.35584,30.188 L21.2696,30.352 C20.51544,31.784 18.524,32.448 15.004,32.448 Z" id="Shape" stroke="#000000" stroke-width="1.4"></path>
            <rect id="Rectangle-path" fill="#000000" transform="translate(42.722895, 6.034243) rotate(-131.201017) translate(-42.722895, -6.034243) " x="42.0628977" y="-1.43472517" width="1.31999436" height="14.9379361"></rect>
            <rect id="Rectangle-path" fill="#000000" transform="translate(46.628781, 9.261667) rotate(-107.974737) translate(-46.628781, -9.261667) " x="45.9687754" y="3.80812471" width="1.32001016" height="10.907084"></rect>
            <rect id="Rectangle-path" fill="#000000" x="39.31488" y="14.199" width="26.18" height="1.5"></rect>
            <rect id="Rectangle-path" fill="#000000" transform="translate(47.124919, 20.570335) rotate(-166.532124) translate(-47.124919, -20.570335) " x="39.0940439" y="19.8203355" width="16.0617492" height="1.49999899"></rect>
        </g>
    </g>
</svg>
