<svg width="60px" height="60px" viewBox="0 0 60 60" version="1.1" xmlns="http://www.w3.org/2000/svg" xmlns:xlink="http://www.w3.org/1999/xlink">
    <!-- Generator: Sketch 50.2 (55047) - http://www.bohemiancoding.com/sketch -->
    <desc>Created with Sketch.</desc>
    <defs></defs>
    <g id="Page-1" stroke="none" stroke-width="1" fill="none" fill-rule="evenodd">
        <g id="Artboard" transform="translate(-13.000000, -13.000000)" fill="#000000" fill-rule="nonzero">
            <g id="gear" transform="translate(13.000000, 13.000000)">
                <path d="M22.7716634,40 L17.2247428,40 C16.32092,40 15.5734244,39.3387836 15.5213153,38.4924984 L14.9031939,34.4479382 C14.3767126,34.2592759 13.9005436,34.0652233 13.4692961,33.8657803 L10.3391582,36.2393316 C9.771349,36.7316503 8.70760523,36.7747732 8.03917165,36.1261342 C5.90269979,34.1892013 4.51731728,32.7751325 3.82552446,31.8210403 C3.60271327,31.5101967 3.49849513,31.1688078 3.49849513,30.7735154 C3.49849513,30.4105651 3.61888505,30.0494116 3.84708683,29.729584 C4.10583532,29.3738209 4.53348906,28.8168179 5.14082925,28.0316234 C5.56488927,27.5015722 5.90988725,27.0613602 6.18121378,26.705597 C5.89551233,26.1360165 5.66012309,25.5736232 5.48043664,25.0238074 L1.41413234,24.4254784 C0.598355869,24.2799389 0,23.5540383 0,22.7311113 L0,17.1808463 C0,16.3812775 0.580387224,15.6392058 1.32249225,15.4900728 L5.5127802,14.8576049 C5.68348232,14.3616926 5.8973092,13.8585931 6.15965141,13.3411194 C5.46426486,12.3870272 4.67544135,11.3808283 3.80935268,10.3422873 C3.52365123,10.0116791 3.37271461,9.63076094 3.37271461,9.22648459 C3.37271461,8.80064684 3.56497911,8.45746114 3.73208751,8.2077082 C4.17591303,7.59859851 7.86846952,3.37256311 9.22689906,3.37256311 C9.63658416,3.37256311 10.0121288,3.51091546 10.3750955,3.79480729 L13.4207807,6.15757794 C13.8879655,5.93297997 14.371322,5.73174019 14.861866,5.55565538 C15.1439738,3.28991106 15.3470195,2.03755278 15.5482683,1.29368431 C15.7656889,0.472554128 16.3766228,0 17.2247428,0 L22.7734603,0 C23.67908,0 24.4265756,0.663013206 24.475091,1.50750157 L25.0968061,5.55026503 C25.6250842,5.73892732 26.1030502,5.93297997 26.5342977,6.13601653 L29.6877948,3.75887162 C30.1100579,3.3186596 31.2223171,3.20007187 31.9302817,3.82535262 C34.1098783,5.83056329 35.5347918,7.30392597 36.1780693,8.21489534 C36.2768968,8.29395382 36.5015049,8.64073309 36.5015049,9.22648459 C36.5015049,9.59302848 36.3793181,9.9559788 36.1493194,10.2740095 C35.8977584,10.6261791 35.4611203,11.1885725 34.8519833,11.9540023 L34.6794843,12.1768035 C34.3344863,12.6224059 34.0433943,12.9961369 33.8115988,13.3069805 C34.0829253,13.8711706 34.3147208,14.4227832 34.5051884,14.9546312 L38.5894614,15.5817087 C39.4016441,15.7236547 40,16.4513521 40,17.2760758 L40,22.8227473 C40,23.6259096 39.4052379,24.3679813 38.6469611,24.511724 L34.4602668,25.1477855 C34.2536274,25.6904142 34.046988,26.1791393 33.8313643,26.6229449 C34.3578456,27.3434552 35.121513,28.317312 36.1924442,29.6397449 C36.4709582,29.9505884 36.6254885,30.3404905 36.6254885,30.7681251 C36.6254885,31.1795885 36.48713,31.5425389 36.2032254,31.8713503 C35.9678361,32.1965681 32.1926239,36.6238433 30.7713041,36.6238433 C30.4029469,36.6238433 30.0345896,36.5034588 29.6752167,36.2662834 L26.5756255,33.8424221 C26.1066439,34.0652233 25.6214905,34.2682598 25.1345402,34.4443446 C24.8524325,36.7118857 24.6493868,37.9624472 24.448138,38.7045189 C24.2307174,39.5274459 23.6179866,40 22.7716634,40 Z M13.2950002,31.973767 L13.7460132,32.2073488 C14.3371816,32.5128021 15.034365,32.7984907 15.8806882,33.0823825 L16.3460761,33.2387027 L17.1187278,38.321804 L22.7698666,38.388285 C22.843538,38.388285 22.870491,38.3775043 22.870491,38.3775043 C23.1364269,37.3928668 23.387988,35.4918696 23.600018,33.7471925 L23.6629082,33.2369059 L24.1516554,33.078789 C24.8739949,32.8452071 25.6178968,32.5343635 26.3007053,32.1803971 L26.7607026,31.9414248 L30.6167737,34.9600216 C30.6724765,34.9941605 30.746148,35.0121283 30.7731009,35.0121283 C31.2600512,34.8126853 33.9894883,32.1696164 34.9454202,30.8687449 L34.9328422,30.8543707 L34.9454202,30.6531309 C33.6247249,29.0270416 32.787386,27.9489713 32.2357486,27.1583865 L31.9554378,26.7559069 L32.1818427,26.322882 C32.4998877,25.7155691 32.8053547,25.0058395 33.1144153,24.1505705 L33.27793,23.6995778 L38.3774314,22.9233672 L38.3918063,17.274279 L33.27793,16.3956518 L33.1287903,15.9141137 C32.9023853,15.1882131 32.5735591,14.4066122 32.1566866,13.5944659 L31.9320785,13.1596442 L32.2159831,12.7589615 C32.4909034,12.3708562 32.8880104,11.8605696 33.4073043,11.1885725 L33.5869907,10.9585841 C34.1781591,10.2165124 34.5968285,9.67747732 34.8412021,9.3360884 L34.8843268,9.14742611 C34.4674543,8.58143922 33.4486321,7.40993621 30.852163,5.02380738 L30.8144288,5.06153984 L30.6581016,5.04716557 L26.7049998,8.02802983 L26.2539868,7.79444794 C25.6664121,7.4889947 24.9674318,7.2015093 24.1193118,6.91761746 L23.652127,6.75950049 L22.8758816,1.67460246 L17.222946,1.60991825 C16.9084947,2.42565807 16.6982615,3.78043302 16.3981852,6.25101069 L16.3388886,6.75950049 L15.8483446,6.91761746 C15.1044427,7.15838649 14.3821032,7.46204294 13.6992947,7.81600934 L13.2410943,8.05498158 L9.38502313,5.06333663 C8.73276133,5.18551792 6.00152733,7.83038361 5.05278289,9.12766149 C4.99528323,9.21570389 4.98090831,9.26242027 4.97911145,9.26421705 C6.06082386,10.5255592 6.97542788,11.7024526 7.76065765,12.8074746 L8.05354656,13.2189381 L7.81096986,13.6627437 C7.39769103,14.4137993 7.10120839,15.114545 6.9035533,15.8009164 L6.76160101,16.2986255 L1.59920938,17.074836 L1.60999057,22.7275177 L6.74003863,23.5827868 L6.88019406,24.0894798 C7.07964602,24.8225676 7.40128476,25.5951846 7.8343291,26.389363 L8.0769058,26.8331686 L7.78222003,27.2446321 C7.4749562,27.6740634 7.01855263,28.2598149 6.40582184,29.0270416 C5.82184089,29.7816908 5.40317147,30.327913 5.1534073,30.6693019 L4.4759894,31.3484862 L5.1282512,30.8759321 C5.74457572,31.7258108 7.0958178,33.0967568 9.14064957,34.9528344 L9.16041508,34.9366634 L9.36525763,34.956428 L13.2950002,31.973767 Z M19.9991016,30.4231426 C14.2509321,30.4231426 9.57549077,25.7443177 9.57549077,19.9964064 C9.57549077,14.2484952 14.252729,9.57326386 19.9991016,9.57326386 C25.747271,9.57326386 30.4245092,14.250292 30.4245092,19.9964064 C30.4245092,22.8640733 29.3967028,25.3436349 27.3698396,27.3668134 C25.3447734,29.3953823 22.8633035,30.4231426 19.9991016,30.4231426 Z M19.9991016,11.1849789 C15.1385832,11.1849789 11.1854813,15.1379032 11.1854813,19.9982032 C11.1854813,24.8585033 15.1385832,28.8132243 19.9991016,28.8132243 C22.4554153,28.8132243 24.4930596,27.9669392 26.2306276,26.2294493 C27.9699924,24.495553 28.8145187,22.4562034 28.8145187,19.9982032 C28.8127218,15.1379032 24.85962,11.1849789 19.9991016,11.1849789 Z" id="Shape"></path>
            </g>
        </g>
    </g>
</svg>
