<svg width="29px" height="41px" viewBox="0 0 29 41" version="1.1" xmlns="http://www.w3.org/2000/svg" xmlns:xlink="http://www.w3.org/1999/xlink">
    <g id="Page-1" stroke="none" stroke-width="1" fill="none" fill-rule="evenodd">
        <g id="map-marker-outline" fill="#000000" fill-rule="nonzero">
            <path d="M14.5,40.526 C12.973,40.526 11.592,39.661 10.983,38.323 L1.809,18.869 C1.204,17.577 0.911,16.006 0.911,14.063 C0.911,6.57 7.007,0.474 14.5,0.474 C21.993,0.475 28.089,6.571 28.089,14.064 C28.089,16.007 27.795,17.579 27.192,18.868 L18.039,38.332 C17.399,39.667 16.012,40.526 14.5,40.526 Z M14.5,3.10361292 C8.22788305,3.10361292 3.126,8.20643141 3.126,14.4776129 C3.126,16.0949866 3.35985969,17.379344 3.83880434,18.4045849 L12.4242614,36.6091588 C12.7750509,37.3818312 13.6085269,37.8953871 14.5,37.8953871 C15.4026984,37.8953871 16.2277554,37.3902501 16.6019309,36.6063525 L25.1602602,18.4036494 C25.6401403,17.379344 25.874,16.0949866 25.874,14.4785484 C25.874,8.20736685 20.772117,3.10454836 14.5,3.10361292 Z M14.5,18.934 C11.814,18.934 9.629,16.748 9.629,14.062 C9.629,11.376 11.815,9.191 14.5,9.191 C17.187,9.191 19.371,11.377 19.371,14.062 C19.371,15.402 18.892,16.561 17.945,17.506 C16.997,18.454 15.838,18.934 14.5,18.934 Z M14.5000619,11.048 C12.8370366,11.048 11.4850619,12.3999747 11.4850619,14.063 C11.4850619,15.7260253 12.8370366,17.078 14.5000619,17.078 C15.3403365,17.078 16.0377908,16.7897306 16.6327297,16.1956678 C17.2267925,15.6016051 17.5159381,14.9041508 17.5159381,14.063 C17.5150619,12.3999747 16.1613348,11.048 14.5000619,11.048 Z" id="Shape"></path>
        </g>
    </g>
</svg>
