<?xml version="1.0" encoding="utf-8"?>
<!-- Generator: Adobe Illustrator 16.2.1, SVG Export Plug-In . SVG Version: 6.00 Build 0)  -->
<!DOCTYPE svg PUBLIC "-//W3C//DTD SVG 1.1//EN" "http://www.w3.org/Graphics/SVG/1.1/DTD/svg11.dtd">
<svg version="1.1" id="Layer_1" xmlns="http://www.w3.org/2000/svg" xmlns:xlink="http://www.w3.org/1999/xlink" x="0px" y="0px"
	 width="31px" height="41px" viewBox="0 0 31 41" enable-background="new 0 0 31 41" xml:space="preserve">
<path d="M15.5,40.526c-1.527,0-2.908-0.865-3.517-2.203L2.809,18.869c-0.605-1.292-0.898-2.863-0.898-4.806
	c0-7.493,6.096-13.589,13.589-13.589c7.493,0.001,13.589,6.097,13.589,13.59c0,1.943-0.294,3.515-0.897,4.804l-9.153,19.464
	C18.399,39.667,17.012,40.526,15.5,40.526z M15.5,1.903c-6.705,0-12.159,5.455-12.159,12.159c0,1.729,0.25,3.102,0.762,4.198
	l9.178,19.461c0.375,0.826,1.266,1.375,2.219,1.375c0.965,0,1.847-0.54,2.247-1.378l9.149-19.459
	c0.513-1.095,0.763-2.468,0.763-4.196C27.659,7.359,22.205,1.904,15.5,1.903z M15.5,18.934c-2.686,0-4.871-2.186-4.871-4.872
	s2.186-4.871,4.871-4.871c2.687,0,4.871,2.186,4.871,4.871c0,1.34-0.479,2.499-1.426,3.444C17.997,18.454,16.838,18.934,15.5,18.934
	z M15.5,10.622c-1.898,0-3.441,1.543-3.441,3.441s1.543,3.441,3.441,3.441c0.959,0,1.755-0.329,2.434-1.007
	c0.678-0.678,1.008-1.474,1.008-2.434C18.941,12.165,17.396,10.622,15.5,10.622z"/>
</svg>
