<svg width="37px" height="37px" viewBox="0 0 37 37" version="1.1" xmlns="http://www.w3.org/2000/svg" xmlns:xlink="http://www.w3.org/1999/xlink">
    <g id="Page-1" stroke="none" stroke-width="1" fill="none" fill-rule="evenodd">
        <g id="search" fill="#000000" fill-rule="nonzero">
            <path d="M0.144,33.211 C2.05,31.432 3.99,29.688 5.85,27.861 C7.354,26.384 8.763,24.808 10.416,23.064 C11.641,24.236 12.64,25.193 13.81,26.312 C10.359,29.884 7.032,33.328 3.705,36.771 C3.536,36.771 3.366,36.771 3.197,36.771 C1.679,36.255 0.661,35.238 0.145,33.72 C0.144,33.551 0.144,33.381 0.144,33.211 Z" id="Shape"></path>
            <path d="M36.34,9.805 C33.972,2.434 26.276,-1.638 18.971,0.625 C11.566,2.919 7.523,10.462 9.689,17.94 C11.355,23.693 16.314,27.604 22.136,27.754 C29.005,27.932 34.244,24.488 36.285,18.473 C36.578,17.609 37.704,14.373 36.34,9.805 Z M22.96,25.578 C16.687,25.553 11.378,20.279 11.4,14.097 C11.424,7.725 16.71,2.351 22.998,2.307 C29.247,2.264 34.686,7.702 34.695,14.005 C34.706,20.35 29.377,25.605 22.96,25.578 Z" id="Shape"></path>
            <path d="M13.811,14.179 C14.398,8.061 16.688,5.251 21.607,4.962 C17.079,6.843 14.814,10 13.811,14.179 Z" id="Shape"></path>
        </g>
    </g>
</svg>
