<svg width="101px" height="91px" viewBox="0 0 101 91" version="1.1" xmlns="http://www.w3.org/2000/svg" xmlns:xlink="http://www.w3.org/1999/xlink">
    <g id="Welcome" stroke="none" stroke-width="1" fill="#444" fill-rule="evenodd">
        <path d="M41.4296923,32.52 C41.0406923,32.52 40.6716923,32.292 40.5086923,31.912 C40.4756923,31.832 39.7006923,29.988 39.5796923,27.771 C38.6116923,25.94 37.5016923,25.498 36.1076923,24.942 C34.8056923,24.424 33.3556923,23.846 31.9116923,22.176 C29.6076923,24.207 26.5626923,24.422 23.8386923,24.614 C20.2766923,24.866 18.1996923,25.135 17.4426923,27.642 C17.4666923,29.689 16.9536923,31.03 15.6926923,32.241 C15.2946923,32.624 14.6606923,32.612 14.2786923,32.213 C13.8966923,31.815 13.9086923,31.182 14.3066923,30.8 C15.0576923,30.078 15.4836923,29.312 15.4396923,27.534 L15.4366923,27.387 L15.4756923,27.244 C16.6096923,23.12 20.3756923,22.854 23.6976923,22.619 C26.5056923,22.421 29.4076923,22.216 31.2276923,20.016 L32.0676923,19 L32.8196923,20.083 C34.1576923,22.013 35.4646923,22.533 36.8476923,23.084 C38.4636923,23.729 40.1336923,24.394 41.4636923,27.064 L41.5606923,27.259 L41.5686923,27.476 C41.6336923,29.425 42.3426923,31.112 42.3496923,31.129 C42.5656923,31.638 42.3286923,32.225 41.8206923,32.44 C41.6936923,32.495 41.5606923,32.52 41.4296923,32.52" id="Fill-352"></path>
        <path d="M14,31.459 C13.448,31.459 13,31.012 13,30.459 C13,25.859 13.398,20.737 16.351,17.629 C19.39,14.432 24.747,13 28.708,13 C29.26,13 29.708,13.448 29.708,14 C29.708,14.553 29.26,15 28.708,15 C24.527,15 20.043,16.648 17.802,19.006 C15.333,21.604 15,26.254 15,30.459 C15,31.012 14.552,31.459 14,31.459" id="Fill-353"></path>
        <path d="M42.707,31.459 C42.155,31.459 41.707,31.012 41.707,30.459 C41.707,26.254 41.374,21.604 38.905,19.006 C36.664,16.648 32.18,15 28,15 C27.447,15 27,14.553 27,14 C27,13.448 27.447,13 28,13 C31.96,13 37.317,14.432 40.355,17.629 C43.309,20.737 43.707,25.859 43.707,30.459 C43.707,31.012 43.259,31.459 42.707,31.459" id="Fill-354"></path>
        <path d="M12.1695601,31.7532399 L12.1695601,31.7542399 L12.1695601,31.7532399 Z M12.1395601,31.7822399 L12.1395601,31.7832399 L12.1395601,31.7822399 Z M28.3565601,53.5202399 C22.9325601,53.5202399 19.6715601,50.5062399 18.2795601,49.2192399 L17.9995601,48.9642399 C15.0735601,46.3472399 13.4125601,42.5802399 12.9295601,37.4652399 C11.4225601,36.7422399 10.3995601,35.3792399 10.0865601,33.6392399 C9.87056012,32.4372399 10.0315601,30.9152399 10.8805601,30.2292399 C11.3095601,29.8822399 11.9395601,29.9482399 12.2875601,30.3772399 C12.6275601,30.7982399 12.5705601,31.4122399 12.1635601,31.7632399 C12.0405601,31.9432399 11.8655601,32.7442399 12.1555601,33.7022399 C12.3755601,34.4312399 12.9075601,35.3912399 14.1935601,35.8232399 L14.8235601,36.0342399 L14.8725601,36.6972399 C15.2355601,41.5882399 16.6945601,45.1142399 19.3335601,47.4732399 L19.6365601,47.7502399 C20.8565601,48.8782399 23.7145601,51.5202399 28.3565601,51.5202399 C32.9975601,51.5202399 35.8555601,48.8782399 37.0755601,47.7502399 L37.3785601,47.4722399 C40.0175601,45.1142399 41.4765601,41.5882399 41.8405601,36.6972399 L41.8895601,36.0342399 L42.5195601,35.8232399 C43.8045601,35.3912399 44.3365601,34.4312399 44.5575601,33.7012399 C44.8515601,32.7262399 44.6665601,31.9122399 44.5425601,31.7532399 C44.1125601,31.4072399 44.0625601,30.7912399 44.4095601,30.3632399 C44.7565601,29.9322399 45.4025601,29.8812399 45.8315601,30.2292399 C46.6805601,30.9152399 46.8425601,32.4362399 46.6255601,33.6382399 C46.3125601,35.3792399 45.2905601,36.7412399 43.7825601,37.4652399 C43.3005601,42.5812399 41.6385601,46.3472399 38.7115601,48.9632399 L38.4325601,49.2192399 C37.0405601,50.5062399 33.7805601,53.5202399 28.3565601,53.5202399 Z" id="Fill-355"></path>
        <path d="M2.03223326,79.641 L2.04223326,79.641 L2.03223326,79.641 Z M6.08223326,90.913 C5.87923326,90.913 5.67323326,90.852 5.49623326,90.722 C5.33323326,90.602 1.48723326,87.714 0.0482332577,79.82 L0.0322332577,79.641 C0.0322332577,79.121 0.0252332577,78.549 0.0182332577,77.933 C-0.0427667423,72.772 -0.133766742,64.974 3.08923326,59.828 C7.87623326,52.187 20.1292333,52.004 20.6492333,52 C21.2282333,52.036 21.6522333,52.44 21.6562333,52.991 C21.6612333,53.544 21.2172333,53.995 20.6652333,54 C20.5492333,54.001 8.98623326,54.184 4.78423326,60.891 C1.87323326,65.538 1.96023326,72.982 2.01823326,77.909 C2.02523326,78.497 2.03123326,79.047 2.03223326,79.549 C3.32723326,86.522 6.64723326,89.085 6.68123326,89.11 C7.12023326,89.44 7.21423326,90.065 6.88623326,90.507 C6.69023326,90.772 6.38823326,90.913 6.08223326,90.913 Z" id="Fill-356"></path>
        <path d="M50.5720268,90.914 C50.2630268,90.914 49.9590268,90.772 49.7630268,90.504 C49.4380268,90.06 49.5340268,89.436 49.9760268,89.11 C50.0410268,89.06 53.3350268,86.49 54.6250268,79.549 C54.6250268,79.047 54.6320268,78.497 54.6390268,77.909 C54.6960268,72.982 54.7840268,65.538 51.8720268,60.891 C47.6620268,54.169 36.1080268,54.001 35.9920268,54 C35.4400268,53.996 34.9960268,53.544 35.0000268,52.992 C35.0040268,52.44 35.4640268,52.036 36.0080268,52 C36.5270268,52.004 48.7800268,52.187 53.5670268,59.828 C56.7910268,64.974 56.6990268,72.772 56.6390268,77.933 C56.6310268,78.549 56.6250268,79.121 56.6250268,79.641 L56.6080268,79.82 C55.1690268,87.714 51.3240268,90.602 51.1610268,90.722 C50.9830268,90.852 50.7760268,90.914 50.5720268,90.914" id="Fill-357"></path>
        <path d="M12.1565594,83.4524424 C11.8345594,83.4524424 11.5185594,83.2974424 11.3255594,83.0114424 C7.58655937,77.4514424 9.45855937,71.9044424 9.54055937,71.6704424 C9.72255937,71.1504424 10.2935594,70.8734424 10.8135594,71.0564424 C11.3345594,71.2384424 11.6095594,71.8074424 11.4285594,72.3274424 C11.3595594,72.5314424 9.82255937,77.1944424 12.9845594,81.8954424 C13.2935594,82.3534424 13.1715594,82.9744424 12.7135594,83.2824424 C12.5415594,83.3984424 12.3475594,83.4524424 12.1565594,83.4524424" id="Fill-358"></path>
        <path d="M44.9990539,83.4510591 C44.8070539,83.4510591 44.6130539,83.3970591 44.4420539,83.2810591 C43.9840539,82.9730591 43.8620539,82.3520591 44.1700539,81.8940591 C47.3340539,77.1890591 45.7920539,72.5230591 45.7250539,72.3260591 C45.5470539,71.8050591 45.8230539,71.2360591 46.3440539,71.0560591 C46.8650539,70.8740591 47.4330539,71.1500591 47.6140539,71.6690591 C47.6960539,71.9030591 49.5680539,77.4500591 45.8300539,83.0090591 C45.6370539,83.2960591 45.3210539,83.4510591 44.9990539,83.4510591" id="Fill-359"></path>
        <path d="M12.5400423,16.24525 C12.4060423,16.24525 12.2710423,16.21925 12.1410423,16.16125 L6.16604226,13.55325 C5.45104226,13.24225 5.00404226,12.56325 5.00004226,11.78325 C4.99504226,11.00225 5.43404226,10.31825 6.14604226,9.99825 L27.9950423,0.17025 C28.5010423,-0.05675 29.0820423,-0.05675 29.5880423,0.17025 L51.4790423,9.99925 C52.1910423,10.31925 52.6310423,11.00225 52.6270423,11.78225 C52.6230423,12.56225 52.1760423,13.24125 51.4610423,13.55425 L45.4870423,16.16125 C44.9830423,16.38625 44.3920423,16.15225 44.1710423,15.64525 C43.9500423,15.13825 44.1810423,14.55025 44.6870423,14.32925 L50.5440423,11.77125 L28.7690423,1.99425 L7.08104226,11.77025 L12.9400423,14.32925 C13.4470423,14.55025 13.6780423,15.13825 13.4570423,15.64525 C13.2930423,16.02125 12.9250423,16.24525 12.5400423,16.24525" id="Fill-360"></path>
        <path d="M18.205,17.251 C17.787,17.251 17.398,16.988 17.258,16.571 L16,12.863 L16.633,12.436 C19.957,10.188 23.842,9 27.87,9 C28.422,9 28.87,9.447 28.87,10 C28.87,10.552 28.422,11 27.87,11 C24.497,11 21.236,11.924 18.39,13.681 L19.152,15.93 C19.329,16.454 19.048,17.021 18.525,17.198 C18.419,17.234 18.311,17.251 18.205,17.251" id="Fill-361"></path>
        <path d="M37.715,17.101 C37.609,17.101 37.501,17.085 37.395,17.048 C36.872,16.872 36.591,16.304 36.768,15.781 L37.479,13.681 C34.633,11.924 31.371,11 28,11 C27.447,11 27,10.552 27,10 C27,9.447 27.447,9 28,9 C32.027,9 35.913,10.188 39.237,12.436 L39.869,12.864 L38.662,16.421 C38.521,16.838 38.132,17.101 37.715,17.101" id="Fill-362"></path>
        <path d="M6.00006847,27.348311 C5.86406847,27.348311 5.72506847,27.321311 5.59306847,27.261311 C5.08806847,27.036311 4.86206847,26.445311 5.08706847,25.940311 C7.89306847,19.659311 5.12006847,13.479311 5.09206847,13.417311 C4.86106847,12.916311 5.08106847,12.322311 5.58306847,12.090311 C6.08406847,11.862311 6.67906847,12.080311 6.90906847,12.583311 C7.04106847,12.868311 10.0850685,19.657311 6.91406847,26.756311 C6.74806847,27.128311 6.38206847,27.348311 6.00006847,27.348311" id="Fill-363"></path>
        <path d="M4.027,28.265 C4.632,28.957 5.084,29.729 5.434,30.668 C5.833,30.06 6.11,29.261 6.11,28.626 C6.11,27.668 5.554,27 5.055,27 C4.621,27 4.145,27.504 4.027,28.265 Z M5.275,33.123 C5.134,33.123 4.991,33.104 4.851,33.064 C4.325,32.915 3.919,32.514 3.766,31.992 C3.429,30.837 2.987,30.041 2.286,29.327 L2,29.035 L2,28.626 C2,26.627 3.37,25 5.055,25 C6.74,25 8.11,26.627 8.11,28.626 C8.11,30.055 7.345,31.781 6.293,32.731 C6.009,32.987 5.648,33.123 5.275,33.123 Z" id="Fill-364"></path>
        <path d="M28.2735303,60.2002395 C24.0555303,60.2002395 20.1155303,57.8722395 17.1785303,53.6452395 C16.8635303,53.1922395 16.9765303,52.5692395 17.4295303,52.2542395 C17.8835303,51.9382395 18.5065303,52.0512395 18.8215303,52.5052395 C21.3735303,56.1772395 24.7295303,58.2002395 28.2735303,58.2002395 C31.8425303,58.2002395 35.2165303,56.1522395 37.7745303,52.4332395 C38.0875303,51.9782395 38.7095303,51.8632395 39.1655303,52.1762395 C39.6205303,52.4892395 39.7355303,53.1112395 39.4225303,53.5662395 C36.4805303,57.8442395 32.5205303,60.2002395 28.2735303,60.2002395" id="Fill-365"></path>
        <path d="M76.2142136,59.3016874 C72.8992136,59.0986874 70.4752136,57.3136874 69.3202136,56.2676874 C66.9172136,54.0926874 64.9202136,50.7556874 63.3812136,46.3476874 C61.9162136,45.1536874 61.2012136,43.8706874 61.0062136,42.1096874 C60.9452136,41.5616874 61.3402136,41.0676874 61.8892136,41.0056874 C62.4362136,40.9476874 62.9322136,41.3396874 62.9932136,41.8896874 C63.1392136,43.2006874 63.6392136,44.0306874 64.8402136,44.9516874 L65.0802136,45.1356874 L65.1782136,45.4216874 C66.6182136,49.6446874 68.4632136,52.7936874 70.6622136,54.7846874 C71.6242136,55.6546874 73.6312136,57.1406874 76.2762136,57.3036874 L76.3242136,57.3016874 C78.9082136,57.1406874 80.9152136,55.6546874 81.8762136,54.7846874 C84.0752136,52.7936874 85.9212136,49.6446874 87.3612136,45.4216874 L87.4592136,45.1356874 L87.6992136,44.9516874 C88.8992136,44.0306874 89.4002136,43.2006874 89.5462136,41.8896874 C89.6072136,41.3406874 90.1032136,40.9496874 90.6502136,41.0056874 C91.1982136,41.0676874 91.5942136,41.5616874 91.5332136,42.1096874 C91.3382136,43.8706874 90.6222136,45.1536874 89.1572136,46.3476874 C87.6192136,50.7556874 85.6222136,54.0926874 83.2182136,56.2676874 C82.0632136,57.3136874 79.6402136,59.0986874 76.3862136,59.2996874 L76.2142136,59.3016874" id="Fill-366"></path>
        <path d="M75.064,23 C67.86,23 62,29.294 62,37.03 C62,37.201 62.023,37.68 62.182,38.97 C62.193,39.064 62.276,39.159 62.359,39.128 C65.495,39.035 73.358,38.209 78.62,32.571 C78.993,32.172 79.519,31.971 80.071,31.982 C80.625,32.008 81.136,32.275 81.473,32.715 C84.29,36.377 87.423,37.826 88.968,38.352 C89.003,37.898 89.021,37.456 89.021,37.03 C89.021,29.294 83.16,23 75.957,23 L75.064,23 Z M62.353,41.129 C61.253,41.129 60.332,40.315 60.196,39.214 C60.065,38.134 60,37.42 60,37.03 C60,28.191 66.758,21 75.064,21 L75.957,21 C84.263,21 91.021,28.191 91.021,37.03 C91.021,37.829 90.966,38.674 90.857,39.545 C90.838,39.7 90.784,39.843 90.704,39.966 C90.539,40.401 90.087,40.674 89.611,40.596 C89.398,40.561 84.369,39.685 79.977,34.049 C74.203,40.134 65.785,41.027 62.418,41.128 L62.353,41.129 Z" id="Fill-367"></path>
        <path d="M54.9994195,67.6356626 C54.8244195,67.6356626 54.6474195,67.5896626 54.4864195,67.4926626 C54.0124195,67.2096626 53.8584195,66.5946626 54.1424195,66.1216626 C54.4564195,65.5976626 54.5214195,65.4836626 54.5434195,65.4416626 C54.5654195,65.3986626 54.5614195,65.3966626 54.9214195,64.8226626 C59.2934195,57.8446626 67.1814195,57.0356626 67.5154195,57.0046626 C68.0704195,56.9516626 68.5504195,57.3566626 68.6024195,57.9056626 C68.6544195,58.4556626 68.2514195,58.9426626 67.7024195,58.9956626 C67.6304195,59.0036626 60.4514195,59.7626626 56.6164195,65.8846626 C56.4004195,66.2276626 56.3404195,66.3236626 56.3174195,66.3626626 C56.3114195,66.3766626 56.2754195,66.4536626 55.8584195,67.1486626 C55.6704195,67.4626626 55.3394195,67.6356626 54.9994195,67.6356626" id="Fill-368"></path>
        <path d="M62.8087852,74.263875 L62.8087852,74.266875 L62.8087852,74.263875 Z M61.2017852,74.546875 L61.2027852,74.548875 L61.2017852,74.546875 Z M61.0017852,80.511875 L60.8477852,80.500875 C60.3017852,80.416875 59.9277852,79.905875 60.0117852,79.359875 C60.4637852,76.429875 60.7207852,74.710875 60.8307852,73.972875 C60.9017852,73.485875 61.2767852,73.100875 61.7627852,73.017875 C62.2507852,72.929875 62.7377852,73.172875 62.9707852,73.612875 C63.1957852,74.040875 63.0817852,74.556875 62.7217852,74.851875 C62.5847852,75.769875 62.3477852,77.335875 61.9887852,79.664875 C61.9127852,80.158875 61.4867852,80.511875 61.0017852,80.511875 Z" id="Fill-369"></path>
        <path d="M89.2771007,74.26557 L89.2781007,74.26857 L89.2771007,74.26557 Z M90.8841007,74.54657 L90.8831007,74.54857 L90.8841007,74.54657 Z M91.0841007,80.51157 C90.6001007,80.51157 90.1741007,80.15857 90.0981007,79.66457 C89.7381007,77.33557 89.5021007,75.76857 89.3651007,74.85157 C89.0051007,74.55657 88.8901007,74.04057 89.1161007,73.61257 C89.3491007,73.17257 89.8361007,72.93057 90.3231007,73.01757 C90.8101007,73.10057 91.1851007,73.48557 91.2561007,73.97457 C91.3651007,74.71057 91.6231007,76.42957 92.0741007,79.35957 C92.1581007,79.90557 91.7841007,80.41657 91.2381007,80.50057 L91.0841007,80.51157 Z" id="Fill-370"></path>
        <path d="M99.984497,83.3502947 C99.498497,83.3502947 99.072497,82.9962947 98.997497,82.5012947 C98.833497,81.4252947 98.695497,80.2992947 98.553497,79.1442947 C98.012497,74.7302947 97.398497,69.7272947 94.990497,65.8852947 C91.138497,59.7362947 83.979497,59.0032947 83.906497,58.9972947 C83.357497,58.9452947 82.952497,58.4582947 83.004497,57.9082947 C83.054497,57.3582947 83.532497,56.9482947 84.092497,57.0052947 C84.426497,57.0362947 92.314497,57.8452947 96.686497,64.8222947 C99.329497,69.0432947 99.972497,74.2802947 100.538497,78.9012947 C100.678497,80.0362947 100.813497,81.1422947 100.974497,82.2002947 C101.057497,82.7462947 100.682497,83.2562947 100.136497,83.3392947 L99.984497,83.3502947" id="Fill-371"></path>
        <path d="M90.7250439,25.0193769 C90.3390439,25.0193769 89.9720439,24.7953769 89.8080439,24.4193769 C89.5870439,23.9123769 89.8180439,23.3243769 90.3250439,23.1033769 L95.5000439,20.8433769 L75.8310439,12.0123769 L56.2020439,20.8433769 L61.3780439,23.1033769 C61.8840439,23.3243769 62.1150439,23.9123769 61.8940439,24.4193769 C61.6730439,24.9253769 61.0820439,25.1593769 60.5780439,24.9353769 L55.1180439,22.5513769 C54.4330439,22.2533769 54.0040439,21.6033769 54.0000439,20.8553769 C53.9950439,20.1073769 54.4170439,19.4533769 55.0990439,19.1463769 L75.0670439,10.1623769 C75.5530439,9.94737695 76.1080439,9.94437695 76.5930439,10.1623769 L96.6020439,19.1463769 C97.2840439,19.4523769 97.7050439,20.1073769 97.7020439,20.8543769 C97.6980439,21.6023769 97.2700439,22.2533769 96.5840439,22.5523769 L91.1250439,24.9353769 C90.9950439,24.9933769 90.8590439,25.0193769 90.7250439,25.0193769" id="Fill-372"></path>
        <path d="M67.118,25.713 C66.701,25.713 66.311,25.45 66.171,25.033 L65,21.584 L65.632,21.156 C68.684,19.092 72.253,18 75.951,18 C76.503,18 76.951,18.447 76.951,19 C76.951,19.553 76.503,20 75.951,20 C72.908,20 69.964,20.828 67.39,22.402 L68.065,24.393 C68.242,24.916 67.961,25.483 67.438,25.66 C67.332,25.696 67.224,25.713 67.118,25.713" id="Fill-373"></path>
        <path d="M84.879,25.576 C84.774,25.576 84.665,25.56 84.559,25.523 C84.036,25.347 83.755,24.779 83.932,24.256 L84.561,22.402 C81.987,20.828 79.043,20 76,20 C75.448,20 75,19.553 75,19 C75,18.447 75.448,18 76,18 C79.698,18 83.267,19.092 86.319,21.156 L86.951,21.584 L85.827,24.896 C85.686,25.313 85.296,25.576 84.879,25.576" id="Fill-374"></path>
        <path d="M55.0000866,34.2001175 C54.8640866,34.2001175 54.7250866,34.1731175 54.5920866,34.1131175 C54.0880866,33.8881175 53.8620866,33.2971175 54.0870866,32.7921175 C56.6240866,27.1161175 54.1170866,21.4731175 54.0910866,21.4171175 C53.8630866,20.9151175 54.0840866,20.3211175 54.5850866,20.0931175 C55.0880866,19.8591175 55.6790866,20.0821175 55.9090866,20.5831175 C56.0300866,20.8461175 58.8290866,27.0851175 55.9140866,33.6081175 C55.7480866,33.9801175 55.3820866,34.2001175 55.0000866,34.2001175" id="Fill-375"></path>
        <path d="M54.031,35.043 C54.542,35.636 54.934,36.291 55.244,37.076 C55.551,36.556 55.757,35.917 55.757,35.401 C55.757,34.576 55.294,34 54.878,34 C54.526,34 54.139,34.414 54.031,35.043 Z M55.08,39.596 C54.943,39.596 54.804,39.577 54.668,39.539 C54.159,39.395 53.766,39.006 53.618,38.5 C53.314,37.459 52.916,36.743 52.287,36.101 L52,35.81 L52,35.401 C52,33.526 53.291,32 54.878,32 C56.466,32 57.757,33.526 57.757,35.401 C57.757,36.75 57.062,38.319 56.068,39.216 C55.792,39.465 55.441,39.596 55.08,39.596 Z" id="Fill-376"></path>
        <path d="M77.322,68.134 L75.133,68.134 C70.097,68.134 66,64.036 66,59 C66,58.447 66.448,58 67,58 C67.553,58 68,58.447 68,59 C68,62.933 71.2,66.134 75.133,66.134 L77.322,66.134 C81.255,66.134 84.455,62.933 84.455,59 C84.455,58.447 84.903,58 85.455,58 C86.007,58 86.455,58.447 86.455,59 C86.455,64.036 82.358,68.134 77.322,68.134" id="Fill-377"></path>
        <path d="M63.849,60.6751649 L63.612,60.6471649 C63.521,60.6251649 61.351,60.0851649 58.801,58.4121649 L58,57.8861649 L58.491,57.0631649 C61.771,51.5701649 61.135,44.1671649 61.129,44.0921649 C61.078,43.5421649 61.483,43.0551649 62.033,43.0041649 C62.586,42.9541649 63.069,43.3601649 63.12,43.9091649 C63.149,44.2231649 63.757,51.3271649 60.688,57.2281649 C62.589,58.3321649 64.068,58.7001649 64.085,58.7041649 C64.621,58.8351649 64.95,59.3761649 64.82,59.9121649 C64.709,60.3691649 64.299,60.6751649 63.849,60.6751649" id="Fill-378"></path>
        <path d="M87.9987536,60.674334 C87.5487536,60.674334 87.1397536,60.368334 87.0287536,59.911334 C86.8977536,59.375334 87.2267536,58.834334 87.7637536,58.703334 C87.7787536,58.699334 89.2717536,58.321334 91.1597536,57.226334 C88.0907536,51.325334 88.6997536,44.222334 88.7287536,43.908334 C88.7787536,43.358334 89.2677536,42.953334 89.8147536,43.004334 C90.3647536,43.054334 90.7697536,43.541334 90.7207536,44.090334 C90.7137536,44.165334 90.0867536,51.584334 93.3567536,57.062334 L93.8487536,57.885334 L93.0467536,58.411334 C90.4967536,60.084334 88.3277536,60.624334 88.2367536,60.646334 L87.9987536,60.674334" id="Fill-379"></path>
    </g>
</svg>
