<svg width="765" height="573" xmlns="http://www.w3.org/2000/svg"><g transform="matrix(-1 0 0 1 765 0)" fill="none" opacity=".3"><path d="M6.5 431.7c.1 0 .3-.1.5-.7 1.4-5.4-2.3-14.9-6.4-21v19.3c.9.4 1.8.8 2.6 1.3 1.3.7 2.7 1.4 3.3 1.1zm618.9-334c.5 1 .6 1.9.3 2.9-1.1 3.3-6.9 6.1-13.6 9.5-4.7 2.3-10 5-14.6 8.2-3.5 2.5-4 5.1-4.5 7.9-.6 3.6-1.3 7.3-8.9 11.8-2.6 1.5-5.4 3.2-8.2 5-14.3 8.8-30.6 18.7-41.5 17.8-6.3-.6-10.5-5.6-14.9-11-3.7-4.5-7.6-9.2-12.9-11.2L500 136c-17.6-7-35.8-14.2-57.6-13.7-3.3.1-7-.4-10.9-1-7.1-.9-14.3-1.9-19.5.5-4.1 1.9-6.6 6.3-9 10.4-2.1 3.5-4.2 7.2-7.3 9.3l-3 2.1c-8.8 6.2-18 12.6-27.7 16.4l-.7.3c-5 2-10.7 4.3-14.7 2.5-1.8-.8-3.1-2.4-4-4.8-.9-2.5-.8-5.1.5-7.7 3.9-8.1 18.1-16.4 42.2-24.6 3.9-1.3 7-5.1 10.1-8.7 3.1-3.7 6.3-7.5 10.1-8.6 8-2.2 16.8-.7 24.6.6 6 1 11.2 1.8 15.2 1 19.7-4 39.7-4 60.1-3.7 4.8.1 11.1 2.9 17.2 5.6 6.4 2.9 13.1 5.9 18.3 5.8 6.9-.1 12-3.6 17.4-7.3 4.5-3 9.1-6.2 14.8-7.2 1.7-.3 4.7-1.2 8.5-2.4 12.7-3.9 36.7-11.2 40.8-3.1zM66.5 7c8.3.4 17.5.2 26.5-6.2H34c.3.1.6.2.9.2 11.5 2.9 21.4 5.4 31.6 6z" opacity=".5" fill="#FFF"/><path d="M28.6 59.9V.8h-1v59.1H.6v1h27v89H.6v1h27v89H.6v1h27v89H.6v1h27v89H.6v1h27v89H.6v1h27V572h1v-61.1h89V572h1v-61.1h89V572h1v-61.1h89V572h1v-61.1h89V572h1v-61.1h89V572h1v-61.1h89V572h1v-61.1h89V572h1v-61.1h89V572h1v-61.1h16.3v-1h-16.3v-89h16.3v-1h-16.3v-89h16.3v-1h-16.3v-89h16.3v-1h-16.3v-89h16.3v-1h-16.3v-89h16.3v-1h-16.3V.8h-1v59.1h-89V.8h-1v59.1h-89V.8h-1v59.1h-89V.8h-1v59.1h-89V.8h-1v59.1h-89V.8h-1v59.1h-89V.8h-1v59.1h-89V.8h-1v59.1h-89zm718.9 361v89h-89v-89h89zm-90 0v89h-89v-89h89zm-89.9 0v89h-89v-89h89zm-90 0v89h-89v-89h89zm-90 0v89h-89v-89h89zm-90 0v89h-89v-89h89zm-90 0v89h-89v-89h89zm-90 0v89h-89v-89h89zm629.9-90v89h-89v-89h89zm-90 0v89h-89v-89h89zm-89.9 0v89h-89v-89h89zm-90 0v89h-89v-89h89zm-90 0v89h-89v-89h89zm-90 0v89h-89v-89h89zm-90 0v89h-89v-89h89zm-90 0v89h-89v-89h89zm629.9-90v89h-89v-89h89zm-90 0v89h-89v-89h89zm-89.9 0v89h-89v-89h89zm-90 0v89h-89v-89h89zm-90 0v89h-89v-89h89zm-90 0v89h-89v-89h89zm-90 0v89h-89v-89h89zm-90 0v89h-89v-89h89zm629.9-90v89h-89v-89h89zm-90 0v89h-89v-89h89zm-89.9 0v89h-89v-89h89zm-90 0v89h-89v-89h89zm-90 0v89h-89v-89h89zm-90 0v89h-89v-89h89zm-90 0v89h-89v-89h89zm-90 0v89h-89v-89h89zm629.9-90v89h-89v-89h89zm-90 0v89h-89v-89h89zm-89.9 0v89h-89v-89h89zm-90 0v89h-89v-89h89zm-90 0v89h-89v-89h89zm-90 0v89h-89v-89h89zm-90 0v89h-89v-89h89zm-90 0v89h-89v-89h89z" opacity=".5" fill="#BCBEC0"/><path d="M324.8 393.1c.1-.7.1-1.3.2-2l-2-.2c-.1.7-.1 1.3-.2 2l2 .2zM323 413l2-.2c-.1-.7-.1-1.3-.2-2l-2 .2c.1.7.1 1.4.2 2zm-.4-6l2-.1c-.1-1.7-.1-3.4-.1-5.1 0-1.6 0-3.2.1-4.8l-2-.1c-.1 1.7-.1 3.3-.1 4.9-.1 1.8 0 3.5.1 5.2zm2.5 20l2-.4c-.6-3.2-1.2-6.5-1.6-9.8l-2 .3c.4 3.3.9 6.6 1.6 9.9zm2 9.8c.7 3.3 1.4 6.5 2.1 9.8l2-.4c-.7-3.3-1.4-6.5-2.1-9.8l-2 .4zm-.9-3.9l2-.4c-.1-.6-.3-1.3-.4-1.9l-2 .4c.2.6.3 1.2.4 1.9zm-2.7-46l2 .3c.3-1.7.6-3.4.9-5.2.3-1.6.6-3.1.9-4.6l-2-.4c-.3 1.5-.6 3-.9 4.6-.3 1.8-.6 3.5-.9 5.3zm2.9-53.1l1.9-.5c-.2-.7-.3-1.3-.5-2l-1.9.6c.2.7.3 1.3.5 1.9zm1.9 13.7l2-.1c-.1-3.6-.5-6.9-1.1-10.1l-2 .4c.6 3.1 1 6.3 1.1 9.8zm2.1 104.9l2-.4c-.1-.7-.3-1.3-.4-2l-2 .4c.1.7.3 1.4.4 2zm-2.3-79c.1-.7.2-1.3.3-2l-2-.3c-.1.6-.2 1.3-.3 2l2 .3zm.9-5.9c.5-3.5.9-6.9 1.1-10l-2-.1c-.2 3.1-.6 6.4-1.1 9.9l2 .2zm1.3-14.1v-2h-2v2h2zm2.2 112.8l2-.2c-.3-3.4-.8-6.7-1.4-10l-2 .3c.6 3.3 1 6.6 1.4 9.9zm-13.2 63.5l.9-1.8-1.8-.9-.9 1.8 1.8.9zm-12.5 31.2c.8-3.3 1.7-6.5 2.8-9.5l-1.9-.7c-1.1 3.1-2 6.3-2.8 9.7l1.9.5zm6.4-18.7c1.4-3 2.8-6 4.3-9l-1.8-.9c-1.5 3-3 6-4.3 9.1l1.8.8zm-2.3 5.5c.2-.6.5-1.2.7-1.8l-1.8-.8c-.3.6-.5 1.2-.8 1.9l1.9.7zM204.5 1.5c0-.2-.1-.4-.1-.7h-2c.1.3.1.7.2 1l1.9-.3zm101.2 565.2c.1-.7.2-1.3.3-1.9l-2-.4c-.1.7-.2 1.3-.3 2l2 .3zm-2.5 3.7c-.1.5-.1 1.1-.1 1.6h2c0-.5.1-.9.1-1.4l-2-.2zm29.6-100.3c0 .7.1 1.3.1 2l2-.1c0-.7-.1-1.3-.1-2l-2 .1zM322 524.3c1.5-3 2.9-6 4.2-9.1l-1.8-.8c-1.3 3.1-2.8 6.1-4.2 9l1.8.9zm-1.3-205.1c1.6 3 2.9 6 4 9l1.9-.7c-1.1-3.1-2.5-6.2-4.1-9.2l-1.8.9zm13.7 166.9c.4-3.4.6-6.8.6-10.1h-2c0 3.2-.2 6.5-.6 9.9l2 .2zm-6.6 25.4c.2-.6.5-1.2.7-1.9l-1.9-.7c-.2.6-.5 1.2-.7 1.8l1.9.8zm5.7-19.4c.1-.7.2-1.3.4-2l-2-.3c-.1.6-.2 1.3-.3 1.9l1.9.4zm-3.6 13.7c1-3.1 2-6.3 2.8-9.7l-1.9-.5c-.8 3.3-1.7 6.5-2.7 9.5l1.8.7zM205.5 15.6l1.9-.5c-.8-3.2-1.6-6.4-2.2-9.7l-2 .4c.7 3.3 1.4 6.6 2.3 9.8zm41.6 118.3l2-.2c-.1-.7-.2-1.3-.3-2l-2 .3c.2.6.2 1.3.3 1.9zm-.9-5.9l2-.3c-.6-3.3-1.3-6.6-2-9.9l-1.9.5c.7 3.2 1.4 6.5 1.9 9.7zm-2.9-13.5l1.9-.5c-.2-.6-.4-1.3-.5-1.9l-1.9.5c.1.6.3 1.2.5 1.9zm-1.7-5.8l1.9-.6c-1-3.2-2-6.4-3.2-9.5l-1.9.7c1.2 3.1 2.2 6.2 3.2 9.4zm6.1 30.8c.2 2.9.5 5.7.7 8.4l2-.2c-.2-2.7-.4-5.5-.7-8.4 0-.5-.1-1.1-.1-1.6l-2 .2c0 .5.1 1 .1 1.6zm2.3 28.2l2-.2c-.3-3.2-.5-6.5-.8-10l-2 .2c.2 3.5.5 6.9.8 10zm-1.2-13.9l2-.2c-.1-.7-.1-1.3-.2-2l-2 .2c.1.7.2 1.3.2 2zm-11.7-58.3l1.9-.7c-.2-.6-.5-1.3-.7-1.9l-1.9.7c.2.7.5 1.3.7 1.9zm13.4 78.2l2-.2c-.1-.7-.1-1.3-.2-2l-2 .2c.1.7.1 1.4.2 2zm-39-139l1.9-.7c-1.1-3.1-2.2-6.2-3.2-9.4l-1.9.6c1 3.2 2.1 6.4 3.2 9.5zm2.2 5.7l1.9-.7c-.2-.6-.5-1.2-.7-1.9l-1.9.7c.2.6.4 1.2.7 1.9zM234.9 90l1.9-.7c-1.2-3.1-2.5-6.2-3.8-9.3l-1.8.8c1.2 3 2.5 6.1 3.7 9.2zM219 53.3l1.8-.8c-1.3-3.1-2.6-6.1-3.9-9.2l-1.9.8c1.4 3.1 2.7 6.2 4 9.2zm-11.9-31.9l1.9-.6c-.2-.6-.4-1.3-.6-1.9l-1.9.5c.2.7.4 1.4.6 2zm111.7 294.3l1.7-1c-.3-.6-.7-1.2-1-1.7l-1.7 1c.3.6.6 1.2 1 1.7zM221.4 58.8l1.8-.8c-.3-.6-.5-1.2-.8-1.8l-1.8.8c.3.6.6 1.2.8 1.8zm5.7 12.8l1.8-.8c-1.3-3-2.7-6.1-4.1-9.1l-1.8.8c1.4 3 2.8 6.1 4.1 9.1zm2.4 5.5l1.8-.8c-.3-.6-.5-1.2-.8-1.8l-1.8.8c.3.6.6 1.2.8 1.8zm55 189.6l1.7-1.1c-.4-.6-.7-1.1-1.1-1.7l-1.7 1.1c.3.6.7 1.1 1.1 1.7zm4.6 6.6c1.2 1.7 2.3 3.3 3.4 4.8l1.6-1.2c-1.1-1.6-2.3-3.2-3.4-4.8-.8-1.1-1.6-2.2-2.3-3.3l-1.6 1.1c.7 1.2 1.5 2.3 2.3 3.4zm6.9 9.7l1.6-1.2c-.4-.5-.8-1.1-1.2-1.6l-1.6 1.2c.4.6.8 1.1 1.2 1.6zm-14.9-21.3l1.7-1.1c-1.9-2.9-3.7-5.7-5.3-8.4l-1.7 1c1.6 2.8 3.4 5.6 5.3 8.5zm23.2 32.6l1.6-1.2c-1.9-2.6-3.8-5.2-5.9-8.1l-1.6 1.2c2 2.9 4 5.6 5.9 8.1zm11.4 16.4l1.7-1.1c-1.7-2.7-3.6-5.4-5.6-8.3l-1.6 1.2c1.9 2.8 3.8 5.5 5.5 8.2zm-7.9-11.5l1.6-1.2c-.4-.5-.8-1.1-1.2-1.6l-1.6 1.2c.4.5.8 1 1.2 1.6zm-35.1-51.1c.3.6.7 1.2 1 1.7l1.7-1c-.3-.6-.7-1.1-1-1.7l-1.7 1zm-15.5-34.9l1.9-.6c-.2-.6-.4-1.3-.5-1.9l-1.9.5c.2.7.3 1.4.5 2zm-1.5-5.8l1.9-.5c-.8-3.2-1.5-6.4-2.1-9.7l-2 .4c.7 3.3 1.4 6.6 2.2 9.8zm-3.7-19.7l2-.3c-.4-3.2-.8-6.5-1.1-9.9l-2 .2c.3 3.4.7 6.8 1.1 10zm.9 5.9l2-.3c-.1-.7-.2-1.3-.3-2l-2 .3c.1.7.2 1.4.3 2zm9 32.9l1.8-.8c-1.3-3.1-2.4-6.2-3.4-9.3l-1.9.6c1 3.2 2.2 6.3 3.5 9.5zm8.8 18.1l1.7-1c-1.7-3-3.2-5.9-4.6-8.8l-1.8.9c1.4 2.9 3 5.8 4.7 8.9zm-6.4-12.6l1.8-.8c-.3-.6-.5-1.2-.8-1.8l-1.8.8c.2.6.5 1.2.8 1.8zM747 539l1-1.7c-.6-.3-1.1-.7-1.7-1l-1.1 1.7c.6.3 1.2.6 1.8 1zm12.6 6.3l.8-1.8c-3.1-1.3-6.1-2.7-8.9-4.2l-1 1.8c2.8 1.5 5.9 2.9 9.1 4.2zm-233-37.5c-.2 3.3-.5 6.6-.8 9.9l2 .2c.3-3.3.6-6.6.8-10l-2-.1zm.4-6c0 .7-.1 1.3-.1 2l2 .1c0-.7.1-1.3.1-2l-2-.1zm-3.8 39.8c-.1.7-.2 1.3-.2 2l2 .2c.1-.7.2-1.3.2-2l-2-.2zm188.2-45.4c1.5 3.1 3 6.1 4.6 9l1.8-1c-1.6-2.8-3.1-5.8-4.5-8.8l-1.9.8zm15.8 25.6l1.5-1.3c-2.1-2.5-4-5.1-5.9-7.9l-1.7 1.1c2 2.9 4 5.6 6.1 8.1zm-197.6-39.9h-2v2h2v-2zM719 510.4l1.7-1c-.3-.6-.7-1.1-1-1.7l-1.7 1c.3.5.6 1.1 1 1.7zm12.2 16l1.4-1.4c-.5-.5-.9-1-1.4-1.4l-1.5 1.4c.6.4 1.1.9 1.5 1.4zm-206-2.7l2 .2c.1-.7.1-1.3.2-2l-2-.2c-.1.7-.2 1.3-.2 2zm.4 14.1c.4-3.3.7-6.7 1.1-9.9l-2-.2c-.3 3.3-.7 6.6-1.1 9.9l2 .2zm216.3-2.2l1.2-1.6c-2.7-1.9-5.2-4-7.6-6.3l-1.4 1.5c2.5 2.3 5.1 4.4 7.8 6.4zm-218.5 22.1c.4-3.4.7-6.7 1.1-9.9l-2-.2c-.4 3.3-.8 6.6-1.1 9.9l2 .2zm25-204.1c-2.4 2.4-4.7 5-6.7 7.6l1.6 1.2c2-2.6 4.1-5 6.5-7.4l-1.4-1.4zm-25.7 210.1c.1-.7.1-1.3.2-2l-2-.2c-.1.7-.1 1.3-.2 2l2 .2zm240.6-16.9c.5.2 1 .4 1.5.5v-2.1c-.3-.1-.6-.2-.8-.3l-.7 1.9zm-243 20.6c-.2 1.5-.3 3-.5 4.5h2c.1-1.5.3-2.9.4-4.3l-1.9-.2zm17.5-196.8l-1.7-1c-1.7 2.9-3.2 6-4.5 9.1l1.8.8c1.3-3.1 2.8-6 4.4-8.9zM525.2 402c-.1.7-.2 1.3-.3 2l2 .3c.1-.7.2-1.3.3-2l-2-.3zm1.7 39.9l-2 .2c.1.7.1 1.3.2 2l2-.2c-.1-.7-.1-1.3-.2-2zm-1.1-19.8h-2v2h2v-2zm3.2 41.8c0-.7-.1-1.3-.1-2l-2 .1c0 .7.1 1.3.1 2l2-.1zm-.8-75.7c-.9 3.2-1.7 6.5-2.3 9.8l2 .4c.6-3.2 1.4-6.5 2.3-9.6l-2-.6zm1 79.7l-2 .1c.2 3.4.3 6.7.3 10h2c0-3.4-.1-6.7-.3-10.1zm-4.7-59.9c-.3 3.3-.5 6.7-.6 10.1l2 .1c.1-3.3.3-6.6.6-9.9l-2-.3zm14.9-43.5c-.4.6-.8 1.1-1.1 1.7l1.7 1.1c.4-.5.7-1.1 1.1-1.6l-1.7-1.2zm72.2 7.6l1.5-1.3c-.4-.5-.9-1-1.3-1.5l-1.5 1.3c.4.5.9 1 1.3 1.5zm-3.9-4.6l1.6-1.2c-2.2-2.7-4.1-5.4-5.8-8l-1.7 1.1c1.8 2.5 3.8 5.3 5.9 8.1zm-8.1-11.5l1.7-1.1c-.4-.6-.7-1.1-1.1-1.7l-1.7 1.1c.4.6.7 1.1 1.1 1.7zm42.3 42.4l1.2-1.6c-.5-.4-1.1-.8-1.6-1.2l-1.2 1.6c.5.5 1 .9 1.6 1.2zM531.3 385c.2-.6.4-1.2.7-1.9l-1.9-.7c-.2.6-.5 1.3-.7 1.9l1.9.7zm105.7 9.9l1.2-1.6c-2.6-1.9-5.2-4-7.8-6.1l-1.3 1.5c2.7 2.2 5.4 4.2 7.9 6.2zm-10.9-8.8l1.3-1.5c-.5-.4-1-.9-1.5-1.3l-1.3 1.5c.5.4 1 .9 1.5 1.3zm-11.8-11c1.2 1.3 2.5 2.6 3.9 3.9 1.1 1.1 2.3 2.1 3.4 3.1l1.3-1.5c-1.1-1-2.2-2-3.3-3.1-1.3-1.3-2.6-2.5-3.8-3.8l-1.5 1.4zm-62.9-24.3l1.3 1.5c.5-.4 1-.9 1.5-1.3l-1.3-1.5c-.5.5-1 .9-1.5 1.3zm36.4-10.6l1.3-1.5c-.5-.5-1.1-.9-1.7-1.3l-1.1 1.7c.6.3 1.1.7 1.5 1.1zm-13.9-2c2.2-.8 4.2-1.2 5.9-1.2 1.2 0 2.2.2 3.2.5l.6-1.9c-1.2-.4-2.5-.5-3.8-.5-2 0-4.2.4-6.6 1.3l.7 1.8zm-4.4-.2c-.6.3-1.2.6-1.8 1l1 1.7c.6-.3 1.2-.6 1.7-.9l-.9-1.8zm26.8 13l1.7-1.1c-2-3.1-4-5.9-5.9-8.2l-1.5 1.3c1.8 2.1 3.7 4.9 5.7 8zm-39-2.5c2.9-2.3 5.6-4.2 8-5.8l-1.1-1.7c-2.5 1.6-5.2 3.6-8.2 5.9l1.3 1.6zm111.8 70.1l1.3-1.5c-2.5-2.2-5.2-4.3-7.8-6.3l-1.2 1.6c2.6 2 5.2 4 7.7 6.2zm29.3 44.9c.6 1.6 1.1 3.2 1.7 4.8l1.9-.7c-.6-1.6-1.1-3.1-1.7-4.7-.6-1.6-1.1-3.2-1.7-4.7l-1.9.7c.6 1.5 1.2 3 1.7 4.6zm-172.8-15.4c.4 3.4.7 6.7 1 9.9l2-.2c-.3-3.3-.6-6.6-1-10l-2 .3zm169.7 7.1l1.8-.8c-.3-.6-.5-1.2-.8-1.9l-1.8.8c.3.7.5 1.3.8 1.9zm-42-48.7l1.2-1.6c-2.7-1.9-5.4-3.8-8.2-5.8l-1.2 1.6c2.8 2.1 5.6 4 8.2 5.8zm39.6 43.3l1.8-.9c-1.5-3.2-3.1-6.1-4.7-8.9l-1.7 1c1.5 2.8 3.1 5.7 4.6 8.8zm9.3 24.1l1.9-.7c-.2-.6-.5-1.2-.7-1.9l-1.9.7c.2.7.4 1.3.7 1.9zm5.1 13.1l1.8-.8c-1.2-3-2.5-6.1-3.7-9.3l-1.9.7c1.3 3.3 2.5 6.4 3.8 9.4zm-178.1 10.9c.2-3.3.3-6.6.3-10h-2c-.1 3.4-.2 6.7-.3 10h2zm129-87.9l1.2-1.6c-.5-.4-1.1-.8-1.6-1.2l-1.2 1.6c.5.4 1 .8 1.6 1.2zm-134.3 18.1c.1 3.4.3 6.7.6 10l2-.2c-.3-3.3-.5-6.6-.6-9.9l-2 .1zm185.8 64.4l1.8-.8c-.3-.6-.5-1.2-.8-1.8l-1.8.8c.2.6.5 1.2.8 1.8zm-23.6-54.8l1.7-1.1c-.4-.6-.7-1.1-1.1-1.7l-1.6 1.1c.3.6.6 1.2 1 1.7zm-9.8-12.3c2.2 2.3 4.3 4.8 6.4 7.5l1.6-1.2c-2.1-2.8-4.3-5.3-6.5-7.7-.1 0-1.5 1.4-1.5 1.4zm-2.8-2.8l1.4-1.4c-.5-.5-1-.9-1.5-1.4l-1.4 1.5c.6.4 1 .8 1.5 1.3zM74.9 300.1c-.6-.3-1.1-.7-1.7-1l-1 1.7c.6.4 1.2.7 1.7 1l1-1.7zm3.4 2l-1 1.8c3.3 1.8 6.3 3.3 9.1 4.4l.8-1.9c-2.6-1.1-5.6-2.5-8.9-4.3zm12.6 5.7l-.6 1.9c.7.2 1.3.4 2 .6l.5-1.9c-.6-.2-1.3-.4-1.9-.6zm5.6 1.2l-.2 2c.9.1 1.7.1 2.5.1 2.8 0 5.4-.6 7.8-1.7l-.9-1.8c-2.1 1-4.3 1.5-6.9 1.5-.7.1-1.5 0-2.3-.1zm30.7-21.6c1.9-2.5 4-5.1 6.2-7.8l-1.5-1.3c-2.3 2.7-4.4 5.4-6.3 7.8l1.6 1.3zm-65.8 4.2l-1.1 1.7c3 2 5.8 3.8 8.4 5.5l1.1-1.7c-2.6-1.7-5.4-3.5-8.4-5.5zm-45.8-38.4l-1.2 1.6c2.9 2.1 5.4 4.1 7.7 6.1l1.3-1.5c-2.2-2-4.8-4.1-7.8-6.2zm40.9 37.4c.2.1.3.2.5.3l1.1-1.6c-.2-.1-.3-.2-.5-.3-.4-.3-.8-.5-1.1-.8l-1.1 1.6c.3.3.7.6 1.1.8zm53.6 16.6c.5-.4 1.1-.8 1.6-1.3l-1.3-1.5-1.5 1.2 1.2 1.6zm-64.7-27.4l-1.3 1.5c2.4 1.9 5 4 7.9 6.2l1.2-1.6c-2.8-2.2-5.4-4.2-7.8-6.1zm69.3 23.3c2.1-2.2 4.2-4.8 6.4-7.8l-1.6-1.2c-2.2 2.9-4.3 5.5-6.3 7.6l1.5 1.4zm8.8-11c.4-.5.8-1.1 1.2-1.6l-1.6-1.2c-.4.5-.8 1.1-1.2 1.6l1.6 1.2zM33.6 103.8l-.3 2c3.4.5 6.7.8 10 1.1l.1-2c-3.2-.3-6.5-.6-9.8-1.1zm49-16.2c-.6.4-1.1.8-1.7 1.2l1.2 1.6c.5-.4 1-.8 1.6-1.1l-1.1-1.7zm51.9 5.2c-3.1.6-6.3 1.3-9.8 2l.4 2c3.5-.7 6.8-1.4 9.8-2l-.4-2zM72.1 100c2.5-2.3 4.8-4.8 7.2-7l-1.4-1.5c-2.4 2.2-4.8 4.8-7.2 7l1.4 1.5zm-65 147.8c-2-1.2-4.2-2.3-6.6-3.5v2.2c2 1 3.9 2 5.6 3l1-1.7zM4.5 97.1c-1.3-.4-2.6-.8-3.9-1.3V98c1.1.4 2.2.7 3.3 1.1l.6-2zm114.4-1.4l.1 2c.2 0 .4 0 .6-.1.5-.1 1-.1 1.5-.2l-.3-2c-.5.1-1 .2-1.4.2-.2.1-.3.1-.5.1zm-91.2 7.2l-.4 2c.7.1 1.3.2 2 .3l.3-2c-.6-.1-1.3-.2-1.9-.3zm77.6-9.5c3.4 1.5 6.6 2.9 9.4 3.7l.5-1.9c-2.6-.7-5.8-2.1-9.2-3.6l-.7 1.8zm-91.2 6.5l-.5 1.9c3.3.8 6.5 1.6 9.8 2.3l.4-2c-3.3-.6-6.5-1.4-9.7-2.2zm-5.8-1.6l-.6 1.9c.6.2 1.3.4 1.9.6l.5-1.9c-.5-.2-1.1-.4-1.8-.6zm132.1-6.7c-.7.1-1.3.2-2 .3l.4 2c.7-.1 1.3-.2 1.9-.3l-.3-2zm61.4 61l1.9-.5c-.9-3.3-1.9-6.5-3.1-9.6l-1.9.7c1.3 3.1 2.3 6.2 3.1 9.4zm-4.4-13.1l1.8-.8c-.3-.6-.5-1.2-.8-1.9l-1.8.8c.3.7.5 1.3.8 1.9zm-9.2-17.5l1.7-1.1c-.4-.6-.8-1.1-1.1-1.7l-1.6 1.1c.2.6.6 1.1 1 1.7zm6.8 12.1l1.8-.9c-1.5-3.1-3.1-6-4.8-8.9l-1.7 1c1.7 2.9 3.2 5.8 4.7 8.8zm-14.9-22.5c1.6 1.8 3.1 3.6 4.6 5.6l1.6-1.2c-1.5-2-3.1-3.9-4.7-5.7-.6-.7-1.2-1.4-1.8-2l-1.5 1.4c.6.5 1.2 1.2 1.8 1.9zm23.2 46.8l2-.4c-.1-.7-.3-1.3-.4-2l-1.9.5c0 .6.1 1.3.3 1.9zm2.7 19.7l2-.1c0-.7-.1-1.3-.1-2l-2 .2c0 .6 0 1.2.1 1.9zm-158.6-73l-.1 2c.7 0 1.3 0 2 .1v-2c-.6-.1-1.2-.1-1.9-.1zm158.8 81c0 1.9 0 3.9-.1 5.9l2 .1c.1-2 .1-4 .1-5.9 0-1.4 0-2.8-.1-4.1l-2 .1c.1 1.2.1 2.6.1 3.9zm-.7-14l2-.2c-.4-3.4-.8-6.7-1.5-10l-2 .4c.7 3.2 1.1 6.5 1.5 9.8zm-60.8-79c1.2-.1 2.4-.2 3.6-.2 2 0 4 .2 6.1.6l.4-2c-2.2-.4-4.3-.6-6.5-.6-1.3 0-2.5.1-3.8.2l.2 2zm-43-1.4l.8-1.8c-.6-.3-1.2-.5-1.8-.8l-.8 1.8c.6.3 1.2.5 1.8.8zm-38.1 14.2l-.7-1.9c-.8.3-1.5.5-2.2.6-2.4.3-4.8.4-7.3.5v2c2.6-.1 5.1-.2 7.5-.5.9-.1 1.8-.3 2.7-.7zm144.1 92.2c.1-.7.1-1.3.2-2l-2-.1c0 .7-.1 1.3-.2 2l2 .1zM87 87.8c.5-.1 1-.2 1.5-.2 2.1 0 4.7.7 7.7 1.8l.7-1.9c-3-1.1-5.9-1.9-8.4-1.9-.7 0-1.3.1-2 .2l.5 2zm72.8 7.5l.8-1.8c-.6-.3-1.3-.5-1.9-.8l-.7 1.9c.6.2 1.2.4 1.8.7zm15.8 11.5l1.4-1.4-1.4-1.4-1.4 1.4 1.4 1.4zm-4.4-4.1l1.3-1.5c-2.9-2.5-5.6-4.4-8.3-5.9l-1 1.7c2.6 1.4 5.2 3.3 8 5.7zm-103.5-1.6c-.5.4-1 .8-1.6 1.2l1.1 1.6c.6-.4 1.1-.8 1.7-1.2l-1.2-1.6zm107.9 159.2c3.6-.3 7-1 10-2.6l-1-1.8c-2.7 1.5-5.8 2.1-9.2 2.4l.2 2zm-136 17.1c.5.4 1 .9 1.5 1.3l1.3-1.5c-.5-.4-1-.9-1.5-1.3l-1.3 1.5zm109.9-15.7l.8 1.8c.6-.3 1.2-.5 1.8-.7l-.7-1.9c-.6.2-1.3.5-1.9.8zm-124.4 1.9c.5.5 1 .9 1.4 1.4l1.4-1.4c-.5-.5-1-.9-1.5-1.4l-1.3 1.4zm144.4-5.1v2h2l-.1-2h-1.9zm-14.1 1.2l.4 2c3.2-.7 6.5-1 9.7-1.1l-.1-2c-3.2.1-6.7.3-10 1.1zm-16.9 11l1.5 1.4c1.1-1.1 2.2-2.3 3.3-3.5 1.2-1.3 2.5-2.3 3.8-3.2l-1.1-1.6c-1.4 1-2.8 2.1-4.1 3.5-1.3 1.1-2.4 2.3-3.4 3.4zm-2.5 5.8c.4-.5.9-1 1.3-1.5l-1.5-1.3c-.4.5-.9 1-1.3 1.5l1.5 1.3zm-106.6-8.7c2.2 2.2 4.6 4.5 7.2 6.9l1.4-1.5c-2.6-2.4-4.9-4.7-7.2-6.9l-1.4 1.5zm169.1-30.6c.2-.6.5-1.3.7-1.9l-1.9-.7c-.2.6-.5 1.2-.7 1.9l1.9.7zm-5.9 12.8c1.6-3 3-6 4.3-9.1l-1.8-.8c-1.3 3-2.7 6-4.3 9l1.8.9zm8-18.5c1.1-3.2 2.1-6.4 2.9-9.6l-1.9-.5c-.8 3.2-1.8 6.4-2.9 9.5l1.9.6zm3.9-13.5c.2-.7.3-1.3.4-2l-2-.4c-.1.6-.3 1.3-.4 1.9l2 .5zm1.3-5.9c.6-3.3 1.1-6.6 1.5-10l-2-.2c-.4 3.3-.9 6.5-1.5 9.8l2 .4zm-16.8 43c.5-.5 1-1 1.4-1.6l-1.6-1.3c-.4.5-.8 1-1.3 1.4l1.5 1.5zM9.6 251.6c.6.4 1.1.7 1.7 1.1l1.1-1.7c-.6-.4-1.1-.7-1.7-1.1l-1.1 1.7zm464.1 129.6c.3-.6.6-1.2.8-1.8l-1.8-.9-.9 1.8 1.9.9zm2.7-5.3c1.6-2.9 3.4-5.7 5.2-8.4l-1.7-1.1c-1.9 2.7-3.6 5.6-5.3 8.6l1.8.9zm7.5-11.7c.4-.5.8-1.1 1.2-1.6l-1.6-1.2c-.4.5-.8 1.1-1.2 1.6l1.6 1.2zm-15.6 69.6l2-.4c-.6-3.2-1.1-6.5-1.6-9.8l-2 .3c.5 3.4 1 6.7 1.6 9.9zm-2.1-14.1v.2l2-.3v-.2c-.1-.6-.1-1.2-.2-1.8l-2 .2c0 .7.1 1.3.2 1.9zm2-19.7c.1-.7.2-1.3.3-1.9l-2-.3c-.1.7-.2 1.3-.3 2l2 .2zm-2.6 13.8l2-.1c-.1-1.4-.1-2.8-.1-4.1 0-2 .1-3.9.2-5.7l-2-.2c-.2 1.9-.2 3.9-.2 5.9 0 1.4 0 2.8.1 4.2zm3.6-19.6c.8-3.3 1.8-6.4 2.9-9.4l-1.9-.7c-1.2 3.1-2.2 6.3-3 9.7l2 .4zm38.3-78.3c0 3-.4 5.9-1.1 8.8l1.9.5c.8-3 1.2-6 1.2-9.2v-.9h-2v.8zm-20.1 43.5c2-2.7 4.1-5.3 6.1-7.9l-1.6-1.2c-2 2.6-4 5.2-6.1 7.9l1.6 1.2zm-17.9 80.3l2-.4c-.1-.6-.3-1.3-.4-2l-2 .4c.1.7.2 1.3.4 2zm37.7-128.5l2-.3c-.1-.7-.2-1.3-.3-2l-2 .4c.1.6.2 1.3.3 1.9zm-11.3 37c.4-.5.8-1.1 1.2-1.6l-1.6-1.2c-.4.5-.8 1.1-1.2 1.6l1.6 1.2zm10.5-17.2c.3-.6.5-1.3.7-1.9l-1.9-.7c-.2.6-.5 1.2-.7 1.8l1.9.8zm-7 12.3c1.9-2.8 3.7-5.7 5.2-8.7l-1.8-.9c-1.5 2.8-3.2 5.6-5.1 8.4l1.7 1.2zm-12.8 226.8c1.2-3.3 2.3-6.5 3.2-9.6l-1.9-.5c-.9 3.1-1.9 6.2-3.1 9.4l1.8.7zm6.8-33.4v-2h-2v2h2zm-2-6l2-.1c-.1-3.4-.4-6.7-.8-10l-2 .3c.4 3.2.7 6.5.8 9.8zm-1.8-15.8c.1.7.2 1.3.3 2l2-.3c-.1-.7-.2-1.3-.3-2l-2 .3zm2.4 35.8c.6-3.4 1-6.7 1.2-10l-2-.1c-.2 3.2-.6 6.5-1.2 9.8l2 .3zm-19.4-97.3l1.9-.5c-.8-3.1-1.6-6.4-2.3-9.7l-2 .4c.8 3.4 1.6 6.6 2.4 9.8zm18.1 103.3c.2-.7.3-1.3.5-2l-2-.4c-.1.6-.3 1.3-.4 1.9l1.9.5zm11.8-260.4c.3.6.6 1.2.9 1.9 1.1 2.5 2 4.9 2.7 7.3l1.9-.5c-.7-2.4-1.6-4.9-2.8-7.5-.3-.7-.6-1.3-.9-2-.1-.1-1.8.8-1.8.8zm256.8-194.7c1.8-.3 3.7-.7 5.5-1.1v-2c-2 .4-3.9.8-5.9 1.1l.4 2zM479.2 476.5c.2.6.4 1.3.6 1.9l1.9-.6c-.2-.6-.4-1.3-.6-1.9l-1.9.6zm-1.1-3.8l1.9-.6c-.9-3.1-1.9-6.3-2.8-9.6l-1.9.5c.9 3.3 1.8 6.5 2.8 9.7zm-3.9-13.5l1.9-.5c-.2-.6-.3-1.3-.5-1.9l-1.9.5c.1.6.3 1.2.5 1.9zm14.7 51.8l2-.4c-.7-3.2-1.5-6.5-2.3-9.8l-1.9.5c.7 3.3 1.5 6.5 2.2 9.7zm-3.4-13.5l1.9-.5c-.2-.6-.4-1.3-.5-1.9l-1.9.5c.2.6.4 1.3.5 1.9zm-1.6-5.7l1.9-.6c-.9-3.1-1.9-6.3-2.9-9.6l-1.9.6c1 3.3 2 6.4 2.9 9.6zm-4.5-247c.3-.6.6-1.2.9-1.7l-1.8-1-.9 1.8 1.8.9zm168.8-112.6c-1.3.7-2.6 1.3-3.8 2l1 1.7c1.2-.7 2.5-1.4 3.7-2 1.7-.9 3.4-1.7 5.1-2.5l-.9-1.8c-1.6.9-3.4 1.7-5.1 2.6zm-19.4 14.7c2.6-2 5.3-3.9 8.1-5.7l-1.1-1.7c-2.8 1.9-5.6 3.8-8.2 5.8l1.2 1.6zm11.5-7.9c.6-.3 1.1-.7 1.7-1l-1-1.7c-.6.3-1.2.7-1.7 1l1 1.7zm22.1-13.6l.8 1.8c3.1-1.4 6.2-2.7 9.2-3.9l-.7-1.9c-3.1 1.3-6.1 2.6-9.3 4zm-5.4 2.5l.9 1.8c.6-.3 1.2-.6 1.8-.8l-.8-1.8c-.7.2-1.3.5-1.9.8zm-32.9 22.7l1.5-1.2-1.2-1.6c-.5.4-1 .8-1.6 1.3l1.3 1.5zm-26.2 21.7l1.4 1.4c2.3-2.4 4.7-4.7 7.1-7.1l-1.4-1.4c-2.4 2.4-4.8 4.7-7.1 7.1zm11.4-8.4c.5-.5 1-.9 1.4-1.4l-1.4-1.4c-.5.5-1 .9-1.5 1.4l1.5 1.4zm4.3-4.2c2.4-2.2 4.9-4.5 7.4-6.6l-1.3-1.5c-2.6 2.2-5.1 4.4-7.5 6.7l1.4 1.4zm125.7-56.4l.4 2c3.2-.6 6.5-1.2 9.8-1.9l-.4-2c-3.3.7-6.5 1.3-9.8 1.9zm-63.9 16.8l.7 1.9c.6-.2 1.2-.5 1.9-.7l-.7-1.9c-.6.2-1.2.4-1.9.7zM595.1 178c.5-.5.9-1 1.4-1.4l-1.4-1.4c-.5.5-.9 1-1.4 1.4l1.4 1.4zm138.3-73.6l.4 2c.7-.1 1.3-.3 2-.4l-.4-2c-.7.2-1.3.3-2 .4zM500.5 293l1.7-1.1c-.4-.6-.8-1.1-1.2-1.7l-1.6 1.2c.4.5.8 1 1.1 1.6zm219.2-185.7l.4 2c3.2-.7 6.5-1.4 9.8-2l-.4-2c-3.3.6-6.6 1.2-9.8 2zm-25.3 6.3l.6 1.9c.6-.2 1.3-.4 1.9-.6l-.6-1.9c-.6.3-1.2.5-1.9.6zm19.4-5l.5 1.9c.6-.1 1.3-.3 1.9-.4l-.4-2c-.7.2-1.3.3-2 .5zm-32.7 9.4l.7 1.9c3.2-1.1 6.3-2.2 9.4-3.1l-.6-1.9c-3.2.9-6.3 2-9.5 3.1zm19.1-6l.5 1.9c3.2-.9 6.4-1.7 9.6-2.5l-.5-1.9c-3.1.8-6.3 1.6-9.6 2.5zm53.3-9.3c.7-.1 1.3-.2 2-.4l-.4-2c-.7.1-1.3.2-2 .4l.4 2zM475.1 257.6c.3-2.6 1.1-5.7 2.6-9.3l-1.8-.8c-1.6 3.8-2.5 7-2.8 9.9l2 .2zm5.5-19.1l1.7 1c.2-.3.3-.5.5-.8 1.7-2.8 3.5-5.1 5.3-7.1l-1.5-1.4c-1.9 2.1-3.7 4.5-5.5 7.4-.2.4-.3.7-.5.9zm13.9-14.6l1 1.7c2.9-1.7 5.9-2.8 9-3.5l-.5-1.9c-3.2.7-6.4 1.9-9.5 3.7zm-3.7 5.1l1.5-1.2-1.2-1.6c-.5.4-1.1.8-1.6 1.3l1.3 1.5zm6.2 59.3l1.5-1.3c-2.3-2.7-4.9-5-7.3-7l-1.3 1.5c2.4 2 4.9 4.2 7.1 6.8zm88.1-100.4c2.4-2.3 4.8-4.7 7.1-7l-1.4-1.4c-2.4 2.4-4.7 4.7-7.1 7l1.4 1.4zM486.8 279l1.2-1.6c-.5-.4-1.1-.8-1.6-1.2l-1.2 1.6c.6.4 1.1.8 1.6 1.2zm-4.7-3.8l1.3-1.5c-2.7-2.3-5-4.5-6.4-7.1l-1.7 1c1.6 2.9 4 5.3 6.8 7.6zm-8.5-11.5l1.9-.5c-.2-.6-.3-1.2-.4-1.8l-2 .3c.2.6.3 1.3.5 2zm34.5-44.3l.3 2c.6-.1 1.3-.2 2-.3l-.2-2c-.8.1-1.4.2-2.1.3zm62-18.2c2.6-2.1 5.2-4.2 7.7-6.5l-1.3-1.5c-2.5 2.2-5 4.4-7.6 6.4l1.2 1.6zm10.6-9.2c.5-.5 1-.9 1.5-1.4l-1.4-1.5c-.5.5-1 .9-1.5 1.4l1.4 1.5zm-27.4 20.4c3-1.6 5.8-3.4 8.6-5.2l-1.1-1.7c-2.7 1.8-5.5 3.6-8.5 5.1l1 1.8zm11.9-7.6c.5-.4 1.1-.8 1.6-1.2l-1.2-1.6c-.5.4-1.1.8-1.6 1.2l1.2 1.6zm-17.3 10.3l1.8-.9-.9-1.8-1.8.9.9 1.8zm-19.8 2.8l.2 2c.7-.1 1.3-.1 2-.2l-.2-2c-.7.1-1.3.2-2 .2zm-14 .8l.1 2c3.2-.2 6.6-.4 10-.5l-.1-2c-3.3.2-6.7.3-10 .5zm19.9-1.5l.3 2c3.3-.5 6.6-1.3 9.9-2.5l-.7-1.9c-3.2 1.2-6.4 1.9-9.5 2.4z" opacity=".5" fill="#BABCBE"/><path d="M262.1 513.4c.3-1 .6-1.9.9-2.9l-1-.3c-.3 1-.6 1.9-.9 2.9l1 .3zm2.2-6.7c.3-1 .6-1.9.9-2.9l-1-.3c-.3 1-.6 1.9-.9 2.9l1 .3zm-61 11.5v-3h-1v3h1zm.1-7c0-1 0-2 .1-3h-1c0 1 0 2-.1 3h1zm53.7 15.3l1 .3c.3-1 .6-1.9.8-2.9l-1-.3c-.2 1-.5 1.9-.8 2.9zm3-6.4c.3-1 .6-1.9.9-2.9l-1-.3c-.3 1-.6 1.9-.9 2.9l1 .3zm-57.8 12.1h1v-3h-1v3zm0-7h1v-3h-1v3zm65.5-32.1l.9.5c.5-.8 1-1.7 1.5-2.5l-.8-.6c-.5.9-1.1 1.7-1.6 2.6zm-64.5-6c-.1 1-.1 2-.2 3l1 .1c.1-1 .1-2 .2-3l-1-.1zm.5 10.1c0-1 .1-2 .1-3h-1c0 1-.1 2-.1 3h1zm62.6 2.8c.3-1 .6-1.9.9-2.9l-1-.3c-.3 1-.6 1.9-.9 2.9l1 .3zm-62.8 4.2c0-1 .1-2 .1-3h-1c0 1-.1 2-.1 3h1zm69-16.3l1.8-2.4-.8-.6-1.8 2.4.8.6zm-70.1 83.2v.8h1v-.8h-1zm48.5-10.2l.3-3-1-.1-.3 3 1 .1zm-48.4-.8h1v-3h-1v3zm49.3-6.1c.1-1 .3-2 .5-3l-1-.2c-.2 1-.3 2-.5 3l1 .2zm-1.3 13.9c0-1 .1-2 .1-3l-1-.1c-.1 1-.1 2-.1 3l1 .1zm-47-.8v-3h-1v3h1zm45.9 4.8v.1h1v-.1h-1zm-46.9-18.8h1v-3h-1c-.1 1.1-.1 2.1 0 3zm-.2-13.9h1v-3h-1v3zm52.1 1.1c.2-1 .5-1.9.7-2.9l-1-.2c-.2 1-.5 1.9-.7 2.9l1 .2zm-52 5.9h1v-3h-1v3zm53.7-12.7c.3-1 .5-1.9.8-2.9l-1-.3c-.3 1-.5 1.9-.8 2.9l1 .3zm-3.1 13.6c.2-1 .4-2 .6-2.9l-1-.2-.6 3 1 .1zm28.6-78.1c.2-1 .3-2 .4-3l-1-.1c-.1 1-.3 2-.4 3l1 .1zm-7.9-57.7c.4.9.7 1.8 1.1 2.7l.9-.4c-.4-.9-.7-1.8-1.1-2.7v-.1l-.9.5zm-1.7-3.7l.9-.4c-.4-.9-.9-1.8-1.4-2.7l-.9.5c.5.9 1 1.8 1.4 2.6zm-46.8 2.5l.8.6c.1-.1.2-.3.3-.4l1.5-2.1-.8-.5c-.4.7-.9 1.4-1.4 2-.2.1-.3.2-.4.4zm41.9-11.1c.5.8 1.1 1.7 1.6 2.5l.9-.5c-.5-.9-1-1.7-1.6-2.6l-.9.6zm-63.4 81.1c-.1 1-.2 2-.2 3l1 .1c.1-1 .2-2 .2-3l-1-.1zm15.4-60.8c-.5.9-1 1.8-1.4 2.7l.9.5c.5-.9.9-1.8 1.4-2.6l-.9-.6zm57.9 1.3l1-.3c-.3-1-.6-1.9-.9-2.9l-.9.3c.2 1 .5 1.9.8 2.9zm-54.2-7.3c-.6.8-1.1 1.7-1.7 2.5l.8.5c.5-.8 1.1-1.7 1.6-2.5l-.7-.5zm37.9-23.1l.8-.6c-.7-.8-1.3-1.5-2-2.3l-.7.7c.5.7 1.2 1.4 1.9 2.2zm-10.4-9.1l.5-.9c-.9-.5-1.9-1-2.8-1.3l-.3.9c.8.4 1.7.8 2.6 1.3zm-13.1 3.9c.5-1 .9-1.8 1.4-2.5l-.8-.6c-.5.8-1 1.7-1.5 2.7l.9.4zm18.6.2l.7-.7c-.8-.7-1.6-1.4-2.3-2l-.6.8c.7.5 1.5 1.2 2.2 1.9zm-15-6.2l.5.9c.2-.1.4-.2.6-.2.7-.2 1.4-.3 2.1-.4v-1c-.8 0-1.6.2-2.4.4-.3 0-.6.1-.8.3zm-6.1 9.3c-.3.9-.7 1.9-1 2.8l.9.3c.3-1 .7-1.9 1-2.8l-.9-.3zm30.2 7.4l.8-.6-1.8-2.4-.8.6c.6.7 1.2 1.5 1.8 2.4zm-32.6-.8c-.3.9-.6 1.9-1 2.8l.9.3c.3-.9.7-1.9 1-2.8l-.9-.3zm-3.5 9.3l.9.4c.4-.9.8-1.8 1.2-2.8l-.9-.4c-.4 1-.8 1.9-1.2 2.8zm-23.5 62c-.1 1-.3 2-.4 3l1 .1c.1-1 .3-2 .4-3l-1-.1zm77.1-4.2c.1-1 .2-2 .2-3l-1-.1c-.1 1-.1 2-.2 3l1 .1zm-76.1-2.7c-.2 1-.3 2-.5 3l1 .2c.2-1 .3-2 .5-3l-1-.2zm1.3-6.9l-.6 3 1 .2c.2-1 .4-2 .6-2.9l-1-.3zm74.2 1.1v1.5h1v-3h-1v1.5zm-5.1 28.7c.6-.8 1.1-1.7 1.6-2.6l-.9-.5c-.5.9-1 1.7-1.5 2.5l.8.6zm2.1-54.9l1-.2c-.2-1-.5-2-.7-2.9l-1 .2c.2 1 .5 2 .7 2.9zm-74.4 45.9l-.3 3 1 .1.3-3-1-.1zm74.7 2.4l.9.3c.2-.7.5-1.4.6-2.2.1-.3.1-.5.2-.8l-1-.2c-.1.3-.1.5-.2.8-.1.7-.3 1.4-.5 2.1zm1.1-41.4l1-.2c-.2-1-.3-2-.5-3l-1 .2c.1 1 .3 2 .5 3zm-71 11.3c-.2 1-.5 1.9-.7 2.9l1 .2c.2-1 .5-1.9.7-2.9l-1-.2zm4.1-13.4c-.3.9-.7 1.9-1 2.8l.9.3c.3-.9.7-1.9 1-2.8l-.9-.3zm2.7-6.5c-.4.9-.8 1.8-1.2 2.8l.9.4 1.2-2.7-.9-.5zm65.6 22.4h1c-.1-1-.1-2-.2-3l-1 .1c.1.9.2 1.9.2 2.9zm-70.5-9.3c-.3 1-.6 1.9-.8 2.9l1 .3c.3-1 .6-1.9.8-2.9l-1-.3zm70 2.4l1-.1c-.1-1-.2-2-.4-3l-1 .1c.2 1 .3 2 .4 3zm188.6 126.6l.3 3 1-.1-.3-3-1 .1zm-.7-7l.3 3 1-.1-.3-3-1 .1zm-.7-6.9l.3 3 1-.1-.3-3-1 .1zm-1-6.9c.2 1 .3 2 .4 3l1-.1c-.1-1-.3-2-.4-3l-1 .1zm-1.3-6.9c.2 1 .5 1.9.7 2.9l1-.2c-.2-1-.4-2-.7-2.9l-1 .2zm-2-6.6c.3.9.7 1.8 1 2.8l1-.3c-.3-1-.6-1.9-1-2.9-.1.1-1 .4-1 .4zm-2.9-6.3c.5.8.9 1.7 1.4 2.6l.9-.4c-.4-.9-.9-1.8-1.4-2.7l-.9.5zm-4.1-5.5c.7.7 1.3 1.4 1.9 2.3l.8-.6c-.6-.8-1.3-1.6-2-2.3l-.7.6zm-5.3-4.3c.8.5 1.6 1.1 2.4 1.7l.6-.8c-.8-.6-1.6-1.2-2.5-1.8l-.5.9zm-6.2-3c.9.3 1.8.7 2.7 1.1l.4-.9c-.9-.4-1.9-.8-2.8-1.1l-.3.9zm-6.7-1.8c1 .2 1.9.4 2.9.7l.2-1c-1-.2-2-.5-2.9-.7l-.2 1zm-6.9-1.1c1 .2 2 .3 3 .5l.2-1c-1-.2-2-.3-3-.5l-.2 1zm-6.9-.9l3 .3.1-1-3-.3-.1 1zm-6.9-.1c1-.1 2-.1 3-.1v-1c-1 0-2 0-3 .1v1zm-6.9.8c1-.2 2-.3 3-.4l-.1-1c-1 .1-2 .3-3 .4l.1 1zm-6.8 1.5c1-.3 1.9-.5 2.9-.7l-.2-1c-1 .2-2 .5-2.9.8l.2.9zm-6.6 2.3c.9-.4 1.9-.7 2.8-1.1l-.3-.9c-1 .3-1.9.7-2.8 1.1l.3.9zm-6.3 2.9c.9-.5 1.8-.9 2.7-1.3l-.4-.9c-.9.4-1.8.9-2.7 1.4l.4.8zm-5.9 3.6c.8-.6 1.7-1.1 2.5-1.6l-.5-.9c-.9.5-1.7 1.1-2.5 1.6l.5.9zm-5.6 4.2c.8-.6 1.5-1.3 2.3-1.9l-.6-.8c-.8.6-1.6 1.2-2.4 1.9l.7.8zm-5 4.8l2.1-2.1-.7-.7c-.7.7-1.4 1.4-2.1 2.2l.7.6zm-4.4 5.3c.6-.8 1.2-1.6 1.8-2.3l-.8-.6c-.6.8-1.3 1.6-1.9 2.4l.9.5zm-3.8 5.8c.5-.9 1-1.7 1.5-2.6l-.8-.5c-.5.9-1.1 1.7-1.6 2.6l.9.5zm-3 6.3l1.2-2.7-.9-.4c-.4.9-.8 1.8-1.2 2.8l.9.3zm-2.2 6.5c.3-1 .5-1.9.8-2.9l-1-.3c-.3 1-.6 1.9-.8 2.9l1 .3zm-1.3 6.8c.1-1 .3-2 .5-2.9l-1-.2c-.2 1-.3 2-.5 3l1 .1zm-.5 7c0-1 0-2 .1-3l-1-.1c-.1 1-.1 2-.1 3l1 .1zM413.6 5.1c.8-.6 1.6-1.3 2.3-2l-1.3-1.5c-.7.7-1.5 1.3-2.2 1.9l1.2 1.6zm-5.7 4.2c.9-.6 1.7-1.1 2.5-1.7L409.2 6c-.8.6-1.6 1.1-2.4 1.7l1.1 1.6zm-6.1 3.7c.9-.5 1.8-1 2.6-1.5l-1-1.7c-.8.5-1.7 1-2.6 1.5l1 1.7zm-6.2 3.2c.9-.5 1.8-.9 2.7-1.4l-.9-1.8c-.9.4-1.8.9-2.7 1.3l.9 1.9zm-6.4 3c.9-.4 1.8-.8 2.7-1.3l-.8-1.8c-.9.4-1.8.8-2.7 1.3l.8 1.8zm-6.4 2.9l2.7-1.2-.8-1.8-2.7 1.2.8 1.8zm-6.4 2.8c1-.4 1.9-.8 2.7-1.2l-.8-1.8c-.9.4-1.8.8-2.8 1.2l.9 1.8zm-6.2 3c.9-.5 1.8-.9 2.7-1.3l-.9-1.8c-.9.4-1.8.9-2.7 1.3l.9 1.8zm-6.2 3.3c.9-.5 1.8-1 2.6-1.4l-.9-1.8c-.9.5-1.8.9-2.7 1.4l1 1.8zm-6 3.5c.9-.5 1.7-1 2.6-1.5l-1-1.7c-.9.5-1.7 1-2.6 1.5l1 1.7zm-5.9 3.7c.8-.6 1.7-1.1 2.5-1.6l-1.1-1.7c-.8.5-1.7 1.1-2.5 1.7l1.1 1.6zm-5.6 4.1l2.4-1.8-1.2-1.6-2.4 1.8 1.2 1.6zm-5.3 4.4c.7-.7 1.5-1.3 2.2-1.9l-1.3-1.5c-.8.7-1.5 1.3-2.3 2l1.4 1.4zm-4.8 4.9c.6-.7 1.3-1.5 1.9-2.2l-1.4-1.4c-.7.8-1.4 1.5-2 2.3l1.5 1.3zm-4 5.6c.5-.8 1.1-1.6 1.6-2.5l-1.6-1.1c-.6.8-1.1 1.7-1.7 2.5l1.7 1.1zm-3.7 5.9c.5-.8 1.1-1.7 1.6-2.6l-1.7-1c-.5.9-1.1 1.7-1.6 2.5l1.7 1.1zm-4.2 5.8c.7-.8 1.3-1.6 1.9-2.4l-1.6-1.2c-.6.8-1.2 1.6-1.8 2.3l1.5 1.3zm-5.3 4.9c.9-.6 1.7-1.2 2.5-1.9l-1.3-1.5c-.7.6-1.5 1.2-2.3 1.8l1.1 1.6zm-6.4 3.4c.9-.4 1.9-.8 2.8-1.3l-.9-1.8c-.9.4-1.8.9-2.7 1.2l.8 1.9zm-6.7 2.3c1-.3 2-.5 2.9-.9l-.6-1.9c-.9.3-1.9.6-2.8.8l.5 2zm-7 1.3c1-.1 2-.3 3-.4l-.3-2c-1 .2-1.9.3-2.9.4l.2 2zm-7.1.4h.3c.9 0 1.9 0 2.8-.1l-.1-2c-.9 0-1.8.1-2.7.1h-.3v2zm-7.1-.5l3 .3.1-2c-1-.1-2-.2-2.9-.3l-.2 2zm-7-1.2l3 .6.4-2c-1-.2-1.9-.4-2.9-.6l-.5 2zm-6.9-2.1c.9.4 1.9.7 2.9 1l.6-1.9c-1-.3-1.9-.6-2.8-1l-.7 1.9zm-6.4-3.2c.9.5 1.8 1.1 2.7 1.5l.9-1.8c-.9-.4-1.7-.9-2.5-1.4l-1.1 1.7zM259 70c.7.7 1.5 1.4 2.3 2l1.3-1.6c-.8-.6-1.5-1.3-2.2-1.9L259 70zm-4.7-5.4c.6.8 1.2 1.6 1.9 2.4l1.5-1.3c-.6-.7-1.2-1.5-1.8-2.3l-1.6 1.2zm-3.8-6.1l1.5 2.7 1.7-1c-.5-.8-1-1.7-1.5-2.6l-1.7.9zm-3-6.4c.4.9.8 1.9 1.2 2.8l1.8-.8-1.2-2.7-1.8.7zm-2.4-6.7c.3 1 .6 1.9.9 2.9l1.9-.7c-.3-.9-.6-1.9-.9-2.8l-1.9.6zm-1.8-6.8c.2 1 .5 2 .7 2.9l2-.5c-.3-1-.5-1.9-.7-2.9l-2 .5zm-1.4-6.9l.6 3 2-.4c-.2-1-.4-2-.6-2.9l-2 .3zm-1.1-7c.1 1 .3 2 .4 3l2-.3c-.1-1-.3-2-.4-2.9l-2 .2zm-.8-7l.3 3 2-.2-.3-3-2 .2zm-.6-7c.1 1 .1 2 .2 3l2-.2c-.1-1-.2-2-.2-3l-2 .2zm-.4-7c0 1 .1 2 .2 3l2-.1c-.1-1-.1-2-.2-3l-2 .1z" opacity=".5" fill="#000"/><g opacity=".5"><path d="M84.8 499.6c-.1 4 1.9 7.8 5.4 10.2 5 3.4 8.4 2.5 10.3 1.1 4.1-2.9 4.9-10 3.5-15.3-.7-2.7-2.6-4.9-5.3-6-2.7-1.1-5.7-.9-8.2.5-3.4 2.1-5.6 5.5-5.7 9.5zm13.2-8.2c2.1.9 3.5 2.5 4.1 4.6 1.4 5.3.2 11.1-2.7 13.2-2.5 1.8-5.7.4-8-1.1-2.9-2-4.6-5.1-4.5-8.4.1-3.2 1.8-6.1 4.8-7.8 1.9-1.2 4.2-1.4 6.3-.5z" fill="#57585A"/><path d="M79 498.4c.3 5.4 5.2 12.3 9.4 15.2 5.8 4 12.3 4 17.8-.1 5.9-4.4 5.6-12.1 4.9-19-.3-3.1-2-5.8-4.8-7.8-5.2-3.7-13.7-4.7-19-3.6-6.2 1.4-8.6 8.7-8.3 15.3zm26.6-10.9c2.6 1.9 4.1 4.3 4.4 7.1.7 6.6 1 14-4.5 18.1-5.2 3.9-11 3.9-16.6.1-4-2.8-8.7-9.4-8.9-14.5-.3-6 1.9-13 7.4-14.2 5.1-1.1 13.3-.1 18.2 3.4z" fill="#57585A"/><path d="M106 478.7l-2.2-1.3c-7.1-4.4-21.9-13.7-27.1-13.7-1 0-1.7.3-2.1.9-1 1.3-.3 3.6.5 6.3 1 3.3 2 7 0 8.7-4.6 3.9-8.6 10.2-5.9 16.3.9 2 2.1 3.9 3.2 5.7 1.1 1.8 2.3 3.6 3.2 5.5.9 2 .4 3.4-.1 4.9-.5 1.3-1 2.7-.4 4.4.9 2.7 4.3 4.4 7.2 5.9.8.4 1.5.8 2.1 1.1 1.7 1 3.6 1.5 5.5 2 1.8.5 3.7 1 5.3 2 6.4 3.7 18.1 9.7 24.7 7.8 1.9-.6 1.5-3.1 1.1-5.7-.3-1.8-.6-3.7-.1-4.9.4-.9-.1-2.2-.6-3.6-.3-1-.7-2-.6-2.5.1-.9.5-1.5.9-2.2.5-.8 1.1-1.7 1.1-3 0-1.6.1-3.4.2-5.4.4-5.6.8-11.9-1.6-15.9-3.5-6.2-8.9-10.1-14.3-13.3zm15 29c-.1 1.9-.2 3.8-.2 5.4 0 1-.4 1.7-.9 2.5-.4.7-.9 1.5-1.1 2.6-.1.8.3 1.8.6 3 .4 1.1.8 2.4.6 2.9-.6 1.4-.3 3.5 0 5.4.3 2.2.7 4.3-.4 4.6-6.4 1.9-18.8-4.8-23.9-7.7-1.7-1-3.7-1.5-5.6-2.1-1.9-.5-3.6-1-5.2-1.9-.7-.4-1.4-.8-2.2-1.2-2.8-1.4-5.9-3-6.7-5.3-.5-1.4-.1-2.5.4-3.7.5-1.5 1.2-3.2.1-5.6-.9-2-2.1-3.9-3.2-5.7-1.1-1.8-2.3-3.6-3.1-5.5-2.5-5.6 1.3-11.5 5.6-15.2 2.6-2.2 1.4-6.2.4-9.8-.6-2.2-1.3-4.5-.7-5.4.2-.3.7-.5 1.3-.5 4.9 0 20.1 9.5 26.6 13.5l2.2 1.3c5.2 3.2 10.5 7 14 12.8 2.2 4 1.8 10.2 1.4 15.6zm-26.3 29.5l-.1-.1s-.1 0-.1-.1l.2.2z" fill="#57585A"/><path d="M65.7 466.6c0 6.2 0 12.6-1.4 14.7-2.2 3.4-2.9 11.7-1.4 15.5.9 2.2 2.1 4.1 3.3 5.9 1.5 2.4 3 4.7 3.8 7.5.5 1.8.4 3.5.3 5.1-.2 2.7-.3 5.3 2.7 7.4 1.4 1 4.3 2.1 6.9 3.1 1.7.6 3.2 1.2 4.2 1.7.5.2 1.1.5 1.8.8 1.9.8 4.4 1.8 4.7 3.1v.2l3.2 6.1.1.2c1.5 1.2 5.8 2.3 8.3 3l1.1.3c1.9.5 3.4.1 5-.4 1.2-.3 2.4-.7 3.7-.6 1.7.1 5 1.5 8.5 3.1 5.3 2.3 10.7 4.8 13 3.4.6-.4 1-1 1.1-1.8.3-2.9-2.4-9.2-5-15.4-2.2-5.2-4.6-10.7-4.6-13v-16.2c0-6.8-1.6-10.6-6.4-15.6-6.3-6.5-11.8-10.4-18-12.6-2.6-.9-7.4-5.6-12.5-10.6-7-6.9-14.2-13.9-18.2-13.8-4.2.1-4.2 9.3-4.2 18.9zm21.7-4.5c5.2 5.1 10.1 9.8 12.9 10.8 6 2.1 11.5 5.9 17.6 12.3 4.7 4.9 6.1 8.4 6.1 14.9v16.2c0 2.6 2.3 7.8 4.6 13.4 2.6 6 5.3 12.3 4.9 14.9-.1.5-.3.8-.6 1-1.9 1.1-7.5-1.5-12.1-3.5-3.6-1.6-6.9-3.1-8.8-3.2-1.5-.1-2.8.3-4.1.6-1.5.4-2.8.8-4.4.4l-1.1-.3c-2.3-.6-6.4-1.7-7.8-2.7l-3.2-6v.1c-.5-1.8-3.2-2.9-5.3-3.7-.6-.3-1.2-.5-1.7-.7-1-.5-2.6-1.1-4.3-1.8-2.5-1-5.4-2.1-6.7-3-2.6-1.9-2.4-3.9-2.3-6.6.1-1.6.2-3.4-.3-5.4-.8-3-2.4-5.5-3.9-7.8-1.2-1.8-2.4-3.7-3.2-5.8-1.4-3.6-.7-11.5 1.3-14.6 1.5-2.4 1.5-8.6 1.5-15.2 0-8 0-17.9 3.3-18 3.7.1 11.1 7.3 17.6 13.7z" fill="#57585A"/><path d="M138.3 515.1c-3.6-30.3-16-46.9-39.2-52.3-5.7-1.4-10.4-8.2-15.4-15.5-3-4.3-6.1-8.8-9.6-12.5-10.2-10.7-21.5-18.1-24.8-16.1-1.1.6-1.2 2-.5 4.1C56 438.2 58 469.1 55 477c-5.4 14.3-2.7 30.4 7.8 45.4 13.9 19.9 39.5 34.7 59.4 34.5 8.8-.1 14.8 2.3 18.8 3.9 3.2 1.3 5.3 2.1 6.8.8 1.8-1.6-.7-11.7-5-28-2.1-7.8-4.1-15-4.5-18.5zm8.8 45.7c-1 .9-2.9.1-5.7-1-4.1-1.6-10.2-4-19.2-3.9-19.7.2-44.8-14.4-58.6-34-7.3-10.4-14.5-26.5-7.7-44.4 3.1-8.1 1.1-39.4-6.2-54.9-.4-1.1-.6-2.5.1-2.9 2.5-1.5 13.3 5.1 23.6 16 3.5 3.7 6.5 8.1 9.5 12.4 5.1 7.4 9.9 14.4 16 15.9 22.7 5.3 34.9 21.6 38.4 51.5.4 3.5 2.4 10.8 4.4 18.5 2.8 10 6.9 25.4 5.4 26.8zM187.7 332c5.5-.4 8.1-1.4 8.7-3.2.7-2.5-2.5-5.1-7.1-8.7-1.8-1.4-3.6-2.8-5.3-4.4-2.3-2.1-3.7-5-4.9-7.6-1.5-3.2-3-6.3-6-6.3-3.8 0-7.5 3.7-10.1 10.2-3.3 8.2-4.1 19.2.4 23.4 1.7 1.6 4.8 2.9 10.2.4 0-.1 8.6-3.7 14.1-3.8zm-23 1.9c-3.8-3.6-2.9-13.8.1-21.2 2.3-5.6 5.4-9 8.2-9 1.6 0 2.7 2 4.2 5.2 1.3 2.8 2.8 5.9 5.4 8.2 1.8 1.6 3.7 3.1 5.4 4.5 3 2.4 6.8 5.4 6.4 6.5-.1.3-.9 1.4-6.9 1.8-5.7.2-14.4 3.8-14.8 3.9-3.6 1.7-6.3 1.7-8 .1z" fill="#57585A"/><path d="M207.2 338.7c3.1-3.2 4.3-7.4 3.6-12.3-.3-2.2-3.6-5.3-7.7-9.3-3.4-3.2-7.2-6.8-10.3-10.8-2.6-3.3-4.2-7.3-5.5-10.5-1.3-3.1-2.2-5.4-3.5-6.1-11.6-6.2-18.2 1.3-23.9 9.7-9.9 14.3-13.3 29.4-8.4 37.6 3.2 5.4 9.8 7.8 19 6.9 8.7-1 18.3.2 18.4.2 7.1.9 14.2-1.2 18.3-5.4zm-37 4.3c-9 .9-15.1-1.3-18.1-6.4-4.6-7.9-1.3-22.6 8.4-36.5 6.7-9.7 12.8-14.6 22.7-9.3 1 .5 1.9 2.9 3 5.6 1.3 3.3 3 7.3 5.6 10.7 3.2 4 7 7.7 10.4 10.9 3.8 3.6 7.2 6.8 7.4 8.7.7 4.5-.4 8.5-3.3 11.4-3.9 4-10.6 6-17.6 5.2 0-.2-9.7-1.3-18.5-.3z" fill="#57585A"/><path d="M209.2 353.1c6.8-2.9 19.5-8.3 22-18.9 1.6-6.7-1.3-14.4-8.5-23-1.5-1.8-4.7-3.1-8.5-4.7-4.1-1.7-8.8-3.6-11.8-6.6-3.4-3.3-6.5-7-9.5-10.5-6.6-7.9-12.3-14.7-19.5-14.9-11.1-.3-19.2 12.3-25.7 22.4-1.6 2.5-3.2 5-4.7 6.9-6.3 8.5-14.6 26.4-6.1 40.1 5.8 9.3 18.8 9 31.3 8.8 6.1-.1 11.8-.2 16.4.8.6.2 15.6 4.2 21.4.9.7-.2 1.8-.7 3.2-1.3zm-24.3-.5c-4.7-1-10.5-.9-16.7-.8-12.2.2-24.9.4-30.4-8.3-3.4-5.5-4.3-12.6-2.5-20.5 1.4-6.3 4.6-13 8.6-18.4 1.5-2 3-4.4 4.7-7 6.4-9.9 14.4-22.2 24.9-21.9 6.7.2 12.3 6.8 18.7 14.5 3 3.6 6.1 7.3 9.5 10.6 3.2 3.1 8 5.1 12.1 6.8 3.4 1.4 6.7 2.8 8.1 4.4 7 8.3 9.8 15.7 8.3 22.1-2.4 10.1-14.8 15.3-21.4 18.2-1.4.6-2.6 1.1-3.3 1.5-5.4 2.9-20.5-1.1-20.6-1.2zM91.2 152.8c-.8 3.5-.4 6.2 1.4 7.7 2.3 1.9 6.4 1.7 12.4-.8.7-.2 12.4-3.2 13.3-10.4.3-4.7 2.1-8.9 3.4-11.9 1.3-2.9 2.2-5.1 1.1-6.3-1.2-1.4-4.6-1.2-12.6.7-8.5 1.9-17 12.7-19 21zm30.8-21.2c.6.8-.2 2.8-1.3 5.3-1.3 3.1-3.1 7.3-3.4 12.2-.8 6.5-12.5 9.5-12.6 9.5-5.6 2.3-9.5 2.7-11.4 1-1.8-1.5-1.6-4.5-1.1-6.7 1.9-7.8 10.2-18.4 18.2-20.3 4.8-1.1 10.5-2.3 11.6-1z" fill="#57585A"/><path d="M112.2 126.4c-11.9 2.1-34.2 6-41 9.6-1.6.9-2.5 1.8-2.7 2.8-.3 1.6 1 3.2 2.7 5.1 2.3 2.6 5.1 5.9 4.8 10.7-.5 7.8 2.2 12.7 7.9 14.7 7.2 2.5 19.6.1 34-6.7 12-5.7 23.2-13.4 26.8-18.5 4.3-6.1 5.3-10.9 3.2-14.3-4.6-7.1-22.3-6-31.1-4.3l-4.6.9zm34.9 4c1.9 3 .9 7.4-3.1 13.1-6.5 9.2-43.5 30.6-59.7 24.8-5.3-1.9-7.7-6.5-7.2-13.7.3-5.1-2.8-8.8-5.1-11.4-1.5-1.7-2.7-3.1-2.5-4.3.1-.7.9-1.4 2.2-2.1 6.7-3.5 29.7-7.6 40.7-9.5l4.7-.8c9.8-1.8 26-2.3 30 3.9z" fill="#57585A"/><path d="M101.9 121.5c-4 .7-7.4 1.4-10.2 1.7-2.9.4-8.6-.2-15.2-.9-16.7-1.7-39.6-4-41.2 6.9-1.1 7.2 7.7 11.2 14.8 14.4 2.4 1.1 4.7 2.2 6.1 3.2 6.5 4.6 8.3 8.3 10.6 12.9 1.1 2.3 2.4 4.9 4.5 7.9 7.6 11.2 22 14.2 43 8.7 3.7-1 7-4.1 10.2-7.1 2.6-2.5 5-4.8 7.5-5.7 2-.8 5.1-.7 8.5-.7 4.9.1 9.9.2 13-2.1 4.6-3.4 7.6-8.8 8.5-15.1 1-7.2-.9-14.7-5.3-20.4-9.6-12.1-36.8-7.1-54.8-3.7zm53.9 4.5c4.2 5.5 6.1 12.6 5.1 19.6-.8 6.1-3.7 11.2-8.1 14.4-2.8 2.1-7.9 2-12.3 1.9-3.5-.1-6.7-.1-8.9.7-2.6 1-5.1 3.4-7.8 5.9-3.1 2.9-6.3 5.9-9.8 6.8-20.5 5.3-34.5 2.5-41.9-8.3-2-3-3.3-5.5-4.4-7.8-2.4-4.8-4.2-8.5-10.9-13.3-1.5-1.1-3.7-2.1-6.3-3.3-6.7-3.1-15.1-7-14.2-13.4 1.5-10 23.8-7.7 40.1-6.1 6.6.7 12.4 1.2 15.4.8 2.8-.4 6.2-1 10.2-1.7 17.8-3.1 44.7-8 53.8 3.8z" fill="#57585A"/><path d="M165.5 120.6c-13.8-18.6-43.8-12.3-65.7-7.8-5 1-9.8 2-13.9 2.6-6.5 1-15.8-.1-25.6-1.1-17.6-1.9-37.6-4.1-46.8 4.9-3.6 3.5-5.1 7.2-4.6 11.1 1.4 10.8 19 20.7 33.1 28.6 7 3.9 13.1 7.3 16 10.1 20.5 19.6 38.8 26.7 59.2 23.2 4.7-.8 7.2-4.2 9.8-7.8 2.3-3.1 4.6-6.4 8.8-8.7 2.2-1.2 5.6-1.7 9.3-2.2 5.8-.8 11.7-1.6 14.7-5.4 10.3-12.9 17.1-32.1 5.7-47.5zm-7.1 46.2c-2.5 3.2-8.1 3.9-13.4 4.7-3.9.5-7.5 1-10 2.4-4.5 2.5-7.1 6.1-9.4 9.3-2.5 3.4-4.6 6.4-8.5 7-19.7 3.4-37.5-3.6-57.5-22.7-3.1-3-9.3-6.4-16.5-10.4-13.7-7.7-30.8-17.2-32.1-27.1-.4-3.2.9-6.3 4-9.4 8.5-8.3 28-6.2 45.2-4.4 9.9 1.1 19.3 2.1 26.1 1.1 4.2-.6 8.9-1.6 14-2.7 22.6-4.7 50.7-10.5 63.7 7 10.7 14.7 4.1 33-5.6 45.2z" fill="#000"/><path d="M413.7 201.4c0-1.2-.6-2.3-1.6-3-1.6-1.1-6.9-1.6-10.2-.9-1.6.3-2.6.9-3.1 1.7-.3.5-.5 1.6 1.1 3.1 2.7 2.4 9 4.8 11.4 3 2-1.4 2.4-2.9 2.4-3.9zm-13.2.1c-.4-.4-1.3-1.2-.9-1.8.3-.5 1.2-1 2.5-1.2 3.4-.7 8.3-.1 9.4.7.8.6 1.2 1.4 1.2 2.2 0 1.1-.7 2.1-2 3.1-1.8 1.3-7.6-.6-10.2-3z" fill="#57585A"/><path d="M415.8 205.3c.9-1.4 1.8-3.6.6-6.4-1.1-2.9-4.3-4.8-8.6-5.3-4.9-.5-9.7 1.2-11.7 4.2-1.1 1.7-1.1 3.6-.1 5.6 2 3.6 7.1 6.1 12.3 6 2.4 0 5.7-1.4 7.5-4.1zM397 203c-.6-1.1-1.1-2.8 0-4.5 1.7-2.7 6.2-4.2 10.7-3.8 3.9.4 6.7 2.1 7.7 4.6 1 2.4.2 4.3-.5 5.5-1.6 2.4-4.5 3.7-6.5 3.7-5.5 0-9.9-2.8-11.4-5.5z" fill="#57585A"/><path d="M457.1 176.4c-3.3-3.9-7.6-6-12.6-6.4-5.9-.4-27.7 2.8-35.1 10.8-2 2.1-2.8 4.5-2.4 6.9.5 3 2.8 2.8 4.8 2.7 1.4-.1 2.9-.2 4.1.6 2.7 1.9 2.5 4.8 2.3 8.1-.1 1.3-.2 2.7-.1 4.1.9 10.9 7.5 18.7 17.3 20.3 4.8.8 16.8 2 24.1-3.7 3.2-2.5 5-6 5.3-10.4 1-10-.5-24.7-7.7-33zM459 219c-6.9 5.4-18.6 4.2-23.3 3.5-9.5-1.5-15.7-8.8-16.5-19.4-.1-1.3 0-2.6.1-3.9.2-3.3.4-6.7-2.7-9-1.4-1-3.2-.9-4.7-.8-2.2.2-3.4.2-3.7-1.8-.3-2.1.4-4.2 2.1-6.1 7.1-7.8 28.5-10.9 34.3-10.5 4.7.3 8.8 2.3 11.9 6 6.9 8.1 8.4 22.4 7.6 32.3-.5 4.2-2.1 7.4-5.1 9.7z" fill="#57585A"/><path d="M458.4 197.8c-.2-1.2-.3-2.7-.5-4.2-.4-4.5-.8-9.6-3.7-11.8-1.6-1.3-4.3-.9-6.9-.6-2.1.2-4.3.5-5.7-.1-.6-.2-1.3-.5-1.9-.8-5.2-2.2-11.1-4.8-16.2 2.2-2.8 3.8-3.3 9.6-1.2 16.1 2.8 8.9 9.6 17.4 15.5 19.4 5.6 1.9 10.9 1.1 14.9-2.4 4.6-4.1 6.9-11 5.7-17.8zm-6.3 16.9c-3.7 3.2-8.7 4-13.9 2.2-5.7-1.9-12.2-10.2-14.9-18.7-1.9-6.2-1.6-11.6 1.1-15.2 4.6-6.3 9.7-4.1 15-1.9.6.3 1.3.5 1.9.8 1.7.7 4 .4 6.2.2 2.4-.3 4.9-.6 6.2.4 2.5 2 2.9 6.8 3.3 11.1.1 1.6.3 3.1.5 4.3 1 6.5-1.1 13.1-5.4 16.8z" fill="#57585A"/><path d="M445.7 192.7c-4.1-.6-8.7 1.1-10.7 4-2.7 4.1-1.3 6.6-.2 7.8 2.8 3 9.3 3.6 13.5 1.2 3.1-1.8 4.3-4.8 3.2-8.4-.7-2.5-2.8-4.1-5.8-4.6zm4.8 4.9c1.2 4-.8 6.2-2.7 7.2-3.8 2.1-9.8 1.6-12.3-1-1.5-1.7-1.4-3.9.3-6.6 1.7-2.6 6-4.2 9.7-3.6 1.6.3 4.2 1.2 5 4z" fill="#57585A"/><path d="M474.7 209.5c2.9-3.1 6.3-6.5 5.7-10.5-.4-2.5-3.2-4.9-6.3-7.4-2.6-2.1-5.2-4.3-5.8-6.2-4.1-13.4-12.7-23.2-23.4-27-9.7-3.5-20.3-1.7-30.6 5.2-6.4 4.2-10.3 11.6-13.8 18l-.8 1.5c-.6 1.2-1.7 2.7-2.9 4.5-3.2 4.7-7.2 10.5-7 14.5.4 7 7.8 8.6 14.3 9.9 4.2.9 8.5 1.8 10.8 3.9l.6.5c11 10.2 17.1 15.8 34.5 12.9 11-1.8 17.9-6.8 20.7-14.7.4-1.4 2.2-3.2 4-5.1zm-25.1 18c-16.4 2.7-21.9-2.3-32.8-12.4l-.6-.5c-2.7-2.5-7.3-3.5-11.7-4.4-6.4-1.3-12.4-2.6-12.7-8.1-.2-3.3 3.7-9.1 6.6-13.3 1.3-1.8 2.3-3.4 3-4.7l.8-1.5c3.4-6.3 7.2-13.4 13.2-17.3 9.7-6.5 19.7-8.2 28.8-4.9 10.2 3.6 18.2 13 22.2 25.7.8 2.5 3.7 4.9 6.5 7.2 2.6 2.1 5.3 4.4 5.6 6.1.4 3-2.4 5.9-5.2 8.8-2 2.1-3.9 4-4.6 6-2.5 7.2-8.8 11.6-19.1 13.3z" fill="#000"/><path d="M492.5 214.4c8.4-5.9 17.2-11.9 16.4-19-.4-3.5-7.5-6-15.1-8.6-6.1-2.1-12.4-4.3-13.9-6.7-5.4-9.1-14.1-18-24-24.6-9.6-6.4-18.8-9.6-25.3-8.9-16.1 1.7-25.6 10.2-40.6 36.3-1.7 3-3.6 5.7-5.5 8.4-4.3 6.1-8 11.3-6.6 16.2 1 3.6 4.5 6.5 11 9.3 3.1 1.3 6.2 1.9 9.2 2.3 4 .7 7.7 1.3 11.7 3.7 3.3 2 6 4.7 8.6 7.2 3.7 3.6 7.5 7.3 13 9.4 20.5 7.7 36.9-4 51.5-17.9 2.6-2.3 6-4.6 9.6-7.1zm-60.6 24.1c-5.3-2-8.9-5.5-12.7-9.2-2.7-2.6-5.4-5.3-8.8-7.4-4.1-2.5-8.1-3.2-12-3.8-2.9-.5-6-1-9-2.3-6.1-2.6-9.5-5.5-10.4-8.7-1.3-4.4 2.3-9.5 6.4-15.3 1.9-2.7 3.8-5.4 5.6-8.4 15-26.1 23.9-34.1 39.9-35.8 12.3-1.3 36.5 13.2 48.3 33 1.6 2.8 7.8 4.9 14.4 7.2 6.6 2.3 14.1 4.9 14.4 7.7.7 6.5-8.2 12.6-16 18-3.6 2.5-7 4.9-9.5 7.2-14.5 13.7-30.6 25.3-50.6 17.8z" fill="#57585A"/><path d="M195.8 537.1c-.4-8.8-3.7-17.3-7-25.5-3.3-8.4-6.5-16.4-6.5-24.5 0-5.8 3.7-12 7.3-18 2.7-4.5 5.2-8.7 6.3-12.8l2.4-9.1c6.2-23.6 12.7-48 24.8-68.7 1.3-2.2 5.5-3 9.6-3.9 4.7-1 9.5-1.9 11-5.2 2.6-5.9 1.8-13.1 1.1-20-.7-6.7-1.3-12.9.7-18 11.8-30.1 7.9-59.3 3.8-90.2-1.2-8.9-2.4-18.1-3.2-27.4-.5-5.7-3.6-11.2-6.6-16.6-2.7-4.7-5.4-9.6-6.1-14.3-2.3-14.4-2.2-28.2-2.2-41.6.1-15.9.1-30.9-3.4-47-2.1-9.5-8.8-16.8-16-24.6-6-6.5-12.3-13.3-15.5-21.5-3.8-9.7-3.7-21.7-3.5-33.3.1-4.9.1-9.6-.1-14.2h-2c.2 4.5.2 9.3.1 14.1-.2 11.8-.3 24 3.7 34 3.4 8.6 9.8 15.5 15.9 22.2 7 7.6 13.6 14.7 15.5 23.7 3.4 15.9 3.4 30.8 3.3 46.6-.1 13.4-.1 27.3 2.2 41.9.8 5.1 3.6 10.1 6.4 15 2.9 5.2 5.9 10.5 6.4 15.8.8 9.3 2.1 18.5 3.3 27.5 4.1 30.6 7.9 59.6-3.7 89.2-2.2 5.5-1.5 12.4-.8 19 .7 6.7 1.4 13.6-1 19-1 2.3-5.4 3.2-9.6 4.1-4.5.9-9.1 1.9-10.9 4.8-12.3 20.9-18.8 45.4-25 69.2l-2.4 9c-1 3.8-3.5 7.9-6.1 12.3-3.8 6.2-7.6 12.7-7.6 19 .1 8.5 3.4 17 6.7 25.2 3.2 8 6.5 16.4 6.8 24.8.4 8.9-.1 18.1-.6 26.9-.1 2.7-.3 5.3-.4 7.9h2c.1-2.6.2-5.2.4-7.8.4-8.8.9-18 .5-27z" fill="#000"/><path d="M71.2 85.3c2.1-.3 4.9-2.4 7.9-4.7 2.6-2 5.3-4 7.1-4.3 3.4-.7 5.9.6 8.6 2 2.3 1.2 4.7 2.5 7.6 2.3 4.5-.2 9.2-1.1 14.2-2 8.3-1.5 16.9-3.1 25-1.7 15 2.7 27 7.4 36.7 14.4 3.6 2.6 7.7 3.5 11.6 4.4 5.1 1.2 9.9 2.3 12.7 7.2 5 9.1 6.3 24.7 7.5 39.8.6 7 1.1 13.7 2 19.7 3.5 23.7 4.6 42.6-1.3 63.8-.9 3.4-2.4 7.3-3.9 11.3-5.3 14.1-11.8 31.7-1.4 43.7 5.3 6.2 11.4 8.8 17.2 7.3 6.1-1.5 10.9-7.3 12.7-15.6.6-2.5 1.7-5.7 2.8-9 2.9-8.3 6.5-18.6 4.5-26.7-.8-3.3-4.1-4.6-7.2-5.9-2.5-1-5-2.1-6.4-4-5.1-7.2-5.4-19.1-5.5-26.3v-.3c-.2-7.3 0-14.5.2-21.5.5-20 1-38.8-6.3-59-1.6-4.3-2-10.3-2.3-16.1-.5-7.2-.9-14.6-3.6-19.1-3.7-6.1-8.8-10.4-13.7-14.5-6.7-5.6-13-10.9-15.9-20.3-1.3-4.3-.8-10.8-.2-17 .4-5.3.9-10.7.2-14.8-1-5.9-1.8-11.9-2.6-17.7h-1c.8 5.9 1.6 11.9 2.6 17.8.7 3.9.2 9.3-.2 14.6-.5 6.3-1.1 12.9.3 17.4 2.9 9.7 9.7 15.4 16.2 20.8 4.9 4.1 9.9 8.3 13.5 14.3 2.6 4.3 3.1 11.6 3.5 18.7.4 5.9.8 12 2.4 16.4 7.3 20 6.8 38.8 6.3 58.6-.2 7-.4 14.2-.2 21.6v.3c.2 7.3.4 19.4 5.7 26.8 1.6 2.2 4.3 3.3 6.8 4.4 3 1.2 5.9 2.4 6.6 5.2 2 7.8-1.6 18-4.4 26.1-1.2 3.3-2.3 6.5-2.9 9.1-1.8 7.8-6.3 13.4-12 14.8-5.4 1.3-11.1-1.2-16.2-7-10-11.5-3.8-28.1 1.6-42.7 1.5-4.1 3-8 3.9-11.4 5.9-21.4 4.9-40.4 1.3-64.2-.9-5.9-1.4-12.6-2-19.6-1.2-15.2-2.5-30.9-7.6-40.2-2.9-5.3-8-6.5-13.3-7.7-3.8-.9-7.8-1.8-11.2-4.3-9.8-7.1-22-11.9-37.1-14.6-8.3-1.5-17 .1-25.4 1.7-5 .9-9.6 1.8-14.1 2-2.7.1-4.8-1-7.1-2.2-2.7-1.4-5.5-2.9-9.3-2.1-2 .4-4.7 2.4-7.5 4.5S73 84 71.1 84.3C47.1 88 24 86.7.6 80.6v1c23.5 6.2 46.6 7.3 70.6 3.7z" fill="#57585A"/><path d="M210.5 259.5c-.4 4.7-.4 13.1 3.7 15.6 1.9 1.2 4.5.8 7.6-1.1 5.5-3.4 13.3-18.7 10.9-27.2-.6-2.1-2.1-3.8-4.6-5.1-4-2-9.4-2.1-11.2-1.4-3 1.3-5.7 10.9-6.4 19.2zm17.2-16.9c2.2 1.1 3.6 2.6 4.1 4.4 2.2 7.9-5.3 22.9-10.5 26.1-2.7 1.7-4.9 2-6.5 1.1-2.7-1.6-3.8-7-3.2-14.6.7-8.4 3.5-17.3 5.8-18.3 1.4-.6 6.4-.6 10.3 1.3zm2.4 56.4c-.5 4.9.4 10.8 3.5 12.4 1.8.9 3.9.2 6.2-1.9 2.7-2.4 6.4-9.9 3.6-14.7-3-4.2-5.7-5.9-8.2-5.3-3.1.8-4.7 5.4-5.1 9.5zm12.5-3.8c2.4 4.2-.8 11.1-3.4 13.5-2 1.9-3.8 2.5-5.1 1.8-2.2-1.1-3.5-6-2.9-11.4.5-4.7 2.2-8.1 4.4-8.7 1.9-.5 4.3 1.1 7 4.8z" fill="#57585A"/><path d="M61.1 73.3c4.1-.9 8.1-3.6 12-6.2 4-2.7 8.1-5.4 11.9-6 3.5-.5 6.1 1.7 9.1 4.2 2.9 2.4 5.9 5 10.1 5.3 6.1.4 12.9-.5 19.4-1.5 8.8-1.3 18-2.6 25.1-.4 4.7 1.5 10 4.6 15.1 7.7 8.5 5.1 15.8 9.5 19.6 5.2 3.9-4.4-.6-15.7-7.8-32.3-2-4.6-3.9-9-5.2-12.6-4.8-13.1-4.8-22.8-4.6-35.8h-3c-.2 12.8-.2 23.2 4.7 36.9 1.4 3.7 3.3 8.1 5.3 12.8 4.7 10.9 11.2 25.8 8.3 29.2-2.1 2.4-9-1.8-15.8-5.8-5.3-3.1-10.7-6.4-15.8-8-7.8-2.4-17.3-1.1-26.5.3-6.4.9-13 1.9-18.8 1.5-3.2-.2-5.7-2.3-8.3-4.6-3.3-2.8-6.7-5.6-11.5-4.9-4.5.6-8.9 3.6-13.2 6.4-3.7 2.5-7.5 5-10.9 5.7C39 74.9 18.9 72.4.6 63v3.4c18.4 9 39.2 11.4 60.5 6.9z" fill="#000"/><path d="M611.4 290.5c.2-4.1.3-8 .6-11 1.2-10 6-21.7 11.1-34.2 8.5-20.7 17.3-42.1 10.5-58.3-2-3.9-4-5.7-6.1-5.6-5 .3-9.1 11.7-13 22.7-2.3 6.3-4.4 12.3-6.5 15.4-9.5 16-20.3 23.9-35.1 25.8-3.8.5-7.5.8-11.1 1-9.5.7-17.1 1.3-18.7 5.4-1.3 3.3 1.4 8.3 8.6 16.2 2.6 2.9 5.8 5.5 8.8 8.1 5.1 4.3 10.4 8.8 13.8 14.6 2 3.4 3.2 7.4 4.4 11.3 1.8 6 3.5 11.7 7.8 15.3 6.9 5.8 12.2 7.7 16.2 5.9 7.6-3.2 8.2-19.5 8.7-32.6zm-24.2 26c-4.1-3.4-5.7-8.9-7.5-14.8-1.2-4-2.4-8-4.5-11.5-3.5-5.9-8.8-10.5-14-14.8-3.2-2.7-6.1-5.2-8.7-8-6.8-7.4-9.6-12.4-8.4-15.2 1.4-3.5 8.6-4 17.8-4.7 3.6-.3 7.3-.5 11.1-1 15.2-1.9 26.2-10 35.8-26.2 2.2-3.2 4.3-9.2 6.6-15.7 3.7-10.2 7.8-21.7 12.2-22 1.7-.1 3.4 1.6 5.2 5 6.6 15.8-2.1 37-10.5 57.5-5.1 12.5-10 24.3-11.2 34.4-.3 3-.5 6.9-.6 11.1-.5 12.8-1 28.7-8 31.8-3.7 1.5-8.8-.4-15.3-5.9z" fill="#57585A"/><path d="M599.5 280.7c2-2.9 2.7-8.1 3.4-13.2.5-3.9 1-8 2.2-10.7 1-2.4 2.3-4.1 3.7-5.8 2.1-2.7 4.2-5.3 4.1-10.2-.1-2.8-1.1-4.4-3-4.9-8.1-2-29.4 19.6-32.2 24.5-4.6 8.1 0 20.3 7 24.7 5 3.3 10.5 1.7 14.8-4.4zm-14.4 3.6c-6.4-4.1-10.9-15.9-6.6-23.4 3.1-5.4 24.1-25.7 31.1-24 1.4.3 2.2 1.6 2.2 4 0 4.5-1.8 6.8-3.9 9.5-1.4 1.7-2.8 3.5-3.8 6-1.2 2.9-1.7 7-2.2 11-.6 5-1.3 10.1-3.2 12.8-4 5.6-8.9 7.1-13.6 4.1zm-270.9-80.9c-2 12.7 6.4 29.5 23.2 46.1 2.2 2.1 8.3 3.7 14.7 5.4 6.1 1.6 12.4 3.2 14.3 5.1 13.5 14 20.9 30.1 24.8 38.7.9 1.9 1.6 3.5 2.2 4.7 5 9.7 3.2 18.9 1.2 28.7-.8 4.1-1.7 8.4-2 12.7-.3 4.6.6 9.3 1.6 13.9 1.3 6.6 2.6 12.9.2 18.2-1 2.3-4.2 2.5-7.6 2.8-3.3.2-6.6.5-8.1 2.8-8.1 13.2-9 33-2.4 50.5 8.8 23 15.8 21.8 22.6 20.7 3.4-.6 6.5-1.1 9.9 1.4 4 3 7.7 6.4 10.9 9.3 8.7 7.9 15.6 14.2 21.7 7.6 4.3-4.6 2-16.5-.4-29.2-1.3-6.8-2.6-13.9-2.9-19.8-.7-15.1 2.3-31.9 5.2-48.3 6.3-35.3 12.7-71.9-17-93.8-7.4-5.4-14.2-9.5-20.7-13.5-15.2-9.1-28.2-17-39.7-37.2-.9-1.7-1.9-3.8-3-6.3-2.5-5.6-5.6-12.7-10.3-17.4-1.6-1.6-3.8-1.8-5.9-2.1-2.1-.3-4.2-.5-5.6-1.9-1.4-1.4-.5-5.2.3-8.8 1-4.2 2-8.5-.3-10.3-2-1.6-6.3-.7-13.3 2.7-7.9 4.2-12.5 10-13.6 17.3zm26.3-18.9c1.8 1.4.8 5.4-.1 9.3-.9 4.1-1.8 7.9 0 9.7 1.7 1.7 3.9 1.9 6.2 2.2 2.1.2 4 .5 5.3 1.8 4.6 4.6 7.7 11.6 10.1 17.2 1.1 2.5 2.1 4.7 3 6.4 11.6 20.4 24.8 28.3 40 37.5 6.5 3.9 13.3 8 20.6 13.4 13.1 9.6 20.2 23.1 21.6 41 1.3 16.1-1.9 34.2-5 51.8-2.9 16.4-5.9 33.3-5.2 48.5.3 6 1.6 13.1 2.9 19.9 2.3 11.9 4.6 24.1.6 28.3-5.5 5.8-11.7.2-20.3-7.7-3.3-3-7-6.3-11-9.4-3.7-2.8-7.2-2.2-10.6-1.6-6.4 1.1-13.1 2.2-21.6-20.1-6.5-17-5.5-36.9 2.3-49.7 1.2-1.9 4.1-2.1 7.3-2.4 3.5-.3 7.1-.5 8.4-3.4 2.6-5.6 1.3-12-.1-18.9-.9-4.5-1.9-9.2-1.5-13.7.3-4.2 1.2-8.5 2-12.5 1.9-9.5 3.9-19.3-1.3-29.4-.6-1.2-1.3-2.8-2.2-4.7-4-8.7-11.3-24.8-25-39-2.1-2.1-8.2-3.7-14.7-5.4-6.1-1.6-12.3-3.2-14.3-5.1-16.6-16.4-24.9-32.8-23-45.2 1.1-7 5.5-12.5 13.1-16.3 6.7-2.9 10.8-3.8 12.5-2.5z" fill="#57585A"/><path d="M410.7 350.1c-.8 5.6-1.7 11.5-3.4 16.4-1.8 5-1.3 11.2-.9 17.2.4 5.7.8 11-.5 15.3-.5 1.6-4.2 3.1-7.5 4.4-3.4 1.4-6.4 2.6-7.1 4.2-5.2 11.2-.8 20 3.7 25.4 2.8 3.3 6.1 1.1 10.4-1.6 2.2-1.4 4.7-3 7.5-4.2 1.8-.8 4.4-.6 6.9-.5 4.3.2 8.7.4 10.4-3.8 4.7-11.9 1.8-31.5-.2-44.5-.8-5-1.4-9-1.2-10.6.3-3.3 1.3-7 2.3-10.6 2-7.3 4.1-14.9.6-19.7-2.2-3.1-6.5-4.7-13-5-5.4-.1-6.6 8.1-8 17.6zm20.2-11.9c3.2 4.4 1.2 11.7-.7 18.8-1 3.6-2 7.4-2.4 10.8-.2 1.8.4 5.6 1.2 10.9 1.9 12.9 4.9 32.3.2 44-1.4 3.5-5.3 3.3-9.4 3.1-2.6-.1-5.2-.3-7.3.6-3 1.2-5.5 2.8-7.7 4.3-4.5 2.9-7 4.3-9.1 1.8-4.4-5.2-8.6-13.6-3.6-24.4.6-1.2 3.6-2.5 6.6-3.7 3.8-1.6 7.5-3 8.1-5.1 1.4-4.5.9-10.2.5-15.7-.5-5.9-.9-12 .8-16.8 1.8-5 2.7-11.1 3.5-16.6 1.3-9 2.4-16.8 7-16.6 6.3.3 10.3 1.8 12.3 4.6zm144.9-236.1c-5.9 1.1-10.6 4.3-15.2 7.4-5.3 3.6-10.3 7-16.9 7.1-5 .1-11.5-2.9-17.9-5.7-6.2-2.8-12.6-5.6-17.6-5.7-20.5-.3-40.5-.3-60.3 3.7-3.8.8-8.9-.1-14.8-1-7.9-1.3-16.9-2.7-25.1-.5-4.2 1.1-7.4 5.1-10.6 8.9-3 3.5-6 7.2-9.6 8.4-24.4 8.3-38.8 16.8-42.8 25.1-1.3 2.8-1.5 5.7-.5 8.4 1 2.6 2.5 4.4 4.5 5.3 4.4 1.9 10.3-.4 15.5-2.5l.7-.3c9.9-3.9 19.1-10.3 27.9-16.5l3-2.1c3.2-2.3 5.4-6 7.5-9.7 2.5-4.2 4.8-8.2 8.6-10 4.9-2.3 12-1.4 18.9-.4 4 .5 7.7 1 11.1 1 21.7-.5 39.7 6.7 57.2 13.6l6.7 2.6c5 2 8.8 6.5 12.5 10.9 4.4 5.3 8.9 10.7 15.6 11.4 11.2 1 27.7-9 42.1-17.9 2.9-1.8 5.6-3.4 8.2-5 8-4.7 8.7-8.8 9.4-12.5.5-2.7.9-5 4.1-7.2 4.5-3.2 9.8-5.8 14.5-8.1 6.9-3.4 12.9-6.4 14.1-10 .4-1.2.3-2.4-.3-3.7-4.4-8.8-28-1.7-42.1 2.6-3.8 1.2-6.7 2.1-8.4 2.4zm49.6-4.4c.5 1 .6 1.9.3 2.9-1.1 3.3-6.9 6.1-13.6 9.5-4.7 2.3-10 5-14.6 8.2-3.5 2.5-4 5.1-4.5 7.9-.6 3.6-1.3 7.3-8.9 11.8-2.6 1.5-5.4 3.2-8.2 5-14.3 8.8-30.6 18.7-41.5 17.8-6.3-.6-10.5-5.6-14.9-11-3.7-4.5-7.6-9.2-12.9-11.2L500 136c-17.6-7-35.8-14.2-57.6-13.7-3.3.1-7-.4-10.9-1-7.1-.9-14.3-1.9-19.5.5-4.1 1.9-6.6 6.3-9 10.4-2.1 3.5-4.2 7.2-7.3 9.3l-3 2.1c-8.8 6.2-18 12.6-27.7 16.4l-.7.3c-5 2-10.7 4.3-14.7 2.5-1.8-.8-3.1-2.4-4-4.8-.9-2.5-.8-5.1.5-7.7 3.9-8.1 18.1-16.4 42.2-24.6 3.9-1.3 7-5.1 10.1-8.7 3.1-3.7 6.3-7.5 10.1-8.6 8-2.2 16.8-.7 24.6.6 6 1 11.2 1.8 15.2 1 19.7-4 39.7-4 60.1-3.7 4.8.1 11.1 2.9 17.2 5.6 6.4 2.9 13.1 5.9 18.3 5.8 6.9-.1 12-3.6 17.4-7.3 4.5-3 9.1-6.2 14.8-7.2 1.7-.3 4.7-1.2 8.5-2.4 12.7-3.9 36.7-11.2 40.8-3.1z" fill="#57585A"/></g><path d="M147.8.8c1.1 6.2 3.7 11.8 6.3 17.3 3.5 7.4 6.8 14.3 5.9 22-1.2 10.3-12.2 9.8-28.9 9-5-.2-10.6-.5-16.4-.5-1 0-2.7-.2-4.7-.4-6.5-.7-17.4-2-29.7.4-4 .8-8.3 3.1-12.4 5.4-5 2.7-9.8 5.3-13.8 5.3-20-.3-36-5.5-46.6-8.9-2.8-.9-5.1-1.6-6.9-2.1v1c1.8.5 4 1.2 6.6 2 10.7 3.4 26.8 8.7 46.9 9 4.3.1 9.1-2.6 14.3-5.4 4.1-2.2 8.3-4.5 12.1-5.3 12.1-2.4 22.9-1.1 29.4-.4 2.1.2 3.8.4 4.8.4 5.8 0 11.4.2 16.3.5 16.6.8 28.7 1.3 29.9-9.9.9-7.9-2.5-15-6-22.5-2.6-5.4-5.1-10.9-6.2-16.9h-.9z" opacity=".5" fill="#57585A"/><path d="M126.9.8c1 1.9 2.1 3.8 3.2 5.7 4.7 8.1 9.2 15.7 4.6 24-5.2 9.5-13.8 7.5-25.5 4.9-4.4-1-9.5-2.2-14.7-2.7-4.1-.4-12.2 1.7-18.7 3.3-3.3.9-6.2 1.6-7.6 1.7-14.1 1.4-26.8-.8-39.1-2.8C20 33.4 10.6 31.8.6 31.6v1c10 .2 19.4 1.7 28.4 3.3 12.3 2.1 25.1 4.2 39.4 2.8 1.4-.1 4.3-.9 7.7-1.8 6.1-1.6 14.3-3.7 18.3-3.3 5.2.5 10.2 1.7 14.6 2.7 11.8 2.7 21 4.8 26.6-5.4 4.9-8.8 0-17-4.6-25-1-1.7-2-3.4-2.9-5.2h-1.2v.1z" opacity=".5" fill="#57585A"/><path d="M111.4.8c1 6.6-.3 13.3-5.5 17.4-2.9 2.4-6.6 1-11.6-.9-3.8-1.4-8.2-3-13.5-3.5-4.8-.4-11.3 1.6-16.9 3.4-3.9 1.2-7.2 2.3-9 2.2-6.1-.3-12.2-.8-18.1-1.2-11.8-.8-23.9-1.8-36.2-1v1c12.3-.8 24.4.2 36.2 1.2 5.9.5 12 1 18.1 1.2 1.9.1 5.4-1 9.3-2.2 5.3-1.7 11.9-3.8 16.6-3.4 5.2.4 9.4 2 13.2 3.4 5.1 1.9 9.2 3.4 12.6.7 5.5-4.4 6.9-11.3 5.9-18.2h-1.1V.8z" opacity=".5" fill="#57585A"/><path d="M93 .8C84 7.2 74.8 7.4 66.5 7c-10.1-.6-20-3-31.5-5.9-.4-.1-.7-.2-1-.3h-4.1L34.7 2c11.5 2.9 21.5 5.4 31.7 6 8.9.5 18.8.2 28.4-7.1H93V.8zM46.8 239.6c10 6.3 22.2 8 27.3 8 8.3 0 12.7-1.1 13.3-3.6.9-3.7-7.2-8.3-12-10.7-4.8-2.4-9.3-1.8-13.3-1.2-3.1.4-5.8.8-8.2-.2-2.6-1.1-4.7-4.3-7.1-8-2.1-3.2-4.6-6.9-7.7-9.7-12.1-11-24.5-16.7-38.5-22.5v1.1c13.8 5.7 26 11.4 37.9 22 3.1 2.7 5.5 6.3 7.6 9.5 2.5 3.8 4.7 7.1 7.6 8.4 2.6 1.1 5.6.7 8.7.3 3.8-.5 8.2-1.1 12.7 1.1 7.6 3.8 12 7.5 11.5 9.6-.3 1.1-2.2 2.9-12.3 2.9-5 0-17-1.7-26.8-7.8-12.9-8.1-25.7-20.5-35.9-30.4-4.2-4.1-7.9-7.7-10.9-10.2v1.3c2.9 2.5 6.3 5.9 10.2 9.6 10.1 9.9 22.9 22.3 35.9 30.5z" opacity=".5" fill="#57585A"/><path d="M14.1 225c7.5 8.9 15.9 19 26 25.6 18.4 11.9 44 14.5 63.5 6.3 10.7-4.4 16.4-9.7 16.2-14.8-.2-4.6-5.2-8.8-14.1-11.7-5.3-1.7-11.7-2.4-17.9-3-6.7-.7-13.1-1.3-16.9-3.3-4.1-2.1-6-5.7-8.3-9.8-2.3-4.2-5-9-10.6-13.8-4.7-4-13-4.3-20.9-4.6-7-.3-14.2-.5-18.5-3.4-5-3.3-8.2-7.6-11.7-12.2-.1-.2-.3-.4-.5-.6v1.7C3.6 185.7 7 190 12 193.3c4.5 3 11.5 3.3 19 3.6 7.8.3 15.8.6 20.3 4.4 5.5 4.6 8.1 9.4 10.4 13.5 2.3 4.2 4.4 7.9 8.7 10.2 4 2.1 10.5 2.8 17.3 3.4 6.1.6 12.4 1.2 17.6 2.9 8.5 2.8 13.3 6.6 13.5 10.8.2 4.7-5.3 9.6-15.6 13.9-16 6.7-41.6 7.4-62.6-6.2-10-6.5-18.4-16.5-25.8-25.4-4.9-5.9-9.6-11.5-14.3-15.5v1.3c4.5 3.9 8.9 9.2 13.6 14.8z" opacity=".5" fill="#57585A"/><path d="M13.3 235.3c8.7 8.9 17.7 18.1 29.2 24.6 6.6 3.8 15.2 5.4 23.6 7 5.6 1.1 10.9 2.1 15 3.6 21.1 8.1 32.9-4.5 45.5-17.8 6.1-6.5 12.4-13.1 20.1-17.9 2.9-1.8 5.9-3.5 8.9-5.1 11.4-6.3 23.3-12.9 28.5-26.4 2.8-7.2 5-14.4 2.2-17.8-1.8-2.1-5.3-2.7-10.9-1.6-7.2 1.4-13.7 8.8-20 16-5.2 5.9-10.7 12.1-16.3 14.7-15 6.9-33 4.5-47 1.6-12.6-2.6-18.9-10.6-25.6-19-3.3-4.2-6.8-8.6-11.2-12.5-2.9-2.6-9.1-2.9-15.7-3.2-5.6-.3-11.3-.6-14.4-2.4-6.2-3.6-9.8-9-13.3-14.2-3.1-4.5-6.3-9.2-11.1-12.7v1.2c4.4 3.3 7.3 7.5 10.3 12 3.6 5.3 7.3 10.7 13.6 14.5 3.3 1.9 9.2 2.2 14.9 2.5 6.1.3 12.4.6 15.1 2.9 4.3 3.8 7.8 8.2 11.1 12.4 6.8 8.6 13.2 16.7 26.2 19.4 14.2 2.9 32.4 5.4 47.6-1.7 5.9-2.7 11.3-8.9 16.6-15 6.2-7.1 12.7-14.4 19.5-15.7 5.1-1 8.4-.6 9.9 1.3 2.5 3 .4 9.8-2.3 16.8-5.1 13.2-16.8 19.7-28.1 25.9-3 1.6-6 3.3-8.9 5.1-7.8 4.8-14.1 11.5-20.3 18-6.3 6.7-12.3 13-19.3 16.7-7.8 4.1-15.8 4.4-25.1.8-4.2-1.6-9.5-2.6-15.2-3.7-8.3-1.6-16.9-3.2-23.3-6.9-11.3-6.5-20.3-15.6-28.9-24.5-4.6-4.7-8.9-9.1-13.5-13v1.3c4.2 4.1 8.3 8.4 12.6 12.8z" opacity=".5" fill="#57585A"/><path d="M24 252.5c6.1 6.3 11.9 12.2 20.5 16.7 3.7 1.9 8.7 2.6 13.5 3.3 5.7.8 11.5 1.7 15.5 4.5 13.8 9.9 24.1 13.3 32.4 10.6 7.6-2.5 13-9.6 19.2-18 7-9.4 14.9-20 28.2-26.7 5.7-2.9 11.1-4.4 15.8-5.6 10.5-2.8 18.8-5.1 25.9-20.2 4.3-9.2 9.8-38.8 2.6-53.1-2.2-4.3-5.3-6.9-9.3-7.7-7.6-1.5-10.6 3.3-15.1 10.5-3.8 6.1-9 14.5-19.3 22.3-11.7 9.7-28 14.2-49.8 14-17.7-.2-28.6-9.3-40.1-19-3.2-2.6-6.4-5.4-9.9-8-4.8-3.6-10.6-6.4-16.8-9.2-7.6-3.5-15.4-7.2-21.2-12.7-2.2-2.1-4.1-5.5-5.9-8.8-2.2-3.9-4.4-7.9-7.2-10.1l-2.4-1.8v1.3c.6.5 1.2.9 1.8 1.4 2.7 2.1 4.9 6 7 9.8 1.9 3.4 3.8 6.9 6.1 9.1 5.9 5.6 13.8 9.3 21.4 12.9 6.1 2.9 11.8 5.5 16.6 9.1 3.4 2.6 6.7 5.3 9.8 8 11.6 9.8 22.7 19 40.8 19.2 22 .3 38.5-4.4 50.4-14.2 10.5-8 15.7-16.4 19.5-22.6 4.4-7.2 7.1-11.5 14.1-10.1 3.7.8 6.6 3.2 8.6 7.1 6.9 13.8 1.5 43.4-2.6 52.3-6.9 14.7-15 16.9-25.2 19.7-4.8 1.3-10.2 2.8-16 5.7-13.5 6.9-21.5 17.6-28.6 27-12.2 16.3-21 28.2-50.2 7.1-4.1-3-10.1-3.9-15.9-4.7-4.9-.7-9.6-1.4-13.1-3.2-8.5-4.4-14.2-10.3-20.2-16.5-6.6-6.8-13.3-13.7-24.2-19.4v1.1c10.3 5.6 16.9 12.3 23.3 18.9zm5.5 81.1c5.3 2.5 11.8 3.9 18.7 5.4 9.3 2 18.9 4 25.2 9.1 4.8 3.9 7.1 10.8 9.3 17.5 2.1 6.3 4.3 12.9 8.6 17 12.8 12.1 32.3 16.8 49.5 20.9 3.7.9 7.2 1.7 10.5 2.6 3 .8 6.8 3.9 10.8 7.1 5.8 4.7 11.8 9.5 16.6 8.5 6.7-1.4 11.6-7.6 11.5-14.4-.1-8-6.8-13.9-17.7-15.9-6.3-1.1-11.6-1.9-16.4-2.6-24.3-3.6-30.1-4.5-49.6-33.3-11.3-16.7-26-29.2-40.3-34.3-3.5-1.2-7.2-.6-10.8 0-3.8.7-7.3 1.3-10.7 0-9-3.5-17.6-8.3-25.9-12.8-6-3.3-12.2-6.7-18.5-9.6v1.1c6.1 2.9 12.1 6.2 18 9.4 8.3 4.6 17 9.4 26 12.9 3.6 1.4 7.5.7 11.2.1 3.6-.6 7.1-1.2 10.3-.1 14.1 5 28.6 17.3 39.8 33.9 19.7 29.1 25.5 30 50.2 33.7 4.7.7 10.1 1.5 16.3 2.6 10.5 1.9 16.8 7.4 16.9 14.9.1 6.4-4.5 12.1-10.7 13.4-4.3.9-10.1-3.8-15.8-8.3-4.1-3.3-8-6.4-11.2-7.3-3.4-.9-6.9-1.7-10.6-2.6-17.1-4.1-36.4-8.8-49-20.7-4.2-3.9-6.3-10.4-8.4-16.6-2.3-6.8-4.6-13.9-9.7-17.9-6.5-5.2-16.2-7.3-25.6-9.3-6.8-1.4-13.3-2.8-18.5-5.3-6.3-2.9-10.9-7.3-15.5-11.4-4.4-4-8.5-7.8-13.9-10.5v1.1c5.1 2.6 9.1 6.3 13.3 10.2 5 4.1 9.7 8.5 16.1 11.5z" opacity=".5" fill="#57585A"/><path d="M26 346.1c3.4 2.1 7.7 3.5 12.2 5C44 353 50 355 53.9 358.5c5.5 4.9 10 11.7 14.4 18.2 4.4 6.6 8.6 12.8 13.6 17.3 11.5 10.1 23.1 11.9 35.5 13.8 9.8 1.5 19.9 3.1 30.2 9.2 5.2 3 9.5 6.8 13.4 10.2 6.1 5.3 11.4 9.9 17.4 9.4 4.5-.4 9-3.6 14.2-10.1 9-11.3 6.9-16.8 5.3-21.3-.9-2.4-1.6-4.4-.6-6.9 2.1-5.2 4.8-9.2 7.1-12.8 3.4-5.2 6.2-9.3 4.4-13.6-.5-1.1-1.2-1.9-2.1-2.2-2.2-.8-5.3.7-9.6 2.8-7.2 3.5-17.1 8.3-30.2 6.6-1.4-.2-3.1-2.6-4.9-5.2-2.3-3.3-4.9-7.1-8.5-8.8-3.9-1.8-8.5-1.4-12.5-1-3.1.3-5.8.6-7.1-.4-5.4-3.9-8.9-9.5-12.6-15.5-2.6-4.3-5.4-8.7-8.9-12.3-5.5-5.7-12.2-9-19.3-12.5-7.7-3.8-15.7-7.7-22.2-15-2.2-2.5-7.7-3.5-14.1-4.8-5.5-1.1-11.7-2.2-16.2-4.5-4.2-2.2-6.9-5.3-9.7-8.6-3.4-4-7-8.1-13.4-10.5-4.3-1.6-8.4-2.3-12.4-3-1.5-.3-3-.5-4.4-.8v1c1.4.3 2.8.5 4.3.8 4 .7 8.1 1.4 12.3 3 6.1 2.3 9.6 6.3 13 10.2 2.8 3.2 5.6 6.6 10 8.8 4.6 2.4 10.9 3.6 16.4 4.6 6 1.1 11.6 2.2 13.6 4.4 6.6 7.5 14.7 11.4 22.5 15.3 7.1 3.5 13.7 6.7 19.1 12.3 3.4 3.6 6.1 7.9 8.7 12.1 3.6 5.8 7.3 11.8 12.9 15.8 1.6 1.1 4.5.9 7.8.5 3.9-.4 8.4-.8 12 .9 3.3 1.6 5.8 5.2 8.1 8.5 2.1 3 3.7 5.4 5.6 5.6 13.5 1.7 23.9-3.3 30.8-6.7 3.9-1.9 7-3.4 8.8-2.8.6.2 1.1.8 1.5 1.7 1.6 3.8-.9 7.5-4.3 12.7-2.4 3.6-5.1 7.7-7.2 13-1.2 2.9-.3 5.2.6 7.6 1.6 4.4 3.5 9.5-5.1 20.3-5 6.2-9.2 9.3-13.5 9.7-5.6.5-10.7-4-16.7-9.1-3.9-3.4-8.3-7.2-13.5-10.3-10.4-6.1-20.7-7.7-30.5-9.3-12.2-1.9-23.7-3.7-35-13.6-4.9-4.3-9.1-10.5-13.4-17.1-4.4-6.6-9-13.5-14.6-18.4-4.1-3.7-10.2-5.7-16.1-7.6-4.5-1.5-8.7-2.9-12-4.9-7.1-4.3-12.5-9.7-17.9-14.9-2.6-2.5-5.3-5.1-8.1-7.6v1.3c2.6 2.3 5 4.6 7.4 7 5.1 5.3 10.6 10.7 17.8 15.1zm-6.8 222.1c-2.5-1-5.1-2.1-6.6-4.5-3.8-6-7.2-8.9-10.6-8.9-.5 0-1 .1-1.5.2v1c.5-.1 1-.2 1.5-.2 3 0 6.2 2.8 9.7 8.5 1.7 2.7 4.4 3.8 7.1 4.9 1.9.8 3.8 1.5 5 2.9h1.3c-1.3-2.1-3.6-3-5.9-3.9zm4-9.6c-3-1.4-5.9-2.8-8-7.7-2.5-5.9-5.4-11.7-10.2-12.8-1.4-.3-2.8-.2-4.4.3v1c1.5-.5 2.9-.6 4.1-.3 4.4 1 7.1 6.6 9.5 12.2 2.3 5.2 5.4 6.7 8.5 8.2 3.8 1.8 7.5 3.6 9.5 12.4h1c-2.1-9.5-6.1-11.4-10-13.3zm16.4 2.6c-.7-3.1-1.4-6.1-3.1-8.1-2.1-2.5-4.5-4.5-6.8-6.5-5.1-4.3-9.8-8.4-11.2-16.6-1.4-8.4-4.3-18.6-9.6-19.4-2.6-.4-5.3 1.3-8.2 5.1v1.7c3-4.2 5.7-6.2 8.1-5.8 3.7.6 6.9 7.2 8.8 18.6 1.5 8.5 6.6 12.9 11.6 17.2 2.3 2 4.6 4 6.7 6.4 1.5 1.8 2.2 4.7 2.9 7.7.8 3.4 1.6 7 3.8 9.4.3.4.6.7.9 1.1h1.3l-1.5-1.8c-2.2-2.3-3-5.7-3.7-9zM6.9 432.6c.5-.2.8-.7 1-1.4 1.6-6.2-2.8-16.8-7.3-23v1.8c4.1 6.2 7.8 15.6 6.4 21-.1.6-.4.7-.5.7-.6.3-2-.5-3.3-1.2-.9-.5-1.7-.9-2.6-1.3v1.1c.7.3 1.5.7 2.2 1.1 1.6.9 3 1.7 4.1 1.2z" opacity=".5" fill="#57585A"/><path d="M9.5 442.6c2.1-.6 4.4-1.2 4.8-4.4 1.8-14-4-37.5-13.7-48.5v1.6c8.9 11.2 14.4 33.6 12.7 46.8-.3 2.6-2.1 3-4.1 3.6-1.7.5-3.6 1-4.4 3-1 2.5-2.5 4.9-4.2 7.4v1.7c2-2.9 3.9-5.8 5.1-8.7.6-1.7 2.2-2.1 3.8-2.5z" opacity=".5" fill="#57585A"/><path d="M14.1 458.6c2.5-1.2 5.3-2.6 6.1-5.3 3.3-11.2.2-27.7-1.6-37.6l-.2-1.2c-1.6-8.4-8.8-27.1-17.8-36.1v1.5c8.1 8.8 15.1 25.6 16.8 34.8l.2 1.2c1.8 9.8 4.9 26.1 1.7 37.1-.7 2.3-3.2 3.5-5.6 4.7-2.2 1.1-4.3 2.1-5 3.9-1.7 4.5-4.5 11.1-8.1 15.9v1.6c4.1-5.1 7.3-12.3 9.1-17.2.5-1.4 2.4-2.3 4.4-3.3zm36.3 98.6c-6-4.3-8-11.8-9.7-18.3-.9-3.4-1.8-6.7-3.1-9.3-1.4-2.7-2.8-5.1-4.2-7.4-4.7-7.9-8.7-14.7-7.9-27.3.1-1.5.5-3.5 1-5.9 1.3-6.1 2.9-13.7-.1-17.4-1.1-1.4-2.8-2.2-4.9-2.2-6.4-.2-14.4 14.8-20.2 25.8-.2.4-.5.9-.7 1.3v2.1c.5-.9 1-1.9 1.6-2.9 5.4-10.2 13.5-25.5 19.3-25.3 1.9.1 3.2.7 4.2 1.8 2.6 3.4 1.1 10.7-.1 16.6-.5 2.4-.9 4.5-1 6.1-.8 12.9 3.3 19.8 8.1 27.9 1.4 2.3 2.8 4.7 4.1 7.3 1.3 2.5 2.1 5.7 3 9.1 1.8 6.7 3.8 14.4 10.1 18.9 8.4 6.1 17.9 10.1 27.1 13.9h2.7c-.8-.3-1.5-.6-2.3-1-9.3-3.8-18.7-7.8-27-13.8z" opacity=".5" fill="#57585A"/><path d="M98.6 561.7c-6.9-1.2-14.1-2.4-21-6.1-2.5-1.4-6.3-1.8-10.3-2.2-4.9-.6-10-1.1-13-3.5-3.2-2.6-3-6-2.6-10 .2-2.8.5-5.9-.5-9.1-1-3-3.9-5.9-6.7-8.8-2.8-2.8-5.4-5.4-6-7.9-2.6-10.3-1.1-20.9.4-31.2 1.2-8.1 2.4-16.6 1.5-24.9-.4-4.2-3.4-5.8-6.3-7.3-2.8-1.5-5.4-2.8-6.2-6.3-.9-3.8.5-7.8 2.1-12.1 1.6-4.5 3.3-9.2 2.2-13.9-5.2-21.6-22.7-41-31.7-49.8v1.4c9.1 9 25.7 27.8 30.7 48.6 1 4.3-.6 8.9-2.2 13.3s-3.1 8.7-2.1 12.7c1 3.9 3.9 5.5 6.7 7 2.8 1.5 5.4 2.8 5.8 6.5.8 8.2-.4 16.5-1.5 24.6-1.5 10.4-3 21.1-.3 31.5.7 2.7 3.4 5.4 6.2 8.3 2.7 2.8 5.6 5.6 6.5 8.4.9 2.9.7 5.9.5 8.7-.3 4.1-.6 8 3 10.9 3.2 2.6 8.4 3.2 13.5 3.8 3.9.4 7.5.9 9.9 2.1 7 3.8 14.2 5 21.3 6.2 4.9.8 9.9 1.7 14.8 3.4 4.3 1.5 8.4 3.5 12.2 5.9h1.9c-4.3-2.8-8.9-5.2-13.8-6.9-5-1.6-10.1-2.5-15-3.3z" opacity=".5" fill="#57585A"/><path d="M124.5 559.1c-5.8-.3-11.7-.7-18.1-2.9-15.9-5.6-28-15.1-38.6-24.6C54.7 519.8 50 506.3 51.7 485c2-25.9 1.1-44.8-9.8-64.7-2.2-4-4.3-8.1-6.4-12.1-8.7-16.9-17.7-34.3-32.7-46.2-.7-.6-1.5-1.1-2.2-1.7v1.3c.5.4 1.1.8 1.6 1.2C17 374.6 26 391.9 34.6 408.7c2.1 4 4.2 8.2 6.4 12.2 10.8 19.7 11.7 38.4 9.7 64.1-1.7 21.7 3.1 35.4 16.5 47.4 10.7 9.6 22.9 19.2 38.9 24.8 6.5 2.3 12.5 2.6 18.4 3 10.1.6 18.9 1.1 27.1 11.9h1.3c-8.3-11.5-18.3-12.4-28.4-13zM318 .8l-1 1c-2.7 2.6-5.4 5.3-8 8.7-1.4 1.8-2.5 4.3-3.6 6.7-2.4 5.2-4.7 10.2-9.5 9.2-.7-.1-1.2-1.9-1.7-3.4-.6-2.1-1.3-4.2-2.7-4.8-4.3-2-6.6-4-7.1-6.3-.7-3.1 2.1-6.4 4.9-9.7.4-.4.7-.8 1.1-1.3H289c-.2.2-.3.4-.5.6-2.9 3.4-5.9 6.9-5.1 10.5.6 2.6 3.1 4.9 7.6 7 1 .4 1.6 2.4 2.1 4.2.6 2.1 1.2 3.9 2.4 4.1 5.7 1.2 8.2-4.4 10.7-9.7 1.1-2.3 2.2-4.7 3.5-6.5 2.5-3.3 5.2-6 7.9-8.6.6-.6 1.2-1.1 1.7-1.7H318z" opacity=".5" fill="#57585A"/><path d="M340.4.8c-7.6 15.6-17.8 18.6-24.9 20.6-1.9.6-3.6 1-5 1.7-2 1-3.9 4.5-6.1 8.6-2.4 4.6-5.1 9.7-8.1 10.9-1.7.7-4.4-2.8-6.6-5.5-1.8-2.3-3.3-4.2-4.6-4.7-11.5-3.8-10.8-20.2-9.2-31.6h-1c-1.6 11.7-2.2 28.5 9.9 32.6 1 .3 2.6 2.4 4.2 4.3 2.6 3.3 5.3 6.8 7.7 5.8 3.3-1.3 6-6.4 8.7-11.4 2-3.8 3.9-7.3 5.6-8.2 1.3-.6 3-1.1 4.9-1.6 7.4-2.1 18-5.2 25.8-21.6h-1.3v.1z" opacity=".5" fill="#57585A"/><path d="M359 .8c-3.5 11.7-9.4 22.2-17.8 27.2-3.8 2.3-9 2.7-14.5 3.2s-11.2 1-15.5 3.5c-2.9 1.7-3.4 5.5-3.8 9.1-.4 3.1-.7 6.2-2.6 8-6.6 6.2-10 4.6-13.2 3.1-1.5-.7-3-1.4-4.7-1.2-6.5.6-11.8-.9-15.9-4.6C259.9 39 259.7 15.5 259.8.8h-1c0 14.8.1 38.6 11.6 49 4.3 3.9 10 5.6 16.7 4.9 1.4-.1 2.7.5 4.1 1.1 3.3 1.6 7.1 3.3 14.3-3.3 2.1-2 2.5-5.4 2.9-8.6.4-3.5.8-6.9 3.3-8.3 4.1-2.4 9.7-2.9 15.1-3.3 5.4-.5 10.9-1 14.9-3.3 8.6-5.2 14.7-16 18.3-28.1h-1V.8z" opacity=".5" fill="#57585A"/><path d="M392.3.8c-2.4 4.8-5.9 9.1-11.4 12.5-4.1 2.5-9.6 4.7-15.4 7-8.2 3.2-16.7 6.6-22 11.3-1.7 1.5-3.7 3-6.1 4.6-4.2 3-8.9 6.3-13.6 11.4-1.7 1.8-3 4.3-4.4 6.9-2 3.8-4.1 7.6-7.1 9.3-12.2 6.8-29.8 5.9-40.2 1.6-19.7-8.2-20.6-37.3-21.3-58.6-.1-2.2-.1-4.2-.2-6.2h-1c.1 2 .2 4.1.2 6.2.7 21.5 1.6 51 21.9 59.4 10.6 4.4 28.6 5.3 41.1-1.6 3.2-1.8 5.4-5.8 7.5-9.7 1.4-2.6 2.7-5 4.3-6.7 4.6-5 9.3-8.4 13.4-11.3 2.3-1.6 4.4-3.1 6.2-4.7 5.1-4.6 13.6-7.9 21.7-11.2 5.9-2.3 11.5-4.5 15.6-7.1 5.9-3.7 9.6-8.2 12-13.4h-1.2v.3zm38.5 556.6c-3-2.6-7.8-2.9-12.8-.7-5 2.2-10.7 7.4-12.8 15.2h1c2.1-7.3 7.5-12.2 12.2-14.3 4.6-2.1 9-1.9 11.7.5 1.4 1.2.4 4.5-.6 8.1-.5 1.8-1.1 3.8-1.4 5.7h1c.3-1.8.8-3.7 1.3-5.4 1.2-4 2.2-7.5.4-9.1z" opacity=".5" fill="#57585A"/><path d="M446.2 553.6c-1.6-4.6-8.1-6-15-7.4-4.4-.9-8.9-1.8-12.5-3.6-8.8-4.5-15.2-5.4-19.5-2.9-6.9 4.1-7.3 16.7-7.8 30 0 .7 0 1.5-.1 2.2h1c0-.7 0-1.5.1-2.2.4-13 .8-25.3 7.3-29.2 4-2.4 10-1.4 18.5 2.9 3.7 1.9 8.3 2.8 12.7 3.7 6.6 1.4 12.8 2.6 14.2 6.7 1.2 3.3.2 8-.7 13-.3 1.7-.7 3.4-.9 5h1c.2-1.6.6-3.2.9-4.8 1.1-5 2.1-9.8.8-13.4z" opacity=".5" fill="#57585A"/><path d="M461.6 563.6c.1-6.2.2-12.6-2.1-18.3-1.4-3.7-6.6-5-12.1-6.4-3.6-.9-7.2-1.9-10.1-3.5-3-1.7-5-4.2-7-6.7-2.6-3.2-5-6.2-9.2-7.2-13.8-3.1-26.1 0-34.8 8.6-9.7 9.8-13.6 25.7-10.3 41.9h1c-3.3-15.9.5-31.6 10-41.2 8.4-8.4 20.4-11.4 33.8-8.4 3.9.9 6.2 3.8 8.7 6.9 2 2.5 4.1 5.2 7.3 6.9 3 1.7 6.7 2.6 10.3 3.6 5.2 1.4 10.2 2.6 11.4 5.8 2.2 5.6 2.1 11.9 2 18 0 2.8-.1 5.6.1 8.4h1c-.1-2.7 0-5.5 0-8.4zm-218.8-14.2c-.2-9.4-.4-19.1.8-29.5.3-2.6 3.4-6.5 7-10.9 4.7-5.8 10.6-13.1 13.6-21.7 5-14.1-.1-27.2-4.6-38.8-1.5-3.9-2.9-7.5-3.9-11s-.9-7-.8-10.1c.1-3.8.2-7-1.9-8.7-1.6-1.3-4.3-1.4-8.5-.4-9.2 2.2-9.4 14.3-9.7 31.1-.1 8.4-.3 18-1.6 28.1-1 7.4-4.8 11.9-8.8 16.7-3.8 4.5-7.7 9.1-9.2 16.3-1.2 5.7 1.8 12.4 4.6 18.9 2.3 5.2 4.6 10.5 4.8 15.2.4 9-3.1 16.9-5.7 22.7-.8 1.7-1.4 3.3-1.9 4.6h1.1c.5-1.2 1.1-2.7 1.8-4.2 2.6-5.9 6.1-13.9 5.7-23.1-.2-4.9-2.6-10.4-4.9-15.6-2.8-6.3-5.7-12.9-4.6-18.3 1.4-6.9 5.3-11.5 9-15.9 4-4.7 8-9.5 9-17.2 1.3-10.1 1.5-19.7 1.6-28.2.3-16.3.5-28.2 8.9-30.2 3.8-.9 6.3-.8 7.6.2 1.6 1.3 1.6 4.2 1.5 7.9-.1 3.2-.2 6.8.9 10.3 1 3.5 2.4 7.2 3.9 11.1 4.4 11.4 9.5 24.3 4.6 38.1-3 8.4-8.8 15.6-13.5 21.4-3.8 4.7-6.8 8.4-7.2 11.4-1.2 10.5-1 20.2-.8 29.7.2 7.6.3 15-.3 22.5h1c.8-7.3.7-14.8.5-22.4zm66.3-85c1.2-13.5 2.2-31-.5-46.3-.9-5.2-3-9.9-4.8-14.1-1.8-4.1-3.5-7.9-3.8-11.5-.7-7.2.4-11.2 1.3-14.6 1.1-4.2 2-7.8.1-15.4-.7-2.8-1.4-6.3-2.2-10.4-2.8-14.7-6.7-34.9-16-40.7-6.8-4.3-10.5-5.6-12.2-4.4-1.8 1.2-1.1 4.5-.2 8.7.9 4.1 1.8 8.8.7 12.5-1.2 3.8-3.9 6.9-6.3 9.6-2.8 3.1-5.1 5.8-4.2 8.7 3.8 12.4 9.3 17.3 14.6 22.1 4.1 3.7 8.4 7.5 11.9 15 10 21.3 15.2 61.9 6.2 90.5-1.2 3.8-1.1 9.1-.9 14.2.1 5.7.3 11.5-1.3 15.4-2.1 5.3-5.4 9.4-8.6 13.3-4.3 5.3-8.4 10.3-9.4 17.8-.9 6.1-.2 12.6.5 18.8.7 6.2 1.3 12.6.5 18.6h1c.8-6.1.1-12.5-.5-18.7-.7-6.2-1.3-12.6-.5-18.6 1-7.2 5-12.1 9.2-17.3 3.2-4 6.6-8.1 8.8-13.5 1.6-4.1 1.5-10 1.4-15.8-.1-5.1-.2-10.3.9-13.9 9.1-28.8 3.8-69.8-6.3-91.2-3.6-7.6-7.9-11.5-12.2-15.3-5.5-4.9-10.6-9.5-14.3-21.6-.7-2.4 1.4-4.8 4-7.8 2.5-2.8 5.2-5.9 6.5-9.9 1.2-3.9.2-8.7-.7-13-.7-3.5-1.4-6.9-.2-7.7 1.3-.9 5 .6 11.1 4.5 8.9 5.6 12.8 25.5 15.6 40.1.8 4.1 1.5 7.7 2.2 10.5 1.9 7.4 1 10.9-.1 15-.9 3.5-2 7.6-1.3 15 .3 3.7 2.1 7.7 3.9 11.8 1.9 4.3 3.9 8.8 4.8 13.9 2.7 15.2 1.7 32.6.5 46.1-1.9 21-8.2 40.9-14.3 60.2-4.9 15.3-9.8 31.1-12.7 47.5h1c2.8-16.4 7.8-32 12.6-47.2 6-19.8 12.3-39.8 14.2-60.9z" opacity=".5" fill="#57585A"/><path d="M319.2 494.5c5.2-16.9 2.1-31.6-1.3-47.1-1.1-5.3-2.3-10.8-3.2-16.5-.7-4.6.2-9.6 1.1-14.6.9-5.1 1.8-9.9.8-13.8-.8-3.3-2.9-5.9-5-8.3-2.8-3.3-5.6-6.7-5.5-12 .1-4 1.7-9.6 3.3-15.4 2.2-7.6 4.4-15.4 3.5-20.7-.5-3.2-.8-6.6-1.2-9.9-.9-9.1-1.9-18.6-6.3-23.8-2.5-3-6.2-4.3-10.1-5.8-4.6-1.7-9.3-3.4-12-8-2.4-4.2-4.8-10.7-7.3-17.6-4.1-11.5-8.4-23.3-13.6-25.8-1.2-.6-2.4-.6-3.6-.2-3.2 1.2-2.2 6-.7 13.3 1.2 5.6 2.7 12.6 2.7 20.2 0 11.1-3.6 23.4-6.8 34.3-1.4 4.7-2.7 9.2-3.6 13.2-5 22 3.5 30.1 15.2 41.4 3.4 3.3 7.3 7 11.1 11.4 12.4 14.1 12.1 26 11.7 42.3l-.1 5.7-.1 7.2c-.2 19-.4 38.6-6.2 54.5-1.6 4.5-4.9 8-8.1 11.3-3.7 3.9-7.5 8-8.9 13.7-3.1 12.9-2.4 28.2-1.8 43 .1 1.9.2 3.7.2 5.5h1c-.1-1.8-.1-3.6-.2-5.5-.6-14.7-1.3-29.9 1.8-42.7 1.3-5.5 4.9-9.3 8.7-13.3 3.2-3.4 6.6-7 8.3-11.7 5.9-16.1 6.1-35.8 6.3-54.9l.1-7.2.1-5.7c.4-16.6.7-28.6-12-43-3.9-4.4-7.8-8.1-11.2-11.4-11.9-11.4-19.8-19-14.9-40.4.9-3.9 2.2-8.4 3.6-13.1 3.2-11 6.8-23.4 6.8-34.6 0-7.7-1.5-14.7-2.7-20.4-1.4-6.5-2.4-11.3 0-12.1 1-.3 1.9-.3 2.9.2 4.9 2.3 9.1 13.9 13.1 25.2 2.5 7 4.9 13.5 7.3 17.8 2.8 4.9 7.7 6.7 12.5 8.4 3.8 1.4 7.4 2.7 9.7 5.5 4.3 5 5.2 14.3 6.1 23.3.3 3.3.7 6.8 1.2 10 .8 5.1-1.4 12.8-3.5 20.2-1.7 5.9-3.3 11.5-3.4 15.7-.1 5.7 2.8 9.2 5.7 12.7 2.1 2.5 4.1 4.9 4.8 7.9.9 3.7 0 8.4-.9 13.4s-1.8 10.2-1.1 14.9c.9 5.7 2.1 11.3 3.2 16.6 3.3 15.4 6.4 29.9 1.3 46.6-3.5 11.4-8.7 22.1-13.7 32.5-7.2 15-14.1 29.4-16.3 45.3h1c2.2-15.6 9.1-30 16.2-44.8 5.3-10.7 10.5-21.5 14-32.9zM764.9 54.6c-10.4 4-20.5 8.1-30.5 12.5-5.5 2.4-11.6 1.7-17.6 1-6.4-.7-13-1.5-18.7 1.6-3.8 2-6.9 7.8-9.8 13.3-2.8 5.2-5.6 10.6-9 12.6-9.2 5.5-18.4 8.7-27.3 11.8-10.7 3.7-21.7 7.6-32.4 15.3-3.9 2.8-6.4 8.8-9 15-2.6 6.3-5.2 12.7-9.6 17-18.2 17.8-44.5 25.4-61.5 26.4-13 .8-19.8-6.3-27.8-14.5-3.8-3.9-7.7-8-12.6-11.4-5.1-3.6-10.3-3.8-15.8-4-3.9-.1-8-.3-12.3-1.6-3.1-.9-6.2-2-9.6-3.2-13.3-4.6-28.4-9.9-43-4.9-20.3 6.9-34.5 18.7-41 34.3-2.2 5.3-5.2 9.5-7.9 13.2-5.7 8-10.2 14.2-2.8 25.8 7.1 11 34.3 34.2 46.7 41 5.5 3.1 10.7 5.9 15.3 8.3 43.6 23.5 51.5 27.7 32.5 87.2-9.2 28.8-12 54.2-9.2 82.5.4 4 1.3 8.3 2.2 13 2.9 14 6.2 29.9-4.4 39.7-16.8 15.5-34.3 11.5-46 5.3-26.3-13.8-48.6-51.8-45-76.6 1.6-11.1 5.9-22 10.1-32.5 6.1-15.4 12.4-31.2 10.6-48.2-2.7-26-21.4-43.9-39.5-61.3-4.2-4-8.5-8.1-12.4-12.3-24.3-25.2-35-49.4-31.9-71.9.5-3.9 3.3-5.9 6.1-8.1 2.3-1.8 4.7-3.6 6.4-6.5 1.6-2.9 2.5-6.5 3.5-10.4 1.5-5.8 3-11.8 6.9-15.5 15.3-14.6 37.7-27.5 66.4-38.5 2.4-.9 5-3.6 7.8-6.4 3.5-3.6 7.5-7.7 11.6-8.5 5.9-1.2 12.2.3 17.7 1.6 5.4 1.3 10.1 2.4 13.4.8 6.3-3 10.3-6.3 13.9-9.3 6.1-5 11.4-9.4 25.5-10.7 5.4-.5 15.9 1.7 26 3.8 10.1 2.1 20.4 4.3 25.9 3.8 4.2-.3 8.7 2.3 13.1 4.8 4.6 2.7 9.4 5.4 13.9 5 5.3-.5 9-2.9 13.7-6 6.3-4.1 14.2-9.2 29.9-11.9 6.6-1.1 16.2-.1 26.4.9 12.9 1.3 26.2 2.7 35.1-.1 8.2-2.5 12.5-8.5 16.8-14.4 4.2-5.8 8.2-11.3 15.7-13.6 4.1-1.3 9.4-.4 14.5.5 6.2 1 12.1 2 16.1-.5 11.9-7.5 17.2-20.1 22.7-33.5 2.2-5.3 4.4-10.6 7.1-15.8h-1.1c-2.6 5-4.8 10.3-6.9 15.4-5.5 13.2-10.7 25.6-22.3 33-3.7 2.3-9.4 1.4-15.4.4-5.2-.9-10.7-1.8-15-.4-7.8 2.4-12.1 8.3-16.2 14-4.1 5.7-8.4 11.6-16.3 14-8.7 2.7-21.9 1.3-34.7 0-10.2-1.1-19.9-2.1-26.6-.9-15.9 2.7-23.9 7.9-30.3 12.1-4.6 3-8.2 5.3-13.3 5.8-4.2.4-8.9-2.3-13.3-4.8-4.6-2.6-9.3-5.3-13.7-5-5.3.4-15.6-1.7-25.6-3.8-10.2-2.1-20.8-4.4-26.3-3.9-14.4 1.3-19.8 5.8-26 10.9-3.7 3-7.5 6.2-13.7 9.1-3 1.4-7.5.3-12.7-.9-5.6-1.3-12-2.9-18.1-1.6-4.3.9-8.5 5.1-12.1 8.8-2.7 2.8-5.2 5.3-7.4 6.2-28.9 11-51.3 24-66.7 38.7-4.1 3.9-5.7 10.1-7.2 16-1 3.8-1.9 7.4-3.4 10.1-1.5 2.7-3.8 4.5-6.1 6.2-3 2.3-5.9 4.5-6.5 8.8-3.2 22.8 7.6 47.3 32.1 72.7 4 4.1 8.3 8.3 12.5 12.3 17.9 17.2 36.5 35 39.2 60.6 1.8 16.7-4.5 32.5-10.5 47.7-4.2 10.6-8.5 21.6-10.2 32.8-3.7 25.2 18.9 63.6 45.5 77.6 12 6.3 29.9 10.5 47.1-5.4 11-10.2 7.7-26.4 4.7-40.6-.9-4.6-1.8-8.9-2.2-12.9-2.8-28.1 0-53.5 9.2-82.1 10.3-32.2 12.1-46.8 7.2-57.9-5.2-11.7-18.4-18.8-40.2-30.5-4.6-2.5-9.8-5.3-15.3-8.3-12.1-6.7-39.5-30.1-46.4-40.7-7.1-11-2.9-16.7 2.8-24.6 2.7-3.7 5.7-8 8-13.3 6.4-15.3 20.4-27 40.4-33.7 14.3-4.8 29.2.4 42.3 4.9 3.3 1.2 6.5 2.3 9.6 3.2 4.5 1.4 8.6 1.5 12.6 1.6 5.4.2 10.5.4 15.3 3.8 4.8 3.4 8.7 7.4 12.4 11.3 7.8 8.1 15.1 15.7 28.6 14.8 17.2-1.1 43.7-8.7 62.1-26.7 4.5-4.4 7.2-11 9.8-17.3 2.5-6.1 4.9-11.9 8.6-14.6 10.7-7.6 21.1-11.3 32.2-15.2 8.9-3.1 18.2-6.4 27.5-11.9 3.6-2.1 6.5-7.6 9.4-13 2.9-5.4 5.8-11 9.4-12.9 5.5-2.9 11.6-2.2 18.2-1.5 6.1.7 12.4 1.4 18.1-1.1 9.9-4.4 19.8-8.4 30.1-12.4v-.8h-.1zM626.3 563c4.4-4.1 9.5-8.7 10.4-17.3.5-4-3.2-6.9-7-9.9-3.4-2.7-6.9-5.4-8.5-9.3-1.8-4.6-2-10.1-2.1-14.9-.1-4.7-.2-8.5-1.9-10-.6-.5-1.3-.8-2.2-.7-3.3.2-6 1.6-8.1 4-7.4 9-4.8 31.2-2.5 50.8.7 5.9 1.3 11.5 1.7 16.4h1c-.3-5-1-10.6-1.7-16.5-2.3-19.4-4.9-41.4 2.3-50 1.9-2.3 4.3-3.5 7.4-3.7.6 0 1.1.1 1.5.5 1.4 1.3 1.5 5 1.6 9.3.1 4.9.3 10.5 2.2 15.2 1.7 4.2 5.5 7.1 8.8 9.7 3.8 3 7.1 5.5 6.7 9-.9 8.3-5.8 12.8-10.1 16.7-3.2 2.9-6.3 5.7-7.1 9.7h1c.7-3.5 3.5-6.1 6.6-9z" opacity=".5" fill="#57585A"/><path d="M647.5 552.3c9.8-26.7 3-31.3-5-36.6-4.5-3-9.1-6.1-11.3-13.7-1.6-5.8-2.7-11.6-3.8-17.2-2.9-15.6-5.5-29.1-18.2-29.1-10 0-11 11.7-12 24.2-.4 4.3-.7 8.8-1.5 12.7-1.2 6.2-4.2 11.3-7 16.3-3.6 6.3-7.4 12.7-7.5 21.3-.2 13.5 5.4 30 9.6 41.8h1.1c-4.2-11.8-9.8-28.4-9.6-41.8.1-8.3 3.6-14.4 7.3-20.8 2.9-5 5.9-10.2 7.2-16.6.8-4 1.2-8.5 1.5-12.8 1-12 1.9-23.3 11-23.2 11.9 0 14.2 12.5 17.2 28.3 1.1 5.7 2.2 11.5 3.8 17.3 2.3 7.9 7.3 11.3 11.7 14.3 7.6 5.1 14.1 9.5 4.6 35.5-2.9 7.8-7.1 13.3-10.8 18.1-.5.6-1 1.2-1.4 1.9h1.3c.3-.4.6-.8 1-1.2 3.6-5.2 7.9-10.7 10.8-18.7z" opacity=".5" fill="#57585A"/><path d="M665.7 539.5c-1.7-4.5.8-9.2 3.6-14.2 2.7-5 5.5-10.1 3.9-15.2-9-28.9-35.9-56-48.8-66.2-17.2-13.6-50.5-21.9-60.5-15-4.5 3.1-2.2 8.1.5 13.8 2.1 4.4 4.4 9.3 4.3 14.6l-.3 14.2c-.4 15.3-.7 31.1.3 42.4 1.8 19.6-4.8 25.7-10.1 30.6-3.6 3.3-6.7 6.2-5.4 12.4 1 5.1 3.3 10.2 6.2 15.2h1.2c-2.9-5.2-5.3-10.3-6.3-15.4-1.2-5.7 1.5-8.1 5.1-11.5 5.1-4.8 12.2-11.4 10.4-31.4-1-11.3-.6-27-.3-42.3l.3-14.2c.1-5.5-2.3-10.6-4.4-15.1-2.6-5.5-4.6-9.9-.8-12.5 9.7-6.7 42.4 1.6 59.3 15 12.9 10.2 39.5 37.1 48.5 65.8 1.5 4.7-1.2 9.7-3.9 14.4-2.7 5-5.6 10.1-3.6 15.1 3.4 8.7 9.7 16.1 15.3 22.7 2.8 3.3 5.5 6.4 7.7 9.5h1.2c-2.2-3.3-5.1-6.6-8.1-10.2-5.7-6.7-12-14-15.3-22.5z" opacity=".5" fill="#57585A"/><path d="M700.8 526.7c-9.9-12.4-16.3-27.2-22.5-41.4-6.2-14.2-12.5-28.9-22.4-41.4-5-6.4-15.9-11.1-27.5-16.1-9.2-4-18.8-8.1-26.2-13.3-4.5-3.2-4.9-7.4-5.4-11.9-.9-9-3-15.3-22.8-14.4-9.8.5-16.9 3.3-21.7 8.8-9.3 10.6-7.8 28.5-6.3 45.8.5 6.5 1.1 12.6 1 18.2-.1 8.7 2.3 17.5 4.6 25.9 2.8 10.3 5.4 20 4.1 29.8-1.3 9.7-6.4 15.5-11.7 21.7-6.8 7.8-14.1 16.2-14.9 33.7h2.9c.7-16.3 7.5-24.1 14.2-31.8 5.6-6.5 11-12.6 12.4-23.2 1.4-10.4-1.4-20.9-4.2-31-2.2-8.2-4.6-16.8-4.5-25.1 0-5.8-.5-12-1-18.5-1.4-16.7-2.9-33.9 5.6-43.5 4.2-4.8 10.7-7.4 19.6-7.8 18.5-.9 19 4.7 19.7 11.7.5 4.7 1 10.1 6.6 14.1 7.7 5.5 17.4 9.6 26.8 13.7 11.2 4.8 21.8 9.4 26.3 15.2 9.6 12.3 15.9 26.8 22 40.8 6.3 14.5 12.8 29.4 22.9 42.1 15.9 19.9 38.1 32.3 60.4 43.4h6v-.4c-23.6-11.8-47.4-24.4-64-45.1z" opacity=".5" fill="#000"/><path d="M736.8 309.1c-.3 6 4.9 8.7 10.3 11.5 4 2.1 8 4.2 10.8 7.8 2.6 3.4 4.3 7.9 6 12.7.3.9.6 1.7 1 2.6v-3c-1.8-4.8-3.4-9.4-6.2-12.9-2.9-3.8-7.3-6-11.1-8.1-5.4-2.8-10-5.2-9.8-10.6.7-17 12.7-34.7 23.4-50.3 1.3-1.9 2.5-3.7 3.7-5.5v-1.8c-1.5 2.2-3 4.5-4.6 6.8-10.7 15.7-22.8 33.6-23.5 50.8z" opacity=".5" fill="#57585A"/><path d="M728.3 179.9c-3.5 7.1 1.2 19.5 6.1 32.6 4.8 12.7 9.8 25.8 8.8 36.6-1.1 12.4-7.3 23.3-13.3 33.9l-3.4 6c-1.9 3.5-5.7 6.2-9.2 8.9-5 3.6-9.7 7-10.1 12.5-.2 2.9 3.2 7.3 6.4 11.5 2.4 3.1 4.8 6.3 5.5 8.4 5.8 18 26.6 34.8 45.7 44.7v-1c-18.8-9.9-39-26.3-44.7-43.9-.8-2.3-3.1-5.4-5.6-8.7-3-3.9-6.4-8.4-6.2-10.9.4-5 4.9-8.3 9.7-11.8 3.7-2.7 7.5-5.5 9.5-9.2l3.4-6c6-10.6 12.3-21.6 13.4-34.3 1-11-4-24.3-8.9-37.1-4.9-12.9-9.5-25.1-6.1-31.8 7.4-14.7 16.6-11 26.5-7.1 3 1.2 6.1 2.4 9.2 3.1v-1c-2.9-.7-5.9-1.8-8.8-3-10-3.9-20.1-7.9-27.9 7.6z" opacity=".5" fill="#57585A"/><path d="M721.9 133c-5 2.2-5.3 8.7-5.5 15.6-.2 4.3-.3 8.7-1.7 12-1.9 4.4-4.7 8.1-7.4 11.6-4.4 5.7-8.5 11-7.5 18.5.7 5 5.8 11.6 11.1 18.6 7.4 9.6 15.8 20.5 14.9 29.9-.9 8.8-6.2 12.1-12 15.6-3.9 2.4-7.9 4.8-10.5 9.2-2.2 3.7-2.1 10.2-2 16.5.1 6.7.2 13.5-2.6 16.1-3.1 2.8-6.7 4.7-10.2 6.6-5.5 2.9-10.3 5.5-11 10.7-1.1 8.8 9.9 20.2 23.8 34.7l8.3 8.7c5.6 6 10.5 12.4 15.2 18.6 11.2 14.7 21.9 28.8 40 33.5v-1c-5.8-1.5-11.1-4.1-16.1-7.8-8.8-6.5-15.7-15.6-23.1-25.3-4.7-6.2-9.7-12.7-15.3-18.7l-8.3-8.7c-13.7-14.3-24.5-25.5-23.5-33.8.6-4.7 5.2-7.1 10.5-10 3.4-1.8 7.2-3.8 10.4-6.7 3.1-2.8 3-9.6 2.9-16.8-.1-6.1-.2-12.5 1.9-16 2.4-4.1 6.3-6.5 10.1-8.8 5.7-3.4 11.5-7 12.4-16.3.9-9.8-7.6-20.8-15.1-30.6-5.3-6.9-10.3-13.3-10.9-18.1-1-7 2.8-12 7.3-17.7 2.7-3.6 5.6-7.3 7.5-11.8 1.5-3.5 1.7-8 1.8-12.4.2-6.6.5-12.8 4.9-14.7 5.5-2.4 12.3-.6 20.2 1.6 6.7 1.8 14.1 3.8 22.4 3.8v-1c-8.2-.1-15.5-2-22.2-3.8-8-2.4-14.9-4.3-20.7-1.8z" opacity=".5" fill="#57585A"/><path d="M661.4 149.7c-2.9 8.2 2.4 16.3 7.5 24.2 3.2 4.9 6.2 9.5 7.2 13.9 1.4 6.8 3.7 13.1 5.9 19.3 4.9 13.5 9.1 25.1 3.3 37.4-1.7 3.7-8.9 6.9-15.8 10-8.4 3.8-16.4 7.3-18.5 12.8-6.8 17.3-13.1 40.1-1.9 62.6 7.2 14.4 20.1 22.6 32.6 30.6 11.5 7.3 23.5 14.9 30.9 27.5 6.1 10.3 9.5 21.4 12.8 32.2 6.5 21.3 12.7 41.5 39.5 47.8v-3.1c-24.5-6.1-30.1-24.6-36.6-45.6-3.3-10.9-6.8-22.2-13.1-32.8-7.7-13.2-20-21-31.8-28.5-12.7-8.1-24.7-15.7-31.5-29.4-10.7-21.4-4.6-43.4 2-60.1 1.7-4.3 9.4-7.8 16.9-11.1 7.8-3.5 15.1-6.8 17.3-11.5 6.3-13.4 1.7-26.1-3.2-39.7-2.2-6.1-4.5-12.3-5.8-18.9-1-4.9-4.4-10-7.6-15-4.7-7.2-9.6-14.7-7.2-21.5 7.8-21.8 70.4-32.6 100.6-33.3v-3c-29.8.6-94.7 10.5-103.5 35.2z" opacity=".5" fill="#000"/><path d="M747.5 494.4c-1.5-3.8-3-7.8-5.3-11.6-2.9-4.7-6.8-9.4-10.9-14.3-9.2-11.1-19.6-23.6-24.4-42.6-6.7-26.3-17.3-28.4-29.6-31-4.9-1-10.1-2.1-15.3-4.8-2.2-1.1-2.5-4.9-2.9-9.4-.4-4.3-.8-9.1-2.9-12.9-2.2-3.8-6.8-5.9-11.3-7.9-3.1-1.4-6-2.7-7.8-4.4l-1.6-1.6c-8.9-8.6-18.1-17.5-16.9-27.1.4-3.1 3.2-6.3 6.1-9.8 3.3-3.8 6.6-7.8 6.9-11.9.6-7.6 0-15.4-.5-23.7-.8-12.5-1.7-25.4 1.5-37.2 1-3.7 5.4-8.3 10.5-13.7 7.2-7.5 15.3-16 17.8-25.8 3.3-12.2.4-25.7-7.2-34.3-5.9-6.6-13.9-9.5-22.5-8.3-15 2.2-24.5 9.7-29.9 23.6-1 2.7-.6 7.3-.2 12.3.5 5.3 1 10.8-.5 13.3-6.2 10.8-19.2 16.6-28.7 20.9l-2.5 1.1c-11.6 5.3-16.3 2.5-21.3-.5-3.3-2-6.7-4.1-12.2-3.4-3.4.4-6 3.3-8.6 6.1-2.5 2.8-4.8 5.4-7.7 5.5-3.3.2-6.5.1-9.4-.1-5.9-.2-10.6-.4-13.4 2.2-1.6 1.5-2.3 3.8-2.3 7.1 0 6.9 10.5 12 22.6 17.8 14.5 7 31 14.9 34.1 28 6 25.2-9.4 37.1-25.7 49.7-8.6 6.7-17.5 13.5-22.9 22.5-4.2 6.9-2.6 13-1.2 18.9 1.1 4.4 2.1 8.5.6 12.5-1.4 3.8-5 7.8-8.4 11.6-5.4 6-11 12.1-8.6 18.3 2.3 5.7 7.6 11.6 13.3 17.8 7.2 7.9 14.6 16 16.7 24.9 3.7 15.8-.6 24.4-5.5 34.4-2.7 5.5-5.6 11.2-7.4 18.6-1.5 6.1.2 11.7 2.2 18.1 2.4 7.5 5.1 16.3 2.8 28.4h1c2.3-12.2-.4-21.1-2.8-28.7-2-6.3-3.7-11.7-2.2-17.5 1.9-7.4 4.7-13 7.4-18.4 5-10.1 9.4-18.9 5.6-35-2.1-9.1-9.6-17.3-16.9-25.3-5.6-6.2-10.9-12-13.1-17.5-2.2-5.6 2.9-11.3 8.4-17.3 3.5-3.9 7.2-7.9 8.6-11.9 1.6-4.3.5-8.6-.6-13.1-1.4-5.7-2.9-11.6 1.1-18.2 5.3-8.8 14.1-15.6 22.6-22.2 15.8-12.3 32.2-24.9 26-50.8-3.2-13.5-19.9-21.6-34.6-28.6-11.8-5.7-22-10.6-22-16.9 0-3 .6-5.1 2-6.4 2.4-2.3 6.9-2.1 12.6-1.9 2.9.1 6.1.3 9.5.1 3.3-.2 5.9-3.1 8.4-5.9 2.4-2.7 4.9-5.4 7.9-5.8 5.1-.6 8.2 1.3 11.5 3.3 4.9 3 10.1 6.1 22.2.6l2.5-1.1c9.6-4.3 22.8-10.2 29.1-21.3 1.6-2.8 1.1-8.4.6-13.9-.4-4.6-.8-9.4.1-11.8 5.2-13.6 14.5-20.9 29.1-23 8.3-1.2 16 1.6 21.6 8 7.4 8.4 10.2 21.5 7 33.4-2.5 9.5-10.5 17.9-17.6 25.3-5.2 5.4-9.6 10.1-10.7 14.1-3.3 12-2.4 24.9-1.5 37.5.6 8.2 1.1 16 .5 23.5-.3 3.8-3.5 7.6-6.7 11.3-3 3.6-5.9 6.9-6.3 10.3-1.3 10.1 8.1 19.2 17.1 27.9l1.6 1.6c1.9 1.9 4.9 3.2 8.1 4.6 4.4 2 8.9 4 10.9 7.5 2.1 3.6 2.5 8.4 2.8 12.5.4 4.7.7 8.8 3.4 10.2 5.4 2.8 10.6 3.8 15.6 4.9 12 2.5 22.3 4.6 28.8 30.3 4.9 19.2 15.4 31.9 24.6 43 4.1 4.9 7.9 9.5 10.8 14.2 2.3 3.7 3.8 7.6 5.2 11.4 3.2 8.4 6.6 17 18.3 25v-1.2c-10.8-7.7-14-16-17.1-24.1zM605.2.8c-1.3 1.4-2.5 2.8-3.8 4.2C595 12.2 589 19 580 21c-12.2 2.7-28.6-1.3-43-4.7-5.3-1.3-10.3-2.5-14.8-3.3-3.1-.6-6.4.6-9.7 1.8-3.8 1.3-7.4 2.6-10.5 1.3l-.7-.3c-8.6-3.7-16.5-8.7-23.7-14.9h-1.5c7.4 6.6 15.7 12 24.8 15.8l.7.3c3.4 1.4 7.4 0 11.2-1.3 3.1-1.1 6.4-2.2 9.2-1.7 4.5.8 9.5 2 14.7 3.3 14.5 3.5 31 7.4 43.5 4.7 9.3-2 15.5-8.9 22-16.3 1.4-1.6 2.9-3.2 4.4-4.8h-1.4V.8z" opacity=".5" fill="#57585A"/><path d="M652.8.8c-10.9 11.3-22.7 21-36.3 28.2-3.9 2-9.8.9-15.6-.2-4.7-.9-9.6-1.8-13.6-1.2-6.6 1.1-13 3.1-19.1 4.9-10.3 3.1-20.9 6.3-32.8 5.8-14.2-.6-26.1-6.1-37.7-11.3-7.5-3.4-14.6-6.7-21.9-8.3-9.7-2.2-19.3-.2-30.5 2.1-5.6 1.2-11.3 2.4-17.5 3.1-21.2 2.6-35.8 6.4-48.9 12.9-13.2 6.5-25.3 16-39.4 27.1-3.5 2.8-5.2 7-6.9 11.2-1.6 3.9-3 7.6-5.9 9.4-15.2 9.3-28.5 6.3-40.2 3.6-2.2-.5-4.3-1-6.4-1.4-2.7-.5-6-.4-9.6-.4-5.9.1-12 .1-15.2-2.2C245.5 77 242.7 60 240 43.5l-.7-4.4c-.7-4.1-1.5-8.1-2.3-12-1.6-8.2-3.3-16.5-4.1-26.2h-1c.8 9.8 2.5 18.2 4.1 26.4.8 3.9 1.6 7.9 2.3 12l.7 4.4c2.8 16.7 5.6 33.9 15.8 41.2 3.5 2.5 9.8 2.4 15.8 2.4 3.5 0 6.8-.1 9.4.4 2 .4 4.1.8 6.4 1.4 11.4 2.6 25.5 5.8 41-3.8 3.1-1.9 4.7-5.8 6.3-9.9 1.6-4 3.2-8.2 6.5-10.8C370.3 41 384 30.2 428 24.8c6.3-.8 12-2 17.6-3.1 11-2.3 20.5-4.3 30-2.1 7.1 1.6 14.2 4.9 21.7 8.3 11.6 5.3 23.7 10.8 38.1 11.4 12 .5 22.8-2.7 33.1-5.8 6.1-1.8 12.4-3.7 19-4.9 3.8-.7 8.6.3 13.2 1.2 5.9 1.1 12.1 2.3 16.2.1 14-7.4 26-17.5 37.2-29.1h-1.3z" opacity=".5" fill="#57585A"/><path d="M682.2.8L681 4.1c-1.6 4.5-3.2 9.2-10.5 14-5.1 3.3-11.4 4.4-18.6 5.8-5.3 1-11.2 2-17.3 4.2-6.5 2.3-10.2 5-13.7 7.6-6.2 4.6-12.6 9.4-35.6 12.3-8.9 1.5-18.2 1.1-28.1.6-8-.4-16.2-.8-24.8-.2-4.2.3-8.9 2.1-13.5 3.8-5.4 2-10.9 4.1-15.1 3.5-5.4-.7-9-3.8-12.6-6.9-3.5-3-7-6.1-12.2-6.7-44.9-5.8-74 .5-115.2 24.8-3.7 2.2-6.6 7.2-9.6 12.6-2.8 4.9-5.7 9.9-9.3 12.9-7.3 6-16.8 6.9-26 7.9-6.5.7-12.6 1.3-17.9 3.5-4.7 2-8.1 4-11.1 5.8-7.1 4.3-11 6.7-22.3 1.7-14.8-6.4-19.9-19.1-26.5-35l-.5-1.3-4-9.4c-6.8-16-17.2-40.1-19-55-.4-3.3-.7-6.5-.8-9.7h-1c.2 3.2.4 6.5.8 9.9 2 14.9 12.4 39.2 19.2 55.2l4 9.3.5 1.3c6.6 16.2 11.9 29 27 35.6 11.8 5.1 16.1 2.5 23.2-1.8 3-1.8 6.3-3.8 10.9-5.8 5.2-2.2 11.2-2.8 17.6-3.5 9.3-1 19-2 26.5-8.1 3.7-3 6.7-8.2 9.6-13.1 3-5.2 5.8-10.2 9.3-12.2 40.9-24.2 69.8-30.4 114.5-24.6 4.9.6 8.2 3.5 11.7 6.5 3.6 3.1 7.4 6.4 13.1 7.1 4.5.6 9.9-1.5 15.6-3.6 4.5-1.7 9.2-3.5 13.2-3.7 8.6-.6 16.8-.2 24.7.2 9.9.5 19.3.9 28.3-.6 23.2-2.9 29.7-7.8 36-12.4 3.6-2.7 7-5.2 13.4-7.5 6-2.1 11.7-3.1 17.2-4.1 7.3-1.3 13.6-2.5 18.9-5.9 7.7-4.9 9.3-9.8 10.9-14.5.4-1.2.8-2.4 1.3-3.6h-1V.8zM163.9 542c.9-19.8 1.8-38.6-9.2-49.8-7.8-7.9-8.2-16.1-8.5-22.6-.3-4.9-.5-8.8-3.7-10.9-5-3.2-11.6-2.5-18-1.7-6.5.8-13.2 1.5-18.1-1.9-6.3-4.5-11-10.3-15.5-15.9-4.3-5.3-8.7-10.8-14.5-15.2-16.7-12.6-23.1-22.7-28.8-31.6-2.2-3.5-4.4-6.8-7-10.1-3-3.8-7.2-5.4-11.3-7-4-1.5-8.1-3.1-11-6.8C11.7 360.4 6 353.7.5 347.8v1.5c5.2 5.7 10.7 12.1 17 19.9 3.1 3.9 7.3 5.5 11.4 7.1 4.1 1.6 8 3.1 10.9 6.7 2.6 3.2 4.7 6.5 6.9 10 5.7 8.9 12.2 19.1 29 31.8 5.7 4.3 10.1 9.8 14.3 15 4.6 5.7 9.3 11.5 15.7 16.1 5.2 3.7 12.1 2.9 18.8 2.1 6.5-.8 12.7-1.5 17.3 1.6 2.8 1.8 3 5.5 3.2 10.1.4 6.7.8 15.1 8.8 23.3 10.6 10.9 9.8 29.4 8.9 49-.5 10.2-.9 20.5.2 30h1c-.9-9.5-.4-19.8 0-30z" opacity=".5" fill="#57585A"/><path d="M170.9 489.1c-.1-4.2-.1-8.1-.1-11.8 0-20.9 0-34.7-25.5-45-9.5-3.9-19-5.1-28.1-6.3-11.9-1.6-23.1-3-34.6-9.7-12.1-7-18.8-17.1-25.9-27.9-4.5-6.7-9.1-13.7-15.2-19.9-3.7-3.8-10.2-7.3-16.5-10.7-4.8-2.6-9.4-5.1-12.4-7.5-4.6-3.7-6.7-7.4-9-11.2-.9-1.6-1.9-3.3-3-5v1.8c.8 1.2 1.5 2.4 2.2 3.6 2.3 3.9 4.4 7.7 9.2 11.5 3 2.5 7.6 5 12.5 7.6 6.2 3.4 12.7 6.9 16.3 10.5 6 6.1 10.6 13 15 19.7 7.2 10.8 14 21.1 26.2 28.2 11.8 6.8 23.6 8.4 35 9.9 9 1.2 18.4 2.4 27.8 6.2 24.9 10.1 24.9 22.9 24.9 44.1 0 3.8 0 7.7.1 11.9.5 15.9 5 31.2 9.3 45.9 3.5 12 7.1 24.3 8.5 36.9h1c-1.4-12.7-5-25.1-8.5-37.2-4.2-14.6-8.6-29.8-9.2-45.6zm253.7-81.4c1.9-3.3 4.9-13.8 2-18.5-1-1.6-2.6-2.4-4.7-2.3-9 .5-12.1 12.6-14 19.9l-.1.5c-1 3.8-1.6 7.6.2 9.5 1 1 2.5 1.3 4.6.9 6.3-1.2 10.5-7.4 12-10zm-12.2 9c-1.7.3-3 .1-3.7-.6-1.7-1.8-.5-6.4.1-8.6l.1-.5c1.8-7 4.7-18.7 13-19.1 1.7-.1 3 .5 3.8 1.8 2.6 4.2-.1 14.2-2 17.5-1.4 2.5-5.4 8.4-11.3 9.5z" opacity=".5" fill="#57585A"/><path d="M414.1 406.2c2.1.9 4.7.2 6.6-1.9 2-2.2 2.4-5.1 1.2-7.5-.9-1.7-2.5-2.6-4.2-2.5-1.9.2-3.6 1.7-4.2 3.7-.1.5-.4 1.1-.7 1.7-.7 1.4-1.4 2.9-.9 4.3.3 1 1 1.7 2.2 2.2zm.3-7.8c.5-1.6 1.8-2.9 3.3-3 1.3-.1 2.5.5 3.2 1.9 1.3 2.4.3 4.8-1 6.3-1.6 1.7-3.7 2.3-5.4 1.6-.9-.4-1.5-.9-1.7-1.5-.4-1 .3-2.3.9-3.5.3-.6.6-1.2.7-1.8z" opacity=".5" fill="#57585A"/><path d="M126.3 33.9c5.3 3.6 7.5 11.5 9.7 19 2.1 7.5 4.3 15.2 9.5 19.1 6.2 4.6 15.2 5.6 23.9 6.6 9.4 1.1 19.1 2.1 25.1 7.7 29.1 26.7 27.8 34.5 22.3 67.1l-.9 5.6c-2.1 12.9-.4 28.2 1.1 41.7 1.9 16.5 3.5 30.8-2.5 35-6.4 4.5-11.6 6.2-16.1 5.2-6.4-1.4-10.1-8.1-13.7-14.6-3.7-6.6-7.2-12.9-13.2-11.5-35.5 8.1-38.8 20.4-43.4 37.3-2.6 9.7-5.6 20.6-15.2 33.2-4.4 5.7-8.1 12.5-12.1 19.7-7.1 13-14.5 26.4-25.8 33.2-2.7 1.6-9.9-2.1-17.4-6-11.3-5.9-24.2-12.6-29.2-5.3-4.5 6.5-6 15.3-7.5 23.9-1.8 10.5-3.6 20.5-10.8 22.9-2.9 1-6.1 1.3-9.5 1v1c3.5.3 6.8-.1 9.8-1.1 7.8-2.6 9.5-12.8 11.4-23.7 1.5-8.5 3-17.2 7.3-23.5 4.6-6.6 17-.1 27.9 5.6 8.2 4.3 15.2 7.9 18.4 6 11.6-7 19-20.5 26.2-33.5 3.9-7.2 7.7-14 12-19.6 9.8-12.7 12.8-23.8 15.4-33.5 4.5-16.6 7.7-28.6 42.7-36.6 5.3-1.2 8.4 4.5 12.1 11 3.5 6.3 7.5 13.5 14.3 15.1 4.8 1.1 10.3-.7 16.9-5.4 6.5-4.6 4.8-19.1 2.9-36-1.5-13.4-3.2-28.7-1.1-41.4l.9-5.6c2.8-16.6 4.5-26.5 1.8-36.1-2.6-9.3-9.2-17.9-24.4-31.9-6.3-5.8-16.2-6.9-25.7-7.9-8.6-1-17.5-2-23.4-6.4-4.9-3.7-7.1-11.2-9.1-18.6-2.2-7.8-4.5-15.8-10.1-19.6C115 25 95.6 12.4 73.2.8H71c23.1 11.9 43.2 24.9 55.3 33.1zm518.5 399.4c-11 1.4-19.7 7.1-32.7 15.8-6 4-12.8 8.4-21.2 13.5-3 1.8-11.6.5-19.8-.7-9-1.4-17.5-2.7-20.2-.2-8 7.1-9.3 17.7-10.4 27-1.3 10.4-2.4 19.5-12 21.7-7 1.6-16.8-.6-27.2-3.1-12.7-3-25.9-6.1-36.8-3-13.6 3.9-26.8 11.7-39.6 19.2-15.1 8.9-30.8 18.2-46.7 20.5-20.8 3.1-36.6-4.5-51.9-11.7-13.5-6.4-26.3-12.5-41.3-10.8-15.9 1.8-19.2 12.5-22.5 23-1.9 6.1-3.8 12.4-8.3 17-3.5 3.6-15.2 6.2-26.4 8.8-2.6.6-5.2 1.2-7.6 1.8h4.4c1.1-.3 2.3-.5 3.4-.8 11.9-2.7 23.1-5.2 26.9-9 4.6-4.7 6.6-11.2 8.5-17.4 3.3-10.6 6.3-20.6 21.6-22.3 14.8-1.6 27.4 4.4 40.8 10.7 15.5 7.3 31.4 14.9 52.5 11.8 16.1-2.4 31.8-11.7 47-20.7 12.7-7.5 25.9-15.3 39.4-19.1 10.7-3 23.7 0 36.3 3 10.5 2.5 20.4 4.8 27.6 3.1 10.2-2.4 11.5-12.2 12.8-22.6 1.1-9.1 2.4-19.5 10.1-26.4 2.3-2.1 11-.8 19.4.5 8.8 1.3 17.1 2.6 20.4.6 8.5-5.1 15.2-9.6 21.2-13.5 26.5-17.5 33.7-22.3 79.1-6 20.1 7.2 48.9 23.8 73.1 41.8v-1.2c-24-18-52.7-34.5-72.7-41.6-23.2-8.4-36.5-11.1-47.2-9.7zm47.9-368.7c-13.9 33-3.8 48.1 7.9 65.7 7.8 11.6 15.8 23.6 18.3 42.5.1 1.1 0 1.8-.5 2.3-1.3 1.3-5.1.6-9.4-.1-7.2-1.2-16.2-2.7-22.1 2.6-11.1 10-6.8 19.3-3.4 26.7 2.4 5.1 4.4 9.5 1.5 13.1-1.2 1.5-1.8 3.3-1.5 5.1.7 6.1 9.5 12.8 18 19.2 7.7 5.8 14.9 11.2 15.4 15.6.1 1-.2 2-.9 2.8-6.5 7.7-17.4 12.8-27.8 17.7-15.8 7.4-32.1 15.1-33.3 32-1.6 23.3 15.3 50.5 29.8 69.2 19.7 25.4 42.6 45.6 57.6 56.1 8 5.6 15.5 10.2 22.6 13.9v-1.1c-6.9-3.6-14.2-8.1-22-13.6-30.8-21.6-90-82.2-87-124.4 1.2-16.3 16.5-23.5 32.8-31.1 10.6-5 21.5-10.1 28.2-18 .9-1.1 1.3-2.3 1.1-3.6-.5-4.7-7.9-10.3-15.7-16.3-8.3-6.3-17-12.8-17.7-18.5-.2-1.6.2-3 1.3-4.4 3.3-4.1 1.1-9-1.3-14.2-3.5-7.5-7.5-16 3.1-25.5 5.5-5 14.2-3.5 21.2-2.3 4.8.8 8.6 1.5 10.3-.2.7-.7 1-1.7.8-3.2-2.6-19.1-11-31.7-18.5-42.9-11.6-17.3-21.5-32.2-7.8-64.7 6.9-16.3 19.8-30.4 36.3-39.7 11.1-6.3 23.1-9.9 34.9-10.7v-1c-12 .8-24.1 4.5-35.4 10.9-16.8 9.4-29.9 23.6-36.8 40.1z" fill="#000" opacity=".5"/><path d="M709.3 14.9c-2.2 9-6.8 9.6-13.6 10.5-6 .8-13.5 1.8-21.7 8.9-1.9 1.6-3.7 3.3-5.5 4.9-9.9 8.9-20.1 18.1-36 21.5-6.3 1.3-14.5.9-22.5.4-8.4-.5-17.2-1-24.2.6-4.8 1-9.2 4.9-13.4 8.6-4.5 4-8.7 7.7-13.1 8-14.3.9-26.4-2.6-38.1-6-7.8-2.3-15.1-4.4-22.8-5.2-8.4-.8-16.6-3.5-24.5-6-11.1-3.6-21.5-6.9-32-5.5-7.9 1.1-13.7 6.1-19.8 11.5-4.2 3.7-8.6 7.5-13.8 10-6.4 3-12 7.2-17.8 11.5-6.7 5-13.5 10.1-21.8 13.4-5 2.1-10.9 2.9-17.2 3.9-7.9 1.2-16.1 2.4-22.6 6.3-5.3 3.2-12.8 5-20 6.8-9.1 2.3-17.7 4.4-22.1 9-7.4 7.5-6.6 15.9-5.8 24.8.4 4.3.8 8.7.2 13.1-1.7 13.3 2.1 26.7 6.1 41 1.5 5.2 3 10.5 4.3 16 1 4.1-.4 7.8-1.8 11.8-2.8 8.1-6 17.2 10 30.1 4.5 3.6 9.6 7.2 15 11 14.1 9.9 28.7 20.1 34.2 32.9 2.7 6.3 1.1 13.8-.6 21.7-1.5 6.9-3.1 14.1-1.9 21.2 1.6 9.2-.9 17.7-3.5 26.7-1.5 5-3 10.2-3.7 15.6-.7 4.7 1.8 9.5 4.2 14.2 1.8 3.6 3.7 7.2 4.1 10.7.4 3.2-1.2 6.6-2.8 9.9-1.5 3.3-3.1 6.7-2.9 10.1.5 8.7 6.2 16.7 11.7 24.5 4.2 6 8.3 11.7 9.7 17.3 1.2 4.6-.3 6.5-2.5 9.4-3.3 4.4-7.8 10.4-6.6 28.1.4 5.5-4.8 9.7-10.3 14-4.7 3.7-9.5 7.6-11.6 12.8-3.1 7.8-2.4 17.4-1.5 26.9h2c-.9-9.3-1.6-18.8 1.3-26.2 1.9-4.7 6.5-8.4 11-12 5.9-4.7 11.5-9.2 11-15.7-1.1-17 3.1-22.7 6.2-26.8 2.3-3 4.2-5.6 2.8-11.1-1.5-6-5.6-11.8-10-18-5.3-7.5-10.8-15.3-11.3-23.4-.2-2.9 1.2-5.9 2.7-9.1 1.7-3.5 3.4-7.2 2.9-11-.4-3.9-2.4-7.7-4.3-11.4-2.3-4.6-4.6-8.9-4-13 .7-5.2 2.2-10.3 3.7-15.3 2.6-8.8 5.2-17.9 3.6-27.6-1.1-6.7.4-13.6 1.8-20.4 1.8-8.2 3.5-16 .5-22.9-5.8-13.4-20.6-23.7-34.9-33.8-5.3-3.7-10.4-7.3-14.8-10.9-14.9-12-12.2-19.7-9.3-27.9 1.4-4.1 2.9-8.3 1.8-13-1.3-5.5-2.8-10.9-4.3-16.1-4-14.1-7.7-27.3-6-40.2.6-4.6.2-9.2-.2-13.5-.8-8.4-1.5-16.3 5.3-23.2 4.1-4.2 12.4-6.2 21.2-8.4 7.4-1.8 15-3.7 20.6-7 6.1-3.6 14.1-4.8 21.9-6 6.1-.9 12.4-1.8 17.7-4 8.5-3.5 15.5-8.7 22.2-13.7 5.8-4.3 11.3-8.4 17.5-11.3 5.4-2.6 9.9-6.5 14.3-10.2 5.9-5.1 11.5-10 18.8-11 10-1.4 20.3 1.9 31.1 5.4 8 2.6 16.3 5.3 24.9 6.1 7.4.7 14.7 2.8 22.4 5.1 11.9 3.5 24.2 7 38.8 6.1 5.1-.3 9.8-4.5 14.3-8.5 4-3.6 8.2-7.2 12.5-8.2 6.7-1.5 15.3-1 23.6-.5 8.1.5 16.5.9 23-.5 16.4-3.5 26.8-12.9 36.9-22 1.8-1.6 3.6-3.3 5.5-4.9 7.8-6.7 14.9-7.7 20.7-8.5 7.1-1 12.7-1.7 15.3-12 1.4-5.7 3.4-10.2 5.3-14.5h-2.2c-2.1 4.2-4 8.6-5.3 14.1z" fill="#000" opacity=".5"/><path d="M227.3 488c8.6-2.3 18.2-2.3 28.4-2.4 22.3-.1 45.3-.1 56.6-25.2 5.1-11.3 4.7-20.5-1.1-27.3-13.3-15.6-53.1-16-84.2-13.5-36.9 2.9-73.2 10.5-85 13.8-15.3 4.2-23.9 10.1-26.2 18.1-4 13.6 10.8 30.2 25.2 46.3l4.7 5.3c3.9 4.4 6.3 8.4 8.3 11.6 5.6 9.2 8 12.9 29.5 4.6 7.9-3 14-9 19.9-14.8 6.9-6.9 14-13.8 23.9-16.5zm-44.2 30.3c-20.7 8-22.6 5-28.3-4.2-2-3.2-4.5-7.3-8.4-11.8l-4.7-5.3c-14.2-15.9-28.8-32.3-25-45.3 2.2-7.6 10.6-13.3 25.5-17.4 30.1-8.3 144.2-28.6 168.2-.5 5.6 6.5 5.9 15.3 1 26.3-11 24.5-33.7 24.5-55.7 24.6-10.3 0-20 0-28.7 2.4-10.2 2.7-17.4 9.8-24.3 16.6-6.1 5.9-11.9 11.6-19.6 14.6zm147.6-204.2c6.9.5 12 6.7 18 13.8 5.6 6.7 11.9 14.2 20.8 18 5 2.1 13.3-.2 21.4-2.5 6-1.7 11.6-3.3 15-2.7 15.6 2.7 31.3 12.8 46.4 22.6 14.5 9.4 28.1 18.2 40.2 19.3 3.4.3 7.8 1.3 12.5 2.3 13.1 2.9 29.4 6.5 37.2-1.2 3.4-3.4 2.8-11.2 2.2-19.5-.6-8.1-1.2-16.4 2.4-19.1 4.1-3.1 10.3-3.1 16.4-3 8 .1 15.5.1 17.2-7.1 2.6-10.8-5.1-28.3-12-43.7-5.6-12.7-11-24.7-9.2-30.2 2.1-6.6 12.4-12.9 23.4-19.5 14-8.5 29.9-18.1 34.4-31.4 4.3-12.8-11.3-33.1-21.6-46.5-3.2-4.1-5.9-7.6-7.5-10.2-4.7-7.6-13.2-4.3-21.4-1.1-5.6 2.2-11.4 4.4-15.8 3.2-4.3-1.2-7.1-7-9.9-12.7-2.8-5.7-5.4-11.1-9.5-12-13.2-2.7-30.8 14.9-42.5 33.6-3.9 6.2 1 16.6 6.1 27.6 4.6 9.8 9.3 19.9 7.2 26.5-10.7 33.3-47.6 53.7-70.3 47.2-25-7.2-25.7-34.8-26.5-61.5-.7-24.1-1.3-46.8-19.8-52.7-2.6-.8-4.3 1.8-6.6 5.4-4.4 7-11.9 18.6-34 18.6-2.9 0-6.6-4.1-10.5-8.4-5.2-5.7-11.1-12.2-16.8-10.3-15.4 5.2-29.5 19.2-39.9 39.4-9.4 18.5-14.8 40.1-14.6 59.4 0 5.1 4.2 10.9 7.9 16 2.8 3.9 5.4 7.5 5.8 10.2 5 34 16.3 33.4 35.2 32.4 5.5-.3 11.7-.6 18.7-.2zm-53-32.3c-.4-2.9-3.1-6.7-6-10.6-3.6-5-7.7-10.6-7.7-15.4-.3-38.4 21.2-86.9 53.8-97.8 5.1-1.7 10.7 4.5 15.7 10 4 4.5 7.9 8.7 11.2 8.7 22.7.1 30.3-11.9 34.9-19 2.4-3.7 3.7-5.6 5.5-5 17.8 5.7 18.4 28.1 19.1 51.8.7 27 1.5 54.9 27.2 62.4 11.3 3.3 26.4.1 40.2-8.4 15.1-9.3 26.2-23.3 31.4-39.4 2.2-7-2.6-17.3-7.2-27.2-4.8-10.3-9.8-20.9-6.2-26.6 11.1-17.8 28.9-35.7 41.5-33.1 3.6.8 6.1 5.9 8.8 11.4 2.8 5.9 5.8 11.9 10.5 13.2 4.8 1.3 10.7-1 16.4-3.2 8.2-3.2 16-6.2 20.2.7 1.6 2.6 4.3 6.2 7.5 10.3 10.2 13.3 25.6 33.3 21.5 45.6-4.4 12.9-20.1 22.5-33.9 30.8-11.6 7-21.6 13.1-23.8 20-1.9 5.8 3.3 17.5 9.2 30.9 6.8 15.3 14.5 32.6 11.9 43.1-1.6 6.5-8.4 6.4-16.3 6.3-6.2-.1-12.6-.1-17 3.2-4 3-3.4 11.3-2.8 19.9.5 7.7 1.1 15.7-1.9 18.8-7.4 7.4-23.4 3.8-36.3 1-4.7-1-9.2-2-12.6-2.4-11.8-1.1-25.4-9.9-39.7-19.2-15.2-9.8-30.9-20-46.7-22.8-3.6-.6-9.3 1-15.4 2.7-7.5 2.1-16 4.5-20.7 2.5-8.6-3.7-14.9-11.1-20.4-17.7-6.1-7.3-11.4-13.7-18.7-14.2-7-.5-13.4-.1-18.9.2-19 1.1-29.4 1.6-34.3-31.5zm169.1 185.1c9.5-1.9 13-6.7 16.7-11.8 2.5-3.4 5.1-7 9.9-9.7 3.4-1.9 8.5-3.1 13.5-4.3 8.1-1.9 15.7-3.6 16.9-8.3.9-3.2-1.6-7.4-7.5-12.8-4.1-3.7-14.6-4.6-24.8-5.4-7.3-.6-14.2-1.1-18.2-2.7-7.1-2.8-13.4-7.6-19.5-12.3-6.5-5-13.3-10.1-20.9-12.7-16-5.4-28.9-4.9-36.2 1.4-6.3 5.5-8.3 14.8-6 27.7 1.3 7.1 6.8 31.2 22.1 41.5 6 4.1 12.7 5.4 20 3.9 14.1-2.8 18.4.1 22.2 2.8 2.9 2.1 5.6 4 11.8 2.7zm-34.1-6.3c-7 1.4-13.5.1-19.3-3.8-15-10.1-20.3-33.8-21.6-40.9-2.3-12.5-.4-21.5 5.6-26.7 7.1-6.1 19.6-6.6 35.2-1.3 7.5 2.5 14.1 7.6 20.6 12.6 6.2 4.7 12.6 9.6 19.8 12.4 4.1 1.6 11.1 2.2 18.5 2.7 10 .8 20.3 1.6 24.2 5.1 5.6 5.1 7.9 9 7.2 11.8-1.1 4.1-8.8 5.9-16.2 7.6-5.1 1.2-10.3 2.4-13.8 4.4-4.9 2.8-7.6 6.4-10.2 9.9-3.6 4.9-7 9.5-16.1 11.4-5.8 1.2-8.2-.5-11-2.4-3.8-2.4-8.4-5.7-22.9-2.8z" opacity=".5" fill="#000"/><circle fill="#000" opacity=".5" cx="574.8" cy="347.6" r="1.5"/><circle fill="#000" opacity=".5" cx="532.8" cy="519.6" r="1.5"/><circle fill="#000" opacity=".5" cx="534.4" cy="503.6" r="1.5"/><circle fill="#000" opacity=".5" cx="647.1" cy="390.9" r="1.5"/><circle fill="#000" opacity=".5" cx="609.1" cy="378.9" r="1.5"/><circle fill="#000" opacity=".5" cx="533.8" cy="388.9" r="1.5"/><circle fill="#000" opacity=".5" cx="704.4" cy="498.3" r="1.5"/><circle fill="#000" opacity=".5" cx="727.1" cy="508.9" r="1.5"/><circle fill="#000" opacity=".5" cx="479.6" cy="506.8" r="1.5"/><circle fill="#000" opacity=".5" cx="484.6" cy="464.8" r="1.5"/><circle fill="#000" opacity=".5" cx="486.3" cy="474.1" r="1.5"/><circle fill="#000" opacity=".5" cx="488.8" cy="484.2" r="1.5"/><circle fill="#000" opacity=".5" cx="461.9" cy="428.1" r="1.5"/><circle fill="#000" opacity=".5" cx="481.2" cy="376.1" r="1.5"/><circle fill="#000" opacity=".5" cx="495.9" cy="336.1" r="1.5"/><circle fill="#000" opacity=".5" cx="313.1" cy="562.3" r="1.5"/><circle fill="#000" opacity=".5" cx="319.1" cy="510.9" r="1.5"/><circle fill="#000" opacity=".5" cx="339.1" cy="482.9" r="1.5"/><circle fill="#000" opacity=".5" cx="333.1" cy="374.3" r="1.5"/><circle fill="#000" opacity=".5" cx="329.9" cy="390.8" r="1.5"/><circle fill="#000" opacity=".5" cx="322.4" cy="346.9" r="1.5"/><circle fill="#000" opacity=".5" cx="321.1" cy="303.6" r="1.5"/><circle fill="#000" opacity=".5" cx="283.8" cy="275.6" r="1.5"/><circle fill="#000" opacity=".5" cx="184.4" cy="263.6" r="1.5"/><circle fill="#000" opacity=".5" cx="140.4" cy="263.6" r="1.5"/><circle fill="#000" opacity=".5" cx="93.1" cy="303.6" r="1.5"/><circle fill="#000" opacity=".5" cx="81.8" cy="299.6" r="1.5"/><circle fill="#000" opacity=".5" cx="13.1" cy="260.9" r="1.5"/><circle fill="#000" opacity=".5" cx="8.4" cy="107.6" r="1.5"/><circle fill="#000" opacity=".5" cx="54.4" cy="100.9" r="1.5"/><circle fill="#000" opacity=".5" cx="133.1" cy="88.3" r="1.5"/><circle fill="#000" opacity=".5" cx="144.1" cy="87.6" r="1.5"/><circle fill="#000" opacity=".5" cx="162.4" cy="103.6" r="1.5"/><circle fill="#000" opacity=".5" cx="192.4" cy="118.3" r="1.5"/><circle fill="#000" opacity=".5" cx="195.1" cy="146.9" r="1.5"/><circle fill="#000" opacity=".5" cx="191.1" cy="238.3" r="1.5"/><circle fill="#000" opacity=".5" cx="254.4" cy="218.9" r="1.5"/><circle fill="#000" opacity=".5" cx="257.8" cy="176.9" r="1.5"/><circle fill="#000" opacity=".5" cx="240.4" cy="118.9" r="1.5"/><circle fill="#000" opacity=".5" cx="237.8" cy="108.5" r="1.5"/><circle fill="#000" opacity=".5" cx="222.4" cy="46.3" r="1.5"/><circle fill="#000" opacity=".5" cx="209.8" cy="41.6" r="1.5"/><circle fill="#000" opacity=".5" cx="503.1" cy="308.3" r="1.5"/><circle fill="#000" opacity=".5" cx="494.4" cy="274.9" r="1.5"/><circle fill="#000" opacity=".5" cx="483.8" cy="244.9" r="1.5"/><circle fill="#000" opacity=".5" cx="541.8" cy="209.6" r="1.5"/><circle fill="#000" opacity=".5" cx="548.3" cy="206.1" r="1.5"/><circle fill="#000" opacity=".5" cx="560.8" cy="198.1" r="1.5"/><circle fill="#000" opacity=".5" cx="583.1" cy="194.3" r="1.5"/><circle fill="#000" opacity=".5" cx="642.4" cy="130.9" r="1.5"/><circle fill="#000" opacity=".5" cx="661.8" cy="121.6" r="1.5"/><circle fill="#000" opacity=".5" cx="722.4" cy="111.6" r="1.5"/></g></svg>