<svg xmlns="http://www.w3.org/2000/svg" width="344" height="106"><path d="M.048 29.869c0-.311.06-.5.178-.566.12-.067.378-.1.777-.1h1.444c.237-.282 1.415-2.244 3.532-5.887 2.119-3.644 4.44-7.602 6.964-11.876 2.526-4.274 4.308-7.182 5.343-8.72.12-.162.453-.533 1-1.108.548-.578.971-1.148 1.266-1.71.238-.489.511-.733.822-.733a.72.72 0 0 1 .504.178c.133.12.211.231.235.333.024.104.044.253.06.444.1.504.373 2.086.827 4.743.451 2.655.871 5.136 1.264 7.442l1.262 7.434c.451 2.65.842 4.825 1.175 6.529.333 1.704.566 2.681.7 2.932h1.866c.267 0 .436.044.511.133.074.089.111.282.111.578 0 .371-.038.615-.111.733-.075.117-.244.178-.511.178-.178 0-.782-.022-1.811-.067a59.849 59.849 0 0 0-2.301-.067c-.476 0-1.362.022-2.659.067s-2.11.067-2.435.067c-.312 0-.511-.061-.6-.178-.089-.118-.133-.378-.133-.778 0-.311.058-.5.178-.566.118-.067.378-.1.777-.1h2.555v-.377c0-.711-.227-2.526-.677-5.447-.449-2.921-.682-4.505-.698-4.75-.044-.366-.089-.58-.133-.642-.044-.06-.162-.091-.355-.091H12.2c-.222 0-.366.006-.433.022a.485.485 0 0 0-.211.133 1.87 1.87 0 0 0-.267.422c-3.523 6.633-5.36 10.21-5.509 10.729h2.999c.267 0 .442.049.522.145.083.096.122.284.122.566 0 .355-.04.595-.122.722-.08.126-.255.189-.522.189s-.913-.022-1.944-.067a64.28 64.28 0 0 0-2.699-.067c-.518 0-1.177.022-1.977.067s-1.257.067-1.377.067c-.312 0-.511-.061-.6-.178-.09-.119-.134-.378-.134-.778zm12.378-13.463c0 .089.222.134.667.134h7.516c.275 0 .413-.029.413-.089 0-.309-.295-2.382-.886-6.218-.593-3.836-.917-5.756-.978-5.756-.016 0-.496.84-1.444 2.521a1692.757 1692.757 0 0 1-4.976 8.763c-.208.357-.312.572-.312.645zm19.238 10.775c0-.82.129-1.806.387-2.961.257-1.155.666-2.382 1.226-3.679a21.536 21.536 0 0 1 1.968-3.599 10.032 10.032 0 0 1 2.786-2.75c1.104-.73 2.275-1.095 3.515-1.095.417 0 .815.026 1.197.084.38.054.715.129 1.006.225s.531.182.717.262c.187.078.378.173.571.284.193.111.297.167.313.167.253.145.438.205.549.183.111-.022.198-.176.258-.46.18-.938.406-2.324.682-4.156a457.39 457.39 0 0 0 1.02-7.084c.06-.238.055-.409-.011-.513-.067-.104-.146-.145-.238-.12l-.185.047c-.229.062-.662.175-1.297.342l-1.622.429c-.444.116-.704.173-.78.173-.222 0-.333-.162-.333-.489 0-.155.022-.34.066-.553.016-.256.056-.418.12-.489.066-.071.189-.128.369-.171L47.42.394c1.151-.284 2.017-.502 2.599-.648.584-.146.916-.22.991-.22.447 0 .669.273.669.817 0 .118-.777 4.503-2.333 13.153s-2.333 13.427-2.333 14.331c0 .371.155.555.464.555.353 0 .864-.282 1.526-.844a22.17 22.17 0 0 0 1.793-1.688c.531-.562.811-.844.84-.844.104 0 .235.071.397.211.162.14.244.255.244.344 0 .073-.129.295-.389.667s-.633.826-1.122 1.366a18.298 18.298 0 0 1-1.622 1.577 8.797 8.797 0 0 1-2.033 1.3c-.762.355-1.499.533-2.21.533-.4 0-.727-.155-.978-.466s-.378-.727-.378-1.244c0-1.184.544-4.036 1.633-8.553-1.428 2.384-2.624 4.199-3.587 5.443a56.98 56.98 0 0 1-.916 1.2c-.178.222-.466.571-.869 1.044-.402.473-.735.811-1.004 1.011-.267.2-.604.438-1.013.711a3.943 3.943 0 0 1-1.237.566 5.39 5.39 0 0 1-1.98.111c-.227-.029-.524-.116-.895-.256a3.246 3.246 0 0 1-.971-.566c-.275-.238-.52-.6-.731-1.088s-.311-1.07-.311-1.736zm3.221-1.266c0 .844.149 1.459.444 1.844.297.384.802.578 1.515.578 1.264 0 3.33-2.11 6.198-6.331 1.62-2.371 2.43-4.132 2.43-5.287 0-.385-.424-.86-1.273-1.422-.848-.562-1.732-.844-2.654-.844-.907 0-1.795.438-2.662 1.311-.869.873-1.582 1.928-2.139 3.166a24.886 24.886 0 0 0-1.346 3.766c-.342 1.27-.513 2.346-.513 3.219zm17.594-8.953c0-.222.317-.685.955-1.389s1.393-1.377 2.266-2.021c.873-.644 1.577-.966 2.11-.966.711 0 1.362.156 1.955.466.755.429 1.255.773 1.5 1.033.245.26.367.64.367 1.144 0 1.171-.195 3.148-.589 5.931-.393 2.784-.588 4.399-.588 4.843 0 .295.207.622.618.977.413.355.688.533.826.533.397 0 .715-.155.951-.466.044-.044.518-.667 1.417-1.866.562-.756.982-1.329 1.264-1.722.28-.394.667-.984 1.162-1.777.496-.793.871-1.478 1.128-2.055.26-.578.496-1.244.709-2a7.801 7.801 0 0 0 .322-2.133c0-.651-.082-1.095-.247-1.333-.162-.238-.402-.355-.715-.355a6 6 0 0 0-1.068.111c-.4.073-.744.145-1.038.211a5.58 5.58 0 0 1-.479.1c-.116 0-.211-.082-.289-.244a1.443 1.443 0 0 1-.118-.622c0-.238.593-.493 1.777-.767s2.126-.411 2.821-.411c.622 0 1.104.133 1.444.4s.511.784.511 1.555c0 1.037-.2 2.126-.6 3.266s-.986 2.314-1.757 3.521a52.147 52.147 0 0 1-2.252 3.266c-.733.971-1.613 2.099-2.641 3.388-.325.4-.56.695-.709.889-.309.4-.642.895-.995 1.488-.207.34-.393.584-.558.733-.167.149-.391.222-.675.222-.473 0-1.122-.333-1.948-1-.693-.549-1.168-1.06-1.428-1.533-.258-.473-.387-1.222-.387-2.244 0-.533.151-2.088.455-4.665.305-2.577.456-4.383.456-5.421 0-.429-.14-.733-.422-.911-.384-.251-.718-.377-1-.377-.429 0-.918.24-1.466.722-.549.482-1.026.967-1.433 1.455-.406.489-.64.733-.7.733-.178 0-.373-.082-.588-.245-.217-.16-.324-.315-.324-.464zm22.504 12.664c-1.111-.857-1.666-2.132-1.666-3.823 0-1.688.302-3.341.906-4.954.604-1.615 1.413-3.023 2.424-4.228a11.758 11.758 0 0 1 3.605-2.899c1.393-.729 2.828-1.093 4.303-1.093.531 0 1.028.044 1.493.133s.924.242 1.382.464c.458.22.817.544 1.084.971.264.427.397.942.397 1.546 0 1.346-.544 2.555-1.633 3.63s-2.439 1.919-4.054 2.532c-1.955.731-4.109 1.098-6.464 1.098-.029 0-.062.089-.1.264-.038.176-.066.42-.089.729-.022.309-.033.625-.033.946 0 2.588 1.415 3.881 4.243 3.881.968 0 1.939-.207 2.915-.622s1.764-.867 2.366-1.355c.604-.489 1.144-.94 1.62-1.355.478-.415.766-.622.871-.622.18 0 .347.094.502.278.158.185.236.351.236.5 0 .089-.171.318-.511.688-.34.371-.837.811-1.488 1.322s-1.377 1.011-2.177 1.5c-.799.489-1.732.904-2.799 1.244s-2.11.511-3.132.511c-1.691.001-3.09-.428-4.201-1.286zm2.224-8.177c0 .133.111.2.333.2 2.212 0 4.123-.547 5.733-1.638 1.611-1.09 2.417-2.528 2.417-4.312 0-.52-.198-.936-.591-1.246-.393-.313-.909-.469-1.546-.469-2.435 0-4.336 1.819-5.703 5.458-.428 1.117-.643 1.785-.643 2.007zm13.26-3.954c0-.118.46-.549 1.377-1.289s2.037-1.484 3.354-2.232c1.317-.749 2.392-1.122 3.221-1.122.267 0 .515.089.744.267.229.178.344.451.344.822 0 .416-.036.9-.107 1.455a32.583 32.583 0 0 1-.224 1.5c-.08.444-.207 1.06-.387 1.844a53.861 53.861 0 0 1-.416 1.744c-.1.377-.269 1.029-.504 1.955s-.389 1.521-.46 1.788c2.106-3.688 4.041-6.504 5.8-8.453 1.762-1.948 3.474-2.921 5.138-2.921.949 0 1.595.218 1.944.655.349.438.522.938.522 1.5 0 .695-.293 1.993-.884 3.888a212.079 212.079 0 0 1-1.764 5.432c-.591 1.726-.884 2.743-.884 3.055 0 .504.251.755.755.755.371 0 .889-.284 1.555-.855s1.25-1.144 1.755-1.722l.777-.867c.074 0 .207.096.4.289.193.193.289.34.289.444 0 .118-.233.449-.7.988-.469.54-1.04 1.129-1.713 1.766-.675.638-1.484 1.207-2.426 1.71-.942.504-1.806.756-2.593.756-.484 0-.866-.189-1.146-.567-.28-.377-.42-.855-.42-1.433 0-.889.604-2.95 1.811-6.187 1.206-3.237 1.811-5.313 1.811-6.231 0-.34-.076-.622-.227-.844a.724.724 0 0 0-.635-.333c-.484 0-1.237.551-2.264 1.655s-2.021 2.337-2.988 3.699a68.24 68.24 0 0 0-2.681 4.065c-.704 1.11-1.362 2.792-1.977 5.042-.016.029-.038.107-.067.233s-.058.233-.086.322-.071.193-.129.312a.795.795 0 0 1-.213.277.622.622 0 0 1-.306.122c-1.215.118-1.939.178-2.177.178a.334.334 0 0 1-.322-.2.652.652 0 0 1-.056-.422c1.822-7.493 2.732-12.211 2.732-14.15 0-.46-.151-.689-.455-.689s-.797.245-1.479.733c-.682.489-1.315.973-1.899 1.455-.584.482-.893.722-.922.722-.153 0-.327-.089-.524-.267s-.294-.393-.294-.644zm24.458-2.683c0-.044.007-.182.022-.416.016-.235.022-.38.022-.44 0-.086.04-.182.122-.284.083-.102.205-.153.367-.153h2.777c.162 0 .26-.024.289-.071.016-.033.038-.104.067-.218.351-2.015.591-3.534.722-4.556.045-.311.127-.529.245-.653.12-.127.357-.211.713-.256.18-.028.498-.044.96-.044h.333c.729 0 1.093.133 1.093.402.162.049.164.44.004 1.171-.16.733-.329 1.51-.511 2.337l-.351 1.606c-.198.189-.171.282.08.282h3.466c.326 0 .459.169.4.504-.089.744-.289 1.117-.6 1.117h-3.532c-.222 0-.349.118-.377.355-.34 1.851-.738 4.132-1.188 6.842-.451 2.71-.678 4.161-.678 4.354 0 .162.007.293.022.389.016.096.082.193.2.289.118.095.289.144.511.144.295 0 .849-.351 1.655-1.055.806-.705 1.555-1.404 2.244-2.1s1.04-1.044 1.055-1.044c.073 0 .222.1.444.3s.333.344.333.433c0 .06-.196.327-.589.8s-.906 1.038-1.544 1.688-1.315 1.299-2.033 1.944a13.576 13.576 0 0 1-2.221 1.633c-.762.444-1.411.666-1.944.666-1.155 0-1.732-.562-1.732-1.688 0-.311.404-2.639 1.21-6.987.807-4.347 1.211-6.549 1.211-6.609 0-.207-.029-.318-.089-.333a.545.545 0 0 0-.178-.022h-2.51c-.328.001-.49-.108-.49-.327zm11.996 4.105c0-.045.104-.229.311-.556s.506-.751.899-1.277a33.71 33.71 0 0 1 1.188-1.5c.355-.429.66-.777.911-1.044s.584-.566 1-.9a4.728 4.728 0 0 1 1.311-.755c.46-.171.949-.255 1.466-.255.695 0 1.311.151 1.844.456s.8.744.8 1.322c0 .415-.484 2.437-1.455 6.064-.971 3.628-1.455 5.82-1.455 6.576 0 .606.378.911 1.133.911.958 0 2.255-1.162 3.89-3.487a39.493 39.493 0 0 0 2.652-4.51c.827-1.628 1.453-3.132 1.879-4.51.191-.651.369-1.473.531-2.466.06-.178.169-.282.331-.311a10.688 10.688 0 0 1 2.339-.267c.278 0 .417.178.417.533 0 .178-.416 2.404-1.244 6.676-.829 4.272-1.244 6.571-1.244 6.897 0 .667.247 1 .74 1 .313 0 .773-.344 1.377-1.033a25.849 25.849 0 0 0 1.648-2.077c.491-.695.753-1.044.784-1.044.073 0 .189.055.347.167s.235.195.235.255c0 .118-.211.533-.633 1.244-.422.711-.94 1.493-1.555 2.344a12.465 12.465 0 0 1-2.155 2.299c-.822.682-1.566 1.021-2.233 1.021-.444 0-.828-.126-1.155-.377s-.489-.578-.489-.978c0-.504.126-1.384.382-2.644.256-1.259.56-2.695.917-4.31.355-1.615.606-2.828.751-3.643-1.078 2.192-1.984 3.843-2.721 4.954-3.13 4.814-5.787 7.22-7.971 7.22-1.762 0-2.644-.682-2.644-2.043 0-.355.462-2.271 1.388-5.743s1.389-5.771 1.389-6.898c0-.784-.26-1.177-.778-1.177-.326 0-.837.374-1.533 1.122s-1.329 1.495-1.899 2.244-.871 1.122-.899 1.122c-.104 0-.262-.074-.478-.223-.212-.148-.319-.281-.319-.399zm24.103-1.6c0-.178.349-.622 1.044-1.333s1.548-1.411 2.555-2.099c1.006-.689 1.837-1.033 2.488-1.033.638 0 .955.349.955 1.044 0 .488-.377 3.021-1.133 7.597 1.229-3.272 2.11-5.392 2.644-6.354.949-1.733 2.088-2.599 3.421-2.599.578 0 1.1.16 1.566.478.466.318.7.751.7 1.3 0 .473-.089.895-.267 1.266s-.466.555-.866.555c-.384 0-.833-.138-1.344-.411-.511-.273-.899-.411-1.166-.411-.371 0-.705.245-1 .733-.695 1.066-1.562 2.948-2.599 5.643-.104.282-.267.851-.489 1.711-.267 1.082-.555 2.37-.866 3.865s-.526 2.504-.644 3.021c-.044.193-.378.337-1 .433-.622.095-1.117.144-1.488.144-.4 0-.6-.104-.6-.311 0-.074.182-1.049.544-2.921.362-1.873.727-3.888 1.089-6.042.362-2.155.544-3.61.544-4.365 0-1.066-.149-1.6-.444-1.6-.311 0-.706.2-1.188.6-.482.4-.911.795-1.288 1.188-.378.394-.596.589-.656.589-.06 0-.16-.082-.3-.244-.14-.161-.212-.31-.212-.444zm15.551 6.982c0-2.21.456-4.228 1.366-6.044.911-1.819 2.182-3.257 3.81-4.31 1.628-1.056 3.45-1.582 5.465-1.582.927 0 1.769.167 2.526.502.757.336 1.367.76 1.83 1.273a7.15 7.15 0 0 1 1.17 1.786c.316.678.536 1.335.662 1.975a9.78 9.78 0 0 1 .188 1.875c0 1.861-.465 3.659-1.394 5.392-.931 1.735-2.212 3.152-3.85 4.252s-3.392 1.65-5.265 1.65c-2.073 0-3.677-.66-4.81-1.979-1.132-1.319-1.698-2.917-1.698-4.79zm3.088-.353c0 .429.007.802.022 1.12.015.318.055.729.122 1.23.066.504.178.933.333 1.287.156.355.355.706.6 1.055.244.347.573.613.988.798.416.185.896.277 1.444.277 1.021 0 2.006-.417 2.954-1.253.949-.835 1.729-1.868 2.344-3.094.615-1.229 1.106-2.508 1.478-3.839s.556-2.521.556-3.572c0-.458-.051-.904-.156-1.342a5.386 5.386 0 0 0-.533-1.342c-.25-.458-.644-.831-1.177-1.12-.533-.289-1.171-.433-1.911-.433-1.11 0-2.228.577-3.354 1.73-1.127 1.153-2.026 2.528-2.7 4.125-.673 1.598-1.01 3.056-1.01 4.373zm15.528-5.029c0-.045.104-.229.311-.556s.506-.751.899-1.277.789-1.026 1.188-1.5c.355-.429.66-.777.911-1.044s.584-.566.999-.9a4.742 4.742 0 0 1 1.311-.755 4.18 4.18 0 0 1 1.467-.255c.695 0 1.311.151 1.844.456s.8.744.8 1.322c0 .415-.484 2.437-1.455 6.064-.971 3.628-1.455 5.82-1.455 6.576 0 .606.378.911 1.133.911.958 0 2.255-1.162 3.89-3.487a39.493 39.493 0 0 0 2.652-4.51c.827-1.628 1.453-3.132 1.88-4.51.19-.651.368-1.473.53-2.466.061-.178.17-.282.332-.311a10.68 10.68 0 0 1 2.339-.267c.278 0 .417.178.417.533 0 .178-.415 2.404-1.243 6.676-.829 4.272-1.244 6.571-1.244 6.897 0 .667.247 1 .739 1 .313 0 .773-.344 1.378-1.033.604-.689 1.155-1.382 1.647-2.077s.754-1.044.785-1.044c.073 0 .188.055.346.167.158.111.236.195.236.255 0 .118-.211.533-.633 1.244-.423.711-.94 1.493-1.556 2.344a12.465 12.465 0 0 1-2.155 2.299c-.821.682-1.566 1.021-2.232 1.021-.444 0-.828-.126-1.154-.377a1.177 1.177 0 0 1-.489-.978c0-.504.126-1.384.382-2.644.256-1.259.561-2.695.918-4.31.355-1.615.605-2.828.75-3.643-1.077 2.192-1.983 3.843-2.721 4.954-3.131 4.814-5.787 7.22-7.971 7.22-1.762 0-2.644-.682-2.644-2.043 0-.355.462-2.271 1.388-5.743.927-3.472 1.389-5.771 1.389-6.898 0-.784-.26-1.177-.777-1.177-.326 0-.838.374-1.533 1.122s-1.328 1.495-1.898 2.244c-.571.749-.871 1.122-.9 1.122-.104 0-.262-.074-.477-.223-.218-.148-.324-.281-.324-.399zm23.938 8.863c0-.371.141-.673.423-.911.28-.238.546-.355.8-.355.146 0 .279.007.4.022.117.013.239.046.365.098.127.051.223.091.289.12.066.029.158.094.277.193l.223.196c.029.031.115.113.256.251l.232.227c.134.131.325.322.578.578.251.253.427.426.521.52.099.096.238.211.425.349.187.135.36.227.524.271.162.042.349.064.558.064.868 0 1.597-.296 2.184-.884.591-.591.884-1.357.884-2.301 0-.471-.224-.973-.673-1.504a11.39 11.39 0 0 0-1.622-1.549 102.587 102.587 0 0 1-1.921-1.56c-.649-.54-1.2-1.15-1.655-1.837s-.682-1.391-.682-2.113c0-1.461.606-2.723 1.821-3.785 1.216-1.064 2.646-1.595 4.29-1.595.764 0 1.439.089 2.023.267.586.178 1.033.387 1.344.631.312.245.561.52.744.831.188.311.305.568.355.775.054.207.078.384.078.531 0 .282-.091.502-.277.664a.99.99 0 0 1-.678.245c-.946 0-1.725-.562-2.332-1.682a5.97 5.97 0 0 0-.354-.609 1.48 1.48 0 0 0-.373-.353.994.994 0 0 0-.576-.167c-.793 0-1.488.213-2.086.642-.596.427-.893 1.12-.893 2.08 0 .633.162 1.229.486 1.781.322.554.727 1.018 1.213 1.393s1.011.787 1.577 1.229 1.093.877 1.577 1.304c.486.429.891.971 1.215 1.626a4.89 4.89 0 0 1 .484 2.179c0 1.406-.6 2.637-1.799 3.69-1.197 1.055-2.621 1.582-4.268 1.582a8.711 8.711 0 0 1-4.039-.988c-1.277-.661-1.918-1.375-1.918-2.146zM1.274 44.818c1.02 0 4.014.191 5.927.191 1.91 0 5.16-.191 6.626-.191.829 0 .893.062.893 1.146 0 .764-.129.764-1.148.764h-3.186c-.126 0-.638 0-.638.573 0 .32 1.531 5.674 1.722 6.309 2.739 9.306 7.329 23.199 7.711 24.472.509 1.53.638 2.295.829 2.295s.446-.765 1.02-2.295l9.113-23.261c.191-.509.32-.829.32-1.146 0-.509-.32-.955-.576-1.975-.829-2.932-1.593-4.972-1.719-4.972h-3.823c-.766 0-1.084 0-1.084-.955 0-.956.255-.956 1.084-.956 1.018 0 5.161.191 7.073.191 1.911 0 6.18-.191 7.646-.191.829 0 .893.062.893 1.146 0 .764-.256.764-1.084.764h-4.079c-.126 0-.191.255-.191.573 0 1.531.956 5.545 1.148 6.309 2.421 8.924 6.627 23.135 7.009 24.472.702 2.168.893 3.314 1.211 3.314.255 0 .573-1.084 1.402-3.186 3.25-8.668 10.516-27.213 10.516-30.463 0-.638-.064-1.02-.573-1.02h-4.143c-.764 0-1.084 0-1.084-.955 0-.956.256-.956 1.084-.956 1.02 0 4.652.191 6.564.191 1.91 0 3.696-.191 4.332-.191.829 0 .893.127.893 1.018 0 .767-.126.893-1.146.893-1.722 0-1.786.32-2.295 1.466L45.438 82.799c-.638 1.594-1.02 1.658-1.722 2.678-1.337 1.912-1.784 3.25-2.613 3.25-1.146 0-1.657-3.633-3.312-8.604-.064-.19-3.188-11.66-5.865-21.028-.318-1.084-.447-1.595-.638-1.595s-.382.573-.764 1.595L21.476 82.8c-.638 1.594-1.02 1.658-1.722 2.678-1.337 1.912-1.784 3.25-2.613 3.25-1.148 0-1.657-3.633-3.314-8.604-.126-.384-9.876-33.395-10.323-33.395h-2.23c-.767 0-1.275 0-1.275-.955 0-.956.446-.956 1.275-.956zm71.472 17.079c6.309 0 9.495 4.778 9.495 10.132 0 .512-2.677.765-3.441.765-.7 0-13.764-.317-14.275-.317-.318 0-.318 1.401-.318 2.294 0 6.818 4.716 10.515 9.495 10.515 5.098 0 8.031-4.143 8.222-4.143s1.02.766 1.02.957c0 .382-4.589 5.989-11.025 5.989-7.84 0-12.171-5.099-12.171-12.554-.002-7.648 5.287-13.638 12.998-13.638zm-7.457 9.495c.32 0 6.82-.126 10.005-.255 2.359-.062 2.55-.127 2.55-.254 0-6.246-3.823-7.584-5.862-7.584-4.208 0-7.202 4.396-7.458 7.584 0 .383.256.509.765.509zm18.916-26.32c3.059-.318 8.73-1.02 9.05-1.02.382 0 .382.573.382.958 0 0-.191 11.789-.191 17.014 0 1.467 0 2.422.062 2.422.191 0 3.632-1.91 6.82-1.91 7.202 0 12.236 5.671 12.236 12.618 0 8.219-6.82 12.809-14.084 12.809-2.294 0-3.888-1.211-5.671-1.211-1.275 0-2.421 1.146-3.124 1.146-.508 0-.764-.253-.764-.828 0-.383.318-8.22.318-12.489 0-2.168-.255-28.169-1.084-28.169-.253 0-3.632.382-3.886.382-.32 0-.384-.064-.384-.382 0-.383.064-1.34.32-1.34zM98.671 86.24c5.991 0 9.303-5.352 9.303-11.025 0-5.671-4.652-10.832-10.196-10.832-2.166 0-4.332 1.273-4.332 1.594 0 6.436-.129 14.975-.129 17.078 0 3.123 3.57 3.185 5.354 3.185zm31.838-.699h4.206c.382 0 .829-23.708.829-34.287 0-2.995-.064-4.972-.127-4.972l-4.46.128c-.575 0-.829 0-.829-.766 0-.764 0-1.02.829-1.02.253 0 2.23.064 4.396.064 4.716 0 10.452-.764 13-.764 13.767 0 24.281 8.222 24.281 21.859 0 13.955-10.579 21.475-21.986 21.604-4.143 0-8.284-.255-12.427-.255-1.784 0-7.393.255-8.093.255-.702 0-.702-.129-.702-.893-.001-.953.255-.953 1.083-.953zm10.387-.064c.382.255 2.357.255 3.632.255 21.413 0 21.668-15.23 21.668-20.775 0-9.05-7.393-19.373-19.183-19.373-1.657 0-4.27 0-5.736.382-.255.064-.447 6.436-.447 9.304-.064 8.795-.064 17.525-.064 26.385.002 2.037.002 3.757.13 3.822zm48.856-23.58c6.309 0 9.494 4.778 9.494 10.132 0 .512-2.677.765-3.441.765-.699 0-13.764-.317-14.275-.317-.317 0-.317 1.401-.317 2.294 0 6.818 4.716 10.515 9.495 10.515 5.098 0 8.03-4.143 8.222-4.143.19 0 1.02.766 1.02.957 0 .382-4.59 5.989-11.025 5.989-7.839 0-12.171-5.099-12.171-12.554-.002-7.648 5.287-13.638 12.998-13.638zm-7.458 9.495c.319 0 6.82-.126 10.006-.255 2.358-.062 2.55-.127 2.55-.254 0-6.246-3.822-7.584-5.862-7.584-4.208 0-7.202 4.396-7.458 7.584-.001.383.255.509.764.509zm23.694 10.134c.383 0 .447.826 1.211 1.72 1.275 1.53 2.867 3.186 5.927 3.186 2.166 0 4.205-1.273 4.205-4.141 0-2.997-2.677-4.398-5.671-5.672-3.506-1.53-7.394-2.806-7.394-7.328 0-4.272 4.651-7.203 9.177-7.203 4.844 0 6.629 2.804 6.629 4.271 0 .699-1.848 1.21-2.55 1.21-1.466 0-.765-4.143-4.907-4.143-2.102 0-4.652 1.148-4.652 4.461 0 2.741 2.551 3.825 5.226 5.098 3.696 1.786 7.903 3.635 7.903 7.394 0 4.651-4.27 7.52-8.985 7.52-3.888 0-8.03-1.975-8.03-3.949-.001-1.022 1.401-2.424 1.911-2.424zm19.17-17.971c.255-.511.19-.447.955-.511 1.211-.064 6.882-.317 7.201-.317.383 0 .447.062.447.381v10.835c0 3.632 0 7.2.19 10.834 0 .573 0 .765.638.765h2.293c.638 0 .702.255.702.828s0 .891-.702.891c-1.211 0-3.759-.126-5.352-.126s-4.461.126-5.672.126c-.701 0-.701-.19-.701-.891 0-.573.064-.828.893-.828h2.612c.7 0 .7-.129.7-.765.064-1.849.064-3.696.064-5.609 0-4.461-.064-8.985-.256-13.638-.062-.955-.191-1.02-.828-1.02-.191 0-2.931.127-3.186.127-.191 0-.256-.062-.256-.254.002-.194.002-.32.258-.828zm6.882-15.169c1.339 0 2.677.702 2.677 2.55 0 2.166-2.104 3.567-3.888 3.567-1.337 0-2.612-.828-2.612-2.612 0-2.294 2.295-3.505 3.823-3.505zm16.816 42.444c.636-.129 1.464-.32 1.464-.382 0-.064-.382-.064-1.337-.064h-3.633c-1.084 0-2.168-.383-2.55-1.211-.509-1.211-.573-2.357-.573-3.06 0-1.146.317-1.848 1.146-2.039 1.595-.382 2.806-.702 4.845-1.275.638-.19 2.422-.637 2.422-.764 0-.064-.573-.127-1.211-.317-4.525-1.34-8.096-4.208-8.096-10.262 0-5.608 5.545-9.497 11.217-9.497 4.907 0 7.584 3.253 7.775 3.253.382 0 2.806-1.084 4.78-1.213.191 0 .573 1.02.573 1.786 0 .253-.064.382-.191.382-.764.062-3.761.638-3.761.891 0 .385.829 1.786.829 4.59 0 5.416-2.804 7.966-7.329 9.686-2.93 1.148-6.756 2.104-11.025 3.314-.19.064-.253.32-.253.573 0 .767.635 1.849.891 1.913 8.095.511 21.096-.318 21.096 7.901 0 6.5-5.801 10.579-14.022 10.579-5.289 0-11.789-2.357-11.789-7.456 0-4.395 5.671-6.69 8.732-7.328zm2.995 13.129c4.778 0 10.452-1.786 10.452-7.393 0-3.697-6.438-5.099-11.09-5.099-3.059 0-8.222 2.039-8.222 6.244 0 4.209 5.036 6.248 8.86 6.248zm.508-22.879c2.551 0 6.247-3.761 6.247-9.497 0-5.034-2.485-8.028-6.373-8.028-3.633 0-6.82 3.441-6.82 7.646 0 6.246 5.354 9.879 6.946 9.879zm15.791-17.272c.19-.509.062-.444.955-.509.893-.064 4.907-.319 6.69-.446.956-.064.829.064.829.702v2.675c0 .575.638-.127.955-.317 1.913-1.211 4.27-3.25 8.157-3.25 7.394 0 8.478 5.033 8.478 11.28 0 3.505-.32 9.877-.32 10.834 0 .7.064.765.702.765h1.913c.764 0 .891.064.891.828 0 .573 0 .891-.765.891-1.21 0-2.932-.126-4.78-.126-1.593 0-3.503.126-5.416.126-.893 0-.893-.126-.893-.828 0-.765.19-.891.828-.891h2.359c.638 0 .638 0 .699-.702.129-1.528.256-4.461.256-11.217 0-4.587-1.211-8.283-6.118-8.283-2.548 0-4.396 1.146-5.671 1.783-1.02.511-1.148.894-1.148 1.467 0 5.225-.062 10.514-.062 15.741 0 1.02 0 1.211.828 1.211h2.293c.767 0 .828.255.828.828s0 .891-.828.891c-1.211 0-3.312-.126-5.16-.126-1.593 0-3.697.126-5.609.126-.829 0-.829-.19-.829-.891 0-.573.129-.828.767-.828h2.483c.638 0 .575-.191.638-1.148.191-3.759.32-8.284.32-12.363 0-2.166 0-4.334-.129-6.309-.062-.955-.127-.894-.765-.894-.19 0-3.25.256-3.505.256-.191 0-.191-.064-.191-.256 0-.191.191-.7.32-1.02zm52.746 3.47l-6.42 3.297 4.032 3.634-1.455 4.274-7.375-6.642.066-.2 11.718-5.985-.566 1.622zm-.21 13.707l8.653-17.283h2.41l-8.642 17.283h-2.421zm11.585-4.11l6.432-3.301-4.043-3.644 1.478-4.274 7.364 6.643-.067.209-11.718 5.976.554-1.609z" fill="#FFF"/></svg>