<?xml version="1.0" encoding="utf-8"?>
<!-- Generator: Adobe Illustrator 16.2.1, SVG Export Plug-In . SVG Version: 6.00 Build 0)  -->
<!DOCTYPE svg PUBLIC "-//W3C//DTD SVG 1.1//EN" "http://www.w3.org/Graphics/SVG/1.1/DTD/svg11.dtd">
<svg version="1.1" id="Layer_1" xmlns="http://www.w3.org/2000/svg" xmlns:xlink="http://www.w3.org/1999/xlink" x="0px" y="0px"
	 width="344px" height="106px" viewBox="0 0 344 106" enable-background="new 0 0 344 106" xml:space="preserve">
<g>
	<path fill="#FFFFFF" d="M0.048,29.869c0-0.311,0.06-0.5,0.178-0.566c0.12-0.067,0.378-0.1,0.777-0.1h1.444
		c0.237-0.282,1.415-2.244,3.532-5.887c2.119-3.644,4.44-7.602,6.964-11.876c2.526-4.274,4.308-7.182,5.343-8.72
		c0.12-0.162,0.453-0.533,1-1.108c0.548-0.578,0.971-1.148,1.266-1.71c0.238-0.489,0.511-0.733,0.822-0.733
		c0.207,0,0.374,0.06,0.504,0.178c0.133,0.12,0.211,0.231,0.235,0.333c0.024,0.104,0.044,0.253,0.06,0.444
		c0.1,0.504,0.373,2.086,0.827,4.743c0.451,2.655,0.871,5.136,1.264,7.442c0.391,2.306,0.813,4.785,1.262,7.434
		c0.451,2.65,0.842,4.825,1.175,6.529c0.333,1.704,0.566,2.681,0.7,2.932h1.866c0.267,0,0.436,0.044,0.511,0.133
		c0.074,0.089,0.111,0.282,0.111,0.578c0,0.371-0.038,0.615-0.111,0.733c-0.075,0.117-0.244,0.178-0.511,0.178
		c-0.178,0-0.782-0.022-1.811-0.067c-1.031-0.044-1.797-0.067-2.301-0.067c-0.476,0-1.362,0.022-2.659,0.067
		s-2.11,0.067-2.435,0.067c-0.312,0-0.511-0.061-0.6-0.178c-0.089-0.118-0.133-0.378-0.133-0.778c0-0.311,0.058-0.5,0.178-0.566
		c0.118-0.067,0.378-0.1,0.777-0.1h2.555v-0.377c0-0.711-0.227-2.526-0.677-5.447c-0.449-2.921-0.682-4.505-0.698-4.75
		c-0.044-0.366-0.089-0.58-0.133-0.642c-0.044-0.06-0.162-0.091-0.355-0.091h-8.775c-0.222,0-0.366,0.006-0.433,0.022
		c-0.066,0.016-0.135,0.06-0.211,0.133c-0.073,0.076-0.162,0.215-0.267,0.422c-3.523,6.633-5.36,10.21-5.509,10.729h2.999
		c0.267,0,0.442,0.049,0.522,0.145c0.083,0.096,0.122,0.284,0.122,0.566c0,0.355-0.04,0.595-0.122,0.722
		c-0.08,0.126-0.255,0.189-0.522,0.189s-0.913-0.022-1.944-0.067c-1.028-0.044-1.928-0.067-2.699-0.067
		c-0.518,0-1.177,0.022-1.977,0.067s-1.257,0.067-1.377,0.067c-0.312,0-0.511-0.061-0.6-0.178
		C0.092,30.528,0.048,30.269,0.048,29.869z M12.426,16.406c0,0.089,0.222,0.134,0.667,0.134h7.516c0.275,0,0.413-0.029,0.413-0.089
		c0-0.309-0.295-2.382-0.886-6.218c-0.593-3.836-0.917-5.756-0.978-5.756c-0.016,0-0.496,0.84-1.444,2.521
		c-0.948,1.682-1.97,3.483-3.065,5.409c-1.095,1.926-1.733,3.043-1.911,3.354C12.53,16.118,12.426,16.333,12.426,16.406z"/>
	<path fill="#FFFFFF" d="M31.664,27.181c0-0.82,0.129-1.806,0.387-2.961c0.257-1.155,0.666-2.382,1.226-3.679
		c0.56-1.295,1.215-2.495,1.968-3.599c0.751-1.102,1.68-2.02,2.786-2.75c1.104-0.73,2.275-1.095,3.515-1.095
		c0.417,0,0.815,0.026,1.197,0.084c0.38,0.054,0.715,0.129,1.006,0.225s0.531,0.182,0.717,0.262
		c0.187,0.078,0.378,0.173,0.571,0.284c0.193,0.111,0.297,0.167,0.313,0.167c0.253,0.145,0.438,0.205,0.549,0.183
		c0.111-0.022,0.198-0.176,0.258-0.46c0.18-0.938,0.406-2.324,0.682-4.156c0.278-1.833,0.516-3.468,0.718-4.905
		s0.302-2.164,0.302-2.179c0.06-0.238,0.055-0.409-0.011-0.513c-0.067-0.104-0.146-0.145-0.238-0.12
		c-0.093,0.024-0.155,0.04-0.185,0.047c-0.229,0.062-0.662,0.175-1.297,0.342c-0.637,0.169-1.177,0.311-1.622,0.429
		c-0.444,0.116-0.704,0.173-0.78,0.173c-0.222,0-0.333-0.162-0.333-0.489c0-0.155,0.022-0.34,0.066-0.553
		c0.016-0.256,0.056-0.418,0.12-0.489c0.066-0.071,0.189-0.128,0.369-0.171c1.164-0.289,2.322-0.578,3.472-0.864
		c1.151-0.284,2.017-0.502,2.599-0.648c0.584-0.146,0.916-0.22,0.991-0.22c0.447,0,0.669,0.273,0.669,0.817
		c0,0.118-0.777,4.503-2.333,13.153s-2.333,13.427-2.333,14.331c0,0.371,0.155,0.555,0.464,0.555c0.353,0,0.864-0.282,1.526-0.844
		c0.664-0.562,1.262-1.126,1.793-1.688c0.531-0.562,0.811-0.844,0.84-0.844c0.104,0,0.235,0.071,0.397,0.211
		c0.162,0.14,0.244,0.255,0.244,0.344c0,0.073-0.129,0.295-0.389,0.667s-0.633,0.826-1.122,1.366
		c-0.489,0.54-1.029,1.066-1.622,1.577c-0.593,0.511-1.271,0.944-2.033,1.3c-0.762,0.355-1.499,0.533-2.21,0.533
		c-0.4,0-0.727-0.155-0.978-0.466s-0.378-0.727-0.378-1.244c0-1.184,0.544-4.036,1.633-8.553c-1.428,2.384-2.624,4.199-3.587,5.443
		c-0.433,0.578-0.738,0.977-0.916,1.2c-0.178,0.222-0.466,0.571-0.869,1.044c-0.402,0.473-0.735,0.811-1.004,1.011
		c-0.267,0.2-0.604,0.438-1.013,0.711c-0.409,0.273-0.819,0.462-1.237,0.566c-0.415,0.104-0.853,0.155-1.315,0.155
		c-0.218,0-0.44-0.016-0.665-0.044c-0.227-0.029-0.524-0.116-0.895-0.256c-0.371-0.14-0.693-0.329-0.971-0.566
		c-0.275-0.238-0.52-0.6-0.731-1.088S31.664,27.847,31.664,27.181z M34.885,25.915c0,0.844,0.149,1.459,0.444,1.844
		c0.297,0.384,0.802,0.578,1.515,0.578c1.264,0,3.33-2.11,6.198-6.331c1.62-2.371,2.43-4.132,2.43-5.287
		c0-0.385-0.424-0.86-1.273-1.422c-0.848-0.562-1.732-0.844-2.654-0.844c-0.907,0-1.795,0.438-2.662,1.311
		c-0.869,0.873-1.582,1.928-2.139,3.166c-0.555,1.237-1.006,2.493-1.346,3.766C35.056,23.966,34.885,25.042,34.885,25.915z"/>
	<path fill="#FFFFFF" d="M52.479,16.962c0-0.222,0.317-0.685,0.955-1.389s1.393-1.377,2.266-2.021
		c0.873-0.644,1.577-0.966,2.11-0.966c0.711,0,1.362,0.156,1.955,0.466c0.755,0.429,1.255,0.773,1.5,1.033
		c0.245,0.26,0.367,0.64,0.367,1.144c0,1.171-0.195,3.148-0.589,5.931c-0.393,2.784-0.588,4.399-0.588,4.843
		c0,0.295,0.207,0.622,0.618,0.977c0.413,0.355,0.688,0.533,0.826,0.533c0.397,0,0.715-0.155,0.951-0.466
		c0.044-0.044,0.518-0.667,1.417-1.866c0.562-0.756,0.982-1.329,1.264-1.722c0.28-0.394,0.667-0.984,1.162-1.777
		c0.496-0.793,0.871-1.478,1.128-2.055c0.26-0.578,0.496-1.244,0.709-2c0.215-0.755,0.322-1.466,0.322-2.133
		c0-0.651-0.082-1.095-0.247-1.333c-0.162-0.238-0.402-0.355-0.715-0.355c-0.313,0-0.671,0.038-1.068,0.111
		c-0.4,0.073-0.744,0.145-1.038,0.211c-0.291,0.067-0.451,0.1-0.479,0.1c-0.116,0-0.211-0.082-0.289-0.244
		c-0.078-0.163-0.118-0.371-0.118-0.622c0-0.238,0.593-0.493,1.777-0.767s2.126-0.411,2.821-0.411c0.622,0,1.104,0.133,1.444,0.4
		s0.511,0.784,0.511,1.555c0,1.037-0.2,2.126-0.6,3.266s-0.986,2.314-1.757,3.521c-0.771,1.206-1.521,2.295-2.252,3.266
		c-0.733,0.971-1.613,2.099-2.641,3.388c-0.325,0.4-0.56,0.695-0.709,0.889c-0.309,0.4-0.642,0.895-0.995,1.488
		c-0.207,0.34-0.393,0.584-0.558,0.733c-0.167,0.149-0.391,0.222-0.675,0.222c-0.473,0-1.122-0.333-1.948-1
		c-0.693-0.549-1.168-1.06-1.428-1.533c-0.258-0.473-0.387-1.222-0.387-2.244c0-0.533,0.151-2.088,0.455-4.665
		c0.305-2.577,0.456-4.383,0.456-5.421c0-0.429-0.14-0.733-0.422-0.911c-0.384-0.251-0.718-0.377-1-0.377
		c-0.429,0-0.918,0.24-1.466,0.722c-0.549,0.482-1.026,0.967-1.433,1.455c-0.406,0.489-0.64,0.733-0.7,0.733
		c-0.178,0-0.373-0.082-0.588-0.245C52.586,17.266,52.479,17.111,52.479,16.962z"/>
	<path fill="#FFFFFF" d="M74.983,29.626c-1.111-0.857-1.666-2.132-1.666-3.823c0-1.688,0.302-3.341,0.906-4.954
		c0.604-1.615,1.413-3.023,2.424-4.228c1.008-1.204,2.21-2.17,3.605-2.899c1.393-0.729,2.828-1.093,4.303-1.093
		c0.531,0,1.028,0.044,1.493,0.133s0.924,0.242,1.382,0.464c0.458,0.22,0.817,0.544,1.084,0.971
		c0.264,0.427,0.397,0.942,0.397,1.546c0,1.346-0.544,2.555-1.633,3.63s-2.439,1.919-4.054,2.532
		c-1.955,0.731-4.109,1.098-6.464,1.098c-0.029,0-0.062,0.089-0.1,0.264c-0.038,0.176-0.066,0.42-0.089,0.729
		c-0.022,0.309-0.033,0.625-0.033,0.946c0,2.588,1.415,3.881,4.243,3.881c0.968,0,1.939-0.207,2.915-0.622s1.764-0.867,2.366-1.355
		c0.604-0.489,1.144-0.94,1.62-1.355c0.478-0.415,0.766-0.622,0.871-0.622c0.18,0,0.347,0.094,0.502,0.278
		c0.158,0.185,0.236,0.351,0.236,0.5c0,0.089-0.171,0.318-0.511,0.688c-0.34,0.371-0.837,0.811-1.488,1.322s-1.377,1.011-2.177,1.5
		c-0.799,0.489-1.732,0.904-2.799,1.244s-2.11,0.511-3.132,0.511C77.493,30.913,76.094,30.484,74.983,29.626z M77.207,21.449
		c0,0.133,0.111,0.2,0.333,0.2c2.212,0,4.123-0.547,5.733-1.638c1.611-1.09,2.417-2.528,2.417-4.312c0-0.52-0.198-0.936-0.591-1.246
		c-0.393-0.313-0.909-0.469-1.546-0.469c-2.435,0-4.336,1.819-5.703,5.458C77.422,20.559,77.207,21.227,77.207,21.449z"/>
	<path fill="#FFFFFF" d="M90.467,17.495c0-0.118,0.46-0.549,1.377-1.289s2.037-1.484,3.354-2.232
		c1.317-0.749,2.392-1.122,3.221-1.122c0.267,0,0.515,0.089,0.744,0.267c0.229,0.178,0.344,0.451,0.344,0.822
		c0,0.416-0.036,0.9-0.107,1.455c-0.071,0.556-0.146,1.056-0.224,1.5c-0.08,0.444-0.207,1.06-0.387,1.844
		c-0.178,0.784-0.315,1.366-0.416,1.744c-0.1,0.377-0.269,1.029-0.504,1.955s-0.389,1.521-0.46,1.788
		c2.106-3.688,4.041-6.504,5.8-8.453c1.762-1.948,3.474-2.921,5.138-2.921c0.949,0,1.595,0.218,1.944,0.655
		c0.349,0.438,0.522,0.938,0.522,1.5c0,0.695-0.293,1.993-0.884,3.888c-0.587,1.895-1.178,3.706-1.764,5.432
		c-0.591,1.726-0.884,2.743-0.884,3.055c0,0.504,0.251,0.755,0.755,0.755c0.371,0,0.889-0.284,1.555-0.855s1.25-1.144,1.755-1.722
		l0.777-0.867c0.074,0,0.207,0.096,0.4,0.289c0.193,0.193,0.289,0.34,0.289,0.444c0,0.118-0.233,0.449-0.7,0.988
		c-0.469,0.54-1.04,1.129-1.713,1.766c-0.675,0.638-1.484,1.207-2.426,1.71c-0.942,0.504-1.806,0.756-2.593,0.756
		c-0.484,0-0.866-0.189-1.146-0.567c-0.28-0.377-0.42-0.855-0.42-1.433c0-0.889,0.604-2.95,1.811-6.187
		c1.206-3.237,1.811-5.313,1.811-6.231c0-0.34-0.076-0.622-0.227-0.844c-0.151-0.222-0.362-0.333-0.635-0.333
		c-0.484,0-1.237,0.551-2.264,1.655s-2.021,2.337-2.988,3.699c-0.968,1.362-1.861,2.717-2.681,4.065
		c-0.704,1.11-1.362,2.792-1.977,5.042c-0.016,0.029-0.038,0.107-0.067,0.233s-0.058,0.233-0.086,0.322s-0.071,0.193-0.129,0.312
		c-0.058,0.117-0.129,0.211-0.213,0.277c-0.086,0.067-0.188,0.106-0.306,0.122c-1.215,0.118-1.939,0.178-2.177,0.178
		c-0.149,0-0.255-0.066-0.322-0.2c-0.066-0.133-0.084-0.273-0.056-0.422c1.822-7.493,2.732-12.211,2.732-14.15
		c0-0.46-0.151-0.689-0.455-0.689s-0.797,0.245-1.479,0.733c-0.682,0.489-1.315,0.973-1.899,1.455
		c-0.584,0.482-0.893,0.722-0.922,0.722c-0.153,0-0.327-0.089-0.524-0.267S90.467,17.746,90.467,17.495z"/>
	<path fill="#FFFFFF" d="M114.925,14.812c0-0.044,0.007-0.182,0.022-0.416c0.016-0.235,0.022-0.38,0.022-0.44
		c0-0.086,0.04-0.182,0.122-0.284c0.083-0.102,0.205-0.153,0.367-0.153h2.777c0.162,0,0.26-0.024,0.289-0.071
		c0.016-0.033,0.038-0.104,0.067-0.218c0.351-2.015,0.591-3.534,0.722-4.556c0.045-0.311,0.127-0.529,0.245-0.653
		c0.12-0.127,0.357-0.211,0.713-0.256c0.18-0.028,0.498-0.044,0.96-0.044h0.333c0.729,0,1.093,0.133,1.093,0.402
		c0.162,0.049,0.164,0.44,0.004,1.171c-0.16,0.733-0.329,1.51-0.511,2.337c-0.18,0.824-0.297,1.362-0.351,1.606
		c-0.198,0.189-0.171,0.282,0.08,0.282h3.466c0.326,0,0.459,0.169,0.4,0.504c-0.089,0.744-0.289,1.117-0.6,1.117h-3.532
		c-0.222,0-0.349,0.118-0.377,0.355c-0.34,1.851-0.738,4.132-1.188,6.842c-0.451,2.71-0.678,4.161-0.678,4.354
		c0,0.162,0.007,0.293,0.022,0.389c0.016,0.096,0.082,0.193,0.2,0.289c0.118,0.095,0.289,0.144,0.511,0.144
		c0.295,0,0.849-0.351,1.655-1.055c0.806-0.705,1.555-1.404,2.244-2.1s1.04-1.044,1.055-1.044c0.073,0,0.222,0.1,0.444,0.3
		s0.333,0.344,0.333,0.433c0,0.06-0.196,0.327-0.589,0.8s-0.906,1.038-1.544,1.688s-1.315,1.299-2.033,1.944
		c-0.717,0.644-1.459,1.188-2.221,1.633c-0.762,0.444-1.411,0.666-1.944,0.666c-1.155,0-1.732-0.562-1.732-1.688
		c0-0.311,0.404-2.639,1.21-6.987c0.807-4.347,1.211-6.549,1.211-6.609c0-0.207-0.029-0.318-0.089-0.333
		c-0.044-0.016-0.104-0.022-0.178-0.022h-2.51C115.087,15.14,114.925,15.031,114.925,14.812z"/>
	<path fill="#FFFFFF" d="M126.921,18.917c0-0.045,0.104-0.229,0.311-0.556s0.506-0.751,0.899-1.277
		c0.394-0.526,0.789-1.026,1.188-1.5c0.355-0.429,0.66-0.777,0.911-1.044s0.584-0.566,1-0.9c0.416-0.333,0.851-0.584,1.311-0.755
		c0.46-0.171,0.949-0.255,1.466-0.255c0.695,0,1.311,0.151,1.844,0.456s0.8,0.744,0.8,1.322c0,0.415-0.484,2.437-1.455,6.064
		c-0.971,3.628-1.455,5.82-1.455,6.576c0,0.606,0.378,0.911,1.133,0.911c0.958,0,2.255-1.162,3.89-3.487
		c0.944-1.377,1.828-2.881,2.652-4.51c0.827-1.628,1.453-3.132,1.879-4.51c0.191-0.651,0.369-1.473,0.531-2.466
		c0.06-0.178,0.169-0.282,0.331-0.311c0.795-0.178,1.575-0.267,2.339-0.267c0.278,0,0.417,0.178,0.417,0.533
		c0,0.178-0.416,2.404-1.244,6.676c-0.829,4.272-1.244,6.571-1.244,6.897c0,0.667,0.247,1,0.74,1c0.313,0,0.773-0.344,1.377-1.033
		c0.604-0.689,1.155-1.382,1.648-2.077c0.491-0.695,0.753-1.044,0.784-1.044c0.073,0,0.189,0.055,0.347,0.167
		s0.235,0.195,0.235,0.255c0,0.118-0.211,0.533-0.633,1.244c-0.422,0.711-0.94,1.493-1.555,2.344
		c-0.615,0.851-1.333,1.617-2.155,2.299c-0.822,0.682-1.566,1.021-2.233,1.021c-0.444,0-0.828-0.126-1.155-0.377
		s-0.489-0.578-0.489-0.978c0-0.504,0.126-1.384,0.382-2.644c0.256-1.259,0.56-2.695,0.917-4.31
		c0.355-1.615,0.606-2.828,0.751-3.643c-1.078,2.192-1.984,3.843-2.721,4.954c-3.13,4.814-5.787,7.22-7.971,7.22
		c-1.762,0-2.644-0.682-2.644-2.043c0-0.355,0.462-2.271,1.388-5.743s1.389-5.771,1.389-6.898c0-0.784-0.26-1.177-0.778-1.177
		c-0.326,0-0.837,0.374-1.533,1.122s-1.329,1.495-1.899,2.244s-0.871,1.122-0.899,1.122c-0.104,0-0.262-0.074-0.478-0.223
		C127.028,19.168,126.921,19.035,126.921,18.917z"/>
	<path fill="#FFFFFF" d="M151.024,17.317c0-0.178,0.349-0.622,1.044-1.333s1.548-1.411,2.555-2.099
		c1.006-0.689,1.837-1.033,2.488-1.033c0.638,0,0.955,0.349,0.955,1.044c0,0.488-0.377,3.021-1.133,7.597
		c1.229-3.272,2.11-5.392,2.644-6.354c0.949-1.733,2.088-2.599,3.421-2.599c0.578,0,1.1,0.16,1.566,0.478
		c0.466,0.318,0.7,0.751,0.7,1.3c0,0.473-0.089,0.895-0.267,1.266s-0.466,0.555-0.866,0.555c-0.384,0-0.833-0.138-1.344-0.411
		c-0.511-0.273-0.899-0.411-1.166-0.411c-0.371,0-0.705,0.245-1,0.733c-0.695,1.066-1.562,2.948-2.599,5.643
		c-0.104,0.282-0.267,0.851-0.489,1.711c-0.267,1.082-0.555,2.37-0.866,3.865s-0.526,2.504-0.644,3.021
		c-0.044,0.193-0.378,0.337-1,0.433c-0.622,0.095-1.117,0.144-1.488,0.144c-0.4,0-0.6-0.104-0.6-0.311
		c0-0.074,0.182-1.049,0.544-2.921c0.362-1.873,0.727-3.888,1.089-6.042c0.362-2.155,0.544-3.61,0.544-4.365
		c0-1.066-0.149-1.6-0.444-1.6c-0.311,0-0.706,0.2-1.188,0.6c-0.482,0.4-0.911,0.795-1.288,1.188
		c-0.378,0.394-0.596,0.589-0.656,0.589c-0.06,0-0.16-0.082-0.3-0.244C151.096,17.6,151.024,17.451,151.024,17.317z"/>
	<path fill="#FFFFFF" d="M166.575,24.299c0-2.21,0.456-4.228,1.366-6.044c0.911-1.819,2.182-3.257,3.81-4.31
		c1.628-1.056,3.45-1.582,5.465-1.582c0.927,0,1.769,0.167,2.526,0.502c0.757,0.336,1.367,0.76,1.83,1.273
		c0.464,0.513,0.854,1.109,1.17,1.786c0.316,0.678,0.536,1.335,0.662,1.975c0.125,0.64,0.188,1.266,0.188,1.875
		c0,1.861-0.465,3.659-1.394,5.392c-0.931,1.735-2.212,3.152-3.85,4.252s-3.392,1.65-5.265,1.65c-2.073,0-3.677-0.66-4.81-1.979
		C167.141,27.77,166.575,26.172,166.575,24.299z M169.663,23.946c0,0.429,0.007,0.802,0.022,1.12
		c0.015,0.318,0.055,0.729,0.122,1.23c0.066,0.504,0.178,0.933,0.333,1.287c0.156,0.355,0.355,0.706,0.6,1.055
		c0.244,0.347,0.573,0.613,0.988,0.798c0.416,0.185,0.896,0.277,1.444,0.277c1.021,0,2.006-0.417,2.954-1.253
		c0.949-0.835,1.729-1.868,2.344-3.094c0.615-1.229,1.106-2.508,1.478-3.839s0.556-2.521,0.556-3.572
		c0-0.458-0.051-0.904-0.156-1.342c-0.104-0.436-0.281-0.884-0.533-1.342c-0.25-0.458-0.644-0.831-1.177-1.12
		c-0.533-0.289-1.171-0.433-1.911-0.433c-1.11,0-2.228,0.577-3.354,1.73c-1.127,1.153-2.026,2.528-2.7,4.125
		C170,21.171,169.663,22.629,169.663,23.946z"/>
	<path fill="#FFFFFF" d="M185.191,18.917c0-0.045,0.104-0.229,0.311-0.556s0.506-0.751,0.899-1.277s0.789-1.026,1.188-1.5
		c0.355-0.429,0.66-0.777,0.911-1.044s0.584-0.566,0.999-0.9c0.416-0.333,0.852-0.584,1.311-0.755
		c0.461-0.171,0.949-0.255,1.467-0.255c0.695,0,1.311,0.151,1.844,0.456s0.8,0.744,0.8,1.322c0,0.415-0.484,2.437-1.455,6.064
		c-0.971,3.628-1.455,5.82-1.455,6.576c0,0.606,0.378,0.911,1.133,0.911c0.958,0,2.255-1.162,3.89-3.487
		c0.944-1.377,1.828-2.881,2.652-4.51c0.827-1.628,1.453-3.132,1.88-4.51c0.19-0.651,0.368-1.473,0.53-2.466
		c0.061-0.178,0.17-0.282,0.332-0.311c0.795-0.178,1.574-0.267,2.339-0.267c0.278,0,0.417,0.178,0.417,0.533
		c0,0.178-0.415,2.404-1.243,6.676c-0.829,4.272-1.244,6.571-1.244,6.897c0,0.667,0.247,1,0.739,1c0.313,0,0.773-0.344,1.378-1.033
		c0.604-0.689,1.155-1.382,1.647-2.077s0.754-1.044,0.785-1.044c0.073,0,0.188,0.055,0.346,0.167
		c0.158,0.111,0.236,0.195,0.236,0.255c0,0.118-0.211,0.533-0.633,1.244c-0.423,0.711-0.94,1.493-1.556,2.344
		c-0.615,0.851-1.333,1.617-2.155,2.299c-0.821,0.682-1.566,1.021-2.232,1.021c-0.444,0-0.828-0.126-1.154-0.377
		c-0.327-0.251-0.489-0.578-0.489-0.978c0-0.504,0.126-1.384,0.382-2.644c0.256-1.259,0.561-2.695,0.918-4.31
		c0.355-1.615,0.605-2.828,0.75-3.643c-1.077,2.192-1.983,3.843-2.721,4.954c-3.131,4.814-5.787,7.22-7.971,7.22
		c-1.762,0-2.644-0.682-2.644-2.043c0-0.355,0.462-2.271,1.388-5.743c0.927-3.472,1.389-5.771,1.389-6.898
		c0-0.784-0.26-1.177-0.777-1.177c-0.326,0-0.838,0.374-1.533,1.122s-1.328,1.495-1.898,2.244c-0.571,0.749-0.871,1.122-0.9,1.122
		c-0.104,0-0.262-0.074-0.477-0.223C185.297,19.168,185.191,19.035,185.191,18.917z"/>
	<path fill="#FFFFFF" d="M209.129,27.78c0-0.371,0.141-0.673,0.423-0.911c0.28-0.238,0.546-0.355,0.8-0.355
		c0.146,0,0.279,0.007,0.4,0.022c0.117,0.013,0.239,0.046,0.365,0.098c0.127,0.051,0.223,0.091,0.289,0.12
		c0.066,0.029,0.158,0.094,0.277,0.193c0.118,0.103,0.191,0.167,0.223,0.196c0.029,0.031,0.115,0.113,0.256,0.251
		c0.14,0.138,0.217,0.213,0.232,0.227c0.134,0.131,0.325,0.322,0.578,0.578c0.251,0.253,0.427,0.426,0.521,0.52
		c0.099,0.096,0.238,0.211,0.425,0.349c0.187,0.135,0.36,0.227,0.524,0.271c0.162,0.042,0.349,0.064,0.558,0.064
		c0.868,0,1.597-0.296,2.184-0.884c0.591-0.591,0.884-1.357,0.884-2.301c0-0.471-0.224-0.973-0.673-1.504
		c-0.448-0.531-0.991-1.047-1.622-1.549c-0.633-0.502-1.274-1.021-1.921-1.56c-0.649-0.54-1.2-1.15-1.655-1.837
		s-0.682-1.391-0.682-2.113c0-1.461,0.606-2.723,1.821-3.785c1.216-1.064,2.646-1.595,4.29-1.595c0.764,0,1.439,0.089,2.023,0.267
		c0.586,0.178,1.033,0.387,1.344,0.631c0.312,0.245,0.561,0.52,0.744,0.831c0.188,0.311,0.305,0.568,0.355,0.775
		c0.054,0.207,0.078,0.384,0.078,0.531c0,0.282-0.091,0.502-0.277,0.664c-0.185,0.163-0.411,0.245-0.678,0.245
		c-0.946,0-1.725-0.562-2.332-1.682c-0.147-0.28-0.266-0.484-0.354-0.609c-0.087-0.125-0.214-0.242-0.373-0.353
		c-0.162-0.111-0.354-0.167-0.576-0.167c-0.793,0-1.488,0.213-2.086,0.642c-0.596,0.427-0.893,1.12-0.893,2.08
		c0,0.633,0.162,1.229,0.486,1.781c0.322,0.554,0.727,1.018,1.213,1.393s1.011,0.787,1.577,1.229s1.093,0.877,1.577,1.304
		c0.486,0.429,0.891,0.971,1.215,1.626c0.322,0.658,0.484,1.384,0.484,2.179c0,1.406-0.6,2.637-1.799,3.69
		c-1.197,1.055-2.621,1.582-4.268,1.582c-1.413,0-2.757-0.329-4.039-0.988C209.77,29.265,209.129,28.551,209.129,27.78z"/>
</g>
<g>
	<path fill="#FFFFFF" d="M1.274,44.818c1.02,0,4.014,0.191,5.927,0.191c1.91,0,5.16-0.191,6.626-0.191
		c0.829,0,0.893,0.062,0.893,1.146c0,0.764-0.129,0.764-1.148,0.764h-3.186c-0.126,0-0.638,0-0.638,0.573
		c0,0.32,1.531,5.674,1.722,6.309c2.739,9.306,7.329,23.199,7.711,24.472c0.509,1.53,0.638,2.295,0.829,2.295
		s0.446-0.765,1.02-2.295l9.113-23.261c0.191-0.509,0.32-0.829,0.32-1.146c0-0.509-0.32-0.955-0.576-1.975
		c-0.829-2.932-1.593-4.972-1.719-4.972h-3.823c-0.766,0-1.084,0-1.084-0.955c0-0.956,0.255-0.956,1.084-0.956
		c1.018,0,5.161,0.191,7.073,0.191c1.911,0,6.18-0.191,7.646-0.191c0.829,0,0.893,0.062,0.893,1.146
		c0,0.764-0.256,0.764-1.084,0.764h-4.079c-0.126,0-0.191,0.255-0.191,0.573c0,1.531,0.956,5.545,1.148,6.309
		c2.421,8.924,6.627,23.135,7.009,24.472c0.702,2.168,0.893,3.314,1.211,3.314c0.255,0,0.573-1.084,1.402-3.186
		c3.25-8.668,10.516-27.213,10.516-30.463c0-0.638-0.064-1.02-0.573-1.02h-4.143c-0.764,0-1.084,0-1.084-0.955
		c0-0.956,0.256-0.956,1.084-0.956c1.02,0,4.652,0.191,6.564,0.191c1.91,0,3.696-0.191,4.332-0.191c0.829,0,0.893,0.127,0.893,1.018
		c0,0.767-0.126,0.893-1.146,0.893c-1.722,0-1.786,0.32-2.295,1.466L45.438,82.799c-0.638,1.594-1.02,1.658-1.722,2.678
		c-1.337,1.912-1.784,3.25-2.613,3.25c-1.146,0-1.657-3.633-3.312-8.604c-0.064-0.19-3.188-11.66-5.865-21.028
		c-0.318-1.084-0.447-1.595-0.638-1.595s-0.382,0.573-0.764,1.595l-9.048,23.705c-0.638,1.594-1.02,1.658-1.722,2.678
		c-1.337,1.912-1.784,3.25-2.613,3.25c-1.148,0-1.657-3.633-3.314-8.604C13.701,79.74,3.951,46.729,3.504,46.729h-2.23
		c-0.767,0-1.275,0-1.275-0.955C-0.001,44.818,0.445,44.818,1.274,44.818z"/>
	<path fill="#FFFFFF" d="M72.746,61.897c6.309,0,9.495,4.778,9.495,10.132c0,0.512-2.677,0.765-3.441,0.765
		c-0.7,0-13.764-0.317-14.275-0.317c-0.318,0-0.318,1.401-0.318,2.294c0,6.818,4.716,10.515,9.495,10.515
		c5.098,0,8.031-4.143,8.222-4.143s1.02,0.766,1.02,0.957c0,0.382-4.589,5.989-11.025,5.989c-7.84,0-12.171-5.099-12.171-12.554
		C59.746,67.887,65.035,61.897,72.746,61.897z M65.289,71.392c0.32,0,6.82-0.126,10.005-0.255c2.359-0.062,2.55-0.127,2.55-0.254
		c0-6.246-3.823-7.584-5.862-7.584c-4.208,0-7.202,4.396-7.458,7.584C64.524,71.266,64.78,71.392,65.289,71.392z"/>
	<path fill="#FFFFFF" d="M84.205,45.072c3.059-0.318,8.73-1.02,9.05-1.02c0.382,0,0.382,0.573,0.382,0.958
		c0,0-0.191,11.789-0.191,17.014c0,1.467,0,2.422,0.062,2.422c0.191,0,3.632-1.91,6.82-1.91c7.202,0,12.236,5.671,12.236,12.618
		c0,8.219-6.82,12.809-14.084,12.809c-2.294,0-3.888-1.211-5.671-1.211c-1.275,0-2.421,1.146-3.124,1.146
		c-0.508,0-0.764-0.253-0.764-0.828c0-0.383,0.318-8.22,0.318-12.489c0-2.168-0.255-28.169-1.084-28.169
		c-0.253,0-3.632,0.382-3.886,0.382c-0.32,0-0.384-0.064-0.384-0.382C83.885,46.029,83.949,45.072,84.205,45.072z M98.671,86.24
		c5.991,0,9.303-5.352,9.303-11.025c0-5.671-4.652-10.832-10.196-10.832c-2.166,0-4.332,1.273-4.332,1.594
		c0,6.436-0.129,14.975-0.129,17.078C93.317,86.178,96.887,86.24,98.671,86.24z"/>
	<path fill="#FFFFFF" d="M130.509,85.541h4.206c0.382,0,0.829-23.708,0.829-34.287c0-2.995-0.064-4.972-0.127-4.972l-4.46,0.128
		c-0.575,0-0.829,0-0.829-0.766c0-0.764,0-1.02,0.829-1.02c0.253,0,2.23,0.064,4.396,0.064c4.716,0,10.452-0.764,13-0.764
		c13.767,0,24.281,8.222,24.281,21.859c0,13.955-10.579,21.475-21.986,21.604c-4.143,0-8.284-0.255-12.427-0.255
		c-1.784,0-7.393,0.255-8.093,0.255c-0.702,0-0.702-0.129-0.702-0.893C129.425,85.541,129.681,85.541,130.509,85.541z
		 M140.896,85.477c0.382,0.255,2.357,0.255,3.632,0.255c21.413,0,21.668-15.23,21.668-20.775c0-9.05-7.393-19.373-19.183-19.373
		c-1.657,0-4.27,0-5.736,0.382c-0.255,0.064-0.447,6.436-0.447,9.304c-0.064,8.795-0.064,17.525-0.064,26.385
		C140.768,83.692,140.768,85.412,140.896,85.477z"/>
	<path fill="#FFFFFF" d="M189.752,61.897c6.309,0,9.494,4.778,9.494,10.132c0,0.512-2.677,0.765-3.441,0.765
		c-0.699,0-13.764-0.317-14.275-0.317c-0.317,0-0.317,1.401-0.317,2.294c0,6.818,4.716,10.515,9.495,10.515
		c5.098,0,8.03-4.143,8.222-4.143c0.19,0,1.02,0.766,1.02,0.957c0,0.382-4.59,5.989-11.025,5.989
		c-7.839,0-12.171-5.099-12.171-12.554C176.752,67.887,182.041,61.897,189.752,61.897z M182.294,71.392
		c0.319,0,6.82-0.126,10.006-0.255c2.358-0.062,2.55-0.127,2.55-0.254c0-6.246-3.822-7.584-5.862-7.584
		c-4.208,0-7.202,4.396-7.458,7.584C181.529,71.266,181.785,71.392,182.294,71.392z"/>
	<path fill="#FFFFFF" d="M205.988,81.526c0.383,0,0.447,0.826,1.211,1.72c1.275,1.53,2.867,3.186,5.927,3.186
		c2.166,0,4.205-1.273,4.205-4.141c0-2.997-2.677-4.398-5.671-5.672c-3.506-1.53-7.394-2.806-7.394-7.328
		c0-4.272,4.651-7.203,9.177-7.203c4.844,0,6.629,2.804,6.629,4.271c0,0.699-1.848,1.21-2.55,1.21c-1.466,0-0.765-4.143-4.907-4.143
		c-2.102,0-4.652,1.148-4.652,4.461c0,2.741,2.551,3.825,5.226,5.098c3.696,1.786,7.903,3.635,7.903,7.394
		c0,4.651-4.27,7.52-8.985,7.52c-3.888,0-8.03-1.975-8.03-3.949C204.076,82.928,205.478,81.526,205.988,81.526z"/>
	<path fill="#FFFFFF" d="M225.158,63.555c0.255-0.511,0.19-0.447,0.955-0.511c1.211-0.064,6.882-0.317,7.201-0.317
		c0.383,0,0.447,0.062,0.447,0.381v10.835c0,3.632,0,7.2,0.19,10.834c0,0.573,0,0.765,0.638,0.765h2.293
		c0.638,0,0.702,0.255,0.702,0.828s0,0.891-0.702,0.891c-1.211,0-3.759-0.126-5.352-0.126s-4.461,0.126-5.672,0.126
		c-0.701,0-0.701-0.19-0.701-0.891c0-0.573,0.064-0.828,0.893-0.828h2.612c0.7,0,0.7-0.129,0.7-0.765
		c0.064-1.849,0.064-3.696,0.064-5.609c0-4.461-0.064-8.985-0.256-13.638c-0.062-0.955-0.191-1.02-0.828-1.02
		c-0.191,0-2.931,0.127-3.186,0.127c-0.191,0-0.256-0.062-0.256-0.254C224.902,64.189,224.902,64.063,225.158,63.555z
		 M232.04,48.386c1.339,0,2.677,0.702,2.677,2.55c0,2.166-2.104,3.567-3.888,3.567c-1.337,0-2.612-0.828-2.612-2.612
		C228.217,49.597,230.512,48.386,232.04,48.386z"/>
	<path fill="#FFFFFF" d="M248.856,90.83c0.636-0.129,1.464-0.32,1.464-0.382c0-0.064-0.382-0.064-1.337-0.064h-3.633
		c-1.084,0-2.168-0.383-2.55-1.211c-0.509-1.211-0.573-2.357-0.573-3.06c0-1.146,0.317-1.848,1.146-2.039
		c1.595-0.382,2.806-0.702,4.845-1.275c0.638-0.19,2.422-0.637,2.422-0.764c0-0.064-0.573-0.127-1.211-0.317
		c-4.525-1.34-8.096-4.208-8.096-10.262c0-5.608,5.545-9.497,11.217-9.497c4.907,0,7.584,3.253,7.775,3.253
		c0.382,0,2.806-1.084,4.78-1.213c0.191,0,0.573,1.02,0.573,1.786c0,0.253-0.064,0.382-0.191,0.382
		c-0.764,0.062-3.761,0.638-3.761,0.891c0,0.385,0.829,1.786,0.829,4.59c0,5.416-2.804,7.966-7.329,9.686
		c-2.93,1.148-6.756,2.104-11.025,3.314c-0.19,0.064-0.253,0.32-0.253,0.573c0,0.767,0.635,1.849,0.891,1.913
		c8.095,0.511,21.096-0.318,21.096,7.901c0,6.5-5.801,10.579-14.022,10.579c-5.289,0-11.789-2.357-11.789-7.456
		C240.124,93.763,245.795,91.468,248.856,90.83z M251.851,103.959c4.778,0,10.452-1.786,10.452-7.393
		c0-3.697-6.438-5.099-11.09-5.099c-3.059,0-8.222,2.039-8.222,6.244C242.991,101.92,248.027,103.959,251.851,103.959z
		 M252.359,81.08c2.551,0,6.247-3.761,6.247-9.497c0-5.034-2.485-8.028-6.373-8.028c-3.633,0-6.82,3.441-6.82,7.646
		C245.413,77.447,250.767,81.08,252.359,81.08z"/>
	<path fill="#FFFFFF" d="M268.15,63.808c0.19-0.509,0.062-0.444,0.955-0.509c0.893-0.064,4.907-0.319,6.69-0.446
		c0.956-0.064,0.829,0.064,0.829,0.702v2.675c0,0.575,0.638-0.127,0.955-0.317c1.913-1.211,4.27-3.25,8.157-3.25
		c7.394,0,8.478,5.033,8.478,11.28c0,3.505-0.32,9.877-0.32,10.834c0,0.7,0.064,0.765,0.702,0.765h1.913
		c0.764,0,0.891,0.064,0.891,0.828c0,0.573,0,0.891-0.765,0.891c-1.21,0-2.932-0.126-4.78-0.126c-1.593,0-3.503,0.126-5.416,0.126
		c-0.893,0-0.893-0.126-0.893-0.828c0-0.765,0.19-0.891,0.828-0.891h2.359c0.638,0,0.638,0,0.699-0.702
		c0.129-1.528,0.256-4.461,0.256-11.217c0-4.587-1.211-8.283-6.118-8.283c-2.548,0-4.396,1.146-5.671,1.783
		c-1.02,0.511-1.148,0.894-1.148,1.467c0,5.225-0.062,10.514-0.062,15.741c0,1.02,0,1.211,0.828,1.211h2.293
		c0.767,0,0.828,0.255,0.828,0.828s0,0.891-0.828,0.891c-1.211,0-3.312-0.126-5.16-0.126c-1.593,0-3.697,0.126-5.609,0.126
		c-0.829,0-0.829-0.19-0.829-0.891c0-0.573,0.129-0.828,0.767-0.828h2.483c0.638,0,0.575-0.191,0.638-1.148
		c0.191-3.759,0.32-8.284,0.32-12.363c0-2.166,0-4.334-0.129-6.309c-0.062-0.955-0.127-0.894-0.765-0.894
		c-0.19,0-3.25,0.256-3.505,0.256c-0.191,0-0.191-0.064-0.191-0.256C267.83,64.637,268.021,64.128,268.15,63.808z"/>
</g>
<g>
	<path fill="#FFFFFF" d="M320.896,67.278l-6.42,3.297l4.032,3.634l-1.455,4.274l-7.375-6.642l0.066-0.2l11.718-5.985L320.896,67.278
		z"/>
	<path fill="#FFFFFF" d="M320.686,80.985l8.653-17.283h2.41l-8.642,17.283H320.686z"/>
	<path fill="#FFFFFF" d="M332.271,76.875l6.432-3.301l-4.043-3.644l1.478-4.274l7.364,6.643l-0.067,0.209l-11.718,5.976
		L332.271,76.875z"/>
</g>
</svg>
