<svg width="114px" height="91px" viewBox="0 0 114 91" version="1.1" xmlns="http://www.w3.org/2000/svg" xmlns:xlink="http://www.w3.org/1999/xlink">
    <g id="Page-1" stroke="none" stroke-width="1" fill="none" fill-rule="evenodd">
        <polyline id="Fill-1" fill="#444444" points="35.965 37.887 0 37.887 0 32 42.41 32 42.41 34 2 34 2 35.887 35.965 35.887 35.965 37.887"></polyline>
        <polyline id="Fill-2" fill="#444444" points="113.508 37.887 77.358 37.887 77.358 35.887 111.508 35.887 111.508 34 71 34 71 32 113.508 32 113.508 37.887"></polyline>
        <path d="M2,87.832 L111.682,87.832 L111.682,86 L2,86 L2,87.832 Z M0,89.832 L113.682,89.832 L113.682,84 L0,84 L0,89.832 Z" id="Fill-3" fill="#444444"></path>
        <path d="M23,55.838 L25.295,55.838 L25.295,49.148 C25.295,48.515 24.78,48 24.147,48 C23.514,48 23,48.515 23,49.148 L23,55.838 Z M27.295,57.838 L21,57.838 L21,49.148 C21,47.412 22.412,46 24.147,46 C25.883,46 27.295,47.412 27.295,49.148 L27.295,57.838 Z" id="Fill-4" fill="#444444"></path>
        <path d="M23,55.821 L25.295,55.821 L25.295,53 L23,53 L23,55.821 Z M21,57.821 L27.295,57.821 L27.295,51 L21,51 L21,57.821 Z" id="Fill-5" fill="#444444"></path>
        <path d="M23,72.838 L25.295,72.838 L25.295,65 L23,65 L23,72.838 Z M21,74.838 L27.295,74.838 L27.295,63 L21,63 L21,74.838 Z" id="Fill-6" fill="#444444"></path>
        <path d="M23,72.822 L25.295,72.822 L25.295,70.001 L23,70.001 L23,72.822 Z M21,74.821 L27.295,74.821 L27.295,68 L21,68 L21,74.821 Z" id="Fill-7" fill="#444444"></path>
        <path d="M89,55.838 L91.295,55.838 L91.295,49.148 C91.295,48.515 90.78,48 90.148,48 C89.515,48 89,48.515 89,49.148 L89,55.838 Z M93.295,57.838 L87,57.838 L87,49.148 C87,47.412 88.412,46 90.148,46 C91.883,46 93.295,47.412 93.295,49.148 L93.295,57.838 Z" id="Fill-8" fill="#444444"></path>
        <path d="M89,55.821 L91.296,55.821 L91.296,53 L89,53 L89,55.821 Z M87,57.821 L93.295,57.821 L93.295,51 L87,51 L87,57.821 Z" id="Fill-9" fill="#444444"></path>
        <path d="M89,72.838 L91.296,72.838 L91.296,65 L89,65 L89,72.838 Z M87,74.838 L93.295,74.838 L93.295,63 L87,63 L87,74.838 Z" id="Fill-10" fill="#444444"></path>
        <path d="M89,72.822 L91.296,72.822 L91.296,70.001 L89,70.001 L89,72.822 Z M87,74.821 L93.295,74.821 L93.295,68 L87,68 L87,74.821 Z" id="Fill-11" fill="#444444"></path>
        <path d="M50,56.8 L53.152,56.8 L53.152,47 L50,47 L50,56.8 Z M48,58.8 L55.152,58.8 L55.152,45 L48,45 L48,58.8 Z" id="Fill-12" fill="#444444"></path>
        <path d="M60,56.8 L63.152,56.8 L63.152,47 L60,47 L60,56.8 Z M58,58.8 L65.152,58.8 L65.152,45 L58,45 L58,58.8 Z" id="Fill-13" fill="#444444"></path>
        <polygon id="Fill-14" fill="#444444" points="3 85.25 5 85.25 5 37 3 37"></polygon>
        <polygon id="Fill-15" fill="#444444" points="109 85.25 111 85.25 111 37 109 37"></polygon>
        <polygon id="Fill-16" fill="#444444" points="44 65 69.65 65 69.65 63 44 63"></polygon>
        <polygon id="Fill-17" fill="#444444" points="44 41 69.65 41 69.65 39 44 39"></polygon>
        <path d="M40,84.007 L42.868,84.007 L42.868,41 L40,41 L40,84.007 Z M38,86.007 L44.868,86.007 L44.868,39 L38,39 L38,86.007 Z" id="Fill-18" fill="#444444"></path>
        <path d="M70,84.007 L72.868,84.007 L72.868,41 L70,41 L70,84.007 Z M68,86.007 L74.868,86.007 L74.868,39 L68,39 L68,86.007 Z" id="Fill-19" fill="#444444"></path>
        <path d="M52,83.705 L60.581,83.705 L60.581,72.523 C60.581,71.132 59.449,69.999 58.057,69.999 L54.525,69.999 C53.133,69.999 52,71.132 52,72.523 L52,83.705 Z M62.581,85.705 L50,85.705 L50,72.523 C50,70.029 52.03,68 54.525,68 L58.057,68 C60.552,68 62.581,70.029 62.581,72.523 L62.581,85.705 Z" id="Fill-20" fill="#444444"></path>
        <polyline id="Fill-21" fill="#444444" points="108.7 33.292 100.33 16 83.374 16 81.422 20.031 32.034 20.031 30.12 16 13.169 16 4.8 33.292 3 32.421 11.915 14 31.385 14 33.299 18.031 80.168 18.031 82.12 14 101.584 14 110.499 32.421 108.7 33.292"></polyline>
        <path d="M5,39.476 L8.517,39.476 L8.517,38 L5,38 L5,39.476 Z M3,41.476 L10.517,41.476 L10.517,36 L3,36 L3,41.476 Z" id="Fill-22" fill="#444444"></path>
        <path d="M5,46.475 L8.517,46.475 L8.517,44.999 L5,44.999 L5,46.475 Z M3,48.476 L10.517,48.476 L10.517,43 L3,43 L3,48.476 Z" id="Fill-23" fill="#444444"></path>
        <path d="M5,54.476 L8.517,54.476 L8.517,53 L5,53 L5,54.476 Z M3,56.476 L10.517,56.476 L10.517,51 L3,51 L3,56.476 Z" id="Fill-24" fill="#444444"></path>
        <path d="M5,61.475 L8.517,61.475 L8.517,60 L5,60 L5,61.475 Z M3,63.475 L10.517,63.475 L10.517,58 L3,58 L3,63.475 Z" id="Fill-25" fill="#444444"></path>
        <path d="M5,69.476 L8.517,69.476 L8.517,68 L5,68 L5,69.476 Z M3,71.476 L10.517,71.476 L10.517,66 L3,66 L3,71.476 Z" id="Fill-26" fill="#444444"></path>
        <path d="M5,76.475 L8.517,76.475 L8.517,74.999 L5,74.999 L5,76.475 Z M3,78.476 L10.517,78.476 L10.517,73 L3,73 L3,78.476 Z" id="Fill-27" fill="#444444"></path>
        <path d="M5,84.476 L8.517,84.476 L8.517,83 L5,83 L5,84.476 Z M3,86.476 L10.517,86.476 L10.517,81 L3,81 L3,86.476 Z" id="Fill-28" fill="#444444"></path>
        <path d="M105,39.476 L108.516,39.476 L108.516,38 L105,38 L105,39.476 Z M103,41.476 L110.516,41.476 L110.516,36 L103,36 L103,41.476 Z" id="Fill-29" fill="#444444"></path>
        <path d="M105,46.475 L108.516,46.475 L108.516,44.999 L105,44.999 L105,46.475 Z M103,48.476 L110.516,48.476 L110.516,43 L103,43 L103,48.476 Z" id="Fill-30" fill="#444444"></path>
        <path d="M105,54.476 L108.516,54.476 L108.516,53 L105,53 L105,54.476 Z M103,56.476 L110.516,56.476 L110.516,51 L103,51 L103,56.476 Z" id="Fill-31" fill="#444444"></path>
        <path d="M105,61.475 L108.516,61.475 L108.516,60 L105,60 L105,61.475 Z M103,63.475 L110.516,63.475 L110.516,58 L103,58 L103,63.475 Z" id="Fill-32" fill="#444444"></path>
        <path d="M105,69.476 L108.516,69.476 L108.516,68 L105,68 L105,69.476 Z M103,71.476 L110.516,71.476 L110.516,66 L103,66 L103,71.476 Z" id="Fill-33" fill="#444444">
</path>
        <path d="M105,76.475 L108.516,76.475 L108.516,74.999 L105,74.999 L105,76.475 Z M103,78.476 L110.516,78.476 L110.516,73 L103,73 L103,78.476 Z" id="Fill-34" fill="#444444"></path>
        <path d="M105,84.476 L108.516,84.476 L108.516,83 L105,83 L105,84.476 Z M103,86.476 L110.516,86.476 L110.516,81 L103,81 L103,86.476 Z" id="Fill-35" fill="#444444"></path>
        <path d="M75.091,38.802 L76.188,38.802 L76.188,37.143 L56.594,24.387 L37,37.143 L37,38.802 L38.097,38.802 L56.594,26.76 L75.091,38.802 Z M78.188,40.802 L74.497,40.802 L56.594,29.147 L38.691,40.802 L35,40.802 L35,36.059 L56.594,22 L78.188,36.059 L78.188,40.802 Z" id="Fill-36" fill="#444444"></path>
        <path d="M56.672,34 C56.301,34 56,34.302 56,34.672 C56,35.043 56.301,35.345 56.672,35.345 C57.042,35.345 57.344,35.043 57.344,34.672 C57.344,34.302 57.042,34 56.672,34 Z M56.672,37.345 C55.199,37.345 54,36.146 54,34.672 C54,33.199 55.199,32 56.672,32 C58.145,32 59.344,33.199 59.344,34.672 C59.344,36.146 58.145,37.345 56.672,37.345 Z" id="Fill-37" fill="#444444"></path>
        <polygon id="Fill-38" fill="#444444" points="56 85.42 58 85.42 58 70 56 70"></polygon>
        <path d="M48,90.204 C47.448,90.204 47,89.756 47,89.204 L47,80 C47,79.447 47.448,79 48,79 C48.553,79 49,79.447 49,80 L49,89.204 C49,89.756 48.553,90.204 48,90.204" id="Fill-39" fill="#444444"></path>
        <path d="M65,90.204 C64.448,90.204 64,89.756 64,89.204 L64,80 C64,79.447 64.448,79 65,79 C65.553,79 66,79.447 66,80 L66,89.204 C66,89.756 65.553,90.204 65,90.204" id="Fill-40" fill="#444444"></path>
        <path d="M57,19.313 C56.448,19.313 56,18.865 56,18.313 L56,1 C56,0.448 56.448,0 57,0 C57.552,0 58,0.448 58,1 L58,18.313 C58,18.865 57.552,19.313 57,19.313" id="Fill-41" fill="#444444"></path>
        <path d="M67.2419951,11.0009392 C66.0699951,11.0009392 64.7709951,10.7859392 63.5249951,10.1339392 C60.7489951,8.68493918 57.4469951,10.1439392 57.4129951,10.1589392 C56.9119951,10.3849392 56.3189951,10.1629392 56.0899951,9.66093918 C55.8619951,9.15893918 56.0819951,8.56793918 56.5829951,8.33893918 C56.7539951,8.26093918 60.7959951,6.45193918 64.4499951,8.36193918 C66.5339951,9.44993918 68.8989951,8.90693918 69.9759951,8.55593918 L69.9759951,4.14893918 C68.4779951,4.54193918 65.9059951,4.89093918 63.5249951,3.64493918 C60.7489951,2.19693918 57.4469951,3.65493918 57.4129951,3.66993918 C56.9119951,3.89593918 56.3189951,3.67393918 56.0899951,3.17193918 C55.8619951,2.66993918 56.0819951,2.07893918 56.5829951,1.84993918 C56.7539951,1.77093918 60.7959951,-0.0370608155 64.4499951,1.87293918 C66.6269951,3.00993918 69.1219951,2.35893918 70.0939951,2.02693918 C70.5269951,1.87793918 71.0079951,1.94893918 71.3809951,2.21493918 C71.7529951,2.48193918 71.9759951,2.91493918 71.9759951,3.37493918 L71.9759951,8.96293918 C71.9759951,9.55893918 71.6159951,10.0809392 71.0589951,10.2929392 C70.4719951,10.5179392 68.9989951,11.0009392 67.2419951,11.0009392" id="Fill-43" fill="#444444"></path>
    </g>
</svg>
